<?xml version="1.0" encoding="utf-8"?>
<!-- Generator: Adobe Illustrator 25.2.1, SVG Export Plug-In . SVG Version: 6.00 Build 0)  -->
<svg version="1.1" id="Camada_1" xmlns="http://www.w3.org/2000/svg" xmlns:xlink="http://www.w3.org/1999/xlink" x="0px" y="0px"
	 viewBox="0 0 43.1 34.3" style="enable-background:new 0 0 43.1 34.3;" xml:space="preserve">
<g>
	<path d="M18.5,0.6L12,24.3l-2.2-8.9c2.8,0,5.1,0.8,6.9,2.5c1.8,1.6,2.7,3.9,2.7,6.8c0,2.8-0.9,5.1-2.7,6.8
		c-1.8,1.7-4.1,2.6-6.8,2.6c-2.8,0-5-0.9-6.9-2.6c-1.8-1.7-2.7-4-2.7-6.8c0-0.9,0.1-1.7,0.2-2.5c0.1-0.8,0.4-1.8,0.8-2.9
		c0.4-1.1,1-2.6,1.7-4.4L8.7,0.6H18.5z M41.7,0.6l-6.5,23.7l-2.2-8.9c2.8,0,5.1,0.8,6.9,2.5c1.8,1.6,2.7,3.9,2.7,6.8
		c0,2.8-0.9,5.1-2.7,6.8c-1.8,1.7-4.1,2.6-6.8,2.6c-2.8,0-5-0.9-6.8-2.6c-1.8-1.7-2.7-4-2.7-6.8c0-0.9,0.1-1.7,0.2-2.5
		c0.1-0.8,0.4-1.8,0.8-2.9c0.4-1.1,1-2.6,1.7-4.4L32,0.6H41.7z"/>
</g>
<g>
</g>
<g>
</g>
<g>
</g>
<g>
</g>
<g>
</g>
<g>
</g>
<g>
</g>
<g>
</g>
<g>
</g>
<g>
</g>
<g>
</g>
<g>
</g>
<g>
</g>
<g>
</g>
<g>
</g>
</svg>
