<?xml version="1.0" encoding="utf-8"?>
<!-- Generator: Adobe Illustrator 25.2.1, SVG Export Plug-In . SVG Version: 6.00 Build 0)  -->
<svg version="1.1" id="Camada_1" xmlns="http://www.w3.org/2000/svg" xmlns:xlink="http://www.w3.org/1999/xlink" x="0px" y="0px"
	 viewBox="0 0 43.1 34.3" style="enable-background:new 0 0 43.1 34.3;" xml:space="preserve">
<g>
	<path d="M1.5,34.1L8,10.5l2.2,9c-2.8,0-5.1-0.8-6.9-2.5c-1.8-1.7-2.7-4-2.7-6.8c0-2.8,0.9-5.1,2.8-6.9C5.1,1.5,7.3,0.6,10,0.6
		c2.8,0,5,0.9,6.8,2.6c1.8,1.7,2.7,4,2.7,6.9c0,0.9,0,1.7-0.1,2.5c-0.1,0.8-0.3,1.8-0.7,2.9c-0.4,1.1-0.9,2.6-1.7,4.4l-5.7,14.2H1.5
		z M24.7,34.1l6.5-23.7l2.2,9c-2.8,0-5.1-0.8-6.9-2.5c-1.8-1.7-2.7-4-2.7-6.8c0-2.8,0.9-5.1,2.8-6.9c1.8-1.7,4.1-2.6,6.8-2.6
		c2.8,0,5,0.9,6.8,2.6c1.8,1.7,2.7,4,2.7,6.9c0,0.9,0,1.7-0.1,2.5c-0.1,0.8-0.3,1.8-0.7,2.9c-0.4,1.1-0.9,2.6-1.7,4.4l-5.7,14.2
		H24.7z"/>
</g>
<g>
</g>
<g>
</g>
<g>
</g>
<g>
</g>
<g>
</g>
<g>
</g>
<g>
</g>
<g>
</g>
<g>
</g>
<g>
</g>
<g>
</g>
<g>
</g>
<g>
</g>
<g>
</g>
<g>
</g>
</svg>
