<?xml version="1.0" encoding="utf-8"?>
<!-- Generator: Adobe Illustrator 25.2.1, SVG Export Plug-In . SVG Version: 6.00 Build 0)  -->
<svg version="1.1" id="Camada_1" xmlns="http://www.w3.org/2000/svg" xmlns:xlink="http://www.w3.org/1999/xlink" x="0px" y="0px"
	 viewBox="0 0 182.3 173.2" style="enable-background:new 0 0 182.3 173.2;" xml:space="preserve">
<style type="text/css">
	.st0{fill:url(#SVGID_1_);}
	.st1{fill:#FFFFFF;}
</style>
<linearGradient id="SVGID_1_" gradientUnits="userSpaceOnUse" x1="0" y1="86.6062" x2="182.3438" y2="86.6062">
	<stop  offset="0" style="stop-color:#72CC85"/>
	<stop  offset="0.9637" style="stop-color:#54C076"/>
</linearGradient>
<path class="st0" d="M51.4,173.2H131c28.4,0,51.4-23,51.4-51.4V51.4C182.3,23,159.3,0,131,0L51.4,0C23,0,0,23,0,51.4l0,70.4
	C0,150.2,23,173.2,51.4,173.2z"/>
<g>
	<g>
		<path class="st1" d="M53.9,120.1l31.2-70h16l31.3,70h-17L89.8,58.3h6.4l-25.7,61.8H53.9z M69.5,105.1l4.3-12.3h36l4.4,12.3H69.5z"
			/>
	</g>
</g>
<g>
</g>
<g>
</g>
<g>
</g>
<g>
</g>
<g>
</g>
<g>
</g>
<g>
</g>
<g>
</g>
<g>
</g>
<g>
</g>
<g>
</g>
<g>
</g>
<g>
</g>
<g>
</g>
<g>
</g>
</svg>
