<?xml version="1.0" encoding="utf-8"?>
<!-- Generator: Adobe Illustrator 25.2.1, SVG Export Plug-In . SVG Version: 6.00 Build 0)  -->
<svg version="1.1" id="Camada_1" xmlns="http://www.w3.org/2000/svg" xmlns:xlink="http://www.w3.org/1999/xlink" x="0px" y="0px"
	 viewBox="0 0 182.3 173.2" style="enable-background:new 0 0 182.3 173.2;" xml:space="preserve">
<style type="text/css">
	.st0{fill:url(#SVGID_1_);}
	.st1{fill:#54C076;}
</style>
<linearGradient id="SVGID_1_" gradientUnits="userSpaceOnUse" x1="17.3348" y1="160.4433" x2="165.009" y2="12.7692">
	<stop  offset="0" style="stop-color:#FFFFFF"/>
	<stop  offset="1" style="stop-color:#DCE1E2"/>
</linearGradient>
<path class="st0" d="M51.4,173.2H131c28.4,0,51.4-23,51.4-51.4V51.4C182.3,23,159.3,0,131,0L51.4,0C23,0,0,23,0,51.4l0,70.4
	C0,150.2,23,173.2,51.4,173.2z"/>
<g>
	<g>
		<path class="st1" d="M64.8,120.1v-70h30.3c6.3,0,11.7,1,16.2,3c4.5,2,8,4.9,10.5,8.7c2.5,3.8,3.7,8.3,3.7,13.6
			c0,5.2-1.2,9.7-3.7,13.5c-2.5,3.8-6,6.7-10.5,8.7c-4.5,2-9.9,3-16.2,3H73.8l7.2-7.3v26.6H64.8z M81,95.3l-7.2-7.7h20.4
			c5,0,8.7-1.1,11.2-3.2c2.5-2.1,3.7-5.1,3.7-8.9c0-3.9-1.2-6.9-3.7-9c-2.5-2.1-6.2-3.2-11.2-3.2H73.8l7.2-7.7V95.3z"/>
	</g>
</g>
<g>
</g>
<g>
</g>
<g>
</g>
<g>
</g>
<g>
</g>
<g>
</g>
<g>
</g>
<g>
</g>
<g>
</g>
<g>
</g>
<g>
</g>
<g>
</g>
<g>
</g>
<g>
</g>
<g>
</g>
</svg>
