<?xml version="1.0" encoding="utf-8"?>
<!-- Generator: Adobe Illustrator 25.2.1, SVG Export Plug-In . SVG Version: 6.00 Build 0)  -->
<svg version="1.1" id="Camada_1" xmlns="http://www.w3.org/2000/svg" xmlns:xlink="http://www.w3.org/1999/xlink" x="0px" y="0px"
	 viewBox="0 0 50.2 50.2" style="enable-background:new 0 0 50.2 50.2;" xml:space="preserve">
<style type="text/css">
	.st0{fill:url(#SVGID_1_);stroke:#FFFFFF;stroke-width:4;stroke-miterlimit:10;}
	.st1{fill:#FFFFFF;}
</style>
<g>
	<linearGradient id="SVGID_1_" gradientUnits="userSpaceOnUse" x1="2" y1="25.0951" x2="48.1902" y2="25.0951">
		<stop  offset="0" style="stop-color:#00CE80"/>
		<stop  offset="0.6642" style="stop-color:#00AE80"/>
		<stop  offset="1" style="stop-color:#009C80"/>
	</linearGradient>
	<circle class="st0" cx="25.1" cy="25.1" r="23.1"/>
	<g>
		<path class="st1" d="M17.8,33.5v-3.4l7.3-6.8c0.5-0.5,0.9-0.9,1.1-1.3c0.2-0.4,0.4-0.7,0.5-1c0.1-0.3,0.1-0.6,0.1-0.8
			c0-0.6-0.2-1.1-0.6-1.5c-0.4-0.4-1-0.5-1.9-0.5c-0.7,0-1.4,0.2-2,0.5s-1.1,0.8-1.5,1.4l-4.1-2.3c0.7-1.2,1.8-2.2,3.1-2.9
			c1.4-0.7,3-1.1,4.9-1.1c1.5,0,2.8,0.2,3.9,0.7c1.1,0.5,2,1.2,2.6,2.1c0.6,0.9,1,1.9,1,3.1c0,0.6-0.1,1.3-0.2,1.9
			c-0.2,0.6-0.5,1.3-1,2c-0.5,0.7-1.2,1.5-2.1,2.3l-5.8,5.3l-0.9-1.9h10.5v4.4H17.8z"/>
	</g>
</g>
<g>
</g>
<g>
</g>
<g>
</g>
<g>
</g>
<g>
</g>
<g>
</g>
<g>
</g>
<g>
</g>
<g>
</g>
<g>
</g>
<g>
</g>
<g>
</g>
<g>
</g>
<g>
</g>
<g>
</g>
</svg>
