<?xml version="1.0" encoding="utf-8"?>
<!-- Generator: Adobe Illustrator 25.2.1, SVG Export Plug-In . SVG Version: 6.00 Build 0)  -->
<svg version="1.1" id="Camada_1" xmlns="http://www.w3.org/2000/svg" xmlns:xlink="http://www.w3.org/1999/xlink" x="0px" y="0px"
	 viewBox="0 0 50.2 50.2" style="enable-background:new 0 0 50.2 50.2;" xml:space="preserve">
<style type="text/css">
	.st0{fill:url(#SVGID_1_);stroke:#FFFFFF;stroke-width:4;stroke-miterlimit:10;}
	.st1{fill:#FFFFFF;}
</style>
<g>
	<linearGradient id="SVGID_1_" gradientUnits="userSpaceOnUse" x1="2" y1="25.0951" x2="48.1902" y2="25.0951">
		<stop  offset="0" style="stop-color:#00FF80"/>
		<stop  offset="1" style="stop-color:#00CE80"/>
	</linearGradient>
	<circle class="st0" cx="25.1" cy="25.1" r="23.1"/>
	<g>
		<path class="st1" d="M24.9,33.9c-1.3,0-2.7-0.2-4-0.5s-2.5-0.8-3.5-1.4l2-4.1c0.8,0.5,1.6,0.9,2.6,1.2c1,0.3,1.9,0.4,2.8,0.4
			c0.9,0,1.7-0.2,2.2-0.5s0.8-0.8,0.8-1.5c0-0.6-0.2-1-0.7-1.4s-1.2-0.5-2.3-0.5h-2.3v-3.5l5.2-5.6l0.5,1.9h-9.9v-4.2h14v3.4
			l-5.2,5.6l-2.7-1.5h1.5c2.4,0,4.3,0.5,5.5,1.6s1.9,2.5,1.9,4.2c0,1.1-0.3,2.2-0.9,3.1c-0.6,1-1.5,1.8-2.8,2.4S26.8,33.9,24.9,33.9
			z"/>
	</g>
</g>
<g>
</g>
<g>
</g>
<g>
</g>
<g>
</g>
<g>
</g>
<g>
</g>
<g>
</g>
<g>
</g>
<g>
</g>
<g>
</g>
<g>
</g>
<g>
</g>
<g>
</g>
<g>
</g>
<g>
</g>
</svg>
