<?xml version="1.0" encoding="utf-8"?>
<!-- Generator: Adobe Illustrator 25.2.1, SVG Export Plug-In . SVG Version: 6.00 Build 0)  -->
<svg version="1.1" id="Camada_1" xmlns="http://www.w3.org/2000/svg" xmlns:xlink="http://www.w3.org/1999/xlink" x="0px" y="0px"
	 viewBox="0 0 414 414" style="enable-background:new 0 0 414 414;" xml:space="preserve">
<style type="text/css">
	.st0{fill:#54C076;}
</style>
<g>
	<g>
		<g>
			<path class="st0" d="M5.3,10.5c2.9,0,5.3-2.4,5.3-5.3C10.5,2.4,8.2,0,5.3,0C2.4,0,0,2.4,0,5.3C0,8.2,2.4,10.5,5.3,10.5z"/>
			<path class="st0" d="M5.3,50.9c2.9,0,5.3-2.4,5.3-5.3c0-2.9-2.4-5.3-5.3-5.3c-2.9,0-5.3,2.4-5.3,5.3C0,48.5,2.4,50.9,5.3,50.9z"
				/>
			<path class="st0" d="M5.3,91.2c2.9,0,5.3-2.4,5.3-5.3c0-2.9-2.4-5.3-5.3-5.3C2.4,80.7,0,83.1,0,86C0,88.9,2.4,91.2,5.3,91.2z"/>
			<path class="st0" d="M5.3,131.6c2.9,0,5.3-2.4,5.3-5.3c0-2.9-2.4-5.3-5.3-5.3c-2.9,0-5.3,2.4-5.3,5.3
				C0,129.2,2.4,131.6,5.3,131.6z"/>
			<path class="st0" d="M5.3,171.9c2.9,0,5.3-2.4,5.3-5.3c0-2.9-2.4-5.3-5.3-5.3c-2.9,0-5.3,2.4-5.3,5.3
				C0,169.6,2.4,171.9,5.3,171.9z"/>
			<path class="st0" d="M5.3,212.3c2.9,0,5.3-2.4,5.3-5.3c0-2.9-2.4-5.3-5.3-5.3c-2.9,0-5.3,2.4-5.3,5.3
				C0,209.9,2.4,212.3,5.3,212.3z"/>
			<path class="st0" d="M5.3,252.6c2.9,0,5.3-2.4,5.3-5.3c0-2.9-2.4-5.3-5.3-5.3c-2.9,0-5.3,2.4-5.3,5.3
				C0,250.3,2.4,252.6,5.3,252.6z"/>
			<path class="st0" d="M5.3,293c2.9,0,5.3-2.4,5.3-5.3c0-2.9-2.4-5.3-5.3-5.3c-2.9,0-5.3,2.4-5.3,5.3C0,290.6,2.4,293,5.3,293z"/>
			<path class="st0" d="M5.3,333.3c2.9,0,5.3-2.4,5.3-5.3c0-2.9-2.4-5.3-5.3-5.3c-2.9,0-5.3,2.4-5.3,5.3C0,331,2.4,333.3,5.3,333.3z
				"/>
			<path class="st0" d="M5.3,373.7c2.9,0,5.3-2.4,5.3-5.3c0-2.9-2.4-5.3-5.3-5.3c-2.9,0-5.3,2.4-5.3,5.3
				C0,371.3,2.4,373.7,5.3,373.7z"/>
			<path class="st0" d="M5.3,414c2.9,0,5.3-2.4,5.3-5.3c0-2.9-2.4-5.3-5.3-5.3c-2.9,0-5.3,2.4-5.3,5.3C0,411.7,2.4,414,5.3,414z"/>
		</g>
		<g>
			<path class="st0" d="M45.6,10.5c2.9,0,5.3-2.4,5.3-5.3c0-2.9-2.4-5.3-5.3-5.3c-2.9,0-5.3,2.4-5.3,5.3
				C40.4,8.2,42.7,10.5,45.6,10.5z"/>
			<path class="st0" d="M45.6,50.9c2.9,0,5.3-2.4,5.3-5.3c0-2.9-2.4-5.3-5.3-5.3c-2.9,0-5.3,2.4-5.3,5.3
				C40.4,48.5,42.7,50.9,45.6,50.9z"/>
			<path class="st0" d="M45.6,91.2c2.9,0,5.3-2.4,5.3-5.3c0-2.9-2.4-5.3-5.3-5.3c-2.9,0-5.3,2.4-5.3,5.3
				C40.4,88.9,42.7,91.2,45.6,91.2z"/>
			<path class="st0" d="M45.6,131.6c2.9,0,5.3-2.4,5.3-5.3c0-2.9-2.4-5.3-5.3-5.3c-2.9,0-5.3,2.4-5.3,5.3
				C40.4,129.2,42.7,131.6,45.6,131.6z"/>
			<path class="st0" d="M45.6,171.9c2.9,0,5.3-2.4,5.3-5.3c0-2.9-2.4-5.3-5.3-5.3c-2.9,0-5.3,2.4-5.3,5.3
				C40.4,169.6,42.7,171.9,45.6,171.9z"/>
			<path class="st0" d="M45.6,212.3c2.9,0,5.3-2.4,5.3-5.3c0-2.9-2.4-5.3-5.3-5.3c-2.9,0-5.3,2.4-5.3,5.3
				C40.4,209.9,42.7,212.3,45.6,212.3z"/>
			<path class="st0" d="M45.6,252.6c2.9,0,5.3-2.4,5.3-5.3c0-2.9-2.4-5.3-5.3-5.3c-2.9,0-5.3,2.4-5.3,5.3
				C40.4,250.3,42.7,252.6,45.6,252.6z"/>
			<path class="st0" d="M45.6,293c2.9,0,5.3-2.4,5.3-5.3c0-2.9-2.4-5.3-5.3-5.3c-2.9,0-5.3,2.4-5.3,5.3
				C40.4,290.6,42.7,293,45.6,293z"/>
			<path class="st0" d="M45.6,333.3c2.9,0,5.3-2.4,5.3-5.3c0-2.9-2.4-5.3-5.3-5.3c-2.9,0-5.3,2.4-5.3,5.3
				C40.4,331,42.7,333.3,45.6,333.3z"/>
			<path class="st0" d="M45.6,373.7c2.9,0,5.3-2.4,5.3-5.3c0-2.9-2.4-5.3-5.3-5.3c-2.9,0-5.3,2.4-5.3,5.3
				C40.4,371.3,42.7,373.7,45.6,373.7z"/>
			<path class="st0" d="M45.6,414c2.9,0,5.3-2.4,5.3-5.3c0-2.9-2.4-5.3-5.3-5.3c-2.9,0-5.3,2.4-5.3,5.3
				C40.4,411.7,42.7,414,45.6,414z"/>
		</g>
		<g>
			<path class="st0" d="M86,10.5c2.9,0,5.3-2.4,5.3-5.3C91.2,2.4,88.9,0,86,0c-2.9,0-5.3,2.4-5.3,5.3C80.7,8.2,83.1,10.5,86,10.5z"
				/>
			<path class="st0" d="M86,50.9c2.9,0,5.3-2.4,5.3-5.3c0-2.9-2.4-5.3-5.3-5.3c-2.9,0-5.3,2.4-5.3,5.3C80.7,48.5,83.1,50.9,86,50.9z
				"/>
			<path class="st0" d="M86,91.2c2.9,0,5.3-2.4,5.3-5.3c0-2.9-2.4-5.3-5.3-5.3c-2.9,0-5.3,2.4-5.3,5.3C80.7,88.9,83.1,91.2,86,91.2z
				"/>
			<path class="st0" d="M86,131.6c2.9,0,5.3-2.4,5.3-5.3c0-2.9-2.4-5.3-5.3-5.3c-2.9,0-5.3,2.4-5.3,5.3
				C80.7,129.2,83.1,131.6,86,131.6z"/>
			<path class="st0" d="M86,171.9c2.9,0,5.3-2.4,5.3-5.3c0-2.9-2.4-5.3-5.3-5.3c-2.9,0-5.3,2.4-5.3,5.3
				C80.7,169.6,83.1,171.9,86,171.9z"/>
			<path class="st0" d="M86,212.3c2.9,0,5.3-2.4,5.3-5.3c0-2.9-2.4-5.3-5.3-5.3c-2.9,0-5.3,2.4-5.3,5.3
				C80.7,209.9,83.1,212.3,86,212.3z"/>
			<path class="st0" d="M86,252.6c2.9,0,5.3-2.4,5.3-5.3c0-2.9-2.4-5.3-5.3-5.3c-2.9,0-5.3,2.4-5.3,5.3
				C80.7,250.3,83.1,252.6,86,252.6z"/>
			<path class="st0" d="M86,293c2.9,0,5.3-2.4,5.3-5.3c0-2.9-2.4-5.3-5.3-5.3c-2.9,0-5.3,2.4-5.3,5.3C80.7,290.6,83.1,293,86,293z"
				/>
			<path class="st0" d="M86,333.3c2.9,0,5.3-2.4,5.3-5.3c0-2.9-2.4-5.3-5.3-5.3c-2.9,0-5.3,2.4-5.3,5.3
				C80.7,331,83.1,333.3,86,333.3z"/>
			<path class="st0" d="M86,373.7c2.9,0,5.3-2.4,5.3-5.3c0-2.9-2.4-5.3-5.3-5.3c-2.9,0-5.3,2.4-5.3,5.3
				C80.7,371.3,83.1,373.7,86,373.7z"/>
			<path class="st0" d="M86,414c2.9,0,5.3-2.4,5.3-5.3c0-2.9-2.4-5.3-5.3-5.3c-2.9,0-5.3,2.4-5.3,5.3C80.7,411.7,83.1,414,86,414z"
				/>
		</g>
		<g>
			<path class="st0" d="M126.3,10.5c2.9,0,5.3-2.4,5.3-5.3c0-2.9-2.4-5.3-5.3-5.3c-2.9,0-5.3,2.4-5.3,5.3
				C121,8.2,123.4,10.5,126.3,10.5z"/>
			<path class="st0" d="M126.3,50.9c2.9,0,5.3-2.4,5.3-5.3c0-2.9-2.4-5.3-5.3-5.3c-2.9,0-5.3,2.4-5.3,5.3
				C121,48.5,123.4,50.9,126.3,50.9z"/>
			<path class="st0" d="M126.3,91.2c2.9,0,5.3-2.4,5.3-5.3c0-2.9-2.4-5.3-5.3-5.3c-2.9,0-5.3,2.4-5.3,5.3
				C121,88.9,123.4,91.2,126.3,91.2z"/>
			<path class="st0" d="M126.3,131.6c2.9,0,5.3-2.4,5.3-5.3c0-2.9-2.4-5.3-5.3-5.3c-2.9,0-5.3,2.4-5.3,5.3
				C121,129.2,123.4,131.6,126.3,131.6z"/>
			<path class="st0" d="M126.3,171.9c2.9,0,5.3-2.4,5.3-5.3c0-2.9-2.4-5.3-5.3-5.3c-2.9,0-5.3,2.4-5.3,5.3
				C121,169.6,123.4,171.9,126.3,171.9z"/>
			<path class="st0" d="M126.3,212.3c2.9,0,5.3-2.4,5.3-5.3c0-2.9-2.4-5.3-5.3-5.3c-2.9,0-5.3,2.4-5.3,5.3
				C121,209.9,123.4,212.3,126.3,212.3z"/>
			<path class="st0" d="M126.3,252.6c2.9,0,5.3-2.4,5.3-5.3c0-2.9-2.4-5.3-5.3-5.3c-2.9,0-5.3,2.4-5.3,5.3
				C121,250.3,123.4,252.6,126.3,252.6z"/>
			<path class="st0" d="M126.3,293c2.9,0,5.3-2.4,5.3-5.3c0-2.9-2.4-5.3-5.3-5.3c-2.9,0-5.3,2.4-5.3,5.3
				C121,290.6,123.4,293,126.3,293z"/>
			<path class="st0" d="M126.3,333.3c2.9,0,5.3-2.4,5.3-5.3c0-2.9-2.4-5.3-5.3-5.3c-2.9,0-5.3,2.4-5.3,5.3
				C121,331,123.4,333.3,126.3,333.3z"/>
			<path class="st0" d="M126.3,373.7c2.9,0,5.3-2.4,5.3-5.3c0-2.9-2.4-5.3-5.3-5.3c-2.9,0-5.3,2.4-5.3,5.3
				C121,371.3,123.4,373.7,126.3,373.7z"/>
			<path class="st0" d="M126.3,414c2.9,0,5.3-2.4,5.3-5.3c0-2.9-2.4-5.3-5.3-5.3c-2.9,0-5.3,2.4-5.3,5.3
				C121,411.7,123.4,414,126.3,414z"/>
		</g>
		<g>
			<path class="st0" d="M166.7,10.5c2.9,0,5.3-2.4,5.3-5.3c0-2.9-2.4-5.3-5.3-5.3c-2.9,0-5.3,2.4-5.3,5.3
				C161.4,8.2,163.8,10.5,166.7,10.5z"/>
			<path class="st0" d="M166.7,50.9c2.9,0,5.3-2.4,5.3-5.3c0-2.9-2.4-5.3-5.3-5.3c-2.9,0-5.3,2.4-5.3,5.3
				C161.4,48.5,163.8,50.9,166.7,50.9z"/>
			<path class="st0" d="M166.7,91.2c2.9,0,5.3-2.4,5.3-5.3c0-2.9-2.4-5.3-5.3-5.3c-2.9,0-5.3,2.4-5.3,5.3
				C161.4,88.9,163.8,91.2,166.7,91.2z"/>
			<path class="st0" d="M166.7,131.6c2.9,0,5.3-2.4,5.3-5.3c0-2.9-2.4-5.3-5.3-5.3c-2.9,0-5.3,2.4-5.3,5.3
				C161.4,129.2,163.8,131.6,166.7,131.6z"/>
			<path class="st0" d="M166.7,171.9c2.9,0,5.3-2.4,5.3-5.3c0-2.9-2.4-5.3-5.3-5.3c-2.9,0-5.3,2.4-5.3,5.3
				C161.4,169.6,163.8,171.9,166.7,171.9z"/>
			<path class="st0" d="M166.7,212.3c2.9,0,5.3-2.4,5.3-5.3c0-2.9-2.4-5.3-5.3-5.3c-2.9,0-5.3,2.4-5.3,5.3
				C161.4,209.9,163.8,212.3,166.7,212.3z"/>
			<path class="st0" d="M166.7,252.6c2.9,0,5.3-2.4,5.3-5.3c0-2.9-2.4-5.3-5.3-5.3c-2.9,0-5.3,2.4-5.3,5.3
				C161.4,250.3,163.8,252.6,166.7,252.6z"/>
			<path class="st0" d="M166.7,293c2.9,0,5.3-2.4,5.3-5.3c0-2.9-2.4-5.3-5.3-5.3c-2.9,0-5.3,2.4-5.3,5.3
				C161.4,290.6,163.8,293,166.7,293z"/>
			<path class="st0" d="M166.7,333.3c2.9,0,5.3-2.4,5.3-5.3c0-2.9-2.4-5.3-5.3-5.3c-2.9,0-5.3,2.4-5.3,5.3
				C161.4,331,163.8,333.3,166.7,333.3z"/>
			<path class="st0" d="M166.7,373.7c2.9,0,5.3-2.4,5.3-5.3c0-2.9-2.4-5.3-5.3-5.3c-2.9,0-5.3,2.4-5.3,5.3
				C161.4,371.3,163.8,373.7,166.7,373.7z"/>
			<path class="st0" d="M166.7,414c2.9,0,5.3-2.4,5.3-5.3c0-2.9-2.4-5.3-5.3-5.3c-2.9,0-5.3,2.4-5.3,5.3
				C161.4,411.7,163.8,414,166.7,414z"/>
		</g>
		<g>
			<path class="st0" d="M207,10.5c2.9,0,5.3-2.4,5.3-5.3c0-2.9-2.4-5.3-5.3-5.3c-2.9,0-5.3,2.4-5.3,5.3
				C201.7,8.2,204.1,10.5,207,10.5z"/>
			<path class="st0" d="M207,50.9c2.9,0,5.3-2.4,5.3-5.3c0-2.9-2.4-5.3-5.3-5.3c-2.9,0-5.3,2.4-5.3,5.3
				C201.7,48.5,204.1,50.9,207,50.9z"/>
			<path class="st0" d="M207,91.2c2.9,0,5.3-2.4,5.3-5.3c0-2.9-2.4-5.3-5.3-5.3c-2.9,0-5.3,2.4-5.3,5.3
				C201.7,88.9,204.1,91.2,207,91.2z"/>
			<path class="st0" d="M207,131.6c2.9,0,5.3-2.4,5.3-5.3c0-2.9-2.4-5.3-5.3-5.3c-2.9,0-5.3,2.4-5.3,5.3
				C201.7,129.2,204.1,131.6,207,131.6z"/>
			<path class="st0" d="M207,171.9c2.9,0,5.3-2.4,5.3-5.3c0-2.9-2.4-5.3-5.3-5.3c-2.9,0-5.3,2.4-5.3,5.3
				C201.7,169.6,204.1,171.9,207,171.9z"/>
			<path class="st0" d="M207,212.3c2.9,0,5.3-2.4,5.3-5.3c0-2.9-2.4-5.3-5.3-5.3c-2.9,0-5.3,2.4-5.3,5.3
				C201.7,209.9,204.1,212.3,207,212.3z"/>
			<path class="st0" d="M207,252.6c2.9,0,5.3-2.4,5.3-5.3c0-2.9-2.4-5.3-5.3-5.3c-2.9,0-5.3,2.4-5.3,5.3
				C201.7,250.3,204.1,252.6,207,252.6z"/>
			<path class="st0" d="M207,293c2.9,0,5.3-2.4,5.3-5.3c0-2.9-2.4-5.3-5.3-5.3c-2.9,0-5.3,2.4-5.3,5.3
				C201.7,290.6,204.1,293,207,293z"/>
			<path class="st0" d="M207,333.3c2.9,0,5.3-2.4,5.3-5.3c0-2.9-2.4-5.3-5.3-5.3c-2.9,0-5.3,2.4-5.3,5.3
				C201.7,331,204.1,333.3,207,333.3z"/>
			<path class="st0" d="M207,373.7c2.9,0,5.3-2.4,5.3-5.3c0-2.9-2.4-5.3-5.3-5.3c-2.9,0-5.3,2.4-5.3,5.3
				C201.7,371.3,204.1,373.7,207,373.7z"/>
			<path class="st0" d="M207,414c2.9,0,5.3-2.4,5.3-5.3c0-2.9-2.4-5.3-5.3-5.3c-2.9,0-5.3,2.4-5.3,5.3
				C201.7,411.7,204.1,414,207,414z"/>
		</g>
		<g>
			<path class="st0" d="M247.4,10.5c2.9,0,5.3-2.4,5.3-5.3c0-2.9-2.4-5.3-5.3-5.3c-2.9,0-5.3,2.4-5.3,5.3
				C242.1,8.2,244.4,10.5,247.4,10.5z"/>
			<path class="st0" d="M247.4,50.9c2.9,0,5.3-2.4,5.3-5.3c0-2.9-2.4-5.3-5.3-5.3c-2.9,0-5.3,2.4-5.3,5.3
				C242.1,48.5,244.4,50.9,247.4,50.9z"/>
			<path class="st0" d="M247.4,91.2c2.9,0,5.3-2.4,5.3-5.3c0-2.9-2.4-5.3-5.3-5.3c-2.9,0-5.3,2.4-5.3,5.3
				C242.1,88.9,244.4,91.2,247.4,91.2z"/>
			<path class="st0" d="M247.4,131.6c2.9,0,5.3-2.4,5.3-5.3c0-2.9-2.4-5.3-5.3-5.3c-2.9,0-5.3,2.4-5.3,5.3
				C242.1,129.2,244.4,131.6,247.4,131.6z"/>
			<path class="st0" d="M247.4,171.9c2.9,0,5.3-2.4,5.3-5.3c0-2.9-2.4-5.3-5.3-5.3c-2.9,0-5.3,2.4-5.3,5.3
				C242.1,169.6,244.4,171.9,247.4,171.9z"/>
			<path class="st0" d="M247.4,212.3c2.9,0,5.3-2.4,5.3-5.3c0-2.9-2.4-5.3-5.3-5.3c-2.9,0-5.3,2.4-5.3,5.3S244.4,212.3,247.4,212.3z
				"/>
			<path class="st0" d="M247.4,252.6c2.9,0,5.3-2.4,5.3-5.3c0-2.9-2.4-5.3-5.3-5.3c-2.9,0-5.3,2.4-5.3,5.3
				C242.1,250.3,244.4,252.6,247.4,252.6z"/>
			<path class="st0" d="M247.4,293c2.9,0,5.3-2.4,5.3-5.3c0-2.9-2.4-5.3-5.3-5.3c-2.9,0-5.3,2.4-5.3,5.3
				C242.1,290.6,244.4,293,247.4,293z"/>
			<path class="st0" d="M247.4,333.3c2.9,0,5.3-2.4,5.3-5.3c0-2.9-2.4-5.3-5.3-5.3c-2.9,0-5.3,2.4-5.3,5.3
				C242.1,331,244.4,333.3,247.4,333.3z"/>
			<path class="st0" d="M247.4,373.7c2.9,0,5.3-2.4,5.3-5.3c0-2.9-2.4-5.3-5.3-5.3c-2.9,0-5.3,2.4-5.3,5.3
				C242.1,371.3,244.4,373.7,247.4,373.7z"/>
			<path class="st0" d="M247.4,414c2.9,0,5.3-2.4,5.3-5.3c0-2.9-2.4-5.3-5.3-5.3c-2.9,0-5.3,2.4-5.3,5.3
				C242.1,411.7,244.4,414,247.4,414z"/>
		</g>
		<g>
			<path class="st0" d="M287.7,10.5c2.9,0,5.3-2.4,5.3-5.3c0-2.9-2.4-5.3-5.3-5.3c-2.9,0-5.3,2.4-5.3,5.3
				C282.4,8.2,284.8,10.5,287.7,10.5z"/>
			<path class="st0" d="M287.7,50.9c2.9,0,5.3-2.4,5.3-5.3c0-2.9-2.4-5.3-5.3-5.3c-2.9,0-5.3,2.4-5.3,5.3
				C282.4,48.5,284.8,50.9,287.7,50.9z"/>
			<path class="st0" d="M287.7,91.2c2.9,0,5.3-2.4,5.3-5.3c0-2.9-2.4-5.3-5.3-5.3c-2.9,0-5.3,2.4-5.3,5.3
				C282.4,88.9,284.8,91.2,287.7,91.2z"/>
			<path class="st0" d="M287.7,131.6c2.9,0,5.3-2.4,5.3-5.3c0-2.9-2.4-5.3-5.3-5.3c-2.9,0-5.3,2.4-5.3,5.3
				C282.4,129.2,284.8,131.6,287.7,131.6z"/>
			<path class="st0" d="M287.7,171.9c2.9,0,5.3-2.4,5.3-5.3c0-2.9-2.4-5.3-5.3-5.3s-5.3,2.4-5.3,5.3
				C282.4,169.6,284.8,171.9,287.7,171.9z"/>
			<path class="st0" d="M287.7,212.3c2.9,0,5.3-2.4,5.3-5.3c0-2.9-2.4-5.3-5.3-5.3c-2.9,0-5.3,2.4-5.3,5.3
				C282.4,209.9,284.8,212.3,287.7,212.3z"/>
			<path class="st0" d="M287.7,252.6c2.9,0,5.3-2.4,5.3-5.3c0-2.9-2.4-5.3-5.3-5.3c-2.9,0-5.3,2.4-5.3,5.3
				C282.4,250.3,284.8,252.6,287.7,252.6z"/>
			<path class="st0" d="M287.7,293c2.9,0,5.3-2.4,5.3-5.3c0-2.9-2.4-5.3-5.3-5.3c-2.9,0-5.3,2.4-5.3,5.3
				C282.4,290.6,284.8,293,287.7,293z"/>
			<path class="st0" d="M287.7,333.3c2.9,0,5.3-2.4,5.3-5.3c0-2.9-2.4-5.3-5.3-5.3c-2.9,0-5.3,2.4-5.3,5.3
				C282.4,331,284.8,333.3,287.7,333.3z"/>
			<path class="st0" d="M287.7,373.7c2.9,0,5.3-2.4,5.3-5.3c0-2.9-2.4-5.3-5.3-5.3c-2.9,0-5.3,2.4-5.3,5.3
				C282.4,371.3,284.8,373.7,287.7,373.7z"/>
			<path class="st0" d="M287.7,414c2.9,0,5.3-2.4,5.3-5.3c0-2.9-2.4-5.3-5.3-5.3c-2.9,0-5.3,2.4-5.3,5.3
				C282.4,411.7,284.8,414,287.7,414z"/>
		</g>
		<g>
			<path class="st0" d="M328.1,10.5c2.9,0,5.3-2.4,5.3-5.3c0-2.9-2.4-5.3-5.3-5.3c-2.9,0-5.3,2.4-5.3,5.3
				C322.8,8.2,325.1,10.5,328.1,10.5z"/>
			<path class="st0" d="M328,50.9c2.9,0,5.3-2.4,5.3-5.3c0-2.9-2.4-5.3-5.3-5.3c-2.9,0-5.3,2.4-5.3,5.3
				C322.8,48.5,325.1,50.9,328,50.9z"/>
			<path class="st0" d="M328,91.2c2.9,0,5.3-2.4,5.3-5.3c0-2.9-2.4-5.3-5.3-5.3c-2.9,0-5.3,2.4-5.3,5.3
				C322.8,88.9,325.1,91.2,328,91.2z"/>
			<path class="st0" d="M328.1,131.6c2.9,0,5.3-2.4,5.3-5.3c0-2.9-2.4-5.3-5.3-5.3c-2.9,0-5.3,2.4-5.3,5.3
				C322.8,129.2,325.1,131.6,328.1,131.6z"/>
			<path class="st0" d="M328,171.9c2.9,0,5.3-2.4,5.3-5.3c0-2.9-2.4-5.3-5.3-5.3c-2.9,0-5.3,2.4-5.3,5.3
				C322.8,169.6,325.1,171.9,328,171.9z"/>
			<path class="st0" d="M328.1,212.3c2.9,0,5.3-2.4,5.3-5.3c0-2.9-2.4-5.3-5.3-5.3c-2.9,0-5.3,2.4-5.3,5.3
				C322.8,209.9,325.1,212.3,328.1,212.3z"/>
			<path class="st0" d="M328.1,252.6c2.9,0,5.3-2.4,5.3-5.3c0-2.9-2.4-5.3-5.3-5.3c-2.9,0-5.3,2.4-5.3,5.3
				C322.8,250.3,325.1,252.6,328.1,252.6z"/>
			<path class="st0" d="M328.1,293c2.9,0,5.3-2.4,5.3-5.3c0-2.9-2.4-5.3-5.3-5.3c-2.9,0-5.3,2.4-5.3,5.3
				C322.8,290.6,325.1,293,328.1,293z"/>
			<path class="st0" d="M328,333.3c2.9,0,5.3-2.4,5.3-5.3c0-2.9-2.4-5.3-5.3-5.3c-2.9,0-5.3,2.4-5.3,5.3
				C322.8,331,325.1,333.3,328,333.3z"/>
			<path class="st0" d="M328.1,373.7c2.9,0,5.3-2.4,5.3-5.3c0-2.9-2.4-5.3-5.3-5.3c-2.9,0-5.3,2.4-5.3,5.3
				C322.8,371.3,325.1,373.7,328.1,373.7z"/>
			<path class="st0" d="M328.1,414c2.9,0,5.3-2.4,5.3-5.3c0-2.9-2.4-5.3-5.3-5.3c-2.9,0-5.3,2.4-5.3,5.3
				C322.8,411.7,325.1,414,328.1,414z"/>
		</g>
		<g>
			<path class="st0" d="M368.4,10.5c2.9,0,5.3-2.4,5.3-5.3c0-2.9-2.4-5.3-5.3-5.3c-2.9,0-5.3,2.4-5.3,5.3
				C363.1,8.2,365.5,10.5,368.4,10.5z"/>
			<path class="st0" d="M368.4,50.9c2.9,0,5.3-2.4,5.3-5.3c0-2.9-2.4-5.3-5.3-5.3c-2.9,0-5.3,2.4-5.3,5.3
				C363.1,48.5,365.5,50.9,368.4,50.9z"/>
			<path class="st0" d="M368.4,91.2c2.9,0,5.3-2.4,5.3-5.3c0-2.9-2.4-5.3-5.3-5.3c-2.9,0-5.3,2.4-5.3,5.3
				C363.1,88.9,365.5,91.2,368.4,91.2z"/>
			<path class="st0" d="M368.4,131.6c2.9,0,5.3-2.4,5.3-5.3c0-2.9-2.4-5.3-5.3-5.3c-2.9,0-5.3,2.4-5.3,5.3
				C363.1,129.2,365.5,131.6,368.4,131.6z"/>
			<path class="st0" d="M368.4,171.9c2.9,0,5.3-2.4,5.3-5.3c0-2.9-2.4-5.3-5.3-5.3c-2.9,0-5.3,2.4-5.3,5.3
				C363.1,169.6,365.5,171.9,368.4,171.9z"/>
			<path class="st0" d="M368.4,212.3c2.9,0,5.3-2.4,5.3-5.3c0-2.9-2.4-5.3-5.3-5.3c-2.9,0-5.3,2.4-5.3,5.3
				C363.1,209.9,365.5,212.3,368.4,212.3z"/>
			<path class="st0" d="M368.4,252.6c2.9,0,5.3-2.4,5.3-5.3c0-2.9-2.4-5.3-5.3-5.3c-2.9,0-5.3,2.4-5.3,5.3
				C363.1,250.3,365.5,252.6,368.4,252.6z"/>
			<path class="st0" d="M368.4,293c2.9,0,5.3-2.4,5.3-5.3c0-2.9-2.4-5.3-5.3-5.3c-2.9,0-5.3,2.4-5.3,5.3
				C363.1,290.6,365.5,293,368.4,293z"/>
			<path class="st0" d="M368.4,333.3c2.9,0,5.3-2.4,5.3-5.3c0-2.9-2.4-5.3-5.3-5.3c-2.9,0-5.3,2.4-5.3,5.3
				C363.1,331,365.5,333.3,368.4,333.3z"/>
			<path class="st0" d="M368.4,373.7c2.9,0,5.3-2.4,5.3-5.3c0-2.9-2.4-5.3-5.3-5.3c-2.9,0-5.3,2.4-5.3,5.3
				C363.1,371.3,365.5,373.7,368.4,373.7z"/>
			<path class="st0" d="M368.4,414c2.9,0,5.3-2.4,5.3-5.3c0-2.9-2.4-5.3-5.3-5.3c-2.9,0-5.3,2.4-5.3,5.3
				C363.1,411.7,365.5,414,368.4,414z"/>
		</g>
		<g>
			<path class="st0" d="M408.7,10.5c2.9,0,5.3-2.4,5.3-5.3c0-2.9-2.4-5.3-5.3-5.3c-2.9,0-5.3,2.4-5.3,5.3
				C403.5,8.2,405.8,10.5,408.7,10.5z"/>
			<path class="st0" d="M408.7,50.9c2.9,0,5.3-2.4,5.3-5.3c0-2.9-2.4-5.3-5.3-5.3c-2.9,0-5.3,2.4-5.3,5.3
				C403.5,48.5,405.8,50.9,408.7,50.9z"/>
			<path class="st0" d="M408.7,91.2c2.9,0,5.3-2.4,5.3-5.3c0-2.9-2.4-5.3-5.3-5.3c-2.9,0-5.3,2.4-5.3,5.3
				C403.5,88.9,405.8,91.2,408.7,91.2z"/>
			<path class="st0" d="M408.7,131.6c2.9,0,5.3-2.4,5.3-5.3c0-2.9-2.4-5.3-5.3-5.3c-2.9,0-5.3,2.4-5.3,5.3
				C403.5,129.2,405.8,131.6,408.7,131.6z"/>
			<path class="st0" d="M408.7,171.9c2.9,0,5.3-2.4,5.3-5.3c0-2.9-2.4-5.3-5.3-5.3c-2.9,0-5.3,2.4-5.3,5.3
				C403.5,169.6,405.8,171.9,408.7,171.9z"/>
			<path class="st0" d="M408.7,212.3c2.9,0,5.3-2.4,5.3-5.3c0-2.9-2.4-5.3-5.3-5.3c-2.9,0-5.3,2.4-5.3,5.3
				C403.5,209.9,405.8,212.3,408.7,212.3z"/>
			<path class="st0" d="M408.7,252.6c2.9,0,5.3-2.4,5.3-5.3c0-2.9-2.4-5.3-5.3-5.3c-2.9,0-5.3,2.4-5.3,5.3
				C403.5,250.3,405.8,252.6,408.7,252.6z"/>
			<path class="st0" d="M408.7,293c2.9,0,5.3-2.4,5.3-5.3c0-2.9-2.4-5.3-5.3-5.3c-2.9,0-5.3,2.4-5.3,5.3
				C403.5,290.6,405.8,293,408.7,293z"/>
			<path class="st0" d="M408.7,333.3c2.9,0,5.3-2.4,5.3-5.3c0-2.9-2.4-5.3-5.3-5.3c-2.9,0-5.3,2.4-5.3,5.3
				C403.5,331,405.8,333.3,408.7,333.3z"/>
			<path class="st0" d="M408.7,373.7c2.9,0,5.3-2.4,5.3-5.3c0-2.9-2.4-5.3-5.3-5.3c-2.9,0-5.3,2.4-5.3,5.3
				C403.5,371.3,405.8,373.7,408.7,373.7z"/>
			<path class="st0" d="M408.7,414c2.9,0,5.3-2.4,5.3-5.3c0-2.9-2.4-5.3-5.3-5.3c-2.9,0-5.3,2.4-5.3,5.3
				C403.5,411.7,405.8,414,408.7,414z"/>
		</g>
	</g>
</g>
<g>
</g>
<g>
</g>
<g>
</g>
<g>
</g>
<g>
</g>
<g>
</g>
<g>
</g>
<g>
</g>
<g>
</g>
<g>
</g>
<g>
</g>
<g>
</g>
<g>
</g>
<g>
</g>
<g>
</g>
</svg>
