<?xml version="1.0" encoding="utf-8"?>
<!-- Generator: Adobe Illustrator 24.1.2, SVG Export Plug-In . SVG Version: 6.00 Build 0)  -->
<svg version="1.1" id="Camada_1" xmlns="http://www.w3.org/2000/svg" xmlns:xlink="http://www.w3.org/1999/xlink" x="0px" y="0px"
	 viewBox="0 0 109 429" style="enable-background:new 0 0 109 429;" xml:space="preserve">
<style type="text/css">
	.st0{fill:#54C076;}
</style>
<g>
	<g>
		<g>
			<path class="st0" d="M13.3,17.1c2.9,0,5.3-2.4,5.3-5.3c0-2.9-2.4-5.3-5.3-5.3C10.4,6.6,8,8.9,8,11.8C8,14.7,10.4,17.1,13.3,17.1z
				"/>
			<path class="st0" d="M13.3,57.4c2.9,0,5.3-2.4,5.3-5.3c0-2.9-2.4-5.3-5.3-5.3c-2.9,0-5.3,2.4-5.3,5.3C8,55.1,10.4,57.4,13.3,57.4
				z"/>
			<path class="st0" d="M13.3,97.8c2.9,0,5.3-2.4,5.3-5.3c0-2.9-2.4-5.3-5.3-5.3c-2.9,0-5.3,2.4-5.3,5.3C8,95.4,10.4,97.8,13.3,97.8
				z"/>
			<path class="st0" d="M13.3,138.1c2.9,0,5.3-2.4,5.3-5.3c0-2.9-2.4-5.3-5.3-5.3c-2.9,0-5.3,2.4-5.3,5.3
				C8,135.8,10.4,138.1,13.3,138.1z"/>
			<path class="st0" d="M13.3,178.5c2.9,0,5.3-2.4,5.3-5.3c0-2.9-2.4-5.3-5.3-5.3c-2.9,0-5.3,2.4-5.3,5.3
				C8,176.1,10.4,178.5,13.3,178.5z"/>
			<path class="st0" d="M13.3,218.8c2.9,0,5.3-2.4,5.3-5.3c0-2.9-2.4-5.3-5.3-5.3c-2.9,0-5.3,2.4-5.3,5.3
				C8,216.5,10.4,218.8,13.3,218.8z"/>
			<path class="st0" d="M13.3,259.2c2.9,0,5.3-2.4,5.3-5.3c0-2.9-2.4-5.3-5.3-5.3c-2.9,0-5.3,2.4-5.3,5.3
				C8,256.8,10.4,259.2,13.3,259.2z"/>
			<path class="st0" d="M13.3,299.5c2.9,0,5.3-2.4,5.3-5.3c0-2.9-2.4-5.3-5.3-5.3c-2.9,0-5.3,2.4-5.3,5.3
				C8,297.2,10.4,299.5,13.3,299.5z"/>
			<path class="st0" d="M13.3,339.9c2.9,0,5.3-2.4,5.3-5.3c0-2.9-2.4-5.3-5.3-5.3c-2.9,0-5.3,2.4-5.3,5.3
				C8,337.5,10.4,339.9,13.3,339.9z"/>
			<path class="st0" d="M13.3,380.2c2.9,0,5.3-2.4,5.3-5.3c0-2.9-2.4-5.3-5.3-5.3c-2.9,0-5.3,2.4-5.3,5.3
				C8,377.9,10.4,380.2,13.3,380.2z"/>
			<path class="st0" d="M13.3,420.6c2.9,0,5.3-2.4,5.3-5.3c0-2.9-2.4-5.3-5.3-5.3c-2.9,0-5.3,2.4-5.3,5.3
				C8,418.2,10.4,420.6,13.3,420.6z"/>
		</g>
		<g>
			<path class="st0" d="M53.6,17.1c2.9,0,5.3-2.4,5.3-5.3c0-2.9-2.4-5.3-5.3-5.3c-2.9,0-5.3,2.4-5.3,5.3
				C48.3,14.7,50.7,17.1,53.6,17.1z"/>
			<path class="st0" d="M53.6,57.4c2.9,0,5.3-2.4,5.3-5.3c0-2.9-2.4-5.3-5.3-5.3c-2.9,0-5.3,2.4-5.3,5.3
				C48.3,55.1,50.7,57.4,53.6,57.4z"/>
			<path class="st0" d="M53.6,97.8c2.9,0,5.3-2.4,5.3-5.3c0-2.9-2.4-5.3-5.3-5.3c-2.9,0-5.3,2.4-5.3,5.3
				C48.3,95.4,50.7,97.8,53.6,97.8z"/>
			<path class="st0" d="M53.6,138.1c2.9,0,5.3-2.4,5.3-5.3c0-2.9-2.4-5.3-5.3-5.3c-2.9,0-5.3,2.4-5.3,5.3
				C48.3,135.8,50.7,138.1,53.6,138.1z"/>
			<path class="st0" d="M53.6,178.5c2.9,0,5.3-2.4,5.3-5.3c0-2.9-2.4-5.3-5.3-5.3c-2.9,0-5.3,2.4-5.3,5.3
				C48.3,176.1,50.7,178.5,53.6,178.5z"/>
			<path class="st0" d="M53.6,218.8c2.9,0,5.3-2.4,5.3-5.3c0-2.9-2.4-5.3-5.3-5.3c-2.9,0-5.3,2.4-5.3,5.3
				C48.3,216.5,50.7,218.8,53.6,218.8z"/>
			<path class="st0" d="M53.6,259.2c2.9,0,5.3-2.4,5.3-5.3c0-2.9-2.4-5.3-5.3-5.3c-2.9,0-5.3,2.4-5.3,5.3
				C48.3,256.8,50.7,259.2,53.6,259.2z"/>
			<path class="st0" d="M53.6,299.5c2.9,0,5.3-2.4,5.3-5.3c0-2.9-2.4-5.3-5.3-5.3c-2.9,0-5.3,2.4-5.3,5.3
				C48.3,297.2,50.7,299.5,53.6,299.5z"/>
			<path class="st0" d="M53.6,339.9c2.9,0,5.3-2.4,5.3-5.3c0-2.9-2.4-5.3-5.3-5.3c-2.9,0-5.3,2.4-5.3,5.3
				C48.3,337.5,50.7,339.9,53.6,339.9z"/>
			<path class="st0" d="M53.6,380.2c2.9,0,5.3-2.4,5.3-5.3c0-2.9-2.4-5.3-5.3-5.3c-2.9,0-5.3,2.4-5.3,5.3
				C48.3,377.9,50.7,380.2,53.6,380.2z"/>
			<path class="st0" d="M53.6,420.6c2.9,0,5.3-2.4,5.3-5.3c0-2.9-2.4-5.3-5.3-5.3c-2.9,0-5.3,2.4-5.3,5.3
				C48.3,418.2,50.7,420.6,53.6,420.6z"/>
		</g>
		<g>
			<path class="st0" d="M94,17.1c2.9,0,5.3-2.4,5.3-5.3c0-2.9-2.4-5.3-5.3-5.3c-2.9,0-5.3,2.4-5.3,5.3C88.7,14.7,91,17.1,94,17.1z"
				/>
			<path class="st0" d="M94,57.4c2.9,0,5.3-2.4,5.3-5.3c0-2.9-2.4-5.3-5.3-5.3c-2.9,0-5.3,2.4-5.3,5.3C88.7,55.1,91.1,57.4,94,57.4z
				"/>
			<path class="st0" d="M94,97.8c2.9,0,5.3-2.4,5.3-5.3c0-2.9-2.4-5.3-5.3-5.3c-2.9,0-5.3,2.4-5.3,5.3C88.7,95.4,91.1,97.8,94,97.8z
				"/>
			<path class="st0" d="M94,138.1c2.9,0,5.3-2.4,5.3-5.3c0-2.9-2.4-5.3-5.3-5.3c-2.9,0-5.3,2.4-5.3,5.3
				C88.7,135.8,91.1,138.1,94,138.1z"/>
			<path class="st0" d="M94,178.5c2.9,0,5.3-2.4,5.3-5.3c0-2.9-2.4-5.3-5.3-5.3c-2.9,0-5.3,2.4-5.3,5.3
				C88.7,176.1,91.1,178.5,94,178.5z"/>
			<path class="st0" d="M94,218.8c2.9,0,5.3-2.4,5.3-5.3c0-2.9-2.4-5.3-5.3-5.3c-2.9,0-5.3,2.4-5.3,5.3
				C88.7,216.5,91.1,218.8,94,218.8z"/>
			<path class="st0" d="M94,259.2c2.9,0,5.3-2.4,5.3-5.3c0-2.9-2.4-5.3-5.3-5.3c-2.9,0-5.3,2.4-5.3,5.3
				C88.7,256.8,91,259.2,94,259.2z"/>
			<path class="st0" d="M94,299.5c2.9,0,5.3-2.4,5.3-5.3c0-2.9-2.4-5.3-5.3-5.3c-2.9,0-5.3,2.4-5.3,5.3
				C88.7,297.2,91.1,299.5,94,299.5z"/>
			<path class="st0" d="M94,339.9c2.9,0,5.3-2.4,5.3-5.3c0-2.9-2.4-5.3-5.3-5.3c-2.9,0-5.3,2.4-5.3,5.3
				C88.7,337.5,91.1,339.9,94,339.9z"/>
			<path class="st0" d="M94,380.2c2.9,0,5.3-2.4,5.3-5.3c0-2.9-2.4-5.3-5.3-5.3c-2.9,0-5.3,2.4-5.3,5.3
				C88.7,377.9,91,380.2,94,380.2z"/>
			<path class="st0" d="M94,420.6c2.9,0,5.3-2.4,5.3-5.3c0-2.9-2.4-5.3-5.3-5.3c-2.9,0-5.3,2.4-5.3,5.3
				C88.7,418.2,91.1,420.6,94,420.6z"/>
		</g>
		<g>
			<path class="st0" d="M134.3,17.1c2.9,0,5.3-2.4,5.3-5.3c0-2.9-2.4-5.3-5.3-5.3c-2.9,0-5.3,2.4-5.3,5.3
				C129,14.7,131.4,17.1,134.3,17.1z"/>
			<path class="st0" d="M134.3,57.4c2.9,0,5.3-2.4,5.3-5.3c0-2.9-2.4-5.3-5.3-5.3c-2.9,0-5.3,2.4-5.3,5.3
				C129,55.1,131.4,57.4,134.3,57.4z"/>
			<path class="st0" d="M134.3,97.8c2.9,0,5.3-2.4,5.3-5.3c0-2.9-2.4-5.3-5.3-5.3c-2.9,0-5.3,2.4-5.3,5.3
				C129,95.4,131.4,97.8,134.3,97.8z"/>
			<path class="st0" d="M134.3,138.1c2.9,0,5.3-2.4,5.3-5.3c0-2.9-2.4-5.3-5.3-5.3c-2.9,0-5.3,2.4-5.3,5.3
				C129,135.8,131.4,138.1,134.3,138.1z"/>
			<path class="st0" d="M134.3,178.5c2.9,0,5.3-2.4,5.3-5.3c0-2.9-2.4-5.3-5.3-5.3c-2.9,0-5.3,2.4-5.3,5.3
				C129,176.1,131.4,178.5,134.3,178.5z"/>
			<path class="st0" d="M134.3,218.8c2.9,0,5.3-2.4,5.3-5.3c0-2.9-2.4-5.3-5.3-5.3c-2.9,0-5.3,2.4-5.3,5.3
				C129,216.5,131.4,218.8,134.3,218.8z"/>
			<path class="st0" d="M134.3,259.2c2.9,0,5.3-2.4,5.3-5.3c0-2.9-2.4-5.3-5.3-5.3c-2.9,0-5.3,2.4-5.3,5.3
				C129,256.8,131.4,259.2,134.3,259.2z"/>
			<path class="st0" d="M134.3,299.5c2.9,0,5.3-2.4,5.3-5.3c0-2.9-2.4-5.3-5.3-5.3c-2.9,0-5.3,2.4-5.3,5.3
				C129,297.2,131.4,299.5,134.3,299.5z"/>
			<path class="st0" d="M134.3,339.9c2.9,0,5.3-2.4,5.3-5.3c0-2.9-2.4-5.3-5.3-5.3c-2.9,0-5.3,2.4-5.3,5.3
				C129,337.5,131.4,339.9,134.3,339.9z"/>
			<path class="st0" d="M134.3,380.2c2.9,0,5.3-2.4,5.3-5.3c0-2.9-2.4-5.3-5.3-5.3c-2.9,0-5.3,2.4-5.3,5.3
				C129,377.9,131.4,380.2,134.3,380.2z"/>
			<path class="st0" d="M134.3,420.6c2.9,0,5.3-2.4,5.3-5.3c0-2.9-2.4-5.3-5.3-5.3c-2.9,0-5.3,2.4-5.3,5.3
				C129,418.2,131.4,420.6,134.3,420.6z"/>
		</g>
		<g>
			<path class="st0" d="M174.7,17.1c2.9,0,5.3-2.4,5.3-5.3c0-2.9-2.4-5.3-5.3-5.3c-2.9,0-5.3,2.4-5.3,5.3
				C169.4,14.7,171.7,17.1,174.7,17.1z"/>
			<path class="st0" d="M174.7,57.4c2.9,0,5.3-2.4,5.3-5.3c0-2.9-2.4-5.3-5.3-5.3c-2.9,0-5.3,2.4-5.3,5.3
				C169.4,55.1,171.7,57.4,174.7,57.4z"/>
			<path class="st0" d="M174.7,97.8c2.9,0,5.3-2.4,5.3-5.3c0-2.9-2.4-5.3-5.3-5.3c-2.9,0-5.3,2.4-5.3,5.3
				C169.4,95.4,171.7,97.8,174.7,97.8z"/>
			<path class="st0" d="M174.7,138.1c2.9,0,5.3-2.4,5.3-5.3c0-2.9-2.4-5.3-5.3-5.3c-2.9,0-5.3,2.4-5.3,5.3
				C169.4,135.8,171.7,138.1,174.7,138.1z"/>
			<path class="st0" d="M174.7,178.5c2.9,0,5.3-2.4,5.3-5.3c0-2.9-2.4-5.3-5.3-5.3c-2.9,0-5.3,2.4-5.3,5.3
				C169.4,176.1,171.7,178.5,174.7,178.5z"/>
			<path class="st0" d="M174.7,218.8c2.9,0,5.3-2.4,5.3-5.3c0-2.9-2.4-5.3-5.3-5.3c-2.9,0-5.3,2.4-5.3,5.3
				C169.4,216.5,171.7,218.8,174.7,218.8z"/>
			<path class="st0" d="M174.7,259.2c2.9,0,5.3-2.4,5.3-5.3c0-2.9-2.4-5.3-5.3-5.3c-2.9,0-5.3,2.4-5.3,5.3
				C169.4,256.8,171.7,259.2,174.7,259.2z"/>
			<path class="st0" d="M174.7,299.5c2.9,0,5.3-2.4,5.3-5.3c0-2.9-2.4-5.3-5.3-5.3c-2.9,0-5.3,2.4-5.3,5.3
				C169.4,297.2,171.7,299.5,174.7,299.5z"/>
			<path class="st0" d="M174.7,339.9c2.9,0,5.3-2.4,5.3-5.3c0-2.9-2.4-5.3-5.3-5.3c-2.9,0-5.3,2.4-5.3,5.3
				C169.4,337.5,171.7,339.9,174.7,339.9z"/>
			<path class="st0" d="M174.7,380.2c2.9,0,5.3-2.4,5.3-5.3c0-2.9-2.4-5.3-5.3-5.3c-2.9,0-5.3,2.4-5.3,5.3
				C169.4,377.9,171.7,380.2,174.7,380.2z"/>
			<path class="st0" d="M174.7,420.6c2.9,0,5.3-2.4,5.3-5.3c0-2.9-2.4-5.3-5.3-5.3c-2.9,0-5.3,2.4-5.3,5.3
				C169.4,418.2,171.7,420.6,174.7,420.6z"/>
		</g>
		<g>
			<path class="st0" d="M215,17.1c2.9,0,5.3-2.4,5.3-5.3c0-2.9-2.4-5.3-5.3-5.3c-2.9,0-5.3,2.4-5.3,5.3
				C209.7,14.7,212.1,17.1,215,17.1z"/>
			<path class="st0" d="M215,57.4c2.9,0,5.3-2.4,5.3-5.3c0-2.9-2.4-5.3-5.3-5.3c-2.9,0-5.3,2.4-5.3,5.3
				C209.7,55.1,212.1,57.4,215,57.4z"/>
			<path class="st0" d="M215,97.8c2.9,0,5.3-2.4,5.3-5.3c0-2.9-2.4-5.3-5.3-5.3c-2.9,0-5.3,2.4-5.3,5.3
				C209.7,95.4,212.1,97.8,215,97.8z"/>
			<path class="st0" d="M215,138.1c2.9,0,5.3-2.4,5.3-5.3c0-2.9-2.4-5.3-5.3-5.3c-2.9,0-5.3,2.4-5.3,5.3
				C209.7,135.8,212.1,138.1,215,138.1z"/>
			<path class="st0" d="M215,178.5c2.9,0,5.3-2.4,5.3-5.3c0-2.9-2.4-5.3-5.3-5.3c-2.9,0-5.3,2.4-5.3,5.3
				C209.7,176.1,212.1,178.5,215,178.5z"/>
			<path class="st0" d="M215,218.8c2.9,0,5.3-2.4,5.3-5.3c0-2.9-2.4-5.3-5.3-5.3c-2.9,0-5.3,2.4-5.3,5.3
				C209.7,216.5,212.1,218.8,215,218.8z"/>
			<path class="st0" d="M215,259.2c2.9,0,5.3-2.4,5.3-5.3c0-2.9-2.4-5.3-5.3-5.3c-2.9,0-5.3,2.4-5.3,5.3
				C209.7,256.8,212.1,259.2,215,259.2z"/>
			<path class="st0" d="M215,299.5c2.9,0,5.3-2.4,5.3-5.3c0-2.9-2.4-5.3-5.3-5.3c-2.9,0-5.3,2.4-5.3,5.3
				C209.7,297.2,212.1,299.5,215,299.5z"/>
			<path class="st0" d="M215,339.9c2.9,0,5.3-2.4,5.3-5.3c0-2.9-2.4-5.3-5.3-5.3c-2.9,0-5.3,2.4-5.3,5.3
				C209.7,337.5,212.1,339.9,215,339.9z"/>
			<path class="st0" d="M215,380.2c2.9,0,5.3-2.4,5.3-5.3c0-2.9-2.4-5.3-5.3-5.3c-2.9,0-5.3,2.4-5.3,5.3
				C209.7,377.9,212.1,380.2,215,380.2z"/>
			<path class="st0" d="M215,420.6c2.9,0,5.3-2.4,5.3-5.3c0-2.9-2.4-5.3-5.3-5.3c-2.9,0-5.3,2.4-5.3,5.3
				C209.7,418.2,212.1,420.6,215,420.6z"/>
		</g>
		<g>
			<path class="st0" d="M255.4,17.1c2.9,0,5.3-2.4,5.3-5.3c0-2.9-2.4-5.3-5.3-5.3c-2.9,0-5.3,2.4-5.3,5.3
				C250.1,14.7,252.4,17.1,255.4,17.1z"/>
			<path class="st0" d="M255.3,57.4c2.9,0,5.3-2.4,5.3-5.3c0-2.9-2.4-5.3-5.3-5.3c-2.9,0-5.3,2.4-5.3,5.3
				C250.1,55.1,252.4,57.4,255.3,57.4z"/>
			<path class="st0" d="M255.4,97.8c2.9,0,5.3-2.4,5.3-5.3c0-2.9-2.4-5.3-5.3-5.3c-2.9,0-5.3,2.4-5.3,5.3
				C250.1,95.4,252.4,97.8,255.4,97.8z"/>
			<path class="st0" d="M255.3,138.1c2.9,0,5.3-2.4,5.3-5.3c0-2.9-2.4-5.3-5.3-5.3c-2.9,0-5.3,2.4-5.3,5.3
				C250.1,135.8,252.4,138.1,255.3,138.1z"/>
			<path class="st0" d="M255.4,178.5c2.9,0,5.3-2.4,5.3-5.3c0-2.9-2.4-5.3-5.3-5.3c-2.9,0-5.3,2.4-5.3,5.3
				C250.1,176.1,252.4,178.5,255.4,178.5z"/>
			<path class="st0" d="M255.4,218.8c2.9,0,5.3-2.4,5.3-5.3c0-2.9-2.4-5.3-5.3-5.3c-2.9,0-5.3,2.4-5.3,5.3S252.4,218.8,255.4,218.8z
				"/>
			<path class="st0" d="M255.3,259.2c2.9,0,5.3-2.4,5.3-5.3c0-2.9-2.4-5.3-5.3-5.3c-2.9,0-5.3,2.4-5.3,5.3
				C250.1,256.8,252.4,259.2,255.3,259.2z"/>
			<path class="st0" d="M255.3,299.5c2.9,0,5.3-2.4,5.3-5.3c0-2.9-2.4-5.3-5.3-5.3c-2.9,0-5.3,2.4-5.3,5.3
				C250.1,297.2,252.4,299.5,255.3,299.5z"/>
			<path class="st0" d="M255.3,339.9c2.9,0,5.3-2.4,5.3-5.3c0-2.9-2.4-5.3-5.3-5.3c-2.9,0-5.3,2.4-5.3,5.3
				C250.1,337.5,252.4,339.9,255.3,339.9z"/>
			<path class="st0" d="M255.4,380.2c2.9,0,5.3-2.4,5.3-5.3c0-2.9-2.4-5.3-5.3-5.3c-2.9,0-5.3,2.4-5.3,5.3
				C250.1,377.9,252.4,380.2,255.4,380.2z"/>
			<path class="st0" d="M255.3,420.6c2.9,0,5.3-2.4,5.3-5.3c0-2.9-2.4-5.3-5.3-5.3c-2.9,0-5.3,2.4-5.3,5.3
				C250.1,418.2,252.4,420.6,255.3,420.6z"/>
		</g>
		<g>
			<path class="st0" d="M295.7,17.1c2.9,0,5.3-2.4,5.3-5.3c0-2.9-2.4-5.3-5.3-5.3c-2.9,0-5.3,2.4-5.3,5.3
				C290.4,14.7,292.8,17.1,295.7,17.1z"/>
			<path class="st0" d="M295.7,57.4c2.9,0,5.3-2.4,5.3-5.3c0-2.9-2.4-5.3-5.3-5.3c-2.9,0-5.3,2.4-5.3,5.3
				C290.4,55.1,292.8,57.4,295.7,57.4z"/>
			<path class="st0" d="M295.7,97.8c2.9,0,5.3-2.4,5.3-5.3c0-2.9-2.4-5.3-5.3-5.3c-2.9,0-5.3,2.4-5.3,5.3
				C290.4,95.4,292.8,97.8,295.7,97.8z"/>
			<path class="st0" d="M295.7,138.1c2.9,0,5.3-2.4,5.3-5.3c0-2.9-2.4-5.3-5.3-5.3c-2.9,0-5.3,2.4-5.3,5.3
				C290.4,135.8,292.8,138.1,295.7,138.1z"/>
			<path class="st0" d="M295.7,178.5c2.9,0,5.3-2.4,5.3-5.3c0-2.9-2.4-5.3-5.3-5.3c-2.9,0-5.3,2.4-5.3,5.3
				C290.4,176.1,292.8,178.5,295.7,178.5z"/>
			<path class="st0" d="M295.7,218.8c2.9,0,5.3-2.4,5.3-5.3c0-2.9-2.4-5.3-5.3-5.3c-2.9,0-5.3,2.4-5.3,5.3
				C290.4,216.5,292.8,218.8,295.7,218.8z"/>
			<path class="st0" d="M295.7,259.2c2.9,0,5.3-2.4,5.3-5.3c0-2.9-2.4-5.3-5.3-5.3c-2.9,0-5.3,2.4-5.3,5.3
				C290.4,256.8,292.8,259.2,295.7,259.2z"/>
			<path class="st0" d="M295.7,299.5c2.9,0,5.3-2.4,5.3-5.3c0-2.9-2.4-5.3-5.3-5.3c-2.9,0-5.3,2.4-5.3,5.3
				C290.4,297.2,292.8,299.5,295.7,299.5z"/>
			<path class="st0" d="M295.7,339.9c2.9,0,5.3-2.4,5.3-5.3c0-2.9-2.4-5.3-5.3-5.3c-2.9,0-5.3,2.4-5.3,5.3
				C290.4,337.5,292.8,339.9,295.7,339.9z"/>
			<path class="st0" d="M295.7,380.2c2.9,0,5.3-2.4,5.3-5.3c0-2.9-2.4-5.3-5.3-5.3c-2.9,0-5.3,2.4-5.3,5.3
				C290.4,377.9,292.8,380.2,295.7,380.2z"/>
			<path class="st0" d="M295.7,420.6c2.9,0,5.3-2.4,5.3-5.3c0-2.9-2.4-5.3-5.3-5.3c-2.9,0-5.3,2.4-5.3,5.3
				C290.4,418.2,292.8,420.6,295.7,420.6z"/>
		</g>
		<g>
			<path class="st0" d="M336,17.1c2.9,0,5.3-2.4,5.3-5.3c0-2.9-2.4-5.3-5.3-5.3c-2.9,0-5.3,2.4-5.3,5.3
				C330.8,14.7,333.1,17.1,336,17.1z"/>
			<path class="st0" d="M336,57.4c2.9,0,5.3-2.4,5.3-5.3c0-2.9-2.4-5.3-5.3-5.3c-2.9,0-5.3,2.4-5.3,5.3
				C330.8,55.1,333.1,57.4,336,57.4z"/>
			<path class="st0" d="M336,97.8c2.9,0,5.3-2.4,5.3-5.3c0-2.9-2.4-5.3-5.3-5.3c-2.9,0-5.3,2.4-5.3,5.3
				C330.8,95.4,333.1,97.8,336,97.8z"/>
			<path class="st0" d="M336,138.1c2.9,0,5.3-2.4,5.3-5.3c0-2.9-2.4-5.3-5.3-5.3c-2.9,0-5.3,2.4-5.3,5.3
				C330.8,135.8,333.1,138.1,336,138.1z"/>
			<path class="st0" d="M336,178.5c2.9,0,5.3-2.4,5.3-5.3c0-2.9-2.4-5.3-5.3-5.3c-2.9,0-5.3,2.4-5.3,5.3
				C330.8,176.1,333.1,178.5,336,178.5z"/>
			<path class="st0" d="M336,218.8c2.9,0,5.3-2.4,5.3-5.3c0-2.9-2.4-5.3-5.3-5.3c-2.9,0-5.3,2.4-5.3,5.3
				C330.8,216.5,333.1,218.8,336,218.8z"/>
			<path class="st0" d="M336,259.2c2.9,0,5.3-2.4,5.3-5.3c0-2.9-2.4-5.3-5.3-5.3c-2.9,0-5.3,2.4-5.3,5.3
				C330.8,256.8,333.1,259.2,336,259.2z"/>
			<path class="st0" d="M336,299.5c2.9,0,5.3-2.4,5.3-5.3c0-2.9-2.4-5.3-5.3-5.3c-2.9,0-5.3,2.4-5.3,5.3
				C330.8,297.2,333.1,299.5,336,299.5z"/>
			<path class="st0" d="M336,339.9c2.9,0,5.3-2.4,5.3-5.3c0-2.9-2.4-5.3-5.3-5.3c-2.9,0-5.3,2.4-5.3,5.3
				C330.8,337.5,333.1,339.9,336,339.9z"/>
			<path class="st0" d="M336,380.2c2.9,0,5.3-2.4,5.3-5.3c0-2.9-2.4-5.3-5.3-5.3c-2.9,0-5.3,2.4-5.3,5.3
				C330.8,377.9,333.1,380.2,336,380.2z"/>
			<path class="st0" d="M336,420.6c2.9,0,5.3-2.4,5.3-5.3c0-2.9-2.4-5.3-5.3-5.3c-2.9,0-5.3,2.4-5.3,5.3
				C330.8,418.2,333.1,420.6,336,420.6z"/>
		</g>
		<g>
			<path class="st0" d="M376.4,17.1c2.9,0,5.3-2.4,5.3-5.3c0-2.9-2.4-5.3-5.3-5.3c-2.9,0-5.3,2.4-5.3,5.3
				C371.1,14.7,373.5,17.1,376.4,17.1z"/>
			<path class="st0" d="M376.4,57.4c2.9,0,5.3-2.4,5.3-5.3c0-2.9-2.4-5.3-5.3-5.3c-2.9,0-5.3,2.4-5.3,5.3
				C371.1,55.1,373.5,57.4,376.4,57.4z"/>
			<path class="st0" d="M376.4,97.8c2.9,0,5.3-2.4,5.3-5.3c0-2.9-2.4-5.3-5.3-5.3c-2.9,0-5.3,2.4-5.3,5.3
				C371.1,95.4,373.5,97.8,376.4,97.8z"/>
			<path class="st0" d="M376.4,138.1c2.9,0,5.3-2.4,5.3-5.3c0-2.9-2.4-5.3-5.3-5.3c-2.9,0-5.3,2.4-5.3,5.3
				C371.1,135.8,373.5,138.1,376.4,138.1z"/>
			<path class="st0" d="M376.4,178.5c2.9,0,5.3-2.4,5.3-5.3c0-2.9-2.4-5.3-5.3-5.3c-2.9,0-5.3,2.4-5.3,5.3
				C371.1,176.1,373.5,178.5,376.4,178.5z"/>
			<path class="st0" d="M376.4,218.8c2.9,0,5.3-2.4,5.3-5.3c0-2.9-2.4-5.3-5.3-5.3c-2.9,0-5.3,2.4-5.3,5.3
				C371.1,216.5,373.5,218.8,376.4,218.8z"/>
			<path class="st0" d="M376.4,259.2c2.9,0,5.3-2.4,5.3-5.3c0-2.9-2.4-5.3-5.3-5.3c-2.9,0-5.3,2.4-5.3,5.3
				C371.1,256.8,373.5,259.2,376.4,259.2z"/>
			<path class="st0" d="M376.4,299.5c2.9,0,5.3-2.4,5.3-5.3c0-2.9-2.4-5.3-5.3-5.3c-2.9,0-5.3,2.4-5.3,5.3
				C371.1,297.2,373.5,299.5,376.4,299.5z"/>
			<path class="st0" d="M376.4,339.9c2.9,0,5.3-2.4,5.3-5.3c0-2.9-2.4-5.3-5.3-5.3c-2.9,0-5.3,2.4-5.3,5.3
				C371.1,337.5,373.5,339.9,376.4,339.9z"/>
			<path class="st0" d="M376.4,380.2c2.9,0,5.3-2.4,5.3-5.3c0-2.9-2.4-5.3-5.3-5.3c-2.9,0-5.3,2.4-5.3,5.3
				C371.1,377.9,373.5,380.2,376.4,380.2z"/>
			<path class="st0" d="M376.4,420.6c2.9,0,5.3-2.4,5.3-5.3c0-2.9-2.4-5.3-5.3-5.3c-2.9,0-5.3,2.4-5.3,5.3
				C371.1,418.2,373.5,420.6,376.4,420.6z"/>
		</g>
		<g>
			<path class="st0" d="M416.7,17.1c2.9,0,5.3-2.4,5.3-5.3c0-2.9-2.4-5.3-5.3-5.3c-2.9,0-5.3,2.4-5.3,5.3
				C411.5,14.7,413.8,17.1,416.7,17.1z"/>
			<path class="st0" d="M416.7,57.4c2.9,0,5.3-2.4,5.3-5.3c0-2.9-2.4-5.3-5.3-5.3c-2.9,0-5.3,2.4-5.3,5.3
				C411.5,55.1,413.8,57.4,416.7,57.4z"/>
			<path class="st0" d="M416.7,97.8c2.9,0,5.3-2.4,5.3-5.3c0-2.9-2.4-5.3-5.3-5.3c-2.9,0-5.3,2.4-5.3,5.3
				C411.5,95.4,413.8,97.8,416.7,97.8z"/>
			<path class="st0" d="M416.7,138.1c2.9,0,5.3-2.4,5.3-5.3c0-2.9-2.4-5.3-5.3-5.3c-2.9,0-5.3,2.4-5.3,5.3
				C411.5,135.8,413.8,138.1,416.7,138.1z"/>
			<path class="st0" d="M416.7,178.5c2.9,0,5.3-2.4,5.3-5.3c0-2.9-2.4-5.3-5.3-5.3c-2.9,0-5.3,2.4-5.3,5.3
				C411.5,176.1,413.8,178.5,416.7,178.5z"/>
			<path class="st0" d="M416.7,218.8c2.9,0,5.3-2.4,5.3-5.3c0-2.9-2.4-5.3-5.3-5.3c-2.9,0-5.3,2.4-5.3,5.3
				C411.5,216.5,413.8,218.8,416.7,218.8z"/>
			<path class="st0" d="M416.7,259.2c2.9,0,5.3-2.4,5.3-5.3c0-2.9-2.4-5.3-5.3-5.3c-2.9,0-5.3,2.4-5.3,5.3
				C411.5,256.8,413.8,259.2,416.7,259.2z"/>
			<path class="st0" d="M416.7,299.5c2.9,0,5.3-2.4,5.3-5.3c0-2.9-2.4-5.3-5.3-5.3c-2.9,0-5.3,2.4-5.3,5.3
				C411.5,297.2,413.8,299.5,416.7,299.5z"/>
			<path class="st0" d="M416.7,339.9c2.9,0,5.3-2.4,5.3-5.3c0-2.9-2.4-5.3-5.3-5.3c-2.9,0-5.3,2.4-5.3,5.3
				C411.5,337.5,413.8,339.9,416.7,339.9z"/>
			<path class="st0" d="M416.7,380.2c2.9,0,5.3-2.4,5.3-5.3c0-2.9-2.4-5.3-5.3-5.3c-2.9,0-5.3,2.4-5.3,5.3
				C411.5,377.9,413.8,380.2,416.7,380.2z"/>
			<path class="st0" d="M416.7,420.6c2.9,0,5.3-2.4,5.3-5.3c0-2.9-2.4-5.3-5.3-5.3c-2.9,0-5.3,2.4-5.3,5.3
				C411.5,418.2,413.8,420.6,416.7,420.6z"/>
		</g>
	</g>
</g>
<g>
</g>
<g>
</g>
<g>
</g>
<g>
</g>
<g>
</g>
<g>
</g>
<g>
</g>
<g>
</g>
<g>
</g>
<g>
</g>
<g>
</g>
</svg>
