<?xml version="1.0" encoding="utf-8"?>
<!-- Generator: Adobe Illustrator 24.1.2, SVG Export Plug-In . SVG Version: 6.00 Build 0)  -->
<svg version="1.1" id="Camada_1" xmlns="http://www.w3.org/2000/svg" xmlns:xlink="http://www.w3.org/1999/xlink" x="0px" y="0px"
	 viewBox="0 0 234 430" style="enable-background:new 0 0 234 430;" xml:space="preserve">
<style type="text/css">
	.st0{fill:#54C076;}
</style>
<g>
	<g>
		<g>
			<path class="st0" d="M-187.2,16.8c2.9,0,5.3-2.4,5.3-5.3c0-2.9-2.4-5.3-5.3-5.3c-2.9,0-5.3,2.4-5.3,5.3
				C-192.5,14.4-190.1,16.8-187.2,16.8z"/>
			<path class="st0" d="M-187.2,57.1c2.9,0,5.3-2.4,5.3-5.3c0-2.9-2.4-5.3-5.3-5.3c-2.9,0-5.3,2.4-5.3,5.3
				C-192.5,54.7-190.1,57.1-187.2,57.1z"/>
			<path class="st0" d="M-187.2,97.5c2.9,0,5.3-2.4,5.3-5.3c0-2.9-2.4-5.3-5.3-5.3c-2.9,0-5.3,2.4-5.3,5.3
				C-192.5,95.1-190.1,97.5-187.2,97.5z"/>
			<path class="st0" d="M-187.2,137.8c2.9,0,5.3-2.4,5.3-5.3c0-2.9-2.4-5.3-5.3-5.3c-2.9,0-5.3,2.4-5.3,5.3
				C-192.5,135.4-190.1,137.8-187.2,137.8z"/>
			<path class="st0" d="M-187.2,178.1c2.9,0,5.3-2.4,5.3-5.3c0-2.9-2.4-5.3-5.3-5.3c-2.9,0-5.3,2.4-5.3,5.3
				C-192.5,175.8-190.1,178.1-187.2,178.1z"/>
			<path class="st0" d="M-187.2,218.5c2.9,0,5.3-2.4,5.3-5.3c0-2.9-2.4-5.3-5.3-5.3c-2.9,0-5.3,2.4-5.3,5.3
				C-192.5,216.1-190.1,218.5-187.2,218.5z"/>
			<path class="st0" d="M-187.2,258.8c2.9,0,5.3-2.4,5.3-5.3c0-2.9-2.4-5.3-5.3-5.3c-2.9,0-5.3,2.4-5.3,5.3
				C-192.5,256.5-190.1,258.8-187.2,258.8z"/>
			<path class="st0" d="M-187.2,299.2c2.9,0,5.3-2.4,5.3-5.3c0-2.9-2.4-5.3-5.3-5.3c-2.9,0-5.3,2.4-5.3,5.3
				C-192.5,296.8-190.1,299.2-187.2,299.2z"/>
			<path class="st0" d="M-187.2,339.5c2.9,0,5.3-2.4,5.3-5.3c0-2.9-2.4-5.3-5.3-5.3c-2.9,0-5.3,2.4-5.3,5.3
				C-192.5,337.2-190.1,339.5-187.2,339.5z"/>
			<path class="st0" d="M-187.2,379.9c2.9,0,5.3-2.4,5.3-5.3c0-2.9-2.4-5.3-5.3-5.3c-2.9,0-5.3,2.4-5.3,5.3
				C-192.5,377.5-190.1,379.9-187.2,379.9z"/>
			<path class="st0" d="M-187.2,420.2c2.9,0,5.3-2.4,5.3-5.3c0-2.9-2.4-5.3-5.3-5.3c-2.9,0-5.3,2.4-5.3,5.3
				C-192.5,417.9-190.1,420.2-187.2,420.2z"/>
		</g>
		<g>
			<path class="st0" d="M-146.9,16.8c2.9,0,5.3-2.4,5.3-5.3c0-2.9-2.4-5.3-5.3-5.3c-2.9,0-5.3,2.4-5.3,5.3
				C-152.1,14.4-149.8,16.8-146.9,16.8z"/>
			<path class="st0" d="M-146.9,57.1c2.9,0,5.3-2.4,5.3-5.3c0-2.9-2.4-5.3-5.3-5.3c-2.9,0-5.3,2.4-5.3,5.3
				C-152.1,54.7-149.8,57.1-146.9,57.1z"/>
			<path class="st0" d="M-146.9,97.5c2.9,0,5.3-2.4,5.3-5.3c0-2.9-2.4-5.3-5.3-5.3c-2.9,0-5.3,2.4-5.3,5.3
				C-152.1,95.1-149.8,97.5-146.9,97.5z"/>
			<path class="st0" d="M-146.9,137.8c2.9,0,5.3-2.4,5.3-5.3c0-2.9-2.4-5.3-5.3-5.3c-2.9,0-5.3,2.4-5.3,5.3
				C-152.1,135.4-149.8,137.8-146.9,137.8z"/>
			<path class="st0" d="M-146.9,178.1c2.9,0,5.3-2.4,5.3-5.3c0-2.9-2.4-5.3-5.3-5.3c-2.9,0-5.3,2.4-5.3,5.3
				C-152.1,175.8-149.8,178.1-146.9,178.1z"/>
			<path class="st0" d="M-146.9,218.5c2.9,0,5.3-2.4,5.3-5.3c0-2.9-2.4-5.3-5.3-5.3c-2.9,0-5.3,2.4-5.3,5.3
				C-152.1,216.1-149.8,218.5-146.9,218.5z"/>
			<path class="st0" d="M-146.9,258.8c2.9,0,5.3-2.4,5.3-5.3c0-2.9-2.4-5.3-5.3-5.3c-2.9,0-5.3,2.4-5.3,5.3
				C-152.1,256.5-149.8,258.8-146.9,258.8z"/>
			<path class="st0" d="M-146.9,299.2c2.9,0,5.3-2.4,5.3-5.3c0-2.9-2.4-5.3-5.3-5.3c-2.9,0-5.3,2.4-5.3,5.3
				C-152.1,296.8-149.8,299.2-146.9,299.2z"/>
			<path class="st0" d="M-146.9,339.5c2.9,0,5.3-2.4,5.3-5.3c0-2.9-2.4-5.3-5.3-5.3c-2.9,0-5.3,2.4-5.3,5.3
				C-152.1,337.2-149.8,339.5-146.9,339.5z"/>
			<path class="st0" d="M-146.9,379.9c2.9,0,5.3-2.4,5.3-5.3c0-2.9-2.4-5.3-5.3-5.3c-2.9,0-5.3,2.4-5.3,5.3
				C-152.1,377.5-149.8,379.9-146.9,379.9z"/>
			<path class="st0" d="M-146.9,420.2c2.9,0,5.3-2.4,5.3-5.3c0-2.9-2.4-5.3-5.3-5.3c-2.9,0-5.3,2.4-5.3,5.3
				C-152.1,417.9-149.8,420.2-146.9,420.2z"/>
		</g>
		<g>
			<path class="st0" d="M-106.5,16.8c2.9,0,5.3-2.4,5.3-5.3c0-2.9-2.4-5.3-5.3-5.3c-2.9,0-5.3,2.4-5.3,5.3
				C-111.8,14.4-109.4,16.8-106.5,16.8z"/>
			<path class="st0" d="M-106.5,57.1c2.9,0,5.3-2.4,5.3-5.3c0-2.9-2.4-5.3-5.3-5.3c-2.9,0-5.3,2.4-5.3,5.3
				C-111.8,54.7-109.4,57.1-106.5,57.1z"/>
			<path class="st0" d="M-106.5,97.5c2.9,0,5.3-2.4,5.3-5.3c0-2.9-2.4-5.3-5.3-5.3c-2.9,0-5.3,2.4-5.3,5.3
				C-111.8,95.1-109.4,97.5-106.5,97.5z"/>
			<path class="st0" d="M-106.5,137.8c2.9,0,5.3-2.4,5.3-5.3c0-2.9-2.4-5.3-5.3-5.3c-2.9,0-5.3,2.4-5.3,5.3
				C-111.8,135.4-109.4,137.8-106.5,137.8z"/>
			<path class="st0" d="M-106.5,178.1c2.9,0,5.3-2.4,5.3-5.3c0-2.9-2.4-5.3-5.3-5.3c-2.9,0-5.3,2.4-5.3,5.3
				C-111.8,175.8-109.4,178.1-106.5,178.1z"/>
			<path class="st0" d="M-106.5,218.5c2.9,0,5.3-2.4,5.3-5.3c0-2.9-2.4-5.3-5.3-5.3c-2.9,0-5.3,2.4-5.3,5.3
				C-111.8,216.1-109.4,218.5-106.5,218.5z"/>
			<path class="st0" d="M-106.5,258.8c2.9,0,5.3-2.4,5.3-5.3c0-2.9-2.4-5.3-5.3-5.3c-2.9,0-5.3,2.4-5.3,5.3
				C-111.8,256.5-109.4,258.8-106.5,258.8z"/>
			<path class="st0" d="M-106.5,299.2c2.9,0,5.3-2.4,5.3-5.3c0-2.9-2.4-5.3-5.3-5.3c-2.9,0-5.3,2.4-5.3,5.3
				C-111.8,296.8-109.4,299.2-106.5,299.2z"/>
			<path class="st0" d="M-106.5,339.5c2.9,0,5.3-2.4,5.3-5.3c0-2.9-2.4-5.3-5.3-5.3c-2.9,0-5.3,2.4-5.3,5.3
				C-111.8,337.2-109.4,339.5-106.5,339.5z"/>
			<path class="st0" d="M-106.5,379.9c2.9,0,5.3-2.4,5.3-5.3c0-2.9-2.4-5.3-5.3-5.3c-2.9,0-5.3,2.4-5.3,5.3
				C-111.8,377.5-109.4,379.9-106.5,379.9z"/>
			<path class="st0" d="M-106.5,420.2c2.9,0,5.3-2.4,5.3-5.3c0-2.9-2.4-5.3-5.3-5.3c-2.9,0-5.3,2.4-5.3,5.3
				C-111.8,417.9-109.4,420.2-106.5,420.2z"/>
		</g>
		<g>
			<path class="st0" d="M-66.2,16.8c2.9,0,5.3-2.4,5.3-5.3c0-2.9-2.4-5.3-5.3-5.3c-2.9,0-5.3,2.4-5.3,5.3
				C-71.4,14.4-69.1,16.8-66.2,16.8z"/>
			<path class="st0" d="M-66.2,57.1c2.9,0,5.3-2.4,5.3-5.3c0-2.9-2.4-5.3-5.3-5.3c-2.9,0-5.3,2.4-5.3,5.3
				C-71.4,54.7-69.1,57.1-66.2,57.1z"/>
			<path class="st0" d="M-66.2,97.5c2.9,0,5.3-2.4,5.3-5.3c0-2.9-2.4-5.3-5.3-5.3c-2.9,0-5.3,2.4-5.3,5.3
				C-71.4,95.1-69.1,97.5-66.2,97.5z"/>
			<path class="st0" d="M-66.2,137.8c2.9,0,5.3-2.4,5.3-5.3c0-2.9-2.4-5.3-5.3-5.3c-2.9,0-5.3,2.4-5.3,5.3
				C-71.4,135.4-69.1,137.8-66.2,137.8z"/>
			<path class="st0" d="M-66.2,178.1c2.9,0,5.3-2.4,5.3-5.3c0-2.9-2.4-5.3-5.3-5.3c-2.9,0-5.3,2.4-5.3,5.3
				C-71.4,175.8-69.1,178.1-66.2,178.1z"/>
			<path class="st0" d="M-66.2,218.5c2.9,0,5.3-2.4,5.3-5.3c0-2.9-2.4-5.3-5.3-5.3c-2.9,0-5.3,2.4-5.3,5.3
				C-71.4,216.1-69.1,218.5-66.2,218.5z"/>
			<path class="st0" d="M-66.2,258.8c2.9,0,5.3-2.4,5.3-5.3c0-2.9-2.4-5.3-5.3-5.3c-2.9,0-5.3,2.4-5.3,5.3
				C-71.4,256.5-69.1,258.8-66.2,258.8z"/>
			<path class="st0" d="M-66.2,299.2c2.9,0,5.3-2.4,5.3-5.3c0-2.9-2.4-5.3-5.3-5.3c-2.9,0-5.3,2.4-5.3,5.3
				C-71.4,296.8-69.1,299.2-66.2,299.2z"/>
			<path class="st0" d="M-66.2,339.5c2.9,0,5.3-2.4,5.3-5.3c0-2.9-2.4-5.3-5.3-5.3c-2.9,0-5.3,2.4-5.3,5.3
				C-71.4,337.2-69.1,339.5-66.2,339.5z"/>
			<path class="st0" d="M-66.2,379.9c2.9,0,5.3-2.4,5.3-5.3c0-2.9-2.4-5.3-5.3-5.3c-2.9,0-5.3,2.4-5.3,5.3
				C-71.4,377.5-69.1,379.9-66.2,379.9z"/>
			<path class="st0" d="M-66.2,420.2c2.9,0,5.3-2.4,5.3-5.3c0-2.9-2.4-5.3-5.3-5.3c-2.9,0-5.3,2.4-5.3,5.3
				C-71.4,417.9-69.1,420.2-66.2,420.2z"/>
		</g>
		<g>
			<path class="st0" d="M-25.8,16.8c2.9,0,5.3-2.4,5.3-5.3c0-2.9-2.4-5.3-5.3-5.3c-2.9,0-5.3,2.4-5.3,5.3
				C-31.1,14.4-28.7,16.8-25.8,16.8z"/>
			<path class="st0" d="M-25.8,57.1c2.9,0,5.3-2.4,5.3-5.3c0-2.9-2.4-5.3-5.3-5.3c-2.9,0-5.3,2.4-5.3,5.3
				C-31.1,54.7-28.7,57.1-25.8,57.1z"/>
			<path class="st0" d="M-25.8,97.5c2.9,0,5.3-2.4,5.3-5.3c0-2.9-2.4-5.3-5.3-5.3c-2.9,0-5.3,2.4-5.3,5.3
				C-31.1,95.1-28.7,97.5-25.8,97.5z"/>
			<path class="st0" d="M-25.8,137.8c2.9,0,5.3-2.4,5.3-5.3c0-2.9-2.4-5.3-5.3-5.3c-2.9,0-5.3,2.4-5.3,5.3
				C-31.1,135.4-28.7,137.8-25.8,137.8z"/>
			<path class="st0" d="M-25.8,178.1c2.9,0,5.3-2.4,5.3-5.3c0-2.9-2.4-5.3-5.3-5.3c-2.9,0-5.3,2.4-5.3,5.3
				C-31.1,175.8-28.7,178.1-25.8,178.1z"/>
			<path class="st0" d="M-25.8,218.5c2.9,0,5.3-2.4,5.3-5.3c0-2.9-2.4-5.3-5.3-5.3c-2.9,0-5.3,2.4-5.3,5.3
				C-31.1,216.1-28.7,218.5-25.8,218.5z"/>
			<path class="st0" d="M-25.8,258.8c2.9,0,5.3-2.4,5.3-5.3c0-2.9-2.4-5.3-5.3-5.3c-2.9,0-5.3,2.4-5.3,5.3
				C-31.1,256.5-28.7,258.8-25.8,258.8z"/>
			<path class="st0" d="M-25.8,299.2c2.9,0,5.3-2.4,5.3-5.3c0-2.9-2.4-5.3-5.3-5.3c-2.9,0-5.3,2.4-5.3,5.3
				C-31.1,296.8-28.7,299.2-25.8,299.2z"/>
			<path class="st0" d="M-25.8,339.5c2.9,0,5.3-2.4,5.3-5.3c0-2.9-2.4-5.3-5.3-5.3c-2.9,0-5.3,2.4-5.3,5.3
				C-31.1,337.2-28.7,339.5-25.8,339.5z"/>
			<path class="st0" d="M-25.8,379.9c2.9,0,5.3-2.4,5.3-5.3c0-2.9-2.4-5.3-5.3-5.3c-2.9,0-5.3,2.4-5.3,5.3
				C-31.1,377.5-28.7,379.9-25.8,379.9z"/>
			<path class="st0" d="M-25.8,420.2c2.9,0,5.3-2.4,5.3-5.3c0-2.9-2.4-5.3-5.3-5.3c-2.9,0-5.3,2.4-5.3,5.3
				C-31.1,417.9-28.7,420.2-25.8,420.2z"/>
		</g>
		<g>
			<path class="st0" d="M14.5,16.8c2.9,0,5.3-2.4,5.3-5.3c0-2.9-2.4-5.3-5.3-5.3c-2.9,0-5.3,2.4-5.3,5.3
				C9.3,14.4,11.6,16.8,14.5,16.8z"/>
			<path class="st0" d="M14.5,57.1c2.9,0,5.3-2.4,5.3-5.3c0-2.9-2.4-5.3-5.3-5.3c-2.9,0-5.3,2.4-5.3,5.3
				C9.3,54.7,11.6,57.1,14.5,57.1z"/>
			<path class="st0" d="M14.5,97.5c2.9,0,5.3-2.4,5.3-5.3c0-2.9-2.4-5.3-5.3-5.3c-2.9,0-5.3,2.4-5.3,5.3
				C9.3,95.1,11.6,97.5,14.5,97.5z"/>
			<path class="st0" d="M14.5,137.8c2.9,0,5.3-2.4,5.3-5.3c0-2.9-2.4-5.3-5.3-5.3c-2.9,0-5.3,2.4-5.3,5.3
				C9.3,135.4,11.6,137.8,14.5,137.8z"/>
			<path class="st0" d="M14.5,178.1c2.9,0,5.3-2.4,5.3-5.3c0-2.9-2.4-5.3-5.3-5.3c-2.9,0-5.3,2.4-5.3,5.3
				C9.3,175.8,11.6,178.1,14.5,178.1z"/>
			<path class="st0" d="M14.5,218.5c2.9,0,5.3-2.4,5.3-5.3c0-2.9-2.4-5.3-5.3-5.3c-2.9,0-5.3,2.4-5.3,5.3
				C9.3,216.1,11.6,218.5,14.5,218.5z"/>
			<path class="st0" d="M14.5,258.8c2.9,0,5.3-2.4,5.3-5.3c0-2.9-2.4-5.3-5.3-5.3c-2.9,0-5.3,2.4-5.3,5.3
				C9.3,256.5,11.6,258.8,14.5,258.8z"/>
			<path class="st0" d="M14.5,299.2c2.9,0,5.3-2.4,5.3-5.3c0-2.9-2.4-5.3-5.3-5.3c-2.9,0-5.3,2.4-5.3,5.3
				C9.3,296.8,11.6,299.2,14.5,299.2z"/>
			<path class="st0" d="M14.5,339.5c2.9,0,5.3-2.4,5.3-5.3c0-2.9-2.4-5.3-5.3-5.3c-2.9,0-5.3,2.4-5.3,5.3
				C9.3,337.2,11.6,339.5,14.5,339.5z"/>
			<path class="st0" d="M14.5,379.9c2.9,0,5.3-2.4,5.3-5.3c0-2.9-2.4-5.3-5.3-5.3c-2.9,0-5.3,2.4-5.3,5.3
				C9.3,377.5,11.6,379.9,14.5,379.9z"/>
			<path class="st0" d="M14.5,420.2c2.9,0,5.3-2.4,5.3-5.3c0-2.9-2.4-5.3-5.3-5.3c-2.9,0-5.3,2.4-5.3,5.3
				C9.3,417.9,11.6,420.2,14.5,420.2z"/>
		</g>
		<g>
			<path class="st0" d="M54.9,16.8c2.9,0,5.3-2.4,5.3-5.3c0-2.9-2.4-5.3-5.3-5.3c-2.9,0-5.3,2.4-5.3,5.3
				C49.6,14.4,52,16.8,54.9,16.8z"/>
			<path class="st0" d="M54.9,57.1c2.9,0,5.3-2.4,5.3-5.3c0-2.9-2.4-5.3-5.3-5.3c-2.9,0-5.3,2.4-5.3,5.3
				C49.6,54.7,52,57.1,54.9,57.1z"/>
			<path class="st0" d="M54.9,97.5c2.9,0,5.3-2.4,5.3-5.3c0-2.9-2.4-5.3-5.3-5.3c-2.9,0-5.3,2.4-5.3,5.3
				C49.6,95.1,52,97.5,54.9,97.5z"/>
			<path class="st0" d="M54.9,137.8c2.9,0,5.3-2.4,5.3-5.3c0-2.9-2.4-5.3-5.3-5.3c-2.9,0-5.3,2.4-5.3,5.3
				C49.6,135.4,52,137.8,54.9,137.8z"/>
			<path class="st0" d="M54.9,178.1c2.9,0,5.3-2.4,5.3-5.3c0-2.9-2.4-5.3-5.3-5.3c-2.9,0-5.3,2.4-5.3,5.3
				C49.6,175.8,52,178.1,54.9,178.1z"/>
			<path class="st0" d="M54.9,218.5c2.9,0,5.3-2.4,5.3-5.3c0-2.9-2.4-5.3-5.3-5.3c-2.9,0-5.3,2.4-5.3,5.3
				C49.6,216.1,52,218.5,54.9,218.5z"/>
			<path class="st0" d="M54.9,258.8c2.9,0,5.3-2.4,5.3-5.3c0-2.9-2.4-5.3-5.3-5.3c-2.9,0-5.3,2.4-5.3,5.3
				C49.6,256.5,52,258.8,54.9,258.8z"/>
			<path class="st0" d="M54.9,299.2c2.9,0,5.3-2.4,5.3-5.3c0-2.9-2.4-5.3-5.3-5.3c-2.9,0-5.3,2.4-5.3,5.3
				C49.6,296.8,52,299.2,54.9,299.2z"/>
			<path class="st0" d="M54.9,339.5c2.9,0,5.3-2.4,5.3-5.3c0-2.9-2.4-5.3-5.3-5.3c-2.9,0-5.3,2.4-5.3,5.3
				C49.6,337.2,52,339.5,54.9,339.5z"/>
			<path class="st0" d="M54.9,379.9c2.9,0,5.3-2.4,5.3-5.3c0-2.9-2.4-5.3-5.3-5.3c-2.9,0-5.3,2.4-5.3,5.3
				C49.6,377.5,52,379.9,54.9,379.9z"/>
			<path class="st0" d="M54.9,420.2c2.9,0,5.3-2.4,5.3-5.3c0-2.9-2.4-5.3-5.3-5.3c-2.9,0-5.3,2.4-5.3,5.3
				C49.6,417.9,52,420.2,54.9,420.2z"/>
		</g>
		<g>
			<path class="st0" d="M95.2,16.8c2.9,0,5.3-2.4,5.3-5.3c0-2.9-2.4-5.3-5.3-5.3c-2.9,0-5.3,2.4-5.3,5.3
				C90,14.4,92.3,16.8,95.2,16.8z"/>
			<path class="st0" d="M95.2,57.1c2.9,0,5.3-2.4,5.3-5.3c0-2.9-2.4-5.3-5.3-5.3c-2.9,0-5.3,2.4-5.3,5.3
				C90,54.7,92.3,57.1,95.2,57.1z"/>
			<path class="st0" d="M95.2,97.5c2.9,0,5.3-2.4,5.3-5.3c0-2.9-2.4-5.3-5.3-5.3c-2.9,0-5.3,2.4-5.3,5.3
				C90,95.1,92.3,97.5,95.2,97.5z"/>
			<path class="st0" d="M95.2,137.8c2.9,0,5.3-2.4,5.3-5.3c0-2.9-2.4-5.3-5.3-5.3c-2.9,0-5.3,2.4-5.3,5.3
				C90,135.4,92.3,137.8,95.2,137.8z"/>
			<path class="st0" d="M95.2,178.1c2.9,0,5.3-2.4,5.3-5.3c0-2.9-2.4-5.3-5.3-5.3c-2.9,0-5.3,2.4-5.3,5.3
				C90,175.8,92.3,178.1,95.2,178.1z"/>
			<path class="st0" d="M95.2,218.5c2.9,0,5.3-2.4,5.3-5.3c0-2.9-2.4-5.3-5.3-5.3c-2.9,0-5.3,2.4-5.3,5.3
				C90,216.1,92.3,218.5,95.2,218.5z"/>
			<path class="st0" d="M95.2,258.8c2.9,0,5.3-2.4,5.3-5.3c0-2.9-2.4-5.3-5.3-5.3c-2.9,0-5.3,2.4-5.3,5.3
				C90,256.5,92.3,258.8,95.2,258.8z"/>
			<path class="st0" d="M95.2,299.2c2.9,0,5.3-2.4,5.3-5.3c0-2.9-2.4-5.3-5.3-5.3c-2.9,0-5.3,2.4-5.3,5.3
				C90,296.8,92.3,299.2,95.2,299.2z"/>
			<path class="st0" d="M95.2,339.5c2.9,0,5.3-2.4,5.3-5.3c0-2.9-2.4-5.3-5.3-5.3c-2.9,0-5.3,2.4-5.3,5.3
				C90,337.2,92.3,339.5,95.2,339.5z"/>
			<path class="st0" d="M95.2,379.9c2.9,0,5.3-2.4,5.3-5.3c0-2.9-2.4-5.3-5.3-5.3c-2.9,0-5.3,2.4-5.3,5.3
				C90,377.5,92.3,379.9,95.2,379.9z"/>
			<path class="st0" d="M95.2,420.2c2.9,0,5.3-2.4,5.3-5.3c0-2.9-2.4-5.3-5.3-5.3c-2.9,0-5.3,2.4-5.3,5.3
				C90,417.9,92.3,420.2,95.2,420.2z"/>
		</g>
		<g>
			<path class="st0" d="M135.6,16.8c2.9,0,5.3-2.4,5.3-5.3c0-2.9-2.4-5.3-5.3-5.3c-2.9,0-5.3,2.4-5.3,5.3
				C130.3,14.4,132.7,16.8,135.6,16.8z"/>
			<path class="st0" d="M135.6,57.1c2.9,0,5.3-2.4,5.3-5.3c0-2.9-2.4-5.3-5.3-5.3c-2.9,0-5.3,2.4-5.3,5.3
				C130.3,54.7,132.7,57.1,135.6,57.1z"/>
			<path class="st0" d="M135.6,97.5c2.9,0,5.3-2.4,5.3-5.3c0-2.9-2.4-5.3-5.3-5.3c-2.9,0-5.3,2.4-5.3,5.3
				C130.3,95.1,132.7,97.5,135.6,97.5z"/>
			<path class="st0" d="M135.6,137.8c2.9,0,5.3-2.4,5.3-5.3c0-2.9-2.4-5.3-5.3-5.3c-2.9,0-5.3,2.4-5.3,5.3
				C130.3,135.4,132.7,137.8,135.6,137.8z"/>
			<path class="st0" d="M135.6,178.1c2.9,0,5.3-2.4,5.3-5.3c0-2.9-2.4-5.3-5.3-5.3c-2.9,0-5.3,2.4-5.3,5.3
				C130.3,175.8,132.7,178.2,135.6,178.1z"/>
			<path class="st0" d="M135.6,218.5c2.9,0,5.3-2.4,5.3-5.3c0-2.9-2.4-5.3-5.3-5.3c-2.9,0-5.3,2.4-5.3,5.3
				C130.3,216.1,132.7,218.5,135.6,218.5z"/>
			<path class="st0" d="M135.6,258.8c2.9,0,5.3-2.4,5.3-5.3c0-2.9-2.4-5.3-5.3-5.3c-2.9,0-5.3,2.4-5.3,5.3
				C130.3,256.5,132.7,258.8,135.6,258.8z"/>
			<path class="st0" d="M135.6,299.2c2.9,0,5.3-2.4,5.3-5.3c0-2.9-2.4-5.3-5.3-5.3c-2.9,0-5.3,2.4-5.3,5.3
				C130.3,296.8,132.7,299.2,135.6,299.2z"/>
			<path class="st0" d="M135.6,339.5c2.9,0,5.3-2.4,5.3-5.3c0-2.9-2.4-5.3-5.3-5.3c-2.9,0-5.3,2.4-5.3,5.3
				C130.3,337.2,132.7,339.5,135.6,339.5z"/>
			<path class="st0" d="M135.6,379.9c2.9,0,5.3-2.4,5.3-5.3c0-2.9-2.4-5.3-5.3-5.3c-2.9,0-5.3,2.4-5.3,5.3
				C130.3,377.5,132.7,379.9,135.6,379.9z"/>
			<path class="st0" d="M135.6,420.2c2.9,0,5.3-2.4,5.3-5.3c0-2.9-2.4-5.3-5.3-5.3c-2.9,0-5.3,2.4-5.3,5.3
				C130.3,417.9,132.7,420.2,135.6,420.2z"/>
		</g>
		<g>
			<path class="st0" d="M175.9,16.8c2.9,0,5.3-2.4,5.3-5.3c0-2.9-2.4-5.3-5.3-5.3c-2.9,0-5.3,2.4-5.3,5.3
				C170.7,14.4,173,16.8,175.9,16.8z"/>
			<path class="st0" d="M175.9,57.1c2.9,0,5.3-2.4,5.3-5.3c0-2.9-2.4-5.3-5.3-5.3c-2.9,0-5.3,2.4-5.3,5.3
				C170.7,54.7,173,57.1,175.9,57.1z"/>
			<path class="st0" d="M175.9,97.5c2.9,0,5.3-2.4,5.3-5.3c0-2.9-2.4-5.3-5.3-5.3c-2.9,0-5.3,2.4-5.3,5.3
				C170.7,95.1,173,97.5,175.9,97.5z"/>
			<path class="st0" d="M175.9,137.8c2.9,0,5.3-2.4,5.3-5.3c0-2.9-2.4-5.3-5.3-5.3c-2.9,0-5.3,2.4-5.3,5.3
				C170.7,135.4,173,137.8,175.9,137.8z"/>
			<path class="st0" d="M175.9,178.1c2.9,0,5.3-2.4,5.3-5.3c0-2.9-2.4-5.3-5.3-5.3c-2.9,0-5.3,2.4-5.3,5.3
				C170.7,175.8,173,178.1,175.9,178.1z"/>
			<path class="st0" d="M175.9,218.5c2.9,0,5.3-2.4,5.3-5.3c0-2.9-2.4-5.3-5.3-5.3c-2.9,0-5.3,2.4-5.3,5.3
				C170.7,216.1,173,218.5,175.9,218.5z"/>
			<path class="st0" d="M175.9,258.8c2.9,0,5.3-2.4,5.3-5.3c0-2.9-2.4-5.3-5.3-5.3c-2.9,0-5.3,2.4-5.3,5.3
				C170.7,256.5,173,258.8,175.9,258.8z"/>
			<path class="st0" d="M175.9,299.2c2.9,0,5.3-2.4,5.3-5.3c0-2.9-2.4-5.3-5.3-5.3c-2.9,0-5.3,2.4-5.3,5.3
				C170.7,296.8,173,299.2,175.9,299.2z"/>
			<path class="st0" d="M175.9,339.5c2.9,0,5.3-2.4,5.3-5.3c0-2.9-2.4-5.3-5.3-5.3c-2.9,0-5.3,2.4-5.3,5.3
				C170.7,337.2,173,339.5,175.9,339.5z"/>
			<path class="st0" d="M175.9,379.9c2.9,0,5.3-2.4,5.3-5.3c0-2.9-2.4-5.3-5.3-5.3c-2.9,0-5.3,2.4-5.3,5.3
				C170.7,377.5,173,379.9,175.9,379.9z"/>
			<path class="st0" d="M175.9,420.2c2.9,0,5.3-2.4,5.3-5.3c0-2.9-2.4-5.3-5.3-5.3c-2.9,0-5.3,2.4-5.3,5.3
				C170.7,417.9,173,420.2,175.9,420.2z"/>
		</g>
		<g>
			<path class="st0" d="M216.3,16.8c2.9,0,5.3-2.4,5.3-5.3c0-2.9-2.4-5.3-5.3-5.3c-2.9,0-5.3,2.4-5.3,5.3
				C211,14.4,213.4,16.8,216.3,16.8z"/>
			<path class="st0" d="M216.3,57.1c2.9,0,5.3-2.4,5.3-5.3c0-2.9-2.4-5.3-5.3-5.3c-2.9,0-5.3,2.4-5.3,5.3
				C211,54.7,213.4,57.1,216.3,57.1z"/>
			<path class="st0" d="M216.3,97.5c2.9,0,5.3-2.4,5.3-5.3c0-2.9-2.4-5.3-5.3-5.3c-2.9,0-5.3,2.4-5.3,5.3
				C211,95.1,213.4,97.5,216.3,97.5z"/>
			<path class="st0" d="M216.3,137.8c2.9,0,5.3-2.4,5.3-5.3c0-2.9-2.4-5.3-5.3-5.3c-2.9,0-5.3,2.4-5.3,5.3
				C211,135.4,213.4,137.8,216.3,137.8z"/>
			<path class="st0" d="M216.3,178.1c2.9,0,5.3-2.4,5.3-5.3c0-2.9-2.4-5.3-5.3-5.3c-2.9,0-5.3,2.4-5.3,5.3
				C211,175.8,213.4,178.1,216.3,178.1z"/>
			<path class="st0" d="M216.3,218.5c2.9,0,5.3-2.4,5.3-5.3c0-2.9-2.4-5.3-5.3-5.3c-2.9,0-5.3,2.4-5.3,5.3
				C211,216.1,213.4,218.5,216.3,218.5z"/>
			<path class="st0" d="M216.3,258.8c2.9,0,5.3-2.4,5.3-5.3c0-2.9-2.4-5.3-5.3-5.3c-2.9,0-5.3,2.4-5.3,5.3
				C211,256.5,213.4,258.8,216.3,258.8z"/>
			<path class="st0" d="M216.3,299.2c2.9,0,5.3-2.4,5.3-5.3c0-2.9-2.4-5.3-5.3-5.3c-2.9,0-5.3,2.4-5.3,5.3
				C211,296.8,213.4,299.2,216.3,299.2z"/>
			<path class="st0" d="M216.3,339.5c2.9,0,5.3-2.4,5.3-5.3c0-2.9-2.4-5.3-5.3-5.3c-2.9,0-5.3,2.4-5.3,5.3
				C211,337.2,213.4,339.5,216.3,339.5z"/>
			<path class="st0" d="M216.3,379.9c2.9,0,5.3-2.4,5.3-5.3c0-2.9-2.4-5.3-5.3-5.3c-2.9,0-5.3,2.4-5.3,5.3
				C211,377.5,213.4,379.9,216.3,379.9z"/>
			<path class="st0" d="M216.3,420.2c2.9,0,5.3-2.4,5.3-5.3c0-2.9-2.4-5.3-5.3-5.3c-2.9,0-5.3,2.4-5.3,5.3
				C211,417.9,213.4,420.2,216.3,420.2z"/>
		</g>
	</g>
</g>
<g>
</g>
<g>
</g>
<g>
</g>
<g>
</g>
<g>
</g>
<g>
</g>
<g>
</g>
<g>
</g>
<g>
</g>
<g>
</g>
<g>
</g>
</svg>
