<?xml version="1.0" encoding="utf-8"?>
<!-- Generator: Adobe Illustrator 25.2.1, SVG Export Plug-In . SVG Version: 6.00 Build 0)  -->
<svg version="1.1" id="Camada_1" xmlns="http://www.w3.org/2000/svg" xmlns:xlink="http://www.w3.org/1999/xlink" x="0px" y="0px"
	 viewBox="0 0 157.1 306.4" style="enable-background:new 0 0 157.1 306.4;" xml:space="preserve">
<style type="text/css">
	.st0{fill:#FFFFFF;}
</style>
<path class="st0" d="M1.2,6.7c1.5,1.5,4,1.5,5.6,0c1.5-1.5,1.5-4,0-5.6c-1.5-1.5-4-1.5-5.6,0C-0.4,2.7-0.4,5.2,1.2,6.7z"/>
<path class="st0" d="M22.5,28c1.5,1.5,4,1.5,5.6,0c1.5-1.5,1.5-4,0-5.6c-1.5-1.5-4-1.5-5.6,0C20.9,24,20.9,26.5,22.5,28z"/>
<path class="st0" d="M1.2,49.4c1.5,1.5,4,1.5,5.6,0c1.5-1.5,1.5-4,0-5.6c-1.5-1.5-4-1.5-5.6,0C-0.4,45.3-0.4,47.8,1.2,49.4z"/>
<path class="st0" d="M43.8,49.4c1.5,1.5,4,1.5,5.6,0c1.5-1.5,1.5-4,0-5.6c-1.5-1.5-4-1.5-5.6,0C42.3,45.3,42.3,47.8,43.8,49.4z"/>
<path class="st0" d="M22.5,70.7c1.5,1.5,4,1.5,5.6,0c1.5-1.5,1.5-4,0-5.6c-1.5-1.5-4-1.5-5.6,0C20.9,66.7,20.9,69.1,22.5,70.7z"/>
<path class="st0" d="M1.2,92c1.5,1.5,4,1.5,5.6,0c1.5-1.5,1.5-4,0-5.6c-1.5-1.5-4-1.5-5.6,0C-0.4,88-0.4,90.5,1.2,92z"/>
<path class="st0" d="M65.1,70.7c1.5,1.5,4,1.5,5.6,0c1.5-1.5,1.5-4,0-5.6c-1.5-1.5-4-1.5-5.6,0C63.6,66.7,63.6,69.1,65.1,70.7z"/>
<path class="st0" d="M43.8,92c1.5,1.5,4,1.5,5.6,0c1.5-1.5,1.5-4,0-5.6c-1.5-1.5-4-1.5-5.6,0C42.3,88,42.3,90.5,43.8,92z"/>
<path class="st0" d="M22.5,113.3c1.5,1.5,4,1.5,5.6,0c1.5-1.5,1.5-4,0-5.6c-1.5-1.5-4-1.5-5.6,0C20.9,109.3,20.9,111.8,22.5,113.3z"
	/>
<path class="st0" d="M1.2,134.6c1.5,1.5,4,1.5,5.6,0c1.5-1.5,1.5-4,0-5.6c-1.5-1.5-4-1.5-5.6,0C-0.4,130.6-0.4,133.1,1.2,134.6z"/>
<path class="st0" d="M86.4,92c1.5,1.5,4,1.5,5.6,0c1.5-1.5,1.5-4,0-5.6c-1.5-1.5-4-1.5-5.6,0C84.9,88,84.9,90.5,86.4,92z"/>
<path class="st0" d="M65.1,113.3c1.5,1.5,4,1.5,5.6,0c1.5-1.5,1.5-4,0-5.6c-1.5-1.5-4-1.5-5.6,0C63.6,109.3,63.6,111.8,65.1,113.3z"
	/>
<path class="st0" d="M43.8,134.6c1.5,1.5,4,1.5,5.6,0c1.5-1.5,1.5-4,0-5.6c-1.5-1.5-4-1.5-5.6,0C42.3,130.6,42.3,133.1,43.8,134.6z"
	/>
<path class="st0" d="M22.5,156c1.5,1.5,4,1.5,5.6,0c1.5-1.5,1.5-4,0-5.6c-1.5-1.5-4-1.5-5.6,0C20.9,151.9,20.9,154.4,22.5,156z"/>
<path class="st0" d="M1.2,177.3c1.5,1.5,4,1.5,5.6,0c1.5-1.5,1.5-4,0-5.6c-1.5-1.5-4-1.5-5.6,0C-0.4,173.3-0.4,175.7,1.2,177.3z"/>
<path class="st0" d="M107.8,113.3c1.5,1.5,4,1.5,5.6,0c1.5-1.5,1.5-4,0-5.6c-1.5-1.5-4-1.5-5.6,0
	C106.2,109.3,106.2,111.8,107.8,113.3z"/>
<path class="st0" d="M86.4,134.6c1.5,1.5,4,1.5,5.6,0c1.5-1.5,1.5-4,0-5.6c-1.5-1.5-4-1.5-5.6,0C84.9,130.6,84.9,133.1,86.4,134.6z"
	/>
<path class="st0" d="M65.1,156c1.5,1.5,4,1.5,5.6,0c1.5-1.5,1.5-4,0-5.6c-1.5-1.5-4-1.5-5.6,0C63.6,151.9,63.6,154.4,65.1,156z"/>
<path class="st0" d="M43.8,177.3c1.5,1.5,4,1.5,5.6,0c1.5-1.5,1.5-4,0-5.6c-1.5-1.5-4-1.5-5.6,0C42.3,173.3,42.3,175.7,43.8,177.3z"
	/>
<path class="st0" d="M22.5,198.6c1.5,1.5,4,1.5,5.6,0c1.5-1.5,1.5-4,0-5.6c-1.5-1.5-4-1.5-5.6,0C20.9,194.6,20.9,197.1,22.5,198.6z"
	/>
<path class="st0" d="M1.2,219.9c1.5,1.5,4,1.5,5.6,0c1.5-1.5,1.5-4,0-5.6c-1.5-1.5-4-1.5-5.6,0C-0.4,215.9-0.4,218.4,1.2,219.9z"/>
<path class="st0" d="M129.1,134.6c1.5,1.5,4,1.5,5.6,0c1.5-1.5,1.5-4,0-5.6c-1.5-1.5-4-1.5-5.6,0
	C127.5,130.6,127.5,133.1,129.1,134.6z"/>
<path class="st0" d="M107.8,156c1.5,1.5,4,1.5,5.6,0c1.5-1.5,1.5-4,0-5.6c-1.5-1.5-4-1.5-5.6,0C106.2,151.9,106.2,154.4,107.8,156z"
	/>
<path class="st0" d="M86.4,177.3c1.5,1.5,4,1.5,5.6,0c1.5-1.5,1.5-4,0-5.6c-1.5-1.5-4-1.5-5.6,0C84.9,173.3,84.9,175.8,86.4,177.3z"
	/>
<path class="st0" d="M65.1,198.6c1.5,1.5,4,1.5,5.6,0c1.5-1.5,1.5-4,0-5.6c-1.5-1.5-4-1.5-5.6,0C63.6,194.6,63.6,197.1,65.1,198.6z"
	/>
<path class="st0" d="M43.8,219.9c1.5,1.5,4,1.5,5.6,0c1.5-1.5,1.5-4,0-5.6c-1.5-1.5-4-1.5-5.6,0C42.3,215.9,42.3,218.4,43.8,219.9z"
	/>
<path class="st0" d="M22.5,241.3c1.5,1.5,4,1.5,5.6,0c1.5-1.5,1.5-4,0-5.6c-1.5-1.5-4-1.5-5.6,0C20.9,237.2,20.9,239.7,22.5,241.3z"
	/>
<path class="st0" d="M1.2,262.6c1.5,1.5,4,1.5,5.6,0c1.5-1.5,1.5-4,0-5.6c-1.5-1.5-4-1.5-5.6,0C-0.4,258.5-0.4,261,1.2,262.6z"/>
<path class="st0" d="M150.4,156c1.5,1.5,4,1.5,5.6,0c1.5-1.5,1.5-4,0-5.6c-1.5-1.5-4-1.5-5.6,0C148.9,151.9,148.9,154.4,150.4,156z"
	/>
<path class="st0" d="M129.1,177.3c1.5,1.5,4,1.5,5.6,0c1.5-1.5,1.5-4,0-5.6c-1.5-1.5-4-1.5-5.6,0
	C127.5,173.3,127.5,175.7,129.1,177.3z"/>
<path class="st0" d="M107.8,198.6c1.5,1.5,4,1.5,5.6,0c1.5-1.5,1.5-4,0-5.6c-1.5-1.5-4-1.5-5.6,0
	C106.2,194.6,106.2,197.1,107.8,198.6z"/>
<path class="st0" d="M86.4,219.9c1.5,1.5,4,1.5,5.6,0c1.5-1.5,1.5-4,0-5.6c-1.5-1.5-4-1.5-5.6,0C84.9,215.9,84.9,218.4,86.4,219.9z"
	/>
<path class="st0" d="M65.1,241.2c1.5,1.5,4,1.5,5.6,0c1.5-1.5,1.5-4,0-5.6c-1.5-1.5-4-1.5-5.6,0C63.6,237.2,63.6,239.7,65.1,241.2z"
	/>
<path class="st0" d="M43.8,262.6c1.5,1.5,4,1.5,5.6,0c1.5-1.5,1.5-4,0-5.6c-1.5-1.5-4-1.5-5.6,0C42.3,258.5,42.3,261,43.8,262.6z"/>
<path class="st0" d="M22.5,283.9c1.5,1.5,4,1.5,5.6,0c1.5-1.5,1.5-4,0-5.6c-1.5-1.5-4-1.5-5.6,0C20.9,279.9,20.9,282.4,22.5,283.9z"
	/>
<path class="st0" d="M1.2,305.2c1.5,1.5,4,1.5,5.6,0c1.5-1.5,1.5-4,0-5.6c-1.5-1.5-4-1.5-5.6,0C-0.4,301.2-0.4,303.7,1.2,305.2z"/>
<g>
</g>
<g>
</g>
<g>
</g>
<g>
</g>
<g>
</g>
<g>
</g>
<g>
</g>
<g>
</g>
<g>
</g>
<g>
</g>
<g>
</g>
<g>
</g>
<g>
</g>
<g>
</g>
<g>
</g>
</svg>
