<?xml version="1.0" encoding="utf-8"?>
<!-- Generator: Adobe Illustrator 25.2.1, SVG Export Plug-In . SVG Version: 6.00 Build 0)  -->
<svg version="1.1" id="Camada_1" xmlns="http://www.w3.org/2000/svg" xmlns:xlink="http://www.w3.org/1999/xlink" x="0px" y="0px"
	 viewBox="0 0 239.8 227.8" style="enable-background:new 0 0 239.8 227.8;" xml:space="preserve">
<style type="text/css">
	.st0{fill:url(#SVGID_1_);}
	.st1{fill:#54C076;}
	.st2{fill:url(#SVGID_2_);}
	.st3{fill:url(#SVGID_3_);}
	.st4{fill:url(#SVGID_4_);}
	.st5{fill:none;}
</style>
<linearGradient id="SVGID_1_" gradientUnits="userSpaceOnUse" x1="17.9999" y1="215.599" x2="221.6713" y2="11.9276">
	<stop  offset="0" style="stop-color:#FFFFFF"/>
	<stop  offset="1" style="stop-color:#DCE1E2"/>
</linearGradient>
<path class="st0" d="M51.3,227.6h137c28.4,0,51.4-23,51.4-51.4v-125c0-28.4-23-51.4-51.4-51.4l-137,0C23-0.1-0.1,22.9-0.1,51.3v125
	C-0.1,204.6,23,227.6,51.3,227.6z"/>
<g>
	<g>
		<g>
			<path class="st1" d="M73.9,90.1L80.6,75h3.5l6.8,15.1h-3.7l-5.5-13.4H83l-5.6,13.4H73.9z M77.2,86.9l0.9-2.7H86l1,2.7H77.2z"/>
			<path class="st1" d="M102.9,90.1V75h6.6c1.4,0,2.5,0.2,3.5,0.7c1,0.4,1.7,1.1,2.3,1.9c0.5,0.8,0.8,1.8,0.8,2.9
				c0,1.1-0.3,2.1-0.8,2.9c-0.5,0.8-1.3,1.4-2.3,1.9c-1,0.4-2.2,0.6-3.5,0.6h-4.6l1.6-1.5v5.8H102.9z M106.4,84.8l-1.6-1.6h4.4
				c1.1,0,1.9-0.2,2.4-0.7s0.8-1.1,0.8-1.9c0-0.8-0.3-1.5-0.8-1.9c-0.5-0.5-1.3-0.7-2.4-0.7h-4.4l1.6-1.7V84.8z M112.5,90.1
				l-3.8-5.5h3.7l3.8,5.5H112.5z"/>
			<path class="st1" d="M128.3,90.4c-1.2,0-2.3-0.2-3.3-0.6c-1-0.4-1.9-0.9-2.6-1.6c-0.7-0.7-1.3-1.5-1.7-2.5s-0.6-2-0.6-3.1
				s0.2-2.2,0.6-3.1s1-1.8,1.7-2.5c0.8-0.7,1.6-1.3,2.6-1.6s2.1-0.6,3.3-0.6c1.2,0,2.3,0.2,3.3,0.6c1,0.4,1.9,0.9,2.6,1.6
				c0.7,0.7,1.3,1.5,1.7,2.5c0.4,0.9,0.6,2,0.6,3.1c0,1.1-0.2,2.2-0.6,3.1c-0.4,1-1,1.8-1.7,2.5c-0.7,0.7-1.6,1.2-2.6,1.6
				C130.6,90.2,129.5,90.4,128.3,90.4z M128.3,87.4c0.7,0,1.3-0.1,1.9-0.3c0.6-0.2,1.1-0.6,1.5-1c0.4-0.4,0.8-0.9,1-1.5
				c0.2-0.6,0.4-1.2,0.4-2s-0.1-1.4-0.4-2c-0.2-0.6-0.6-1.1-1-1.5c-0.4-0.4-0.9-0.8-1.5-1s-1.2-0.3-1.9-0.3c-0.7,0-1.3,0.1-1.9,0.3
				c-0.6,0.2-1.1,0.6-1.5,1c-0.4,0.4-0.8,0.9-1,1.5c-0.2,0.6-0.4,1.2-0.4,2c0,0.7,0.1,1.4,0.4,2s0.6,1.1,1,1.5s0.9,0.8,1.5,1
				C127,87.3,127.6,87.4,128.3,87.4z"/>
			<path class="st1" d="M144.3,90.1V77.8h-4.8V75h13.2v2.9h-4.8v12.3H144.3z"/>
			<path class="st1" d="M154,90.1l6.8-15.1h3.5l6.8,15.1h-3.7l-5.5-13.4h1.4l-5.6,13.4H154z M157.3,86.9l0.9-2.7h7.8l1,2.7H157.3z"
				/>
		</g>
	</g>
	<g>
		<g>
			<path d="M119.9,170C119.9,170,119.9,170,119.9,170c-1.5,0-2.9-0.1-4.4-0.3c-0.5,0-0.8-0.5-0.8-1c0-0.5,0.5-0.8,1-0.8
				c1.4,0.1,2.8,0.2,4.2,0.3c0.5,0,0.9,0.4,0.9,0.9C120.7,169.7,120.4,170,119.9,170z M124.2,170c-0.5,0-0.9-0.4-0.9-0.9
				c0-0.5,0.4-0.9,0.9-0.9c1.4,0,2.8-0.1,4.2-0.3c0.5-0.1,0.9,0.3,1,0.8c0,0.5-0.3,0.9-0.8,1C127.1,169.9,125.6,170,124.2,170
				C124.2,170,124.2,170,124.2,170z M111.4,169.2c0,0-0.1,0-0.1,0c-1.4-0.2-2.9-0.5-4.3-0.9c-0.5-0.1-0.8-0.6-0.7-1.1
				c0.1-0.5,0.6-0.8,1.1-0.7c1.4,0.3,2.8,0.6,4.1,0.8c0.5,0.1,0.8,0.5,0.7,1C112.2,168.9,111.8,169.2,111.4,169.2z M132.7,169.2
				c-0.4,0-0.8-0.3-0.9-0.7c-0.1-0.5,0.2-0.9,0.7-1c1.4-0.2,2.8-0.5,4.1-0.8c0.5-0.1,1,0.2,1.1,0.7c0.1,0.5-0.2,1-0.7,1.1
				c-1.4,0.3-2.8,0.6-4.3,0.9C132.8,169.2,132.7,169.2,132.7,169.2z M103,167.2c-0.1,0-0.2,0-0.3,0c-1.4-0.4-2.8-0.9-4.1-1.4
				c-0.5-0.2-0.7-0.7-0.5-1.2c0.2-0.5,0.7-0.7,1.2-0.5c1.3,0.5,2.7,1,4,1.4c0.5,0.1,0.7,0.6,0.6,1.1
				C103.8,167,103.4,167.2,103,167.2z M141,167.2c-0.4,0-0.7-0.2-0.8-0.6c-0.1-0.5,0.1-1,0.6-1.1c1.3-0.4,2.7-0.9,4-1.4
				c0.5-0.2,1,0.1,1.2,0.5c0.2,0.5-0.1,1-0.5,1.2c-1.3,0.5-2.7,1-4.1,1.4C141.2,167.2,141.1,167.2,141,167.2z M95,164.2
				c-0.1,0-0.3,0-0.4-0.1c-1.3-0.6-2.6-1.3-3.9-2c-0.4-0.2-0.6-0.8-0.4-1.2c0.2-0.4,0.8-0.6,1.2-0.4c1.2,0.7,2.5,1.3,3.8,1.9
				c0.4,0.2,0.6,0.7,0.4,1.2C95.7,164,95.4,164.2,95,164.2z M149,164.1c-0.3,0-0.7-0.2-0.8-0.5c-0.2-0.4,0-1,0.4-1.2
				c1.3-0.6,2.5-1.2,3.8-1.9c0.4-0.2,1-0.1,1.2,0.4c0.2,0.4,0.1,1-0.4,1.2c-1.3,0.7-2.6,1.4-3.9,2
				C149.2,164.1,149.1,164.1,149,164.1z M156.5,160c-0.3,0-0.6-0.1-0.8-0.4c-0.3-0.4-0.1-1,0.3-1.2c1.2-0.8,2.3-1.6,3.5-2.4
				c0.4-0.3,1-0.2,1.2,0.2c0.3,0.4,0.2,1-0.2,1.2c-1.2,0.9-2.4,1.7-3.6,2.5C156.8,160,156.6,160,156.5,160z M163.3,154.9
				c-0.3,0-0.5-0.1-0.7-0.3c-0.3-0.4-0.3-0.9,0.1-1.3c1.1-0.9,2.1-1.9,3.1-2.8c0.4-0.3,0.9-0.3,1.3,0c0.3,0.4,0.3,0.9,0,1.3
				c-1,1-2.1,2-3.2,2.9C163.8,154.9,163.5,154.9,163.3,154.9z M58,101.8C58,101.8,58,101.8,58,101.8c-0.5,0-0.9-0.5-0.9-0.9
				c0.1-1.4,0.2-2.9,0.4-4.3c0.1-0.5,0.5-0.8,1-0.8c0.5,0.1,0.8,0.5,0.8,1c-0.2,1.4-0.3,2.8-0.4,4.2C58.9,101.4,58.5,101.8,58,101.8
				z M185.9,101.6c-0.5,0-0.9-0.4-0.9-0.8c-0.1-1.4-0.2-2.8-0.4-4.2c-0.1-0.5,0.3-0.9,0.8-1c0.5-0.1,0.9,0.3,1,0.8
				c0.2,1.4,0.3,2.9,0.4,4.3C186.8,101.1,186.5,101.5,185.9,101.6C185.9,101.6,185.9,101.6,185.9,101.6z M59.2,93.3
				c-0.1,0-0.1,0-0.2,0c-0.5-0.1-0.8-0.6-0.7-1c0.3-1.4,0.6-2.8,1-4.2c0.1-0.5,0.6-0.8,1.1-0.6c0.5,0.1,0.8,0.6,0.6,1.1
				c-0.4,1.3-0.7,2.7-1,4.1C59.9,93,59.6,93.3,59.2,93.3z M184.7,93.1c-0.4,0-0.8-0.3-0.9-0.7c-0.3-1.4-0.6-2.8-1-4.1
				c-0.1-0.5,0.1-1,0.6-1.1c0.5-0.1,1,0.1,1.1,0.6c0.4,1.4,0.7,2.8,1,4.2c0.1,0.5-0.2,1-0.7,1.1C184.9,93.1,184.8,93.1,184.7,93.1z
				 M61.4,85.1c-0.1,0-0.2,0-0.3,0c-0.5-0.2-0.7-0.7-0.6-1.1c0.5-1.4,1-2.7,1.6-4.1c0.2-0.5,0.7-0.7,1.2-0.5
				c0.5,0.2,0.7,0.7,0.5,1.2c-0.5,1.3-1.1,2.6-1.5,3.9C62.1,84.8,61.8,85.1,61.4,85.1z M182.5,84.9c-0.4,0-0.7-0.2-0.8-0.6
				c-0.5-1.3-1-2.6-1.5-3.9c-0.2-0.5,0-1,0.5-1.2c0.5-0.2,1,0,1.2,0.5c0.6,1.3,1.1,2.7,1.6,4c0.2,0.5-0.1,1-0.5,1.1
				C182.7,84.8,182.6,84.9,182.5,84.9z M64.7,77.2c-0.1,0-0.3,0-0.4-0.1c-0.4-0.2-0.6-0.8-0.4-1.2c0.6-1.3,1.4-2.6,2.1-3.8
				c0.3-0.4,0.8-0.6,1.2-0.3c0.4,0.3,0.6,0.8,0.3,1.2c-0.7,1.2-1.4,2.5-2,3.7C65.4,77,65.1,77.2,64.7,77.2z M179.1,77
				c-0.3,0-0.6-0.2-0.8-0.5c-0.6-1.2-1.3-2.5-2-3.7c-0.3-0.4-0.1-1,0.3-1.2c0.4-0.3,1-0.1,1.2,0.3c0.7,1.2,1.4,2.5,2.1,3.8
				c0.2,0.4,0,1-0.4,1.2C179.4,77,179.3,77,179.1,77z M69.1,69.8c-0.2,0-0.3-0.1-0.5-0.2c-0.4-0.3-0.5-0.8-0.2-1.2
				c0.8-1.2,1.7-2.4,2.6-3.5c0.3-0.4,0.9-0.5,1.3-0.1c0.4,0.3,0.5,0.9,0.1,1.3c-0.9,1.1-1.7,2.2-2.5,3.4
				C69.7,69.7,69.4,69.8,69.1,69.8z M174.7,69.7c-0.3,0-0.6-0.1-0.7-0.4c-0.8-1.2-1.6-2.3-2.5-3.4c-0.3-0.4-0.2-0.9,0.1-1.3
				c0.4-0.3,0.9-0.2,1.3,0.1c0.9,1.1,1.8,2.3,2.6,3.5c0.3,0.4,0.2,1-0.2,1.2C175.1,69.6,174.9,69.7,174.7,69.7z M74.4,63.1
				c-0.2,0-0.4-0.1-0.6-0.2c-0.4-0.3-0.4-0.9-0.1-1.3c1-1.1,2-2.1,3-3.1c0.4-0.3,0.9-0.3,1.3,0s0.3,0.9,0,1.3c-1,1-2,2-2.9,3
				C74.9,63,74.7,63.1,74.4,63.1z M169.4,63c-0.2,0-0.5-0.1-0.7-0.3c-0.9-1-1.9-2.1-2.9-3c-0.4-0.3-0.4-0.9,0-1.3
				c0.3-0.4,0.9-0.4,1.3,0c1,1,2.1,2,3,3.1c0.3,0.4,0.3,0.9-0.1,1.3C169.9,62.9,169.6,63,169.4,63z M80.6,57.1
				c-0.3,0-0.5-0.1-0.7-0.3c-0.3-0.4-0.3-0.9,0.1-1.3c1.1-0.9,2.2-1.8,3.4-2.7c0.4-0.3,1-0.2,1.2,0.2c0.3,0.4,0.2,1-0.2,1.2
				c-1.1,0.8-2.2,1.7-3.3,2.6C81,57.1,80.8,57.1,80.6,57.1z M163.3,57c-0.2,0-0.4-0.1-0.6-0.2c-1.1-0.9-2.2-1.8-3.3-2.6
				c-0.4-0.3-0.5-0.8-0.2-1.2c0.3-0.4,0.8-0.5,1.2-0.2c1.2,0.9,2.3,1.8,3.4,2.7c0.4,0.3,0.4,0.9,0.1,1.3
				C163.8,56.9,163.5,57,163.3,57z M87.4,52c-0.3,0-0.6-0.1-0.8-0.4c-0.3-0.4-0.1-1,0.3-1.2c1.2-0.8,2.5-1.5,3.7-2.2
				c0.4-0.2,1-0.1,1.2,0.3c0.2,0.4,0.1,1-0.3,1.2c-1.2,0.7-2.4,1.4-3.6,2.2C87.8,52,87.6,52,87.4,52z M156.4,51.9
				c-0.2,0-0.3,0-0.5-0.1c-1.2-0.8-2.4-1.5-3.6-2.2c-0.4-0.2-0.6-0.8-0.4-1.2c0.2-0.4,0.8-0.6,1.2-0.4c1.3,0.7,2.5,1.4,3.7,2.2
				c0.4,0.3,0.5,0.8,0.3,1.2C156.9,51.8,156.7,51.9,156.4,51.9z M94.9,47.9c-0.3,0-0.7-0.2-0.8-0.5c-0.2-0.4,0-1,0.4-1.2
				c1.3-0.6,2.6-1.2,4-1.7c0.5-0.2,1,0.1,1.2,0.5s-0.1,1-0.5,1.2c-1.3,0.5-2.6,1.1-3.9,1.7C95.2,47.9,95,47.9,94.9,47.9z
				 M148.8,47.8c-0.1,0-0.3,0-0.4-0.1c-1.3-0.6-2.6-1.1-3.9-1.6c-0.5-0.2-0.7-0.7-0.5-1.1c0.2-0.5,0.7-0.7,1.1-0.5
				c1.3,0.5,2.7,1.1,4,1.7c0.4,0.2,0.6,0.7,0.4,1.2C149.5,47.6,149.2,47.8,148.8,47.8z M102.9,44.8c-0.4,0-0.7-0.2-0.8-0.6
				c-0.1-0.5,0.1-1,0.6-1.1c1.4-0.4,2.8-0.8,4.2-1.2c0.5-0.1,1,0.2,1.1,0.7c0.1,0.5-0.2,1-0.7,1.1c-1.4,0.3-2.7,0.7-4.1,1.1
				C103.1,44.8,103,44.8,102.9,44.8z M140.8,44.8c-0.1,0-0.2,0-0.3,0c-1.3-0.4-2.7-0.8-4.1-1.1c-0.5-0.1-0.8-0.6-0.7-1.1
				c0.1-0.5,0.6-0.8,1.1-0.7c1.4,0.3,2.8,0.7,4.2,1.1c0.5,0.1,0.7,0.6,0.6,1.1C141.6,44.5,141.2,44.8,140.8,44.8z M111.2,42.8
				c-0.4,0-0.8-0.3-0.9-0.7c-0.1-0.5,0.2-0.9,0.7-1c1.4-0.2,2.9-0.4,4.3-0.6c0.5,0,0.9,0.3,1,0.8c0,0.5-0.3,0.9-0.8,1
				c-1.4,0.1-2.8,0.3-4.2,0.6C111.3,42.8,111.3,42.8,111.2,42.8z M132.5,42.8c0,0-0.1,0-0.1,0c-1.4-0.2-2.8-0.4-4.2-0.6
				c-0.5,0-0.8-0.5-0.8-1c0-0.5,0.5-0.8,1-0.8c1.4,0.1,2.9,0.3,4.3,0.6c0.5,0.1,0.8,0.5,0.7,1C133.3,42.5,132.9,42.8,132.5,42.8z
				 M119.7,42c-0.5,0-0.9-0.4-0.9-0.9c0-0.5,0.4-0.9,0.9-0.9c1.4,0,2.9-0.1,4.3,0c0.5,0,0.9,0.4,0.9,0.9c0,0.5-0.4,0.9-0.9,0.9
				c0,0,0,0,0,0C122.6,41.9,121.1,41.9,119.7,42C119.7,42,119.7,42,119.7,42z"/>
		</g>
		<g>
			<g>
				<linearGradient id="SVGID_2_" gradientUnits="userSpaceOnUse" x1="44.6402" y1="69.9454" x2="199.3223" y2="69.9454">
					<stop  offset="0" style="stop-color:#80D494"/>
					<stop  offset="0.9637" style="stop-color:#54C076"/>
				</linearGradient>
				<path class="st2" d="M51.8,106.3c0-0.4,0-0.8,0-1.2c0-38.7,31.5-70.2,70.2-70.2c38.7,0,70.2,31.5,70.2,70.2
					c0,1.8-0.1,3.5-0.2,5.2c2.2,0.7,4.5,1.3,7,1.8c0.2-2.3,0.3-4.6,0.3-7c0-20.7-8-40.1-22.7-54.7s-34-22.7-54.7-22.7
					c-20.7,0-40.1,8-54.7,22.7c-14.5,14.5-22.5,33.6-22.6,54.1C47.2,105,49.6,105.6,51.8,106.3z"/>
				<linearGradient id="SVGID_3_" gradientUnits="userSpaceOnUse" x1="63.1128" y1="166.4542" x2="183.0262" y2="166.4542">
					<stop  offset="0" style="stop-color:#80D494"/>
					<stop  offset="0.9637" style="stop-color:#54C076"/>
				</linearGradient>
				<path class="st3" d="M175.6,150.4c-12.9,15.2-32.1,24.9-53.6,24.9c-17.5,0-33.6-6.5-45.9-17.1c-5.1-0.7-9.2-1.8-13-2.9
					c1.3,1.6,2.7,3.1,4.2,4.5c14.6,14.6,34,22.7,54.7,22.7c20.7,0,40.1-8,54.7-22.7c2.3-2.3,4.4-4.7,6.4-7.2
					C180.7,151.9,178.3,151.1,175.6,150.4z"/>
			</g>
			<linearGradient id="SVGID_4_" gradientUnits="userSpaceOnUse" x1="22.5117" y1="130.973" x2="221.4513" y2="130.973">
				<stop  offset="0" style="stop-color:#80D494"/>
				<stop  offset="0.9637" style="stop-color:#54C076"/>
			</linearGradient>
			<path class="st4" d="M217.9,162.6c-16.6,0-25-2.9-33.1-5.7c-7.9-2.7-15.4-5.3-30.8-5.3s-22.9,2.6-30.8,5.3
				c-8.1,2.8-16.5,5.7-33.1,5.7c-16.6,0-25-2.9-33.1-5.7c-7.9-2.7-15.4-5.3-30.8-5.3c-2,0-3.6-1.6-3.6-3.6v-45.3
				c0-2,1.6-3.6,3.6-3.6c16.6,0,25,2.9,33.1,5.7c7.9,2.7,15.4,5.3,30.8,5.3c15.4,0,22.9-2.6,30.8-5.3c8.1-2.8,16.5-5.7,33.1-5.7
				c16.6,0,25,2.9,33.1,5.7c7.9,2.7,15.4,5.3,30.8,5.3c2,0,3.6,1.6,3.6,3.6v45.3C221.5,161,219.9,162.6,217.9,162.6z M29.6,144.6
				c14.3,0.4,22,3,29.6,5.6c7.9,2.7,15.4,5.3,30.8,5.3c15.4,0,22.9-2.6,30.8-5.3c8.1-2.8,16.5-5.7,33.1-5.7c16.6,0,25,2.9,33.1,5.7
				c7.3,2.5,14.2,4.9,27.3,5.2v-38.2c-14.3-0.4-22-3-29.6-5.6c-7.9-2.7-15.4-5.3-30.8-5.3s-22.9,2.6-30.8,5.3
				c-8.1,2.8-16.5,5.7-33.1,5.7c-16.6,0-25-2.9-33.1-5.7c-7.3-2.5-14.2-4.9-27.3-5.2V144.6z"/>
		</g>
	</g>
	<g>
		<path class="st5" d="M29.6,137.5c17.2,0,35.1,11.5,55.2,11.9s43.2-12.1,68.9-11.3s53.5,11.2,60.7,11.4"/>
		<path d="M47.1,136.5l10.7,3.2l-1.1,3.6l-15.2-4.5l5.8-19.6l14.8,4.4l-1.1,3.6l-10.3-3.1L47.1,136.5z M49.2,128.3l9.5,2.8l-1,3.5
			l-9.5-2.8L49.2,128.3z"/>
		<path d="M71.8,147.7l-4.7-0.9l3.8-20.1l15.2,2.9l-0.7,3.7l-10.6-2L71.8,147.7z M73.6,136.6l9.7,1.8l-0.7,3.7l-9.7-1.8L73.6,136.6z
			"/>
		<path d="M100.5,143.7l10.9-2.5l0.8,3.7l-15.5,3.5l-4.6-20l15.1-3.4l0.8,3.7l-10.5,2.4L100.5,143.7z M98.3,135.6l9.6-2.2l0.8,3.6
			l-9.6,2.2L98.3,135.6z"/>
		<path d="M125.8,141.4l-3.6-16.2l-6.4,1.4l-0.8-3.8l17.4-3.8l0.8,3.8l-6.4,1.4l3.6,16.2L125.8,141.4z"/>
		<path d="M144.4,138.3l-1.1-20.5l4.7-0.3l1.1,20.5L144.4,138.3z"/>
		<path d="M164.9,138.9l-6-21.5l5.1,0.7l5.2,19l-3-0.4l10.2-16.9l4.7,0.6l-11.6,19.1L164.9,138.9z"/>
		<path d="M181.8,141.7l13.9-17.6l4.5,1.1l3.9,22.1l-4.8-1.2l-2.8-19.4l1.8,0.5l-11.7,15.7L181.8,141.7z M187.3,138.5l2.1-3.2
			l10.2,2.6l0.4,3.8L187.3,138.5z"/>
	</g>
</g>
<g>
</g>
<g>
</g>
<g>
</g>
<g>
</g>
<g>
</g>
<g>
</g>
<g>
</g>
<g>
</g>
<g>
</g>
<g>
</g>
<g>
</g>
<g>
</g>
<g>
</g>
<g>
</g>
<g>
</g>
</svg>
