<?xml version="1.0" encoding="utf-8"?>
<!-- Generator: Adobe Illustrator 25.2.1, SVG Export Plug-In . SVG Version: 6.00 Build 0)  -->
<svg version="1.1" id="Camada_1" xmlns="http://www.w3.org/2000/svg" xmlns:xlink="http://www.w3.org/1999/xlink" x="0px" y="0px"
	 viewBox="0 0 239.8 227.8" style="enable-background:new 0 0 239.8 227.8;" xml:space="preserve">
<style type="text/css">
	.st0{fill:url(#SVGID_1_);}
	.st1{fill:#54C076;}
</style>
<linearGradient id="SVGID_1_" gradientUnits="userSpaceOnUse" x1="18.0538" y1="215.7215" x2="221.7252" y2="12.0501">
	<stop  offset="0" style="stop-color:#FFFFFF"/>
	<stop  offset="1" style="stop-color:#DCE1E2"/>
</linearGradient>
<path class="st0" d="M51.4,227.8h137c28.4,0,51.4-23,51.4-51.4v-125c0-28.4-23-51.4-51.4-51.4l-137,0C23,0,0,23,0,51.4l0,125
	C0,204.8,23,227.8,51.4,227.8z"/>
<path d="M60.9,178.5c-0.2,0-0.4,0-0.5,0c0.1-0.2,0.2-0.3,0.2-0.5c3-11,6-21.9,9-32.9c0.3-1,0.1-1.7-0.4-2.6
	c-7.7-14.3-10.2-29.5-6.9-45.4c7.4-36.3,42.2-59.4,78.6-52.4c36.2,7,60.1,43,52.6,79.1c-9.1,43.7-57.2,66.5-96.7,45.9
	c-0.5-0.3-1.3-0.3-1.8-0.2c-7.3,1.9-14.6,3.8-21.9,5.7C69,176.3,64.9,177.4,60.9,178.5z M76.5,162.5c0.6-0.1,0.9-0.1,1.1-0.2
	c6.1-1.6,12.2-3.2,18.3-4.8c1.1-0.3,2-0.2,2.9,0.4c15.3,9,31.4,10.8,48,4.7c26.4-9.6,41.2-36.9,35.3-64.3
	c-6.6-30.6-38.2-49.9-68.5-41.7c-13.3,3.6-24,11.1-31.8,22.5c-7.8,11.4-10.8,24.1-9.3,37.8c1,8.7,3.9,16.6,8.7,23.9
	c0.6,0.9,0.7,1.7,0.4,2.7c-0.7,2.4-1.4,4.8-2,7.2C78.7,154.6,77.6,158.5,76.5,162.5z"/>
<path class="st1" d="M106.3,79.6c2.9-0.7,4.2,1.2,5.2,3.8c1.5,3.9,3.1,7.7,4.8,11.6c0.5,1.1,0.6,2.2-0.1,3.3
	c-1.3,1.9-2.7,3.7-4.1,5.4c-1.1,1.4-1.3,2.1-0.4,3.7c5.4,9.2,13,15.8,23,19.7c1.5,0.6,2.3,0.5,3.4-0.8c1.7-2.1,3.4-4.2,5-6.3
	c1.1-1.4,1.8-1.7,3.4-1c4.7,2.2,9.5,4.4,14.1,6.8c0.6,0.3,1.1,1.3,1.1,2c0,4.7-1.3,8.8-5.6,11.6c-5.7,3.7-11.6,4-17.9,2.2
	c-15.9-4.6-27.6-14.7-37.1-27.9c-2.9-4-5.5-8.2-6.6-13.1c-1.8-7.4,0-13.8,5.4-19.2C101.7,79.6,103.8,79.3,106.3,79.6z"/>
<g>
</g>
<g>
</g>
<g>
</g>
<g>
</g>
<g>
</g>
<g>
</g>
<g>
</g>
<g>
</g>
<g>
</g>
<g>
</g>
<g>
</g>
<g>
</g>
<g>
</g>
<g>
</g>
<g>
</g>
</svg>
