<?xml version="1.0" encoding="utf-8"?>
<!-- Generator: Adobe Illustrator 25.2.1, SVG Export Plug-In . SVG Version: 6.00 Build 0)  -->
<svg version="1.1" id="Camada_1" xmlns="http://www.w3.org/2000/svg" xmlns:xlink="http://www.w3.org/1999/xlink" x="0px" y="0px"
	 viewBox="0 0 239.8 227.8" style="enable-background:new 0 0 239.8 227.8;" xml:space="preserve">
<style type="text/css">
	.st0{fill:url(#SVGID_1_);}
	.st1{fill:#54C076;}
</style>
<linearGradient id="SVGID_1_" gradientUnits="userSpaceOnUse" x1="17.9999" y1="215.599" x2="221.6713" y2="11.9276">
	<stop  offset="0" style="stop-color:#FFFFFF"/>
	<stop  offset="1" style="stop-color:#DCE1E2"/>
</linearGradient>
<path class="st0" d="M51.3,227.6h137c28.4,0,51.4-23,51.4-51.4v-125c0-28.4-23-51.4-51.4-51.4l-137,0C23-0.1-0.1,22.9-0.1,51.3v125
	C-0.1,204.6,23,227.6,51.3,227.6z"/>
<g>
	<path d="M61.5,182.3c-2.3-1-4.8-1.7-6.8-3.1c-3.9-2.7-5.9-6.7-5.9-11.5c-0.1-17.2-0.1-34.5,0-51.7c0-7.9,6.3-14.2,14.4-14.6
		c0.4,0,0.8,0,1.2,0c38.5,0,77,0,115.6,0c7.1,0,12.8,3.8,14.8,10.1c0.6,1.8,0.8,3.7,0.8,5.5c0.1,16.5,0.1,33.1,0,49.6
		c0,8.2-4.6,13.7-12.5,15.4c-0.1,0-0.3,0.1-0.4,0.2C142.3,182.3,101.9,182.3,61.5,182.3z M122.1,173.4c19.2,0,38.4,0,57.6,0
		c4.7,0,7-2.3,7-7c0-16.4,0-32.8,0-49.2c0-4.6-2.3-6.9-6.9-6.9c-38.4,0-76.9,0-115.3,0c-4.6,0-6.9,2.3-6.9,6.9c0,16.4,0,32.8,0,49.2
		c0,4.7,2.3,7,7,7C83.8,173.4,102.9,173.4,122.1,173.4z"/>
	<path class="st1" d="M168.3,64.3c-0.1,12.5-4.5,23.3-13.2,32.3c-1.3,1.4-2.9,1.9-4.7,1.4c-1.8-0.5-2.8-1.8-3.1-3.6
		c-0.3-1.6,0.5-2.9,1.6-4.1c4.8-5,8.2-10.9,9.6-17.7c2.6-12.8-0.4-24-9.3-33.7c-1.2-1.3-2.3-2.7-1.9-4.6c0.3-1.8,1.4-3,3.1-3.6
		c1.8-0.5,3.3,0,4.6,1.3c4.9,5,8.5,10.7,10.8,17.3C167.4,54.2,168.3,59.2,168.3,64.3z"/>
	<path class="st1" d="M76,63.9c0.2-11.8,4.4-22.5,12.9-31.4c2.2-2.3,4.8-2.6,6.8-0.7c1.9,1.8,1.8,4.6-0.3,6.8
		C88.3,46,84.7,54.9,85,65.2C85.2,74.8,88.7,83,95.2,90c0.8,0.8,1.5,1.9,1.8,3c0.5,1.9-0.5,3.8-2.2,4.7c-1.8,1-3.9,0.6-5.4-1
		c-4.8-4.9-8.4-10.6-10.7-17C76.9,74.7,76.1,69.6,76,63.9z"/>
	<path class="st1" d="M135.9,64.3c0,7.6-6,13.7-13.7,13.9c-7.6,0.1-13.9-6.2-13.9-13.8c0-7.6,6.2-13.7,13.8-13.7
		C129.8,50.6,135.9,56.6,135.9,64.3z M122.1,59.5c-2.7,0-4.9,2.2-4.9,4.9c0,2.7,2.3,4.9,5,4.8c2.7,0,4.8-2.2,4.8-4.9
		C127,61.6,124.9,59.5,122.1,59.5z"/>
	<path class="st1" d="M152.8,64.4c-0.1,7.3-2.6,13.6-7.7,19c-2,2.1-4.7,2.3-6.6,0.5c-1.9-1.8-1.9-4.4,0.1-6.6c7-7.7,7-18.2,0-25.8
		c-2-2.2-2.1-4.9-0.1-6.7c1.9-1.8,4.6-1.5,6.6,0.6C150.2,50.7,152.7,57.1,152.8,64.4z"/>
	<path class="st1" d="M91.5,64.2c0.1-7.3,2.6-13.7,7.8-19c2-2.1,4.7-2.2,6.6-0.4c1.8,1.8,1.7,4.5-0.2,6.5c-7.1,7.7-7.1,18.2,0,25.9
		c1.9,2.1,2,4.8,0.1,6.6c-1.9,1.8-4.6,1.6-6.6-0.5C94.2,78,91.6,71.7,91.5,64.2z"/>
	<path class="st1" d="M157.8,128.1c0,2.4,0,4.6,0,7.1c0.5,0,1,0,1.5,0c3.6,0,7.2,0,10.8,0c2.7,0,4.6,1.8,4.7,4.3
		c0.1,2.6-1.8,4.5-4.6,4.6c-3.6,0-7.1,0-10.7,0c-0.5,0-1.1,0-1.7,0c0,3.9,0,7.6,0,11.6c0.5,0,1,0,1.6,0c4.3,0,8.6,0,12.9,0
		c2.9,0,4.9,1.8,4.9,4.4c0,2.6-2,4.5-4.8,4.5c-6.2,0-12.4,0-18.7,0c-3,0-4.8-1.8-4.8-4.8c0-11.9,0-23.7,0-35.6
		c0-3.1,1.8-4.9,4.9-4.9c6.4,0,12.7,0,19.1,0c2.9,0,4.9,1.8,4.9,4.4c0,2.7-2,4.4-5,4.5C167.9,128.1,162.9,128.1,157.8,128.1z"/>
	<path class="st1" d="M127.8,144.5c0.3-0.9,0.5-1.5,0.7-2.1c2-6.5,3.9-13,5.9-19.5c0.9-2.9,3.2-4.2,5.7-3.4c2.4,0.8,3.6,3.2,2.8,6
		c-3.5,11.8-7.1,23.5-10.6,35.3c-0.7,2.5-2.2,3.6-4.4,3.6c-2.3,0-3.7-1.1-4.4-3.6c-3.6-11.7-7.1-23.5-10.6-35.3
		c-0.8-2.8,0.3-5.2,2.7-6c2.5-0.8,4.9,0.6,5.8,3.4c2,6.6,4,13.3,6,20C127.4,143.3,127.5,143.7,127.8,144.5z"/>
	<path class="st1" d="M75.4,155.6c4.1,0,8,0,11.8,0c2.4,0,4.2,1.6,4.5,3.9c0.3,2.7-1.6,4.9-4.3,5c-5.5,0.1-11.1,0.1-16.6,0
		c-2.6,0-4.4-2-4.4-4.8c0-8.2,0-16.4,0-24.6c0-3.7,0-7.3,0-11c0-2.8,1.9-4.9,4.5-4.9c2.6,0,4.4,2,4.4,4.9c0,9.8,0,19.7,0,29.5
		C75.4,154.2,75.4,154.8,75.4,155.6z"/>
	<path class="st1" d="M96.7,141.8c0-5.9,0-11.8,0-17.6c0-2.9,1.8-4.9,4.4-5c2.6-0.1,4.5,2,4.5,5c0,11.8,0,23.6,0,35.4
		c0,2.6-1.5,4.5-3.9,4.9c-2.1,0.3-4.3-1.1-4.8-3.2c-0.2-0.6-0.2-1.3-0.2-1.9C96.7,153.5,96.7,147.7,96.7,141.8z"/>
</g>
<g>
</g>
<g>
</g>
<g>
</g>
<g>
</g>
<g>
</g>
<g>
</g>
<g>
</g>
<g>
</g>
<g>
</g>
<g>
</g>
<g>
</g>
<g>
</g>
<g>
</g>
<g>
</g>
<g>
</g>
</svg>
