<?xml version="1.0" encoding="utf-8"?>
<!-- Generator: Adobe Illustrator 25.2.1, SVG Export Plug-In . SVG Version: 6.00 Build 0)  -->
<svg version="1.1" id="Camada_1" xmlns="http://www.w3.org/2000/svg" xmlns:xlink="http://www.w3.org/1999/xlink" x="0px" y="0px"
	 viewBox="0 0 239.8 227.8" style="enable-background:new 0 0 239.8 227.8;" xml:space="preserve">
<style type="text/css">
	.st0{fill:url(#SVGID_1_);}
	.st1{fill:#54C076;}
</style>
<linearGradient id="SVGID_1_" gradientUnits="userSpaceOnUse" x1="17.9999" y1="215.599" x2="221.6713" y2="11.9276">
	<stop  offset="0" style="stop-color:#FFFFFF"/>
	<stop  offset="1" style="stop-color:#DCE1E2"/>
</linearGradient>
<path class="st0" d="M51.3,227.6h137c28.4,0,51.4-23,51.4-51.4v-125c0-28.4-23-51.4-51.4-51.4l-137,0C23-0.1-0.1,22.9-0.1,51.3v125
	C-0.1,204.6,23,227.6,51.3,227.6z"/>
<g>
	<path d="M56.7,184c-0.2-0.1-0.3-0.2-0.5-0.3c-4.3-1.5-6.2-5.2-4.8-9.6c2.2-6.9,4.4-13.9,6.6-20.8c5.7-18,11.5-35.9,17.1-54
		c2.6-8.5,9.1-10,14.9-9.3c4.9,0.5,9.5,2.3,13.8,4.6c0.5,0.2,0.9,0.5,1.5,0.8c0.5-4,0-7.7-1-11.4c-1.3-4.5-3.7-8.5-6.9-12
		c-0.6-0.6-1.1-1.5-1.2-2.3c-0.2-1.2,0.5-2.1,1.6-2.7c1.3-0.6,2.4-0.4,3.4,0.6c3.6,3.6,6.3,7.8,8,12.7c2,5.6,2.6,11.4,1.7,17.3
		c-0.1,0.5,0.1,1.2,0.4,1.5c3.7,3,7.5,5.9,11.7,9.1c0.4-0.4,0.8-1.1,1.4-1.7c3.4-3.4,6.8-6.8,10.2-10.2c1.1-1.1,2.5-1.3,3.7-0.6
		c1.2,0.7,1.7,1.8,1.3,3.1c-0.2,0.7-0.7,1.4-1.3,2c-3.8,3.8-7.6,7.6-11.5,11.5c0.4,0.4,0.7,0.8,1,1.2c2.6,3.3,5.2,6.5,7.8,9.8
		c0.5,0.7,1,0.9,1.9,0.8c11.4-1.5,21.2,1.6,29.6,9.5c1.4,1.4,1.6,3.1,0.4,4.3c-1.2,1.3-2.9,1.3-4.4-0.2c-5.9-5.6-13-8.3-21.1-8.3
		c-0.7,0-1.4,0.1-2.2,0.2c1.1,2.5,2.3,4.9,3.2,7.3c1.6,4.1,2.6,8.3,2,12.8c-0.7,5.1-3.5,8.3-8.4,9.9c-8.7,2.7-17.3,5.5-26,8.3
		c-16.4,5.2-32.8,10.4-49.2,15.6c-0.6,0.2-1.2,0.4-1.7,0.6C58.6,184,57.6,184,56.7,184z M77,112.9c-0.2,0.7-0.4,1.2-0.6,1.7
		c-4.3,13.4-8.5,26.8-12.8,40.3c-2.2,6.9-4.4,13.9-6.6,20.8c-0.2,0.6-0.2,1.7,0.2,2.1c0.5,0.4,1.4,0.2,2.2,0.3
		c0.1,0,0.3-0.1,0.4-0.1c17.8-5.6,35.5-11.3,53.3-16.9c2.9-0.9,5.9-1.9,9.1-2.9c-6.1-2.3-11.3-5.5-16.2-9.2c-1.8-1.3-2.2-3-1.1-4.4
		c1-1.4,2.7-1.4,4.5-0.3c2.8,1.9,5.6,3.8,8.6,5.5c4.2,2.4,8.6,4.2,13.5,4.6c5.3,0.4,8.2-2.1,7.9-7.5c-0.2-5.9-2.8-10.9-5.7-16
		c-4.4,1.4-8.2,3.7-11.5,6.9c-1.5,1.5-3.2,1.5-4.4,0.2c-1.2-1.3-1-2.9,0.4-4.3c2.8-2.7,5.9-4.9,9.4-6.5c0.9-0.4,1.8-0.8,2.9-1.3
		c-2.6-3.2-5.1-6.2-7.7-9.3c-0.6,0.5-0.9,0.8-1.2,1.2c-3.2,3.2-6.4,6.5-9.7,9.7c-1.5,1.5-3.2,1.6-4.4,0.3c-1.3-1.3-1.1-2.9,0.4-4.4
		c2.7-2.8,5.5-5.5,8.2-8.2c0.8-0.8,1.7-1.6,2.7-2.5c-3.3-2.7-6.3-5.2-9.5-7.9c-0.3,0.7-0.5,1.2-0.7,1.7c-1.7,4.1-4.1,7.7-7.2,10.8
		c-1.3,1.3-3,1.4-4.2,0.3c-1.2-1.2-1.2-2.8,0-4.2c0.3-0.3,0.5-0.6,0.8-0.8c2.8-3.1,4.9-6.7,6.3-11c-2.5-1.2-5-2.4-7.6-3.5
		c-3.1-1.3-6.3-2.1-9.6-2c-3.3,0.2-5.4,1.7-6,4.6c-0.2,1.1-0.3,2.3-0.2,3.4c0.3,4.9,2.2,9.3,4.6,13.5c1.8,3.1,3.8,6,5.7,8.9
		c0.7,1.1,1,2.4,0.1,3.3c-0.6,0.7-1.8,1.2-2.7,1.2c-0.8,0-1.7-0.8-2.3-1.5C82.4,124.2,79.3,118.9,77,112.9z"/>
	<path class="st1" d="M198.3,116.6c-0.7,1.6-1.9,2.2-3.7,2.1c-2.3-0.1-4.6,0-6.9-0.1c-1,0-1.7,0.2-2.2,1.1c-1.3,2-2.8,3.9-4.1,5.9
		c-0.8,1.1-1.7,1.8-3.1,1.6c-1.4-0.2-2.1-1.2-2.5-2.5c-0.7-2.3-1.5-4.7-2.2-7c-0.3-0.9-0.7-1.3-1.6-1.6c-2.3-0.7-4.6-1.4-6.9-2.1
		c-1.3-0.4-2.3-1-2.6-2.4c-0.3-1.5,0.4-2.5,1.6-3.3c2-1.4,4-2.8,6-4.2c0.7-0.5,1-1,1-1.9c-0.1-2.4-0.1-4.9-0.2-7.3
		c0-1.3,0.3-2.5,1.6-3.1c1.3-0.6,2.4-0.3,3.5,0.5c2,1.5,4,3,6,4.4c0.5,0.3,1.3,0.5,1.9,0.3c2.4-0.7,4.8-1.6,7.2-2.4
		c1.2-0.4,2.4-0.3,3.3,0.6c0.9,0.9,1,2,0.6,3.2c-0.8,2.4-1.7,4.9-2.5,7.4c-0.2,0.5-0.1,1.3,0.2,1.7c1.8,2.5,3.6,4.9,5.5,7.4
		C198.3,115.5,198.3,116.1,198.3,116.6z M187.9,102c-1.4,0.5-2.6,0.8-3.8,1.2c-1.5,0.6-2.8,0.4-4-0.6c-0.9-0.8-2-1.4-3.1-2.3
		c0,1.4-0.1,2.4,0,3.4c0.2,1.9-0.5,3.3-2.2,4.3c-1,0.6-1.8,1.3-2.9,2.1c1.5,0.5,2.7,0.9,4,1.3c1.4,0.4,2.2,1.2,2.6,2.6
		c0.4,1.3,0.8,2.5,1.3,4c0.9-1.3,1.7-2.4,2.5-3.5c0.8-1.1,1.8-1.7,3.2-1.6c1.3,0.1,2.6,0,4.2,0c-0.9-1.3-1.7-2.4-2.5-3.4
		c-0.8-1.1-1-2.2-0.6-3.5C187,104.8,187.4,103.5,187.9,102z"/>
	<path class="st1" d="M94.7,61.6c-3-1.1-5,0.6-6.5,3.4c-0.5,0.9-1.2,1.7-1.8,2.6c-0.8,1.1-1.8,1.7-3.2,1.5c-1.3-0.2-2-1.2-2.3-2.4
		c-0.6-2-1.2-4-1.9-6c-0.2-0.6-0.8-1.2-1.4-1.4c-2-0.7-4.1-1.3-6.2-2c-1.2-0.4-2.1-1.1-2.4-2.4c-0.2-1.3,0.4-2.3,1.5-3
		c1.7-1.2,3.4-2.5,5.2-3.6c0.8-0.5,1.1-1.1,1-2c-0.1-2.1-0.1-4.1-0.1-6.2c0-1.3,0.3-2.5,1.6-3.1c1.3-0.7,2.4-0.2,3.5,0.6
		c1.6,1.3,3.3,2.4,4.9,3.7c0.7,0.6,1.4,0.6,2.2,0.3c1.9-0.7,3.8-1.3,5.7-2c1.3-0.5,2.5-0.5,3.6,0.5c1,1,1,2.2,0.5,3.5
		c-0.7,1.9-1.3,3.9-2,5.8c-0.3,0.8-0.2,1.4,0.3,2.1c1.3,1.7,2.6,3.5,3.9,5.2c0.8,1,1,2.1,0.5,3.2c-0.6,1.2-1.6,1.7-2.9,1.7
		C97.3,61.6,96.2,61.6,94.7,61.6z M91.2,47c-1.5,0.3-3.1,1.1-4.5,0.9c-1.5-0.2-2.7-1.5-4.6-2.5c1.4,4.1-0.6,6.3-3.8,8.1
		c3.9,0.4,5.9,2.5,6.2,6.3c1.3-1.4,2.1-3,3.4-3.6c1.3-0.7,3.1-0.5,4.6-0.6c-0.8-1.4-2-2.6-2.2-4C90.2,50.1,90.9,48.5,91.2,47z"/>
	<path class="st1" d="M167.4,53.5c0-6.1,4.9-11.1,11-11.1c6.1,0,11.1,5,11.1,11.1c0,6.1-4.9,11-10.9,11.1
		C172.5,64.6,167.5,59.6,167.4,53.5z M183.7,53.5c0-2.9-2.3-5.3-5.3-5.3c-2.9,0-5.3,2.4-5.3,5.3c0,2.9,2.3,5.3,5.3,5.3
		C181.4,58.8,183.7,56.4,183.7,53.5z"/>
	<path class="st1" d="M182.5,157.8c0-1.3,0-2.5,0-3.7c0-1.9,1.2-3.1,2.8-3.1c1.6,0,2.8,1.3,2.9,3.1c0,1.2,0,2.4,0,3.8
		c1.3,0,2.5,0,3.7,0c1.9,0,3.1,1.2,3.1,2.8c0,1.6-1.2,2.8-3.1,2.9c-1.2,0-2.4,0-3.7,0c0,1.3,0,2.5,0,3.7c-0.1,1.9-1.2,3.1-2.9,3.1
		c-1.7,0-2.8-1.2-2.9-3.1c0-1.1,0-2.3,0-3.7c-1.2,0-2.3,0-3.5,0c-2.1,0-3.4-1.2-3.4-2.9c0-1.7,1.3-2.8,3.4-2.8
		C180.2,157.8,181.3,157.8,182.5,157.8z"/>
	<path class="st1" d="M140.6,65.6c0,1,0,1.9,0,2.7c0,2.8-1,4.1-2.9,4.1c-1.9,0-2.8-1.3-2.8-4.1c0-0.8,0-1.6,0-2.6
		c-1.3,0-2.4,0-3.5,0c-2.1,0-3.3-1.2-3.3-3c0-1.7,1.3-2.7,3.3-2.8c1.1,0,2.2,0,3.5,0c0-1.3,0-2.4,0-3.5c0-2,1.1-3.3,2.8-3.3
		c1.8,0,2.9,1.2,2.9,3.3c0,1.1,0,2.2,0,3.5c1.3,0,2.5,0,3.7,0c1.9,0,3.1,1.1,3.1,2.8c0,1.7-1.2,2.8-3.1,2.9c-0.6,0-1.2,0-1.9,0
		C141.9,65.6,141.4,65.6,140.6,65.6z"/>
	<path d="M162.4,75.6c-0.6,1-0.9,1.9-1.5,2.5c-3.3,3.4-6.7,6.7-10,10.1c-1.3,1.3-3,1.4-4.2,0.2c-1.2-1.2-1.2-2.9,0.1-4.2
		c3.4-3.4,6.8-6.8,10.2-10.2c1-1,2.2-1.5,3.4-0.7C161.1,73.8,161.7,74.8,162.4,75.6z"/>
	<path d="M173.6,147c0-1.6,1.3-2.8,2.9-2.8c1.6,0,2.9,1.2,2.9,2.8c0,1.6-1.3,2.9-2.9,2.9C174.9,149.8,173.6,148.6,173.6,147z"/>
	<path d="M97.4,134.8c1.6,0,2.8,1.3,2.8,2.9c0,1.6-1.3,2.9-2.8,2.9c-1.6,0-3-1.4-2.9-3C94.5,136,95.8,134.7,97.4,134.8z"/>
</g>
<g>
</g>
<g>
</g>
<g>
</g>
<g>
</g>
<g>
</g>
<g>
</g>
<g>
</g>
<g>
</g>
<g>
</g>
<g>
</g>
<g>
</g>
<g>
</g>
<g>
</g>
<g>
</g>
<g>
</g>
</svg>
