<?xml version="1.0" encoding="utf-8"?>
<!-- Generator: Adobe Illustrator 25.2.1, SVG Export Plug-In . SVG Version: 6.00 Build 0)  -->
<svg version="1.1" id="Camada_1" xmlns="http://www.w3.org/2000/svg" xmlns:xlink="http://www.w3.org/1999/xlink" x="0px" y="0px"
	 viewBox="0 0 676.5 536.1" style="enable-background:new 0 0 676.5 536.1;" xml:space="preserve">
<style type="text/css">
	.st0{fill:#54C076;}
	.st1{fill:url(#SVGID_1_);}
	.st2{fill:url(#SVGID_2_);}
	.st3{fill:url(#SVGID_3_);}
	.st4{fill:url(#SVGID_4_);}
	.st5{fill:none;stroke:#000000;stroke-width:4;stroke-miterlimit:10;}
</style>
<g>
	<g>
		<path class="st0" d="M282.7,28.8V5.1h4.5l10.1,16.8H295l9.9-16.8h4.5l0.1,23.7h-5.2l0-15.8h1l-7.9,13.3h-2.5L286.7,13h1.2v15.8
			H282.7z"/>
		<path class="st0" d="M322.5,29.1c-1.5,0-2.9-0.3-4.1-0.9s-2.1-1.5-2.8-2.7c-0.7-1.2-1-2.8-1-4.6V10.6h5.3v9.5c0,1.5,0.3,2.6,1,3.3
			c0.6,0.7,1.6,1.1,2.7,1.1c0.8,0,1.5-0.2,2.2-0.5c0.6-0.4,1.1-0.9,1.5-1.6c0.4-0.7,0.5-1.7,0.5-2.8v-9h5.3v18.3h-5v-5l0.9,1.5
			c-0.6,1.3-1.5,2.2-2.7,2.9S323.9,29.1,322.5,29.1z"/>
		<path class="st0" d="M338.1,28.8V3.7h5.3v25.2H338.1z"/>
		<path class="st0" d="M347.4,15.1V11h12.7v4.1H347.4z M357.1,29.1c-2.1,0-3.8-0.5-5-1.6c-1.2-1.1-1.8-2.7-1.8-4.9v-16h5.3v15.9
			c0,0.8,0.2,1.4,0.6,1.8c0.4,0.4,1,0.6,1.7,0.6c0.8,0,1.5-0.2,2.1-0.7l1.4,3.7c-0.5,0.4-1.2,0.7-2,0.9
			C358.7,29,357.9,29.1,357.1,29.1z"/>
		<path class="st0" d="M367,8c-1,0-1.8-0.3-2.4-0.8c-0.6-0.6-0.9-1.3-0.9-2.1s0.3-1.5,0.9-2.1c0.6-0.6,1.4-0.8,2.4-0.8
			s1.8,0.3,2.4,0.8c0.6,0.5,0.9,1.2,0.9,2.1c0,0.9-0.3,1.6-0.9,2.2C368.8,7.8,368,8,367,8z M364.4,28.8V10.6h5.3v18.3H364.4z"/>
		<path class="st0" d="M381.4,28.8L392,5.1h5.4l10.6,23.7h-5.8l-8.7-21h2.2l-8.7,21H381.4z M386.7,23.7l1.5-4.2h12.2l1.5,4.2H386.7z
			"/>
	</g>
</g>
<g>
	<g>
		<linearGradient id="SVGID_1_" gradientUnits="userSpaceOnUse" x1="98.5414" y1="299.4893" x2="556.9229" y2="299.4893">
			<stop  offset="0" style="stop-color:#80D494"/>
			<stop  offset="0.9637" style="stop-color:#54C076"/>
		</linearGradient>
		<path class="st1" d="M330.5,62.9c5.4,2.9,10.7,5.8,16.1,8.6c8.9,4.5,17.8,9,26.8,13.4c3.1,1.5,5.6,3.4,5.6,7.2
			c0,3.8-2.6,5.6-5.6,7.2c-11.6,5.7-23.1,11.6-34.7,17.2c-3.1,1.5-3.9,3.4-4.1,6.7c-0.5,8,1.5,14.9,5.1,22
			c17.4,34.3,34.3,68.8,51.8,103c4.9,9.5,0.4,15-8.2,13.7c-1.2-0.2-2.4,0.2-3.8,0.3c0,32.3,0,64.4,0,96.8c5.1,0,9.9,0,15.5,0
			c0-4.7-0.1-9.3,0-13.8c0.1-5.8,2.3-8.1,8.2-8.1c6.9-0.1,13.8,0,21.1,0c0-7.9,0-15.3,0-23.2c-2.2,0-4.1,0.1-6.1,0
			c-7.4-0.3-10.2-5-6.9-11.5c9.6-19.3,19.3-38.5,28.9-57.8c9-18,18.1-36,27-54.1c1.2-2.5,1.9-5.5,1.9-8.3
			c0.2-19.4,0.1-38.8,0.1-58.2c0-8.4,4.5-11.1,12-7.4c13.5,6.7,26.9,13.5,40.5,20.2c3.1,1.5,5.7,3.3,5.8,7.1c0.1,4-2.7,5.9-5.9,7.5
			c-11.4,5.7-22.8,11.5-34.3,17c-3.1,1.5-4,3.2-4.3,6.5c-0.5,8.3,1.6,15.5,5.4,22.8c17.4,34.1,34.3,68.4,51.5,102.7
			c4.7,9.5,2.3,13.3-8.3,13.6c-1.2,0-2.4,0.2-3.8,0.3c0,32.2,0,64.2,0,97c6.2,0,12.5,0,18.7,0c9,0,10.7,1.7,10.7,10.8
			c0,34.7,0,69.3,0,104c0,8.1-2,10.2-10,10.2c-54.8,0-109.7,0-164.5,0c-7.7,0-9.7-2-9.7-9.9c0-15.7,0.1-31.4,0-47.1
			c-0.2-22.9-14.3-41-35.1-45.6c-28.8-6.2-54.4,14.8-54.8,45c-0.2,15.9,0,31.7,0,47.6c0,8.1-1.9,10-10.1,10c-54.7,0-109.3,0-164,0
			c-8,0-10-2-10-10.1c0-35,0-69.9,0-104.9c0-7.9,2-9.9,9.7-9.9c6.4,0,12.9,0,19.6,0c0-32.5,0-64.6,0-97.3c-1.8,0-3.4,0-5,0
			c-8.7-0.2-11.4-4.5-7.6-12.2c9.7-19.4,19.4-38.8,29.1-58.2c8.9-17.7,17.8-35.5,26.5-53.3c1-2.1,1.7-4.6,1.7-7
			c0.1-19.6,0.1-39.1,0.1-58.7c0-9,4.4-11.8,12.4-7.9c13.2,6.6,26.4,13.2,39.6,19.8c3.3,1.6,6.3,3.3,6.2,7.7
			c-0.1,4.1-3.1,5.7-6.2,7.3c-11.4,5.7-22.8,11.5-34.3,17c-3.1,1.5-3.8,3.4-4.1,6.7c-0.6,8,1.6,14.9,5.2,22
			c17.4,34.3,34.5,68.7,51.7,103.1c0.4,0.8,0.9,1.6,1.2,2.5c2.9,6.4,0.1,10.9-7,11.2c-2,0.1-4,0-6.3,0c0,7.8,0,15.1,0,23.2
			c4.6,0,9.4,0,14.1,0c15.2,0,15.2,0,15.2,15.4c0,2,0,4,0,6.4c5.2,0,10.2,0,15.5,0c0-32.2,0-64.3,0-97c-2.4,0-4.7,0.1-6.9,0
			c-6.2-0.3-8.9-4.8-6.4-10.6c0.5-1.3,1.2-2.5,1.8-3.7c18.1-36.2,36.2-72.4,54.2-108.6c1.3-2.6,2-5.8,2.1-8.8
			c0.2-18.9,0.2-37.9,0-56.8c0-4.2,0.7-7.8,4.2-10.5C326.8,62.9,328.7,62.9,330.5,62.9z M424.3,522c0-57.1,0-113.8,0-170.6
			c-5.3,0-10.2,0-15.5,0c0,4.7,0.1,9,0,13.3c-0.1,6-2.5,8.5-8.5,8.5c-8.8,0.1-17.6,0.1-26.3,0c-6.3-0.1-8.5-2.5-8.6-8.8
			c-0.1-4.4,0-8.8,0-13.1c-5.7,0-10.5,0-15.3,0c-0.2,0.6-0.4,0.9-0.4,1.2c-0.1,4,0,8-0.1,12c-0.2,6.2-2.5,8.6-8.8,8.7
			c-8.5,0.1-16.9,0.1-25.4,0c-7.1,0-9.3-2.3-9.3-9.5c0-4.1,0-8.2,0-12.4c-5.6,0-10.4,0-15.8,0c0,4.5,0,8.8,0,13.1
			c-0.1,6.4-2.3,8.8-8.5,8.9c-8.8,0.1-17.6,0.1-26.3,0c-6.2-0.1-8.5-2.6-8.6-8.9c-0.1-4.3,0-8.5,0-12.9c-5.5,0-10.4,0-15.4,0
			c0,57.1,0,113.9,0,170.5c12.7,0,25.1,0,37.7,0c0-9.9-0.1-19.5,0-29c0.1-7.2-0.1-14.5,0.5-21.7c2.5-27.7,26.2-50.9,53.4-52.4
			c30.1-1.7,56.1,17.3,62.1,45.5c1.1,5.4,1.5,11,1.6,16.5c0.2,13.7,0.1,27.3,0.1,41.2C399.3,522,411.6,522,424.3,522z M216.7,522
			c0-25.1,0-49.8,0-74.8c-7.1,0-13.8,0.1-20.6,0c-6.2-0.1-8.6-2.6-8.7-8.8c-0.1-4.4,0-8.8,0-13.2c-5.6,0-10.4,0-15.8,0
			c0,4.5,0,8.8,0,13.1c-0.1,6.5-2.4,8.8-9,8.8c-8.5,0-16.9,0-25.4,0c-6.7,0-9-2.4-9.1-9.3c0-4.2,0-8.5,0-12.6c-5.6,0-10.5,0-15.5,0
			c0,32.4,0,64.5,0,96.7C147.4,522,181.8,522,216.7,522z M527.3,425.2c0,4.9,0.1,9.4,0,13.8c-0.1,5.4-2.6,8.1-7.8,8.2
			c-9.2,0.1-18.5,0.1-27.7,0c-5.4-0.1-7.8-2.7-7.9-8.1c-0.1-4.6,0-9.1,0-13.8c-5.6,0-10.5,0-15.8,0c0,3.7,0,7.1,0,10.5
			c0,9.6-1.7,11.4-11.2,11.4c-6.1,0-12.2,0-18.2,0c0,25.4,0,50,0,74.7c34.8,0,69.4,0,104.1,0c0-32.4,0-64.5,0-96.8
			C537.7,425.2,532.8,425.2,527.3,425.2z M438.9,314.2c0,39.8,0,79.4,0,118.9c5.3,0,10.1,0,15.3,0c0-4.6,0-8.9,0-13.2
			c0.1-6.4,2.2-8.7,8.5-8.7c8.8-0.1,17.5-0.1,26.3,0c6.2,0,8.6,2.4,8.6,8.7c0,4.4,0,8.8,0,13.2c5.6,0,10.4,0,15.5,0
			c0-39.7,0-79.2,0-119C488.3,314.2,463.6,314.2,438.9,314.2z M157.1,433.2c0.3-0.5,0.5-0.7,0.5-0.8c0.1-4.5,0.1-8.9,0.2-13.4
			c0.2-5.4,2.6-7.9,8-7.9c9.1-0.1,18.2-0.1,27.2,0c5.8,0,8.1,2.4,8.2,8.1c0.1,4.6,0,9.1,0,13.9c5.5,0,10.3,0,15.4,0
			c0-39.8,0-79.4,0-119c-24.9,0-49.5,0-74.3,0c0,39.8,0,79.4,0,119.1C147.5,433.2,152.2,433.2,157.1,433.2z M179.6,203.9
			c-16.2,32.3-31.9,63.9-47.9,95.8c32.2,0,63.7,0,95.8,0C211.5,267.7,195.7,236.2,179.6,203.9z M523.9,299.8
			c-16.1-32.2-31.9-63.7-48-96c-16.1,32.3-31.9,63.9-48,96C460.3,299.8,491.6,299.8,523.9,299.8z M335.7,359.1c0-5-0.1-9.6,0-14.2
			c0.2-5.6,2.4-7.8,8-7.9c6-0.1,12-0.1,18,0c2.9,0.1,3.7-1,3.7-3.8c-0.1-22.6-0.1-45.3,0-67.9c0-2.5-0.6-3.6-3.3-3.6
			c-22.8,0.1-45.6,0.1-68.4,0c-2.6,0-3.5,0.8-3.5,3.4c0.1,22.8,0.1,45.6,0,68.4c0,2.6,0.9,3.5,3.5,3.4c5.8-0.1,11.7-0.1,17.6,0
			c6.4,0.1,8.5,2.2,8.6,8.7c0.1,4.4,0,8.8,0,13.4C325.3,359.1,330,359.1,335.7,359.1z M327.7,152c-16.2,32.4-31.9,63.8-47.8,95.6
			c32.2,0,63.6,0,95.6,0C359.6,215.7,343.9,184.4,327.7,152z M186.7,133c0,7.5,0,14.3,0,21.8c7.4-3.7,14.2-7.1,21.8-10.9
			C200.9,140.1,194.1,136.7,186.7,133z M504.9,143.9c-7.7-3.8-14.6-7.2-21.8-10.8c0,7.5,0,14.2,0,21.7
			C490.3,151.2,497.1,147.8,504.9,143.9z M356.7,92.1c-7.6-3.8-14.4-7.2-21.7-10.8c0,7.4,0,14.2,0,21.7
			C342.3,99.2,349.1,95.8,356.7,92.1z"/>
		<linearGradient id="SVGID_2_" gradientUnits="userSpaceOnUse" x1="454.2431" y1="351.4113" x2="497.6754" y2="351.4113">
			<stop  offset="0" style="stop-color:#80D494"/>
			<stop  offset="0.9637" style="stop-color:#54C076"/>
		</linearGradient>
		<path class="st2" d="M454.2,351.3c0-12.1,9.6-21.6,21.7-21.6c12,0,21.8,9.7,21.7,21.7c0,11.9-10,21.8-21.8,21.7
			C463.9,373.1,454.2,363.3,454.2,351.3z M475.8,343.6c-4.5,0-7.8,3.5-7.7,8c0.1,4.2,3.5,7.6,7.6,7.6c4.3,0.1,8-3.6,8-7.8
			C483.8,347.1,480.2,343.6,475.8,343.6z"/>
		<linearGradient id="SVGID_3_" gradientUnits="userSpaceOnUse" x1="157.788" y1="351.4124" x2="201.219" y2="351.4124">
			<stop  offset="0" style="stop-color:#80D494"/>
			<stop  offset="0.9637" style="stop-color:#54C076"/>
		</linearGradient>
		<path class="st3" d="M179.6,329.7c12.1,0,21.7,9.6,21.7,21.7c0,12-9.7,21.8-21.7,21.8c-11.9,0-21.8-9.9-21.8-21.8
			C157.8,339.4,167.5,329.7,179.6,329.7z M179.4,359.2c4.3,0.1,7.9-3.5,7.9-7.9c0-4.3-3.1-7.6-7.4-7.7c-4.4-0.2-8.1,3.2-8.2,7.5
			C171.5,355.3,175.2,359.1,179.4,359.2z"/>
		<linearGradient id="SVGID_4_" gradientUnits="userSpaceOnUse" x1="306.0268" y1="299.4848" x2="349.4311" y2="299.4848">
			<stop  offset="0" style="stop-color:#80D494"/>
			<stop  offset="0.9637" style="stop-color:#54C076"/>
		</linearGradient>
		<path class="st4" d="M349.4,299.4c0.1,12-9.6,21.7-21.6,21.8c-12,0.1-21.7-9.6-21.8-21.6c-0.1-12,9.6-21.7,21.6-21.8
			C339.6,277.7,349.4,287.4,349.4,299.4z M327.7,307.3c4.4,0,7.9-3.4,7.8-7.8c0-4.2-3.3-7.6-7.5-7.7c-4.4-0.2-8,3.2-8.1,7.6
			C319.9,303.7,323.3,307.2,327.7,307.3z"/>
	</g>
</g>
<g>
	<g>
		<path class="st5" d="M306,118.4c-38.2,7-83-50.1-37.6-96.1"/>
		<g>
			<polygon points="271.8,43.4 267.8,43.4 267.6,23.7 248,25.3 247.7,21.3 271.6,19.3 			"/>
		</g>
	</g>
</g>
<g>
	<g>
		<path class="st0" d="M552.6,229.7V206h4.5l10.1,16.8h-2.4l9.9-16.8h4.5l0.1,23.7h-5.2l0-15.8h1l-7.9,13.3h-2.5l-8.1-13.3h1.2v15.8
			H552.6z"/>
		<path class="st0" d="M592.4,230c-1.5,0-2.9-0.3-4.1-0.9s-2.1-1.5-2.8-2.7c-0.7-1.2-1-2.8-1-4.6v-10.3h5.3v9.5c0,1.5,0.3,2.6,1,3.3
			c0.6,0.7,1.6,1.1,2.7,1.1c0.8,0,1.5-0.2,2.2-0.5c0.6-0.4,1.1-0.9,1.5-1.6c0.4-0.7,0.5-1.7,0.5-2.8v-9h5.3v18.3h-5v-5l0.9,1.5
			c-0.6,1.3-1.5,2.2-2.7,2.9S593.8,230,592.4,230z"/>
		<path class="st0" d="M608,229.7v-25.2h5.3v25.2H608z"/>
		<path class="st0" d="M617.3,215.9v-4.1H630v4.1H617.3z M627,230c-2.1,0-3.8-0.5-5-1.6c-1.2-1.1-1.8-2.7-1.8-4.9v-16h5.3v15.9
			c0,0.8,0.2,1.4,0.6,1.8c0.4,0.4,1,0.6,1.7,0.6c0.8,0,1.5-0.2,2.1-0.7l1.4,3.7c-0.5,0.4-1.2,0.7-2,0.9
			C628.6,229.9,627.8,230,627,230z"/>
		<path class="st0" d="M636.9,208.9c-1,0-1.8-0.3-2.4-0.8c-0.6-0.6-0.9-1.3-0.9-2.1s0.3-1.5,0.9-2.1c0.6-0.6,1.4-0.8,2.4-0.8
			s1.8,0.3,2.4,0.8c0.6,0.5,0.9,1.2,0.9,2.1c0,0.9-0.3,1.6-0.9,2.2C638.7,208.6,637.9,208.9,636.9,208.9z M634.3,229.7v-18.3h5.3
			v18.3H634.3z"/>
		<path class="st0" d="M665.8,230.1c-1.8,0-3.5-0.3-5.1-0.9c-1.6-0.6-2.9-1.5-4.1-2.6c-1.2-1.1-2.1-2.4-2.7-3.9s-1-3.1-1-4.9
			c0-1.8,0.3-3.4,1-4.9c0.6-1.5,1.5-2.8,2.7-3.9s2.5-2,4.1-2.6c1.6-0.6,3.3-0.9,5.1-0.9c2.1,0,3.9,0.4,5.6,1.1
			c1.7,0.7,3.1,1.8,4.2,3.1l-3.5,3.3c-0.8-0.9-1.7-1.6-2.7-2.1c-1-0.5-2.1-0.7-3.3-0.7c-1.1,0-2.1,0.2-3.1,0.5
			c-0.9,0.4-1.7,0.9-2.4,1.6s-1.2,1.5-1.6,2.4s-0.6,2-0.6,3.1c0,1.1,0.2,2.2,0.6,3.1s0.9,1.7,1.6,2.4c0.7,0.7,1.5,1.2,2.4,1.6
			c0.9,0.4,1.9,0.5,3.1,0.5c1.2,0,2.3-0.2,3.3-0.7c1-0.5,1.9-1.2,2.7-2.1l3.5,3.3c-1.1,1.4-2.5,2.4-4.2,3.2
			C669.8,229.7,667.9,230.1,665.8,230.1z"/>
	</g>
</g>
<g>
	<g>
		<path class="st5" d="M504.5,199.9c5.2-38.4,73.4-63.4,103-5.9"/>
		<g>
			<polygon points="586.4,190.7 587.6,186.8 606.4,192.8 611,173.6 614.9,174.5 609.3,197.9 			"/>
		</g>
	</g>
</g>
<g>
	<g>
		<path class="st0" d="M2.8,214.8V191h4.5l10.1,16.8h-2.4L25,191h4.5l0.1,23.7h-5.2l0-15.8h1l-7.9,13.3h-2.5l-8.1-13.3H8v15.8H2.8z"
			/>
		<path class="st0" d="M42.5,215c-1.5,0-2.9-0.3-4.1-0.9s-2.1-1.5-2.8-2.7c-0.7-1.2-1-2.8-1-4.6v-10.3H40v9.5c0,1.5,0.3,2.6,1,3.3
			c0.6,0.7,1.6,1.1,2.7,1.1c0.8,0,1.5-0.2,2.2-0.5c0.6-0.4,1.1-0.9,1.5-1.6c0.4-0.7,0.5-1.7,0.5-2.8v-9h5.3v18.3h-5v-5l0.9,1.5
			c-0.6,1.3-1.5,2.2-2.7,2.9S43.9,215,42.5,215z"/>
		<path class="st0" d="M58.2,214.8v-25.2h5.3v25.2H58.2z"/>
		<path class="st0" d="M67.5,201v-4.1h12.7v4.1H67.5z M77.2,215c-2.1,0-3.8-0.5-5-1.6c-1.2-1.1-1.8-2.7-1.8-4.9v-16h5.3v15.9
			c0,0.8,0.2,1.4,0.6,1.8c0.4,0.4,1,0.6,1.7,0.6c0.8,0,1.5-0.2,2.1-0.7l1.4,3.7c-0.5,0.4-1.2,0.7-2,0.9C78.8,215,78,215,77.2,215z"
			/>
		<path class="st0" d="M87.1,194c-1,0-1.8-0.3-2.4-0.8c-0.6-0.6-0.9-1.3-0.9-2.1s0.3-1.5,0.9-2.1c0.6-0.6,1.4-0.8,2.4-0.8
			s1.8,0.3,2.4,0.8c0.6,0.5,0.9,1.2,0.9,2.1c0,0.9-0.3,1.6-0.9,2.2C88.9,193.7,88.1,194,87.1,194z M84.4,214.8v-18.3h5.3v18.3H84.4z
			"/>
		<path class="st0" d="M104.6,214.8V191h11.6c3,0,5.2,0.6,6.7,1.7c1.5,1.1,2.3,2.6,2.3,4.5c0,1.2-0.3,2.3-0.9,3.2
			c-0.6,0.9-1.4,1.6-2.5,2.1c-1.1,0.5-2.3,0.7-3.7,0.7l0.6-1.4c1.5,0,2.8,0.2,4,0.7c1.2,0.5,2.1,1.2,2.7,2.2s1,2.1,1,3.5
			c0,2-0.8,3.6-2.4,4.8c-1.6,1.1-4,1.7-7.1,1.7H104.6z M110.1,210.6h6.4c1.4,0,2.5-0.2,3.2-0.7c0.7-0.5,1.1-1.2,1.1-2.2
			c0-1-0.4-1.7-1.1-2.2c-0.7-0.5-1.8-0.7-3.2-0.7h-6.8v-4h5.9c1.3,0,2.4-0.2,3.1-0.7c0.7-0.5,1.1-1.2,1.1-2.1c0-0.9-0.4-1.6-1.1-2.1
			c-0.7-0.5-1.7-0.7-3.1-0.7h-5.5V210.6z"/>
	</g>
</g>
<g>
	<g>
		<path class="st5" d="M157.8,184.9c-5.2-38.4-73.4-63.4-103-5.9"/>
		<g>
			<polygon points="47.4,159.6 51.3,158.7 55.8,177.9 74.6,171.9 75.8,175.7 52.9,183 			"/>
		</g>
	</g>
</g>
<g>
</g>
<g>
</g>
<g>
</g>
<g>
</g>
<g>
</g>
<g>
</g>
<g>
</g>
<g>
</g>
<g>
</g>
<g>
</g>
<g>
</g>
<g>
</g>
<g>
</g>
<g>
</g>
<g>
</g>
<g>
</g>
</svg>
