<?xml version="1.0" encoding="utf-8"?>
<!-- Generator: Adobe Illustrator 25.2.1, SVG Export Plug-In . SVG Version: 6.00 Build 0)  -->
<svg version="1.1" id="Camada_1" xmlns="http://www.w3.org/2000/svg" xmlns:xlink="http://www.w3.org/1999/xlink" x="0px" y="0px"
	 viewBox="0 0 476 442.6" style="enable-background:new 0 0 476 442.6;" xml:space="preserve">
<style type="text/css">
	.st0{fill:url(#SVGID_1_);}
	.st1{fill:url(#SVGID_2_);}
	.st2{fill:url(#SVGID_3_);}
	.st3{fill:url(#SVGID_4_);}
	.st4{fill:url(#SVGID_5_);}
	.st5{fill:url(#SVGID_6_);}
	.st6{fill:url(#SVGID_7_);}
	.st7{fill:url(#SVGID_8_);}
	.st8{fill:url(#SVGID_9_);}
	.st9{fill:url(#SVGID_10_);}
	.st10{fill:url(#SVGID_11_);}
	.st11{fill:url(#SVGID_12_);}
	.st12{fill:url(#SVGID_13_);}
	.st13{fill:url(#SVGID_14_);}
	.st14{fill:url(#SVGID_15_);}
	.st15{fill:url(#SVGID_16_);}
	.st16{fill:url(#SVGID_17_);}
	.st17{fill:url(#SVGID_18_);}
	.st18{fill:url(#SVGID_19_);}
	.st19{fill:url(#SVGID_20_);}
	.st20{fill:url(#SVGID_21_);}
	.st21{fill:url(#SVGID_22_);}
	.st22{fill:url(#SVGID_23_);}
</style>
<g>
	<g>
		<linearGradient id="SVGID_1_" gradientUnits="userSpaceOnUse" x1="-9.094947e-13" y1="221.298" x2="476.023" y2="221.298">
			<stop  offset="0" style="stop-color:#80D494"/>
			<stop  offset="0.9637" style="stop-color:#54C076"/>
		</linearGradient>
		<path class="st0" d="M0.3,0c12.4,0,23.5,0,35.3,0c0,5.9,0,11.3,0,17.1c4.9,0,9.2,0,14.2,0c0-5.7,0-11.1,0-17c11.8,0,22.9,0,35,0
			c0,5.6,0,11.2,0,17.1c5.2,0,9.5,0,14.5,0c0-5.8,0-11.2,0-17.1c12,0,23.3,0,35.3,0c0,18.2,0.6,36-0.4,53.8c-0.2,4.5-5,9.1-8.4,13
			c-4.1,4.8-5.6,9.9-5.6,16.2c0.3,40.6,0.1,81.2,0.1,121.7c0,2.6,0,5.2,0,8.2c7.3,0,14,0,21.3,0c0-8.3,0-16.4,0-25
			c13.5,0,26.4,0,40.2,0c0,8,0,16.3,0,25c8,0,15.2,0,23.2,0c0-8.3,0-16.5,0-25.1c14.2,0,27.5,0,41.5,0c0,8.5,0,16.6,0,24.3
			c1,0.7,1.4,1.1,1.7,1.1c7.9-1.4,11.8,2.4,12.8,9.9c0.1,0.4,0.4,0.8,0.4,1.2c2.3,13,9.3,19.8,23,22.2c16.8,3,21.9,10.5,24.6,27.5
			c0.9,5.7,3.7,11,5.2,16.7c1.4,5.7,3.1,11.5,3.1,17.2c0,6.3,1.6,10.4,7.9,11.7c15.1,3.2,24.7,12.4,30.8,26.3
			c4.5,10.4,13,15.5,24.5,16.2c19.5,1.2,31.8,11.8,39,29.7c1.2,2.9,5.7,6.5,8.5,6.5c21.4-0.4,32.7,10.8,38.6,30.2
			c1.5,5.1,6.2,9.2,9.6,14c-153,0-306.5,0-461.2,0c0-2.5,0-5.1,0-7.6c0-117.1,0-234.2,0.1-351.3c0-6.6-1.1-12.1-5.8-16.7
			c-7.4-7.3-9.7-16-9-26.3C0.9,27.3,0.3,13.8,0.3,0z M459.5,435.1c0.2-0.6,0.4-0.8,0.4-1c-5.7-21.4-10-25.2-31.7-27.6
			c-7.9-0.9-13.6-4.1-16.4-12.1c-5.3-15.2-16-23.8-32.3-24.7c-13.8-0.8-24.3-7.1-29.9-19.6c-5.7-12.7-14.5-20.2-27.9-23.7
			c-9.8-2.6-12-7.4-12-17.9c0-4.3,0.4-9.4-1.7-12.8c-4.6-7.4-6.4-15.3-7.1-23.7c-0.7-9.3-6-14.9-14.7-17.4c-3.2-0.9-6.3-2-9.6-2.4
			c-10.6-1.6-17.3-7.5-19.7-17.8c-2-9-5.5-15.5-16.3-13.5c-0.3,0-0.6-0.5-1.6-1.4c0-7.5,0-15.6,0-24.1c-8.9,0-17.1,0-26.2,0
			c0,8.6,0,16.8,0,25.4c-13.1,0-25.3,0-38.3,0c0-8.6,0-16.9,0-25.3c-8.6,0-16.4,0-25.1,0c0,8.6,0,16.9,0,25.3c-12.6,0-24.4,0-36.9,0
			c0-47.5,0-94.6,0-141.8c-30.3,0-59.9,0-89.5,0c0,75.4,0,150.3,0,225.8c3.5,0,6.7-0.6,9.5,0.2c1.9,0.5,4.6,3.3,4.4,4.7
			c-0.3,2-2.5,4.8-4.5,5.4c-2.9,0.9-6.3,0.2-9.5,0.2c0,7.7,0,14.2,0,21.6c3.4,0,6.4,0.1,9.4,0c4.7-0.2,7.5,1.2,7.5,6.6
			c0,5.7-3.3,6.5-7.8,6.3c-3-0.1-6,0-9,0c0,6.8,0,12.7,0,19.1c3.7,0,7,0,10.3,0c3.9-0.1,5.5,1.9,5.5,5.7c0,3.8-1.4,5.8-5.4,5.8
			c-3.4-0.1-6.9,0-10.3,0c0,18.9,0,36.9,0,54.9c35.9,0,71.2,0,107.4,0c0-3,0-5.6,0-8.2c0-26-0.1-52,0-78.1
			c0-18.3,9.4-31.6,26.8-37.5c14.5-5,29.5-5.4,44.3-1.9c22.5,5.3,33.9,20.1,33.9,43.2c0,25.1,0,50.3,0,75.4c0,2.3,0.2,4.6,0.4,7
			C310.9,435.1,385.2,435.1,459.5,435.1z M138.2,435c30.2,0,59.6,0,89.3,0c0-30.4,0.1-60.4-0.2-90.3c0-3.7-2.3-7.5-3.7-11.9
			c-4.9,7,3.5,15.3-4.5,20.4c-8.1-5.6,1-13.8-3.6-19.8c-3.8,0-7.6,0-10.8,0c-4,6.5,4.3,14.5-3.6,19.8c-8.1-5.6,0.6-13.8-3.7-19.8
			c-3.8,0-7.6,0-10.8,0c-4,6.5,4.4,14.5-3.6,19.8c-8.1-5.5,0.7-13.9-4-20c-3.5,0-7.1,0-11.3,0c0,3.9,0.1,7.4,0,10.9
			c-0.1,3.1-0.5,6.2-0.9,10.2c-10.4-6.4-0.8-15-5.5-20.8c-3.8,0-7.6,0-10.4,0c-4.8,6.6,4.1,14.3-3.9,19.7c-8.5-5,0.7-14.2-5.4-20.3
			c-1.9,5.2-3.8,10.5-3.8,15.9c-0.3,26.4-0.1,52.9-0.1,79.3C137.9,430.2,138.1,432.4,138.2,435z M57.5,24.6c-10.6,0-19.9,0-29.9,0
			c0-5.9,0-11.4,0-16.9c-6.9,0-13.1,0-19.3,0c0,13.7,0,26.8,0,40.2c39.6,0,78.9,0,118,0c0-13.8,0-27.1,0-40.3c-6.7,0-12.7,0-19.4,0
			c0,5.9,0,11.3,0,17.1c-10,0-19.3,0-29.6,0c0-5.9,0-11.5,0-17.2c-7,0-13.1,0-19.8,0C57.5,13.3,57.5,18.7,57.5,24.6z M124.1,56.5
			c-38.3,0-75.2,0-113.1,0c3,4.1,5.2,7.7,8,10.7c1.6,1.7,4.3,3.2,6.5,3.2c27.9,0.2,55.9,0.2,83.8,0.1c1.9,0,4.4-0.9,5.7-2.2
			C118.1,64.9,120.6,61.1,124.1,56.5z M198.3,316.3c-4.2-0.4-8-0.9-12.1-1.3c0,4.5,0,8.2,0,11.9c4.3,0,8.1,0,12.1,0
			C198.3,323.4,198.3,320.4,198.3,316.3z M168.2,316c0,4.1,0,7.4,0,11c4.2,0,7.9,0,11.7,0c0-4.2,0-7.9,0-12.1
			C175.8,315.3,172.4,315.7,168.2,316z M162.4,317.4c-5.1,2.7-11.1,2.4-13,9.5c4.7,0,8.8,0,13,0
			C162.4,323.9,162.4,321.5,162.4,317.4z M215.9,327.1c0.3-0.8,0.7-1.5,1-2.3c-4-2.3-8.1-4.6-12.8-7.3c0,4.1,0,6.7,0,9.6
			C208.2,327.1,212.1,327.1,215.9,327.1z"/>
		<linearGradient id="SVGID_2_" gradientUnits="userSpaceOnUse" x1="40.6572" y1="250.6003" x2="93.7543" y2="250.6003">
			<stop  offset="0" style="stop-color:#80D494"/>
			<stop  offset="0.9637" style="stop-color:#54C076"/>
		</linearGradient>
		<path class="st1" d="M93.8,282.1c-17.5,0-34.1,0-53.1,0c2.1-3.6,3.8-6,5-8.6c0.7-1.5,1-3.3,1-5c0.1-9.7-0.1-19.4,0.1-29.1
			c0.3-13,8.3-20.5,21.6-20.3c13.3,0.2,20.5,7.2,20.6,20.3c0.1,8.4-0.2,16.7,0.1,25.1c0.1,3.7-2.2,8.5,3.8,10.5
			C93.7,275.3,93.4,279,93.8,282.1z M53.7,241.7c0,5.3,0,10,0,14.9c4.2,0,8,0,11.8,0c0-5.3,0-10,0-14.9
			C61.5,241.7,58,241.7,53.7,241.7z M70.5,241.8c0,5.2,0,10,0,14.9c4.1,0,7.7,0,11.5,0c0-5.1,0-9.8,0-14.9
			C78,241.8,74.4,241.8,70.5,241.8z M53.5,272.1c4.5,0,8.3,0,12,0c0-4,0-7.4,0-10.8c-4.3,0-8,0-12,0
			C53.5,265.1,53.5,268.3,53.5,272.1z M81.9,261.2c-4.2,0-7.8,0-11.6,0c0,3.9,0,7.3,0,11.1c4,0,7.6,0,11.6,0
			C81.9,268.5,81.9,265.1,81.9,261.2z M65.6,226.6c-8.6,0.9-11.3,3.7-11.2,11.1c3.6,0,7.3,0,11.2,0
			C65.6,233.8,65.6,230.4,65.6,226.6z M81.7,237.7c-0.1-8-3.3-10.9-11.2-10.9c0,3.6,0,7.1,0,10.9C74.5,237.7,78.1,237.7,81.7,237.7z
			"/>
		<linearGradient id="SVGID_3_" gradientUnits="userSpaceOnUse" x1="41.1884" y1="134.7585" x2="93.7099" y2="134.7585">
			<stop  offset="0" style="stop-color:#80D494"/>
			<stop  offset="0.9637" style="stop-color:#54C076"/>
		</linearGradient>
		<path class="st2" d="M41.2,164c1.5-2.3,3.2-4.5,4.4-6.9c0.7-1.5,1-3.3,1-5c0.1-9,0-18.1,0.1-27.1c0.1-13.6,7.9-21.3,21.5-21.1
			c13.6,0.2,20.7,7.3,20.8,20.8c0,8.4-0.1,16.7,0.1,25.1c0.1,3.2-1.5,7.1,3.7,8.6c0.9,0.3,0.7,4.3,1,7.1c-17.3,0-33.9,0-50.5,0
			C42.5,165,41.9,164.5,41.2,164z M65.5,126.8c-4.4,0-8,0-11.8,0c0,5.2,0,10,0,14.9c4.1,0,7.8,0,11.8,0
			C65.5,136.6,65.5,131.9,65.5,126.8z M81.8,141.6c0-5.5,0-10.1,0-14.9c-4.1,0-7.7,0-11.4,0c0,5.2,0,9.9,0,14.9
			C74.3,141.6,77.9,141.6,81.8,141.6z M65.5,146.1c-4.1,0-7.9,0-11.9,0c0,3.8,0,7.2,0,10.9c4.2,0,7.9,0,11.9,0
			C65.5,153.1,65.5,149.8,65.5,146.1z M82,146.1c-4.4,0-8,0-11.6,0c0,3.9,0,7.3,0,11c4,0,7.6,0,11.5,0c0.2-1.9,0.5-3.4,0.5-4.9
			C82.3,150.3,82.1,148.3,82,146.1z M65.6,111.7c-7.9-0.1-11.2,3-11.5,10.7c3.8,0,7.5,0,11.5,0C65.6,118.5,65.6,115.1,65.6,111.7z
			 M70.3,122.4c4.1,0,7.8,0,11.5,0c-0.7-8.3-3.9-11.1-11.5-10.5C70.3,115.3,70.3,118.7,70.3,122.4z"/>
		<linearGradient id="SVGID_4_" gradientUnits="userSpaceOnUse" x1="280.8116" y1="377.3759" x2="302.8622" y2="377.3759">
			<stop  offset="0" style="stop-color:#80D494"/>
			<stop  offset="0.9637" style="stop-color:#54C076"/>
		</linearGradient>
		<path class="st3" d="M291.6,384c-9.4,0-11.5-1.6-10.6-8c0.1-0.4,0.1-0.9,0.2-1.3c2.9-6.2,8.5-3.2,12.8-3.3
			c2.7-0.1,6.9,1.6,7.8,3.6C304.7,381.2,301.3,384,291.6,384z"/>
		<linearGradient id="SVGID_5_" gradientUnits="userSpaceOnUse" x1="297.1922" y1="360.5843" x2="318.5223" y2="360.5843">
			<stop  offset="0" style="stop-color:#80D494"/>
			<stop  offset="0.9637" style="stop-color:#54C076"/>
		</linearGradient>
		<path class="st4" d="M308,366.8c-9.6,0.1-12-1.8-10.3-8.5c0.4-1.4,1.9-3.5,3.1-3.6c4.8-0.4,9.7-0.8,14.4,0.1
			c1.6,0.3,3.4,4.2,3.4,6.5c0,1.9-2.2,4.4-4.1,5.4C312.7,367.5,310.2,366.8,308,366.8z"/>
		<linearGradient id="SVGID_6_" gradientUnits="userSpaceOnUse" x1="30.3266" y1="325.5175" x2="52.2883" y2="325.5175">
			<stop  offset="0" style="stop-color:#80D494"/>
			<stop  offset="0.9637" style="stop-color:#54C076"/>
		</linearGradient>
		<path class="st5" d="M42,332.9c-10.4-1.4-12.3-2.8-11.5-9.2c0.1-0.4,0-0.9,0.2-1.3c1-3.4,10.4-5.3,17.4-3.4
			c4.9,1.3,4.9,6.1,3.4,8.4C49.6,330,45.3,331.1,42,332.9z"/>
		<linearGradient id="SVGID_7_" gradientUnits="userSpaceOnUse" x1="244.0187" y1="279.2508" x2="263.1706" y2="279.2508">
			<stop  offset="0" style="stop-color:#80D494"/>
			<stop  offset="0.9637" style="stop-color:#54C076"/>
		</linearGradient>
		<path class="st6" d="M253.6,285.3c-2.7-0.5-5.9-0.3-8-1.8c-1.4-1-1.9-4.4-1.4-6.5c0.4-1.5,2.8-3.1,4.5-3.5
			c2.5-0.6,5.2-0.1,7.8-0.2c4.2-0.2,6.6,1.2,6.6,5.9c0,4.9-2.8,5.9-6.8,5.6c-0.9-0.1-1.7,0-2.6,0C253.7,285,253.7,285.1,253.6,285.3
			z"/>
		<linearGradient id="SVGID_8_" gradientUnits="userSpaceOnUse" x1="336.0811" y1="408.3539" x2="355.295" y2="408.3539">
			<stop  offset="0" style="stop-color:#80D494"/>
			<stop  offset="0.9637" style="stop-color:#54C076"/>
		</linearGradient>
		<path class="st7" d="M346.2,402.2c2.8,0.9,6.1,1.1,8.2,2.8c1.2,1,1.1,4.6,0.5,6.7c-0.4,1.3-2.9,2.3-4.6,2.6
			c-2.3,0.4-4.8,0-7.2,0.1c-4,0.1-6.8-0.6-6.9-5.6c-0.1-5.3,3-6.2,7.2-6c0.9,0,1.7,0,2.6,0C346,402.7,346.1,402.4,346.2,402.2z"/>
		<linearGradient id="SVGID_9_" gradientUnits="userSpaceOnUse" x1="226.8943" y1="262.7635" x2="246.0277" y2="262.7635">
			<stop  offset="0" style="stop-color:#80D494"/>
			<stop  offset="0.9637" style="stop-color:#54C076"/>
		</linearGradient>
		<path class="st8" d="M236.3,268.8c-2.7-0.5-5.9-0.4-8-1.9c-1.4-1-1.7-4.4-1.3-6.5c0.2-1.4,2.4-3,4-3.3c2.5-0.6,5.2-0.1,7.8-0.2
			c4.3-0.2,7.3,0.7,7.2,6c-0.1,4.9-3,5.8-7,5.5c-0.9-0.1-1.7,0-2.6,0C236.4,268.5,236.3,268.6,236.3,268.8z"/>
		<linearGradient id="SVGID_10_" gradientUnits="userSpaceOnUse" x1="268.1822" y1="278.9684" x2="287.1346" y2="278.9684">
			<stop  offset="0" style="stop-color:#80D494"/>
			<stop  offset="0.9637" style="stop-color:#54C076"/>
		</linearGradient>
		<path class="st9" d="M277.5,284.7c-1.7,0-3.9,0.6-5.1-0.2c-1.8-1.2-4.3-3.5-4.2-5.2c0.1-2.1,2.2-4.9,4.1-5.9
			c2.1-1,5.1-0.2,7.7-0.3c4.4-0.2,7.1,1,7.1,6.2c-0.1,5-3.2,5.6-7,5.4C279.2,284.7,278.4,284.8,277.5,284.7
			C277.5,284.7,277.5,284.7,277.5,284.7z"/>
		<linearGradient id="SVGID_11_" gradientUnits="userSpaceOnUse" x1="42.5505" y1="374.9409" x2="62.4191" y2="374.9409">
			<stop  offset="0" style="stop-color:#80D494"/>
			<stop  offset="0.9637" style="stop-color:#54C076"/>
		</linearGradient>
		<path class="st10" d="M52.9,368.8c2.8,0.9,6.3,1,8.1,2.9c3.3,3.4,0.5,9-4.4,9.3c-2.4,0.2-4.8,0-7.2,0.1c-4.1,0.2-6.8-1-6.8-5.8
			c0-4.7,2.6-6.1,6.8-5.8c1.1,0.1,2.2,0,3.3,0C52.7,369.3,52.8,369,52.9,368.8z"/>
		<linearGradient id="SVGID_12_" gradientUnits="userSpaceOnUse" x1="347.9389" y1="393.9198" x2="367.1375" y2="393.9198">
			<stop  offset="0" style="stop-color:#80D494"/>
			<stop  offset="0.9637" style="stop-color:#54C076"/>
		</linearGradient>
		<path class="st11" d="M357.4,388.1c4.6,0.2,10.7-1.5,9.6,6.5c-0.2,1.8-2.7,4.1-4.6,4.8c-2.3,0.8-5.2,0.1-7.8,0.3
			c-4.2,0.2-6.6-1.2-6.6-5.9c0-4.9,2.8-5.9,6.8-5.7C355.6,388.1,356.5,388.1,357.4,388.1z"/>
		<linearGradient id="SVGID_13_" gradientUnits="userSpaceOnUse" x1="324.1741" y1="394.2105" x2="343.2194" y2="394.2105">
			<stop  offset="0" style="stop-color:#80D494"/>
			<stop  offset="0.9637" style="stop-color:#54C076"/>
		</linearGradient>
		<path class="st12" d="M333.1,400.3c-2.6-0.7-5.9-0.7-7.8-2.3c-1.3-1.1-1.4-4.5-0.9-6.6c0.3-1.3,2.6-2.7,4.3-3
			c2.5-0.5,5.2-0.1,7.8-0.2c4.1-0.2,6.7,0.9,6.7,5.8c-0.1,4.7-2.5,6.1-6.7,5.8c-1.1-0.1-2.2,0-3.3,0
			C333.2,399.9,333.2,400.1,333.1,400.3z"/>
		<linearGradient id="SVGID_14_" gradientUnits="userSpaceOnUse" x1="31.4148" y1="390.7104" x2="50.4448" y2="390.7104">
			<stop  offset="0" style="stop-color:#80D494"/>
			<stop  offset="0.9637" style="stop-color:#54C076"/>
		</linearGradient>
		<path class="st13" d="M40.7,396.8c-2.8-0.8-6.2-0.9-8.3-2.6c-1.2-1-1.1-4.6-0.5-6.7c0.4-1.3,2.9-2.3,4.7-2.6
			c2.3-0.5,4.8-0.1,7.3-0.2c4.1-0.2,6.7,1,6.6,5.9c-0.1,5-2.9,5.9-6.9,5.6c-0.9-0.1-1.8,0-2.6,0C40.8,396.4,40.8,396.6,40.7,396.8z"
			/>
		<linearGradient id="SVGID_15_" gradientUnits="userSpaceOnUse" x1="256.2567" y1="293.9563" x2="275.3172" y2="293.9563">
			<stop  offset="0" style="stop-color:#80D494"/>
			<stop  offset="0.9637" style="stop-color:#54C076"/>
		</linearGradient>
		<path class="st14" d="M265.5,299.9c-2.5-0.4-5.6,0-7.5-1.3c-1.4-1-2.1-4.3-1.7-6.3c0.3-1.5,2.5-3.4,4.2-3.9
			c2.4-0.7,5.2-0.1,7.8-0.3c3.9-0.2,6.9,0.6,7,5.5c0.1,5.2-2.8,6.3-7.1,6c-0.9-0.1-1.7,0-2.6,0C265.6,299.7,265.6,299.8,265.5,299.9
			z"/>
		<linearGradient id="SVGID_16_" gradientUnits="userSpaceOnUse" x1="219.959" y1="278.9381" x2="238.1433" y2="278.9381">
			<stop  offset="0" style="stop-color:#80D494"/>
			<stop  offset="0.9637" style="stop-color:#54C076"/>
		</linearGradient>
		<path class="st15" d="M229.2,273.5c1.8,0,3.9-0.6,5.2,0.2c1.7,1,3.9,3.2,3.8,4.8c-0.1,2-1.8,4.8-3.6,5.6c-2.2,1-5.2,0.3-7.8,0.4
			c-4.1,0.2-6.9-1-6.8-5.8c0.1-4.5,2.8-5.5,6.6-5.3C227.4,273.4,228.3,273.4,229.2,273.5C229.2,273.4,229.2,273.5,229.2,273.5z"/>
		<linearGradient id="SVGID_17_" gradientUnits="userSpaceOnUse" x1="306.9541" y1="377.2925" x2="326.077" y2="377.2925">
			<stop  offset="0" style="stop-color:#80D494"/>
			<stop  offset="0.9637" style="stop-color:#54C076"/>
		</linearGradient>
		<path class="st16" d="M315.8,383c-3.6-0.4-9.6,1.6-8.7-6.1c0.2-1.9,2.6-4.2,4.5-5c2.3-0.9,5.2-0.2,7.8-0.3c4.2-0.2,6.7,1,6.7,5.9
			c0,5-3,5.7-7,5.5C318.2,383,317.3,383,315.8,383z"/>
		<linearGradient id="SVGID_18_" gradientUnits="userSpaceOnUse" x1="250.0888" y1="262.7231" x2="268.5136" y2="262.7231">
			<stop  offset="0" style="stop-color:#80D494"/>
			<stop  offset="0.9637" style="stop-color:#54C076"/>
		</linearGradient>
		<path class="st17" d="M258.9,268.6c-2.7-0.7-5.7-0.8-7.8-2.4c-1.2-0.9-1.3-4.2-0.7-6.1c0.4-1.4,2.7-2.6,4.3-3
			c2.3-0.5,4.8-0.1,7.2-0.2c3.8-0.2,6.4,0.8,6.5,5.3c0.1,5-2.7,5.9-6.8,5.6c-0.9-0.1-1.8,0-2.6,0C259,268.1,259,268.3,258.9,268.6z"
			/>
		<linearGradient id="SVGID_19_" gradientUnits="userSpaceOnUse" x1="300.3341" y1="393.9561" x2="318.7501" y2="393.9561">
			<stop  offset="0" style="stop-color:#80D494"/>
			<stop  offset="0.9637" style="stop-color:#54C076"/>
		</linearGradient>
		<path class="st18" d="M309.2,399.8c-2.7-0.7-5.7-0.9-7.8-2.4c-1.2-0.9-1.3-4.2-0.7-6.1c0.4-1.4,2.7-2.7,4.3-3
			c2.3-0.5,4.8-0.1,7.2-0.2c3.8-0.1,6.4,0.8,6.5,5.4c0.1,4.4-2.2,5.8-6.1,5.7c-1.1,0-2.2,0-3.3,0
			C309.3,399.4,309.2,399.6,309.2,399.8z"/>
		<linearGradient id="SVGID_20_" gradientUnits="userSpaceOnUse" x1="236.0472" y1="245.4243" x2="253.8167" y2="245.4243">
			<stop  offset="0" style="stop-color:#80D494"/>
			<stop  offset="0.9637" style="stop-color:#54C076"/>
		</linearGradient>
		<path class="st19" d="M244.8,251.1c-2.6-0.7-5.7-0.8-7.7-2.3c-1.2-0.9-1.2-4.1-0.7-6c0.3-1.2,2.3-2.4,3.8-2.7
			c2.3-0.5,4.8-0.1,7.2-0.2c3.7-0.1,6.5,0.6,6.5,5.2c0,4.5-2.4,5.7-6.3,5.4c-0.9,0-1.7,0-2.6,0C244.9,250.7,244.8,250.9,244.8,251.1
			z"/>
		<linearGradient id="SVGID_21_" gradientUnits="userSpaceOnUse" x1="330.4647" y1="377.3138" x2="348.5765" y2="377.3138">
			<stop  offset="0" style="stop-color:#80D494"/>
			<stop  offset="0.9637" style="stop-color:#54C076"/>
		</linearGradient>
		<path class="st20" d="M339.1,382.7c-1.5,0-3.5,0.6-4.5-0.1c-1.8-1.3-4.1-3.4-4.1-5.2c0-1.8,2.1-4.4,4-5.3c2-0.9,4.7-0.2,7.1-0.3
			c3.8-0.1,7,0.3,7,5.4c0,5-2.9,5.8-6.9,5.5C340.8,382.7,340,382.8,339.1,382.7C339.1,382.8,339.1,382.7,339.1,382.7z"/>
		<linearGradient id="SVGID_22_" gradientUnits="userSpaceOnUse" x1="30.0972" y1="357.6064" x2="48.2229" y2="357.6064">
			<stop  offset="0" style="stop-color:#80D494"/>
			<stop  offset="0.9637" style="stop-color:#54C076"/>
		</linearGradient>
		<path class="st21" d="M38.7,362.9c-1.7,0-3.9,0.7-5.1-0.2c-1.7-1.1-3.5-3.3-3.5-5.1c0-1.8,1.8-4.5,3.4-5.1
			c2.3-0.9,5.1-0.3,7.8-0.4c3.9-0.2,7,0.3,7,5.4c0,4.9-2.9,5.8-6.9,5.5c-0.9-0.1-1.7,0-2.6,0C38.7,363,38.7,363,38.7,362.9z"/>
		<linearGradient id="SVGID_23_" gradientUnits="userSpaceOnUse" x1="289.607" y1="345.0441" x2="307.1665" y2="345.0441">
			<stop  offset="0" style="stop-color:#80D494"/>
			<stop  offset="0.9637" style="stop-color:#54C076"/>
		</linearGradient>
		<path class="st22" d="M298,350.6c-2.5-0.6-5.5-0.5-7.3-2c-1.2-0.9-1.3-4.1-0.9-6c0.3-1.2,2.3-2.6,3.7-2.9c2.5-0.5,5.2-0.1,7.9-0.2
			c3.7-0.1,5.7,1.3,5.7,5.3c0,4.1-2.1,5.4-5.8,5.3c-1.1,0-2.2,0-3.3,0C298.1,350.3,298,350.5,298,350.6z"/>
	</g>
</g>
<g>
</g>
<g>
</g>
<g>
</g>
<g>
</g>
<g>
</g>
<g>
</g>
<g>
</g>
<g>
</g>
<g>
</g>
<g>
</g>
<g>
</g>
<g>
</g>
<g>
</g>
<g>
</g>
<g>
</g>
</svg>
