<?xml version="1.0" encoding="utf-8"?>
<!-- Generator: Adobe Illustrator 25.2.1, SVG Export Plug-In . SVG Version: 6.00 Build 0)  -->
<svg version="1.1" id="Camada_1" xmlns="http://www.w3.org/2000/svg" xmlns:xlink="http://www.w3.org/1999/xlink" x="0px" y="0px"
	 viewBox="0 0 691.3 691.3" style="enable-background:new 0 0 691.3 691.3;" xml:space="preserve">
<style type="text/css">
	.st0{fill:#FFFFFF;}
</style>
<g>
	<g>
		<path class="st0" d="M341.2,10.7c2.4,2.4,6.4,2.4,8.9,0c2.4-2.4,2.4-6.4,0-8.9c-2.4-2.4-6.4-2.4-8.9,0
			C338.8,4.3,338.8,8.2,341.2,10.7z"/>
		<path class="st0" d="M307.3,44.6c2.4,2.4,6.4,2.4,8.9,0c2.4-2.4,2.4-6.4,0-8.9c-2.4-2.4-6.4-2.4-8.9,0
			C304.9,38.2,304.9,42.2,307.3,44.6z"/>
		<path class="st0" d="M273.4,78.6c2.4,2.4,6.4,2.4,8.9,0c2.4-2.4,2.4-6.4,0-8.9c-2.4-2.4-6.4-2.4-8.9,0
			C270.9,72.2,270.9,76.1,273.4,78.6z"/>
		<path class="st0" d="M239.4,112.5c2.4,2.4,6.4,2.4,8.8,0c2.4-2.4,2.4-6.4,0-8.9c-2.4-2.4-6.4-2.4-8.8,0
			C237,106.1,237,110.1,239.4,112.5z"/>
		<path class="st0" d="M205.5,146.4c2.4,2.4,6.4,2.4,8.9,0c2.4-2.4,2.4-6.4,0-8.9c-2.4-2.4-6.4-2.4-8.9,0
			C203,140,203,144,205.5,146.4z"/>
		<path class="st0" d="M171.5,180.4c2.4,2.4,6.4,2.4,8.9,0c2.4-2.4,2.4-6.4,0-8.9c-2.4-2.4-6.4-2.4-8.9,0
			C169.1,174,169.1,177.9,171.5,180.4z"/>
		<path class="st0" d="M137.6,214.3c2.4,2.4,6.4,2.4,8.9,0c2.4-2.4,2.4-6.4,0-8.9c-2.4-2.4-6.4-2.4-8.9,0
			C135.2,207.9,135.2,211.9,137.6,214.3z"/>
		<path class="st0" d="M103.7,248.3c2.4,2.4,6.4,2.4,8.9,0c2.4-2.4,2.4-6.4,0-8.9c-2.4-2.4-6.4-2.4-8.9,0
			C101.2,241.9,101.2,245.8,103.7,248.3z"/>
		<path class="st0" d="M69.7,282.2c2.4,2.4,6.4,2.4,8.9,0c2.4-2.4,2.4-6.4,0-8.9c-2.4-2.4-6.4-2.4-8.9,0
			C67.3,275.8,67.3,279.8,69.7,282.2z"/>
		<path class="st0" d="M35.8,316.2c2.4,2.4,6.4,2.4,8.9,0c2.4-2.4,2.4-6.4,0-8.9c-2.4-2.4-6.4-2.4-8.9,0
			C33.3,309.7,33.3,313.7,35.8,316.2z"/>
		<path class="st0" d="M1.8,350.1c2.4,2.4,6.4,2.4,8.9,0c2.4-2.4,2.4-6.4,0-8.9c-2.4-2.4-6.4-2.4-8.9,0
			C-0.6,343.7-0.6,347.6,1.8,350.1z"/>
	</g>
	<g>
		<path class="st0" d="M375.2,44.6c2.4,2.4,6.4,2.4,8.9,0c2.4-2.4,2.4-6.4,0-8.9c-2.4-2.4-6.4-2.4-8.9,0
			C372.7,38.2,372.7,42.2,375.2,44.6z"/>
		<path class="st0" d="M341.2,78.6c2.4,2.4,6.4,2.4,8.9,0c2.4-2.4,2.4-6.4,0-8.9c-2.4-2.4-6.4-2.4-8.9,0
			C338.8,72.2,338.8,76.1,341.2,78.6z"/>
		<path class="st0" d="M307.3,112.5c2.4,2.4,6.4,2.4,8.9,0c2.4-2.4,2.4-6.4,0-8.9c-2.4-2.4-6.4-2.4-8.9,0
			C304.9,106.1,304.9,110.1,307.3,112.5z"/>
		<path class="st0" d="M273.4,146.5c2.4,2.4,6.4,2.4,8.9,0c2.4-2.4,2.4-6.4,0-8.9c-2.4-2.4-6.4-2.4-8.9,0
			C270.9,140,270.9,144,273.4,146.5z"/>
		<path class="st0" d="M239.4,180.4c2.4,2.4,6.4,2.4,8.9,0c2.4-2.4,2.4-6.4,0-8.9c-2.4-2.4-6.4-2.4-8.9,0
			C237,174,237,177.9,239.4,180.4z"/>
		<path class="st0" d="M205.5,214.3c2.4,2.4,6.4,2.4,8.9,0c2.4-2.4,2.4-6.4,0-8.9c-2.4-2.4-6.4-2.4-8.9,0
			C203,207.9,203,211.9,205.5,214.3z"/>
		<path class="st0" d="M171.5,248.3c2.4,2.4,6.4,2.4,8.9,0c2.4-2.4,2.4-6.4,0-8.9c-2.4-2.4-6.4-2.4-8.9,0
			C169.1,241.9,169.1,245.8,171.5,248.3z"/>
		<path class="st0" d="M137.6,282.2c2.4,2.4,6.4,2.4,8.9,0c2.4-2.4,2.4-6.4,0-8.9c-2.4-2.4-6.4-2.4-8.9,0
			C135.2,275.8,135.2,279.8,137.6,282.2z"/>
		<path class="st0" d="M103.7,316.2c2.4,2.4,6.4,2.4,8.9,0c2.4-2.4,2.4-6.4,0-8.9c-2.4-2.4-6.4-2.4-8.9,0
			C101.2,309.7,101.2,313.7,103.7,316.2z"/>
		<path class="st0" d="M69.7,350.1c2.4,2.4,6.4,2.4,8.9,0c2.4-2.4,2.4-6.4,0-8.9c-2.4-2.4-6.4-2.4-8.9,0
			C67.3,343.7,67.3,347.6,69.7,350.1z"/>
		<path class="st0" d="M35.8,384c2.4,2.4,6.4,2.4,8.9,0c2.4-2.4,2.4-6.4,0-8.9c-2.4-2.4-6.4-2.4-8.9,0
			C33.3,377.6,33.3,381.6,35.8,384z"/>
	</g>
	<g>
		<path class="st0" d="M409.1,78.6c2.4,2.4,6.4,2.4,8.9,0c2.4-2.4,2.4-6.4,0-8.9c-2.4-2.4-6.4-2.4-8.9,0
			C406.7,72.2,406.7,76.1,409.1,78.6z"/>
		<path class="st0" d="M375.2,112.5c2.4,2.4,6.4,2.4,8.9,0c2.4-2.4,2.4-6.4,0-8.9c-2.4-2.4-6.4-2.4-8.9,0
			C372.7,106.1,372.7,110.1,375.2,112.5z"/>
		<path class="st0" d="M341.2,146.4c2.4,2.4,6.4,2.4,8.9,0c2.4-2.4,2.4-6.4,0-8.9c-2.4-2.4-6.4-2.4-8.9,0
			C338.8,140,338.8,144,341.2,146.4z"/>
		<path class="st0" d="M307.3,180.4c2.4,2.4,6.4,2.4,8.9,0c2.4-2.4,2.4-6.4,0-8.9c-2.4-2.4-6.4-2.4-8.9,0
			C304.9,174,304.9,177.9,307.3,180.4z"/>
		<path class="st0" d="M273.4,214.3c2.4,2.4,6.4,2.4,8.9,0c2.4-2.4,2.4-6.4,0-8.9c-2.4-2.4-6.4-2.4-8.9,0
			C270.9,207.9,270.9,211.9,273.4,214.3z"/>
		<path class="st0" d="M239.4,248.3c2.4,2.4,6.4,2.4,8.9,0c2.4-2.4,2.4-6.4,0-8.9c-2.4-2.4-6.4-2.4-8.8,0
			C237,241.9,237,245.8,239.4,248.3z"/>
		<path class="st0" d="M205.5,282.2c2.4,2.4,6.4,2.4,8.9,0c2.4-2.4,2.4-6.4,0-8.9c-2.4-2.4-6.4-2.4-8.9,0
			C203,275.8,203,279.8,205.5,282.2z"/>
		<path class="st0" d="M171.5,316.1c2.4,2.4,6.4,2.4,8.9,0c2.4-2.4,2.4-6.4,0-8.9c-2.4-2.4-6.4-2.4-8.9,0
			C169.1,309.7,169.1,313.7,171.5,316.1z"/>
		<path class="st0" d="M137.6,350.1c2.4,2.4,6.4,2.4,8.9,0c2.4-2.4,2.4-6.4,0-8.9c-2.4-2.4-6.4-2.4-8.9,0
			C135.2,343.7,135.2,347.6,137.6,350.1z"/>
		<path class="st0" d="M103.7,384c2.4,2.4,6.4,2.4,8.9,0c2.4-2.4,2.4-6.4,0-8.9c-2.4-2.4-6.4-2.4-8.9,0
			C101.2,377.6,101.2,381.6,103.7,384z"/>
		<path class="st0" d="M69.7,418c2.4,2.4,6.4,2.4,8.9,0c2.4-2.4,2.4-6.4,0-8.9c-2.4-2.4-6.4-2.4-8.9,0
			C67.3,411.6,67.3,415.5,69.7,418z"/>
	</g>
	<g>
		<path class="st0" d="M443.1,112.5c2.4,2.4,6.4,2.4,8.9,0c2.4-2.4,2.4-6.4,0-8.9c-2.4-2.4-6.4-2.4-8.9,0
			C440.6,106.1,440.6,110.1,443.1,112.5z"/>
		<path class="st0" d="M409.1,146.4c2.4,2.4,6.4,2.4,8.9,0c2.4-2.4,2.4-6.4,0-8.9c-2.4-2.4-6.4-2.4-8.9,0
			C406.7,140,406.7,144,409.1,146.4z"/>
		<path class="st0" d="M375.2,180.4c2.4,2.4,6.4,2.4,8.9,0c2.4-2.4,2.4-6.4,0-8.9c-2.4-2.4-6.4-2.4-8.9,0
			C372.7,174,372.7,177.9,375.2,180.4z"/>
		<path class="st0" d="M341.2,214.3c2.4,2.4,6.4,2.4,8.9,0c2.4-2.4,2.4-6.4,0-8.9c-2.4-2.4-6.4-2.4-8.9,0
			C338.8,207.9,338.8,211.9,341.2,214.3z"/>
		<path class="st0" d="M307.3,248.3c2.4,2.4,6.4,2.4,8.9,0c2.4-2.4,2.4-6.4,0-8.9c-2.4-2.4-6.4-2.4-8.9,0
			C304.9,241.9,304.9,245.8,307.3,248.3z"/>
		<path class="st0" d="M273.4,282.2c2.4,2.4,6.4,2.4,8.9,0c2.4-2.4,2.4-6.4,0-8.9c-2.4-2.4-6.4-2.4-8.9,0
			C270.9,275.8,270.9,279.8,273.4,282.2z"/>
		<path class="st0" d="M239.4,316.2c2.4,2.4,6.4,2.4,8.8,0c2.4-2.4,2.4-6.4,0-8.9c-2.4-2.4-6.4-2.4-8.8,0
			C237,309.7,237,313.7,239.4,316.2z"/>
		<path class="st0" d="M205.5,350.1c2.4,2.4,6.4,2.4,8.9,0c2.4-2.4,2.4-6.4,0-8.9c-2.4-2.4-6.4-2.4-8.9,0
			C203,343.7,203,347.6,205.5,350.1z"/>
		<path class="st0" d="M171.5,384c2.4,2.4,6.4,2.4,8.9,0c2.4-2.4,2.4-6.4,0-8.9c-2.4-2.4-6.4-2.4-8.9,0
			C169.1,377.6,169.1,381.6,171.5,384z"/>
		<path class="st0" d="M137.6,418c2.4,2.4,6.4,2.4,8.9,0c2.4-2.4,2.4-6.4,0-8.9c-2.4-2.4-6.4-2.4-8.9,0
			C135.2,411.6,135.2,415.5,137.6,418z"/>
		<path class="st0" d="M103.7,451.9c2.4,2.4,6.4,2.4,8.9,0c2.4-2.4,2.4-6.4,0-8.9c-2.4-2.4-6.4-2.4-8.9,0
			C101.2,445.5,101.2,449.5,103.7,451.9z"/>
	</g>
	<g>
		<path class="st0" d="M477,146.4c2.4,2.4,6.4,2.4,8.9,0c2.4-2.4,2.4-6.4,0-8.9c-2.4-2.4-6.4-2.4-8.9,0
			C474.6,140,474.6,144,477,146.4z"/>
		<path class="st0" d="M443.1,180.4c2.4,2.4,6.4,2.4,8.9,0c2.4-2.4,2.4-6.4,0-8.9c-2.4-2.4-6.4-2.4-8.9,0
			C440.6,174,440.6,177.9,443.1,180.4z"/>
		<path class="st0" d="M409.1,214.3c2.4,2.4,6.4,2.4,8.9,0c2.4-2.4,2.4-6.4,0-8.9c-2.4-2.4-6.4-2.4-8.9,0
			C406.7,207.9,406.7,211.9,409.1,214.3z"/>
		<path class="st0" d="M375.2,248.3c2.4,2.4,6.4,2.4,8.9,0c2.4-2.4,2.4-6.4,0-8.9c-2.4-2.4-6.4-2.4-8.9,0
			C372.7,241.9,372.7,245.8,375.2,248.3z"/>
		<path class="st0" d="M341.2,282.2c2.4,2.4,6.4,2.4,8.9,0c2.4-2.4,2.4-6.4,0-8.9c-2.4-2.4-6.4-2.4-8.9,0
			C338.8,275.8,338.8,279.8,341.2,282.2z"/>
		<path class="st0" d="M307.3,316.2c2.4,2.4,6.4,2.4,8.9,0c2.4-2.4,2.4-6.4,0-8.9c-2.4-2.4-6.4-2.4-8.9,0
			C304.9,309.7,304.9,313.7,307.3,316.2z"/>
		<path class="st0" d="M273.4,350.1c2.4,2.4,6.4,2.4,8.9,0c2.4-2.4,2.4-6.4,0-8.9c-2.4-2.4-6.4-2.4-8.9,0
			C270.9,343.7,270.9,347.6,273.4,350.1z"/>
		<path class="st0" d="M239.4,384c2.4,2.4,6.4,2.4,8.9,0c2.4-2.4,2.4-6.4,0-8.9c-2.4-2.4-6.4-2.4-8.9,0
			C237,377.6,237,381.6,239.4,384z"/>
		<path class="st0" d="M205.5,418c2.4,2.4,6.4,2.4,8.9,0c2.4-2.4,2.4-6.4,0-8.9c-2.4-2.4-6.4-2.4-8.9,0
			C203,411.6,203,415.5,205.5,418z"/>
		<path class="st0" d="M171.5,451.9c2.4,2.4,6.4,2.4,8.9,0c2.4-2.4,2.4-6.4,0-8.9c-2.4-2.4-6.4-2.4-8.9,0
			C169.1,445.5,169.1,449.5,171.5,451.9z"/>
		<path class="st0" d="M137.6,485.9c2.4,2.4,6.4,2.4,8.9,0c2.4-2.4,2.4-6.4,0-8.9c-2.4-2.4-6.4-2.4-8.9,0
			C135.2,479.4,135.2,483.4,137.6,485.9z"/>
	</g>
	<g>
		<path class="st0" d="M510.9,180.4c2.4,2.4,6.4,2.4,8.9,0c2.4-2.4,2.4-6.4,0-8.9c-2.4-2.4-6.4-2.4-8.9,0
			C508.5,174,508.5,177.9,510.9,180.4z"/>
		<path class="st0" d="M477,214.3c2.4,2.4,6.4,2.4,8.9,0c2.4-2.4,2.4-6.4,0-8.9c-2.4-2.4-6.4-2.4-8.9,0
			C474.6,207.9,474.6,211.9,477,214.3z"/>
		<path class="st0" d="M443.1,248.3c2.4,2.4,6.4,2.4,8.9,0c2.4-2.4,2.4-6.4,0-8.9c-2.4-2.4-6.4-2.4-8.9,0
			C440.6,241.9,440.6,245.8,443.1,248.3z"/>
		<path class="st0" d="M409.1,282.2c2.4,2.4,6.4,2.4,8.9,0c2.4-2.4,2.4-6.4,0-8.9c-2.4-2.4-6.4-2.4-8.9,0
			C406.7,275.8,406.7,279.8,409.1,282.2z"/>
		<path class="st0" d="M375.2,316.1c2.4,2.4,6.4,2.4,8.9,0c2.4-2.4,2.4-6.4,0-8.9c-2.4-2.4-6.4-2.4-8.9,0
			C372.7,309.7,372.7,313.7,375.2,316.1z"/>
		<path class="st0" d="M341.2,350.1c2.4,2.4,6.4,2.4,8.9,0c2.4-2.4,2.4-6.4,0-8.9c-2.4-2.4-6.4-2.4-8.9,0
			C338.8,343.7,338.8,347.6,341.2,350.1z"/>
		<path class="st0" d="M307.3,384c2.4,2.4,6.4,2.4,8.9,0c2.4-2.4,2.4-6.4,0-8.9c-2.4-2.4-6.4-2.4-8.9,0
			C304.9,377.6,304.9,381.6,307.3,384z"/>
		<path class="st0" d="M273.4,418c2.4,2.4,6.4,2.4,8.9,0c2.4-2.4,2.4-6.4,0-8.9c-2.4-2.4-6.4-2.4-8.9,0
			C270.9,411.6,270.9,415.5,273.4,418z"/>
		<path class="st0" d="M239.4,451.9c2.4,2.4,6.4,2.4,8.8,0c2.4-2.4,2.4-6.4,0-8.9c-2.4-2.4-6.4-2.4-8.9,0
			C237,445.5,237,449.5,239.4,451.9z"/>
		<path class="st0" d="M205.5,485.9c2.4,2.4,6.4,2.4,8.9,0c2.4-2.4,2.4-6.4,0-8.9c-2.4-2.4-6.4-2.4-8.9,0
			C203,479.4,203,483.4,205.5,485.9z"/>
		<path class="st0" d="M171.5,519.8c2.4,2.4,6.4,2.4,8.9,0c2.4-2.4,2.4-6.4,0-8.9c-2.4-2.4-6.4-2.4-8.9,0
			C169.1,513.4,169.1,517.4,171.5,519.8z"/>
	</g>
	<g>
		<path class="st0" d="M544.9,214.3c2.4,2.4,6.4,2.4,8.9,0c2.4-2.4,2.4-6.4,0-8.9c-2.4-2.4-6.4-2.4-8.9,0
			C542.4,207.9,542.4,211.9,544.9,214.3z"/>
		<path class="st0" d="M510.9,248.3c2.4,2.4,6.4,2.4,8.9,0c2.4-2.4,2.4-6.4,0-8.9c-2.4-2.4-6.4-2.4-8.9,0
			C508.5,241.9,508.5,245.8,510.9,248.3z"/>
		<path class="st0" d="M477,282.2c2.4,2.4,6.4,2.4,8.9,0c2.4-2.4,2.4-6.4,0-8.9c-2.4-2.4-6.4-2.4-8.9,0
			C474.6,275.8,474.6,279.8,477,282.2z"/>
		<path class="st0" d="M443.1,316.2c2.4,2.4,6.4,2.4,8.9,0c2.4-2.4,2.4-6.4,0-8.9c-2.4-2.4-6.4-2.4-8.9,0
			C440.6,309.7,440.6,313.7,443.1,316.2z"/>
		<path class="st0" d="M409.1,350.1c2.4,2.4,6.4,2.4,8.9,0c2.4-2.4,2.4-6.4,0-8.9c-2.4-2.4-6.4-2.4-8.9,0
			C406.7,343.7,406.7,347.6,409.1,350.1z"/>
		<path class="st0" d="M375.2,384c2.4,2.4,6.4,2.4,8.9,0c2.4-2.4,2.4-6.4,0-8.9c-2.4-2.4-6.4-2.4-8.9,0
			C372.7,377.6,372.7,381.6,375.2,384z"/>
		<path class="st0" d="M341.2,418c2.4,2.4,6.4,2.4,8.9,0c2.4-2.4,2.4-6.4,0-8.9c-2.4-2.4-6.4-2.4-8.9,0
			C338.8,411.6,338.8,415.5,341.2,418z"/>
		<path class="st0" d="M307.3,451.9c2.4,2.4,6.4,2.4,8.9,0c2.4-2.4,2.4-6.4,0-8.9c-2.4-2.4-6.4-2.4-8.9,0
			C304.9,445.5,304.9,449.5,307.3,451.9z"/>
		<path class="st0" d="M273.4,485.9c2.4,2.4,6.4,2.4,8.9,0c2.4-2.4,2.4-6.4,0-8.9c-2.4-2.4-6.4-2.4-8.9,0
			C270.9,479.4,270.9,483.4,273.4,485.9z"/>
		<path class="st0" d="M239.4,519.8c2.4,2.4,6.4,2.4,8.9,0c2.4-2.4,2.4-6.4,0-8.9c-2.4-2.4-6.4-2.4-8.9,0
			C237,513.4,237,517.4,239.4,519.8z"/>
		<path class="st0" d="M205.5,553.7c2.4,2.4,6.4,2.4,8.9,0c2.4-2.4,2.4-6.4,0-8.9c-2.4-2.4-6.4-2.4-8.9,0
			C203,547.3,203,551.3,205.5,553.7z"/>
	</g>
	<g>
		<path class="st0" d="M578.8,248.3c2.4,2.4,6.4,2.4,8.9,0c2.4-2.4,2.4-6.4,0-8.9c-2.4-2.4-6.4-2.4-8.9,0
			C576.4,241.9,576.4,245.8,578.8,248.3z"/>
		<path class="st0" d="M544.9,282.2c2.4,2.4,6.4,2.4,8.9,0c2.4-2.4,2.4-6.4,0-8.9c-2.4-2.4-6.4-2.4-8.9,0
			C542.4,275.8,542.4,279.8,544.9,282.2z"/>
		<path class="st0" d="M510.9,316.2c2.4,2.4,6.4,2.4,8.9,0c2.4-2.4,2.4-6.4,0-8.9c-2.4-2.4-6.4-2.4-8.9,0
			C508.5,309.7,508.5,313.7,510.9,316.2z"/>
		<path class="st0" d="M477,350.1c2.4,2.4,6.4,2.4,8.9,0c2.4-2.4,2.4-6.4,0-8.9c-2.4-2.4-6.4-2.4-8.9,0
			C474.6,343.7,474.6,347.6,477,350.1z"/>
		<path class="st0" d="M443.1,384c2.4,2.4,6.4,2.4,8.9,0c2.4-2.4,2.4-6.4,0-8.9c-2.4-2.4-6.4-2.4-8.9,0
			C440.6,377.6,440.6,381.6,443.1,384z"/>
		<path class="st0" d="M409.1,418c2.4,2.4,6.4,2.4,8.9,0c2.4-2.4,2.4-6.4,0-8.9c-2.4-2.4-6.4-2.4-8.9,0
			C406.7,411.6,406.7,415.5,409.1,418z"/>
		<path class="st0" d="M375.2,451.9c2.4,2.4,6.4,2.4,8.8,0c2.4-2.4,2.4-6.4,0-8.9c-2.4-2.4-6.4-2.4-8.9,0
			C372.7,445.5,372.7,449.5,375.2,451.9z"/>
		<path class="st0" d="M341.2,485.9c2.4,2.4,6.4,2.4,8.9,0c2.4-2.4,2.4-6.4,0-8.9c-2.4-2.4-6.4-2.4-8.9,0
			C338.8,479.4,338.8,483.4,341.2,485.9z"/>
		<path class="st0" d="M307.3,519.8c2.4,2.4,6.4,2.4,8.9,0c2.4-2.4,2.5-6.4,0-8.9c-2.4-2.4-6.4-2.4-8.9,0
			C304.9,513.4,304.9,517.4,307.3,519.8z"/>
		<path class="st0" d="M273.4,553.7c2.4,2.4,6.4,2.4,8.9,0c2.4-2.4,2.4-6.4,0-8.8c-2.4-2.4-6.4-2.4-8.9,0
			C270.9,547.3,270.9,551.3,273.4,553.7z"/>
		<path class="st0" d="M239.4,587.7c2.4,2.4,6.4,2.4,8.8,0c2.4-2.4,2.4-6.4,0-8.9c-2.4-2.4-6.4-2.4-8.9,0
			C237,581.3,237,585.2,239.4,587.7z"/>
	</g>
	<g>
		<path class="st0" d="M612.8,282.2c2.4,2.4,6.4,2.4,8.9,0c2.4-2.4,2.4-6.4,0-8.9c-2.4-2.4-6.4-2.4-8.9,0
			C610.3,275.8,610.3,279.8,612.8,282.2z"/>
		<path class="st0" d="M578.8,316.2c2.4,2.4,6.4,2.4,8.9,0c2.4-2.4,2.4-6.4,0-8.9c-2.4-2.4-6.4-2.4-8.9,0
			C576.4,309.7,576.4,313.7,578.8,316.2z"/>
		<path class="st0" d="M544.9,350.1c2.4,2.4,6.4,2.4,8.9,0c2.4-2.4,2.4-6.4,0-8.9c-2.4-2.4-6.4-2.4-8.9,0
			C542.4,343.7,542.4,347.6,544.9,350.1z"/>
		<path class="st0" d="M510.9,384c2.4,2.4,6.4,2.4,8.9,0c2.4-2.4,2.4-6.4,0-8.9c-2.4-2.4-6.4-2.4-8.9,0
			C508.5,377.6,508.5,381.6,510.9,384z"/>
		<path class="st0" d="M477,418c2.4,2.4,6.4,2.4,8.9,0c2.4-2.4,2.4-6.4,0-8.9c-2.4-2.4-6.4-2.4-8.9,0
			C474.6,411.6,474.6,415.5,477,418z"/>
		<path class="st0" d="M443.1,451.9c2.4,2.4,6.4,2.4,8.9,0c2.4-2.4,2.4-6.4,0-8.9c-2.4-2.4-6.4-2.4-8.9,0
			C440.6,445.5,440.6,449.5,443.1,451.9z"/>
		<path class="st0" d="M409.1,485.9c2.4,2.4,6.4,2.4,8.9,0c2.4-2.4,2.4-6.4,0-8.9c-2.4-2.4-6.4-2.4-8.9,0
			C406.7,479.4,406.7,483.4,409.1,485.9z"/>
		<path class="st0" d="M375.2,519.8c2.4,2.4,6.4,2.4,8.9,0c2.4-2.4,2.4-6.4,0-8.9c-2.4-2.4-6.4-2.4-8.9,0
			C372.7,513.4,372.7,517.3,375.2,519.8z"/>
		<path class="st0" d="M341.2,553.7c2.4,2.4,6.4,2.4,8.9,0c2.4-2.4,2.4-6.4,0-8.9c-2.4-2.4-6.4-2.4-8.9,0
			C338.8,547.3,338.8,551.3,341.2,553.7z"/>
		<path class="st0" d="M307.3,587.7c2.4,2.4,6.4,2.4,8.9,0c2.4-2.4,2.4-6.4,0-8.9c-2.4-2.4-6.4-2.4-8.9,0
			C304.9,581.3,304.9,585.2,307.3,587.7z"/>
		<path class="st0" d="M273.4,621.6c2.4,2.4,6.4,2.4,8.9,0c2.4-2.4,2.4-6.4,0-8.9c-2.4-2.4-6.4-2.4-8.9,0
			C270.9,615.2,270.9,619.2,273.4,621.6z"/>
	</g>
	<g>
		<path class="st0" d="M646.7,316.2c2.4,2.4,6.4,2.4,8.9,0c2.4-2.4,2.4-6.4,0-8.9c-2.4-2.4-6.4-2.4-8.9,0
			C644.3,309.7,644.3,313.7,646.7,316.2z"/>
		<path class="st0" d="M612.8,350.1c2.4,2.4,6.4,2.4,8.9,0c2.4-2.4,2.4-6.4,0-8.9c-2.4-2.4-6.4-2.4-8.9,0
			C610.3,343.7,610.3,347.6,612.8,350.1z"/>
		<path class="st0" d="M578.8,384c2.4,2.4,6.4,2.4,8.9,0c2.4-2.4,2.4-6.4,0-8.9c-2.4-2.4-6.4-2.4-8.9,0
			C576.4,377.6,576.4,381.6,578.8,384z"/>
		<path class="st0" d="M544.9,418c2.4,2.4,6.4,2.4,8.9,0c2.4-2.4,2.4-6.4,0-8.9c-2.4-2.4-6.4-2.4-8.9,0
			C542.4,411.6,542.4,415.5,544.9,418z"/>
		<path class="st0" d="M510.9,451.9c2.4,2.4,6.4,2.4,8.9,0c2.4-2.4,2.4-6.4,0-8.9c-2.4-2.4-6.4-2.4-8.9,0
			C508.5,445.5,508.5,449.5,510.9,451.9z"/>
		<path class="st0" d="M477,485.9c2.4,2.4,6.4,2.4,8.9,0c2.4-2.4,2.4-6.4,0-8.9c-2.4-2.4-6.4-2.4-8.9,0
			C474.6,479.4,474.6,483.4,477,485.9z"/>
		<path class="st0" d="M443.1,519.8c2.4,2.4,6.4,2.4,8.9,0c2.4-2.4,2.4-6.4,0-8.9c-2.4-2.4-6.4-2.4-8.9,0
			C440.6,513.4,440.6,517.4,443.1,519.8z"/>
		<path class="st0" d="M409.1,553.7c2.4,2.4,6.4,2.4,8.9,0c2.4-2.4,2.4-6.4,0-8.9c-2.4-2.4-6.4-2.4-8.9,0
			C406.7,547.3,406.7,551.3,409.1,553.7z"/>
		<path class="st0" d="M375.2,587.7c2.4,2.4,6.4,2.4,8.9,0c2.4-2.4,2.4-6.4,0-8.9c-2.4-2.4-6.4-2.4-8.9,0
			C372.7,581.3,372.7,585.2,375.2,587.7z"/>
		<path class="st0" d="M341.2,621.6c2.4,2.4,6.4,2.4,8.9,0c2.4-2.4,2.4-6.4,0-8.9c-2.4-2.4-6.4-2.4-8.9,0
			C338.8,615.2,338.8,619.2,341.2,621.6z"/>
		<path class="st0" d="M307.3,655.6c2.4,2.4,6.4,2.4,8.9,0c2.4-2.4,2.4-6.4,0-8.9c-2.4-2.4-6.4-2.4-8.9,0
			C304.9,649.1,304.9,653.1,307.3,655.6z"/>
	</g>
	<g>
		<path class="st0" d="M680.6,350.1c2.4,2.4,6.4,2.4,8.9,0c2.4-2.4,2.4-6.4,0-8.9c-2.4-2.4-6.4-2.4-8.9,0
			C678.2,343.7,678.2,347.6,680.6,350.1z"/>
		<path class="st0" d="M646.7,384c2.4,2.4,6.4,2.4,8.9,0c2.4-2.4,2.4-6.4,0-8.9c-2.4-2.4-6.4-2.4-8.9,0
			C644.3,377.6,644.3,381.6,646.7,384z"/>
		<path class="st0" d="M612.8,418c2.4,2.4,6.4,2.4,8.9,0c2.4-2.4,2.4-6.4,0-8.9c-2.4-2.4-6.4-2.4-8.9,0
			C610.3,411.6,610.3,415.5,612.8,418z"/>
		<path class="st0" d="M578.8,451.9c2.4,2.4,6.4,2.4,8.9,0c2.4-2.4,2.4-6.4,0-8.9c-2.4-2.4-6.4-2.4-8.9,0
			C576.4,445.5,576.4,449.5,578.8,451.9z"/>
		<path class="st0" d="M544.9,485.9c2.4,2.4,6.4,2.4,8.9,0c2.4-2.4,2.4-6.4,0-8.9c-2.4-2.4-6.4-2.4-8.8,0
			C542.4,479.4,542.4,483.4,544.9,485.9z"/>
		<path class="st0" d="M510.9,519.8c2.4,2.4,6.4,2.4,8.9,0c2.4-2.4,2.4-6.4,0-8.9c-2.4-2.4-6.4-2.4-8.9,0
			C508.5,513.4,508.5,517.4,510.9,519.8z"/>
		<path class="st0" d="M477,553.7c2.4,2.4,6.4,2.4,8.9,0c2.4-2.4,2.4-6.4,0-8.9c-2.4-2.4-6.4-2.4-8.9,0
			C474.6,547.3,474.6,551.3,477,553.7z"/>
		<path class="st0" d="M443.1,587.7c2.4,2.4,6.4,2.4,8.9,0c2.4-2.4,2.4-6.4,0-8.9c-2.4-2.4-6.4-2.4-8.9,0
			C440.6,581.3,440.6,585.2,443.1,587.7z"/>
		<path class="st0" d="M409.1,621.6c2.4,2.4,6.4,2.4,8.9,0c2.4-2.4,2.4-6.4,0-8.9c-2.4-2.4-6.4-2.4-8.9,0
			C406.7,615.2,406.7,619.2,409.1,621.6z"/>
		<path class="st0" d="M375.2,655.6c2.4,2.4,6.4,2.4,8.9,0c2.4-2.4,2.4-6.4,0-8.9c-2.4-2.4-6.4-2.4-8.9,0
			C372.7,649.1,372.7,653.1,375.2,655.6z"/>
		<path class="st0" d="M341.2,689.5c2.4,2.4,6.4,2.4,8.9,0c2.4-2.4,2.4-6.4,0-8.9c-2.4-2.4-6.4-2.4-8.9,0
			C338.8,683.1,338.8,687.1,341.2,689.5z"/>
	</g>
</g>
<g>
</g>
<g>
</g>
<g>
</g>
<g>
</g>
<g>
</g>
<g>
</g>
<g>
</g>
<g>
</g>
<g>
</g>
<g>
</g>
<g>
</g>
<g>
</g>
<g>
</g>
<g>
</g>
<g>
</g>
</svg>
