<?xml version="1.0" encoding="utf-8"?>
<!-- Generator: Adobe Illustrator 25.2.1, SVG Export Plug-In . SVG Version: 6.00 Build 0)  -->
<svg version="1.1" id="Camada_1" xmlns="http://www.w3.org/2000/svg" xmlns:xlink="http://www.w3.org/1999/xlink" x="0px" y="0px"
	 viewBox="0 0 1941.2 430.4" style="enable-background:new 0 0 1941.2 430.4;" xml:space="preserve">
<style type="text/css">
	.st0{fill:url(#SVGID_1_);}
	.st1{fill:url(#SVGID_2_);}
	.st2{fill:url(#SVGID_3_);}
	.st3{fill:url(#SVGID_4_);}
	.st4{fill:url(#SVGID_5_);}
	.st5{fill:url(#SVGID_6_);}
	.st6{fill:url(#SVGID_7_);}
	.st7{fill:url(#SVGID_8_);}
	.st8{fill:url(#SVGID_9_);}
	.st9{fill:url(#SVGID_10_);}
	.st10{fill:url(#SVGID_11_);}
	.st11{fill:url(#SVGID_12_);}
	.st12{fill:url(#SVGID_13_);}
	.st13{fill:#D6D6D6;}
</style>
<g>
	<g>
		<radialGradient id="SVGID_1_" cx="105.7964" cy="251.9507" r="157.2828" gradientUnits="userSpaceOnUse">
			<stop  offset="0" style="stop-color:#FFFFFF"/>
			<stop  offset="1" style="stop-color:#C2CCCE"/>
		</radialGradient>
		<path class="st0" d="M-12.7,202.2l-98.3,99.5H86.5h98.8h49.4h24.7h12c4.1,0,8.2,0.1,12.4-0.1c4.2-0.2,8.3-0.2,12.5-0.6
			c4.2-0.3,8.4-0.9,12.6-1.5l13.9-97.3H165.9H-12.7z"/>
		<radialGradient id="SVGID_2_" cx="409.0682" cy="167.6576" r="117.1746" gradientUnits="userSpaceOnUse">
			<stop  offset="0" style="stop-color:#FFFFFF"/>
			<stop  offset="1" style="stop-color:#C2CCCE"/>
		</radialGradient>
		<path class="st1" d="M428.7,58.8c-10,5.7-18.6,12.2-25.3,19l-2.6,2.6l-2.3,2.7c-1.5,1.8-2.7,3.7-4.1,5.6c-1.4,1.9-2.5,3.8-3.7,5.7
			l-3.4,5.4L356,149.3l-33.4,52.9l-13.9,97.3c16.7-2.3,33.8-6.6,50.1-12.7c16.1-5.9,31.4-13.4,44.9-22c13.3-8.4,24.7-17.8,33.6-27.6
			l3.3-3.6l2.9-3.7c2-2.4,3.7-4.9,5.3-7.4l4.2-7.5c1.3-2.5,2.5-5,3.7-7.5l28.4-58.4l24.3-49.9l-12.1-63.6
			C472.8,39.3,448.1,47.7,428.7,58.8z"/>
		<radialGradient id="SVGID_3_" cx="581.7147" cy="66.4873" r="64.05" gradientUnits="userSpaceOnUse">
			<stop  offset="0" style="stop-color:#FFFFFF"/>
			<stop  offset="1" style="stop-color:#C2CCCE"/>
		</radialGradient>
		<path class="st2" d="M592.7,33.6h-36.7H534c-3.1,0-6.1,0-9.2,0c-3.1,0.1-6.1,0.1-9.2,0.3l-4.6,0.3l-4.6,0.5
			c-1.5,0.2-3,0.3-4.6,0.5l-4.6,0.6l12.1,63.6h135.2l21.5-65.8H592.7z"/>
		<radialGradient id="SVGID_4_" cx="738.769" cy="66.4888" r="70.5174" gradientUnits="userSpaceOnUse">
			<stop  offset="0" style="stop-color:#FFFFFF"/>
			<stop  offset="1" style="stop-color:#C2CCCE"/>
		</radialGradient>
		<path class="st3" d="M828.7,35l-4.3-0.5c-2.8-0.3-5.7-0.6-8.7-0.7l-9-0.2l-9.2,0h-21.5h-36.7h-73.4l-21.5,65.8h135.9l52.4-63.8
			C831.5,35.4,830.2,35.2,828.7,35z"/>
		<radialGradient id="SVGID_5_" cx="1312.4761" cy="233.0213" r="407.1113" gradientUnits="userSpaceOnUse">
			<stop  offset="0" style="stop-color:#FFFFFF"/>
			<stop  offset="1" style="stop-color:#C2CCCE"/>
		</radialGradient>
		<path class="st4" d="M1555.9,306.3h-198.4h-10.4l-17.2-42l-11.9-29.1l-7.3-17.9c-1.7-4.5-3.9-9-6.2-13.3c-1.3-2.1-2.6-4.2-4.1-6.3
			c-1.4-2-2.9-4.1-4.6-6.1c-12.9-15.6-32.6-29.1-55.3-38.3c-11.2-4.5-23-8.1-35.2-10.5c-12.1-2.4-24.3-3.6-36.8-3.7h-25.6H976.2
			h-74.5l0.8-43.5l0.1-5.5c-0.1-1.8-0.2-3.6-0.3-5.4c0-0.9-0.2-1.8-0.4-2.6c-0.2-0.9-0.4-1.7-0.7-2.5l-0.8-2.5
			c-0.2-0.8-0.5-1.7-1-2.5c-2.8-6.4-7.6-12.5-13.9-17.7c-12.3-10.4-31.2-18-52.6-21.3l-52.4,63.8l-8.9,24.2l0.6,26.4l-0.4,4.3
			c-0.1,1.4-0.3,2.9-0.2,4.3c0.5,8.6,3,17.1,8.4,24.9c5.4,8,13.1,15.3,22.9,21.5c9.9,6.3,21.8,11.3,34.9,14.8l5,1.3
			c1.7,0.4,3.4,0.7,5.2,1c1.7,0.3,3.4,0.7,5.2,1l5.3,0.7c3.5,0.5,7.2,0.9,10.8,1.1l11.3,0.4l101.2,0h183h9l10.3,39.1l9.1,34.5
			l2.8,10.6c1.7,6.1,3.1,12.3,5.3,18.5c1.8,6.3,5.3,12.3,8.6,18.3c3.8,6,7.9,12.1,13,17.8c10.2,11.8,23.1,22.7,37.8,32.3
			c15.1,9.5,32.1,17.6,49.8,23.4c8.9,3,18.1,5.2,27.3,7c9.2,1.5,18.4,3.2,27.7,3.2c9.3,0.5,18.5,0.3,27.8,0.4h16.1h221.9h221.9
			l-99.1-124.1H1555.9z"/>
		<radialGradient id="SVGID_6_" cx="1914.735" cy="368.3611" r="121.6666" gradientUnits="userSpaceOnUse">
			<stop  offset="0" style="stop-color:#FFFFFF"/>
			<stop  offset="1" style="stop-color:#C2CCCE"/>
		</radialGradient>
		<polygon class="st5" points="1952.6,306.3 1754.3,306.3 1853.3,430.4 2075.2,430.4 		"/>
		<radialGradient id="SVGID_7_" cx="775.7478" cy="140.5225" r="12.3015" gradientUnits="userSpaceOnUse">
			<stop  offset="0" style="stop-color:#FFFFFF"/>
			<stop  offset="1" style="stop-color:#C2CCCE"/>
		</radialGradient>
		<polyline class="st6" points="771.6,157.4 771.7,123.6 779.9,143.2 772,157.4 		"/>
	</g>
	<g>
		<g>
			
				<radialGradient id="SVGID_8_" cx="926.9084" cy="-629.3363" r="1681.0894" gradientTransform="matrix(1 0 0 0.9275 0 -80.2379)" gradientUnits="userSpaceOnUse">
				<stop  offset="0" style="stop-color:#404040"/>
				<stop  offset="0.2299" style="stop-color:#3B3B3B"/>
				<stop  offset="0.5042" style="stop-color:#2C2C2C"/>
				<stop  offset="0.7999" style="stop-color:#151515"/>
				<stop  offset="1" style="stop-color:#000000"/>
			</radialGradient>
			<path class="st7" d="M-12.7,168.6l-98.3,99.5H86.5h98.8h49.4h24.7h12c4.1,0,8.2,0.1,12.4-0.1c4.2-0.2,8.3-0.2,12.5-0.6
				c4.2-0.3,8.4-0.9,12.6-1.5l13.9-97.3H165.9H-12.7z"/>
			
				<radialGradient id="SVGID_9_" cx="926.9099" cy="-629.334" r="1681.1001" gradientTransform="matrix(1 0 0 0.9275 0 -80.2379)" gradientUnits="userSpaceOnUse">
				<stop  offset="0" style="stop-color:#404040"/>
				<stop  offset="0.2299" style="stop-color:#3B3B3B"/>
				<stop  offset="0.5042" style="stop-color:#2C2C2C"/>
				<stop  offset="0.7999" style="stop-color:#151515"/>
				<stop  offset="1" style="stop-color:#000000"/>
			</radialGradient>
			<path class="st8" d="M428.7,25.3c-10,5.7-18.6,12.2-25.3,19l-2.6,2.6l-2.3,2.7c-1.5,1.8-2.7,3.7-4.1,5.6
				c-1.4,1.9-2.5,3.8-3.7,5.7l-3.4,5.4L356,115.7l-33.4,52.9L308.7,266c16.7-2.3,33.8-6.6,50.1-12.7c16.1-5.9,31.4-13.4,44.9-22
				c13.3-8.4,24.7-17.8,33.6-27.6l3.3-3.6l2.9-3.7c2-2.4,3.7-4.9,5.3-7.4l4.2-7.5c1.3-2.5,2.5-5,3.7-7.5l28.4-58.4l24.3-49.9
				L497.3,2.2C472.8,5.8,448.1,14.1,428.7,25.3z"/>
			
				<radialGradient id="SVGID_10_" cx="926.9109" cy="-629.3337" r="1681.1016" gradientTransform="matrix(1 0 0 0.9275 0 -80.2379)" gradientUnits="userSpaceOnUse">
				<stop  offset="0" style="stop-color:#404040"/>
				<stop  offset="0.2299" style="stop-color:#3B3B3B"/>
				<stop  offset="0.5042" style="stop-color:#2C2C2C"/>
				<stop  offset="0.7999" style="stop-color:#151515"/>
				<stop  offset="1" style="stop-color:#000000"/>
			</radialGradient>
			<path class="st9" d="M592.7,0h-36.7H534c-3.1,0-6.1,0-9.2,0c-3.1,0.1-6.1,0.1-9.2,0.3L511,0.6l-4.6,0.5c-1.5,0.2-3,0.3-4.6,0.5
				l-4.6,0.6l12.1,63.6h135.2L666.1,0H592.7z"/>
			
				<radialGradient id="SVGID_11_" cx="927.0402" cy="-629.3322" r="1681.0378" gradientTransform="matrix(1 0 0 0.9275 0 -80.2379)" gradientUnits="userSpaceOnUse">
				<stop  offset="0" style="stop-color:#404040"/>
				<stop  offset="0.2299" style="stop-color:#3B3B3B"/>
				<stop  offset="0.5042" style="stop-color:#2C2C2C"/>
				<stop  offset="0.7999" style="stop-color:#151515"/>
				<stop  offset="1" style="stop-color:#000000"/>
			</radialGradient>
			<path class="st10" d="M828.7,1.4L824.5,1c-2.8-0.3-5.7-0.6-8.7-0.7l-9-0.2l-9.2,0h-21.5h-36.7h-73.4l-21.5,65.8h135.9l52.4-63.8
				C831.5,1.8,830.2,1.6,828.7,1.4z"/>
			
				<radialGradient id="SVGID_12_" cx="926.9106" cy="-629.3357" r="1681.0829" gradientTransform="matrix(1 0 0 0.9275 0 -80.2379)" gradientUnits="userSpaceOnUse">
				<stop  offset="0" style="stop-color:#404040"/>
				<stop  offset="0.2299" style="stop-color:#3B3B3B"/>
				<stop  offset="0.5042" style="stop-color:#2C2C2C"/>
				<stop  offset="0.7999" style="stop-color:#151515"/>
				<stop  offset="1" style="stop-color:#000000"/>
			</radialGradient>
			<path class="st11" d="M1555.9,272.7h-198.4h-10.4l-17.2-42l-11.9-29.1l-7.3-17.9c-1.7-4.5-3.9-9-6.2-13.3
				c-1.3-2.1-2.6-4.2-4.1-6.3c-1.4-2-2.9-4.1-4.6-6.1c-12.9-15.6-32.6-29.1-55.3-38.3c-11.2-4.5-23-8.1-35.2-10.5
				c-12.1-2.4-24.3-3.6-36.8-3.7h-25.6H976.2h-74.5l0.8-43.5l0.1-5.5c-0.1-1.8-0.2-3.6-0.3-5.4c0-0.9-0.2-1.8-0.4-2.6
				c-0.2-0.9-0.4-1.7-0.7-2.5l-0.8-2.5c-0.2-0.8-0.5-1.7-1-2.5c-2.8-6.4-7.6-12.5-13.9-17.7c-12.3-10.4-31.2-18-52.6-21.3
				l-52.4,63.8l-8.3,50.6l-0.4,4.3c-0.1,1.4-0.3,2.9-0.2,4.3c0.5,8.6,3,17.1,8.4,24.9c5.4,8,13.1,15.3,22.9,21.5
				c9.9,6.3,21.8,11.3,34.9,14.8l5,1.3c1.7,0.4,3.4,0.7,5.2,1c1.7,0.3,3.4,0.7,5.2,1l5.3,0.7c3.5,0.5,7.2,0.9,10.8,1.1l11.3,0.4
				l101.2,0h183h9l10.3,39.1l9.1,34.5l2.8,10.6c1.7,6.1,3.1,12.3,5.3,18.5c1.8,6.3,5.3,12.3,8.6,18.3c3.8,6,7.9,12.1,13,17.8
				c10.2,11.8,23.1,22.7,37.8,32.3c15.1,9.5,32.1,17.6,49.8,23.4c8.9,3,18.1,5.2,27.3,7c9.2,1.5,18.4,3.2,27.7,3.2
				c9.3,0.5,18.5,0.3,27.8,0.4h16.1h221.9h221.9l-99.1-124.1H1555.9z"/>
			
				<radialGradient id="SVGID_13_" cx="926.9112" cy="-629.3356" r="1681.0802" gradientTransform="matrix(1 0 0 0.9275 0 -80.2379)" gradientUnits="userSpaceOnUse">
				<stop  offset="0" style="stop-color:#404040"/>
				<stop  offset="0.2299" style="stop-color:#3B3B3B"/>
				<stop  offset="0.5042" style="stop-color:#2C2C2C"/>
				<stop  offset="0.7999" style="stop-color:#151515"/>
				<stop  offset="1" style="stop-color:#000000"/>
			</radialGradient>
			<polygon class="st12" points="1952.6,272.7 1754.3,272.7 1853.3,396.9 2075.2,396.9 			"/>
		</g>
		<g>
			<polygon class="st13" points="57.2,216.8 60.3,213.3 13.9,213.3 10.7,216.8 			"/>
			<polygon class="st13" points="102.4,216.8 127.5,216.8 152.5,216.8 155.2,213.3 130.3,213.3 105.3,213.3 			"/>
			<path class="st13" d="M320.2,181.2l0.8-1.2L320.2,181.2c4.4-0.1,9.4-1.7,13.6-4.1c1.9-1.1,3.6-2.5,4.8-4c0.8-0.9,1.3-1.9,1.9-2.8
				c0.2-0.4,0.4-0.7,0.7-1.1l32.8-53.6l33.2-54.2c0.4-0.6,0.7-1.2,1.1-1.8c0.6-1.1,1.3-2.1,2-3.2c0.4-0.6,0.8-1.2,1.2-1.8
				c0.7-1,1.4-2.1,2.2-3.1l1.9-2.3l2.1-2.3c5.7-6.1,12.9-11.8,21.3-16.7c16.9-9.9,38.6-17.2,59.7-20.1l0,0l4-0.5
				c0.8-0.1,1.7-0.2,2.5-0.2c0.5,0,1-0.1,1.4-0.1l4-0.4l4-0.2c1.7-0.1,3.4-0.1,5.2-0.1l2.9-0.1c1.7,0,3.4,0,5.2,0c1,0,1.9,0,2.9,0
				h132.6l0.5-1.6H531.5c-1,0-1.9,0-2.9,0c-1.8,0-3.5,0-5.3,0L520.4,7c-1.7,0-3.5,0.1-5.3,0.1L511,7.4L507,7.7
				c-0.5,0-0.9,0.1-1.4,0.1c-0.9,0.1-1.8,0.2-2.8,0.3l-4.1,0.5l0,0.8l0-0.8c-21.9,3-44.4,10.5-61.9,20.8
				c-8.8,5.1-16.3,10.9-22.2,17.3l-2.2,2.4l-2,2.4c-0.8,1.1-1.5,2.1-2.3,3.2c-0.4,0.6-0.8,1.2-1.2,1.7c-0.8,1.1-1.4,2.2-2.1,3.3
				c-0.4,0.6-0.7,1.2-1.1,1.8l-33.4,54.2l-33,53.6c-0.2,0.4-0.5,0.8-0.7,1.2c-0.5,0.8-1,1.6-1.6,2.4c-0.9,1.1-2.2,2.1-3.5,2.9
				c-3.1,1.8-6.8,3-10,3.1l-163.9,0H-22.8l-2.4,2.4h181.1L320.2,181.2z"/>
			<polygon class="st13" points="245,216.8 247.4,213.3 201,213.3 198.4,216.8 			"/>
			<path class="st13" d="M342.6,211.4l-0.9-3c-8.3,2.8-16.9,4.5-24.7,4.7c-5.3,0.1-10.6,0.1-15.7,0.1c-2.9,0-5.8,0-8.8,0l-2.2,3.5
				c2.9,0,5.8,0,8.7,0c1.7,0,3.3,0,5,0c3.6,0,7.3,0,11.1-0.1l1-1.7l-0.9,1.7C323.8,216.3,333.3,214.5,342.6,211.4z"/>
			<path class="st13" d="M381.6,178.8c-1.2,2.1-2.6,4.4-4.3,6.6l4.6,0.5c1.9-2.4,3.3-4.9,4.6-7.1l12.5-22.4h-4.8l-11,19.5
				L381.6,178.8z"/>
			<polygon class="st13" points="409.2,129.9 413.8,129.9 421.7,115.7 429.4,102 424.9,102 417.2,115.7 			"/>
			<path class="st13" d="M448.8,59.6l-10.3,18.2h4.4l10.2-18.2l1-1.7c0.6-1.1,1.2-2.1,1.9-3.1l-4.2-0.2c-0.8,1.1-1.4,2.2-2,3.3
				L448.8,59.6z"/>
			<path class="st13" d="M480.8,35l1.5,1.9c6.6-2.3,13.6-3.8,20.2-4.4v0l2.5-0.2l2.7-0.1c1.5-0.1,3-0.1,4.5-0.1l10.9,0l1.1-2.3
				l-10.9,0c-1.6,0-3.2,0-4.8,0.1l-2.8,0.1l-2.7,0.2l-0.3,1.1l0.3-1.1C495.8,30.9,488.1,32.5,480.8,35z"/>
			<path class="st13" d="M513.6,54.8c-0.5,0-1.1,0-1.6,0c-1.4,0-2.8,0-4.3,0.1l0,0c0,0,0,0,0,0c0,0,0,0,0,0v0
				c-4.2,0.3-8.8,1.9-12.1,4.1c-1.6,1.1-2.8,2.3-3.5,3.5c-0.2,0.4-0.4,0.8-0.6,1.2l-26.5,52l-29.3,57.6l-3.3,6.4l-3.6,6.4
				c-1.5,2.3-3,4.4-4.4,6.2l-2.3,3.1l-2.8,3.1c-7.4,8.2-17.1,16.2-28.2,23.2c-23.2,14.6-52.4,25-79.7,28.2l-0.8,0.1
				c-3.2,0.4-6.5,0.8-9.7,1c-2.2,0.2-4.4,0.2-6.6,0.3c-1.3,0-2.5,0.1-3.8,0.1c-2.2,0.1-4.5,0.1-6.7,0.1c-1.2,0-2.4,0-3.6,0H100
				H-94.3l-2.8,2.8H97.7h180.7c1.2,0,2.4,0,3.6,0c0.7,0,1.4,0,2.1,0c1.6,0,3.3,0,4.9-0.1c1.2-0.1,2.5-0.1,3.7-0.1
				c2.3-0.1,4.6-0.1,6.9-0.3c3.3-0.2,6.7-0.6,10-1l0.8-0.1c28.4-3.3,58.8-14.1,82.9-29.4c11.7-7.3,21.5-15.5,29.3-24.1l2.8-3.2
				l2.4-3.1c1.5-1.9,3-4,4.6-6.5l3.7-6.5l32.4-64l26.3-52c0.2-0.3,0.3-0.7,0.5-1c0.6-1,1.5-1.9,2.7-2.7c2.6-1.7,6.1-2.9,9.3-3.2
				l0.2-0.9l-0.2,0.9c1.2-0.1,2.4-0.1,3.7-0.1c0.6,0,1.1,0,1.7,0h134.9l0.6-1.8H513.6z"/>
			<polygon class="st13" points="598.4,32.2 599.4,29.8 561.6,29.8 560.5,32.2 			"/>
			<polygon class="st13" points="636,29.8 635.2,32.2 655.6,32.2 676,32.2 676.7,29.8 656.4,29.8 			"/>
			<path class="st13" d="M803.5,8.5l8,0.2c2.7,0.1,5.2,0.3,7.6,0.5l3.8,0.4c0.8,0.1,1.5,0.2,2.3,0.3c0.4,0.1,0.9,0.1,1.3,0.2v0
				c18.8,2.7,35.4,9.4,45.8,18.5c5.5,4.7,9.3,9.9,11.5,15.6c1.2,3.4,1.8,6.2,2,8.8l0.1,4.7l-2,50.3h0c-0.2,2.5,1.4,5,4.4,6.5
				c1.4,0.8,3.2,1.4,5.2,1.8c1.5,0.3,3,0.3,4.5,0.3c0.2,0,0.4,0,0.5,0l78.4,0h168.8h23.7c11.7,0.1,22.2,1.1,32.2,3
				c10.4,1.9,20.8,5,30.8,9.1c19.9,8.1,36.7,20,47.4,33.8c1.4,1.7,2.5,3.4,3.7,5.3c1.1,1.6,2.1,3.3,3.3,5.4
				c1.8,3.9,3.6,7.7,5.1,11.7l17.9,46l17.4,44.6c0.4,1.3,1.2,3.2,2.9,5c2.9,3.4,7.7,6.1,12.7,7.3c2.3,0.6,4.5,0.7,6.2,0.7
				c0.3,0,0.7,0,1,0h14.2h201.3h201.3H1968l-3-3h-200.8h-200.8h-200.8l-14.2,0c-1.6,0-3.6,0-5.7-0.5c-3.7-0.8-7.3-2.9-9.5-5.4
				c-0.9-1.1-1.6-2.3-2.2-4l-17.5-44.6l-18.1-46c-1.5-4-3.3-7.9-5.2-11.9c-1.2-2.2-2.3-4-3.5-5.7c-1.2-1.8-2.4-3.6-3.8-5.4
				c-11.1-14.2-28.5-26.6-49.1-34.9c-10.4-4.2-21.1-7.4-31.8-9.4c-10.3-1.9-21.1-2.9-33.2-3h-23.7H976.8h-77.5l-0.7,0
				c-1.4,0-2.8,0-4.1-0.2c-1.5-0.3-2.9-0.7-3.9-1.3c-2.2-1.2-3.5-3-3.3-4.9l-1.7,0h1.7l1.8-50.3l-0.2-4.7c-0.2-2.8-0.8-5.6-2.1-9.1
				c-2.2-5.8-6.3-11.3-11.9-16.1c-10.7-9.4-28-16.4-47.4-19.2l-0.5,0.8l0.4-0.8c-0.4-0.1-0.9-0.1-1.3-0.2c-0.8-0.1-1.7-0.3-2.5-0.3
				l-3.8-0.4c-2.5-0.3-5-0.4-7.9-0.6l-8.1-0.2l-140,0l-0.5,1.6L803.5,8.5z"/>
			<polygon class="st13" points="751.2,32.2 751.7,29.8 713.9,29.8 713.3,32.2 			"/>
			<path class="st13" d="M825.9,36.7l2.7-1.9c-5.4-2.4-12.1-4-19.3-4.6l0,0c0,0,0,0,0,0c0,0,0,0,0,0l0,0c-3.2-0.3-6.4-0.3-9.5-0.3
				l-11.4,0l-0.4,2.3l11.4,0c3.1,0,6,0,8.9,0.3l0.5-1.1l-0.5,1.2C814.9,33.1,821,34.5,825.9,36.7z"/>
			<path class="st13" d="M844.2,71.6c0.1-0.8,0.1-1.7,0.2-2.5l0.6-6.9c0.2-2.2,0.4-5,0.5-7.8l-4.3,0.1c-0.1,2.8-0.3,5.6-0.5,7.7
				l-0.7,6.9c-0.1,0.8-0.2,1.7-0.2,2.5l-0.6,6h4.4L844.2,71.6z"/>
			<path class="st13" d="M836.1,122.3c0.8,2.8,1.7,5,3.1,7l4.3-1.3c-1.2-1.7-2.1-3.7-2.8-6.2c-0.4-2.1-0.5-4.3-0.3-6.6l-2.3,0h2.3
				l1.2-13.6h-4.5l-1.3,13.6h0C835.5,117.6,835.6,120,836.1,122.3z"/>
			<path class="st13" d="M884.7,144.4c-5,0-9.2-0.3-12.9-1l-1.4,2.9c4.1,0.7,8.8,1.1,14.2,1.1c0.7,0,1.3,0,1.9,0h27.6l0-3l-27.6,0
				C885.9,144.4,885.3,144.4,884.7,144.4z"/>
			<polygon class="st13" points="955.5,144.4 955.6,147.4 978.9,147.4 1002.2,147.4 1001.9,144.4 978.7,144.4 			"/>
			<polygon class="st13" points="1044.9,147.4 1088.2,147.4 1087.6,144.4 1044.5,144.4 			"/>
			<polygon class="st13" points="1129.6,144.4 1130.2,147.4 1153.5,147.4 1177.1,147.4 1176.2,144.4 1152.8,144.4 			"/>
			<path class="st13" d="M1220.3,154.7l-2.7,2.2c8.7,4.8,15.6,11.3,19.2,18.4c1.1,2.4,1.9,4.8,2.6,6.9l0.1,0.4h4.9l-0.1-0.4
				c-0.7-2.2-1.6-4.7-2.8-7.2C1237.5,167.1,1229.9,160,1220.3,154.7z"/>
			<polygon class="st13" points="1249.9,213.3 1255.7,230.8 1261.8,248.9 1267.1,248.9 1260.9,230.8 1254.9,213.3 			"/>
			<path class="st13" d="M1284.7,296.6c-2-3.1-3.6-6.5-5.2-11.1c-0.2-0.6-0.4-1.2-0.6-1.8l-5.4-0.1c0.2,0.6,0.4,1.2,0.6,1.9
				c1.1,3.3,2.7,7.6,5.6,12c2.9,4.6,6.9,9.1,11.9,13.4c3.7,3.1,7.8,6.1,12.3,8.7l2.8-3.1c-4-2.4-7.8-5-11.1-7.8
				C1291,304.8,1287.3,300.8,1284.7,296.6z"/>
			<polygon class="st13" points="1353.1,328.1 1354.8,332.4 1382.5,332.4 1410.5,332.4 1408.5,328.1 1380.7,328.1 			"/>
			<polygon class="st13" points="1461.7,332.4 1513.8,332.4 1511.4,328.1 1459.6,328.1 			"/>
			<polygon class="st13" points="1561.7,328.1 1564.2,332.4 1592.2,332.4 1620.2,332.4 1617.4,328.1 1589.5,328.1 			"/>
			<polygon class="st13" points="1671.4,332.4 1723.4,332.4 1720.3,328.1 1668.5,328.1 			"/>
			<polygon class="st13" points="1770.6,328.1 1773.9,332.4 1801.9,332.4 1829.9,332.4 1826.3,328.1 1798.4,328.1 			"/>
			<path class="st13" d="M2054.2,375.6h-217.9h-217.9h-217.9h-15.2c-2,0-4.1,0-6.1,0c-5.6,0-11.4,0-17.2-0.3
				c-15.1-0.4-30.5-3-45.6-7.7c-14.8-4.6-28.9-11-41.9-19c-12.7-8-23.4-17.1-31.9-27c-8.5-9.8-14.5-20-18.1-30.5
				c-1.5-4-2.6-8-3.7-11.9c-0.4-1.3-0.7-2.5-1.1-3.8l-12.8-44.7l-11.6-40.3c-0.1-0.4-0.2-0.7-0.3-1.1c-0.3-1-0.5-1.9-1-2.9
				c-1.4-2.9-4.5-5.5-8.7-7.3c-2-0.8-4.2-1.4-6.4-1.7c-1.8-0.3-3.4-0.3-5.1-0.3l-12.7,0H980.9l-96.9,0l-9.5-0.3
				c-3.3-0.2-6.3-0.4-9.1-0.8l-4.5-0.5c-0.9-0.1-1.8-0.3-2.8-0.4c-0.5-0.1-1.1-0.2-1.6-0.3l-1.6-0.3c-0.9-0.2-1.9-0.3-2.7-0.5
				l-4.3-1c-11.3-2.8-21.2-6.8-29.6-12c-8.2-5.1-14.8-11.1-19.4-18c-4.2-6.1-6.5-13.2-6.8-21l0,0c-0.1-1.5,0.1-3.1,0.2-4.6
				c0.1-0.9,0.1-1.7,0.2-2.5l7-49.6c0-0.3,0.1-0.7,0.1-1c0.1-0.7,0.2-1.5,0.2-2.3c-0.1-1.2-0.6-2.3-1.6-3.3c-1.9-2-5.3-3.4-9.3-3.8
				l-0.4,0.9l0.4-0.9c-1.4-0.1-2.8-0.1-4.1-0.1c-0.6,0-1.1,0-1.7,0H648.2l-0.6,1.8H783c0.6,0,1.2,0,1.8,0c1.3,0,2.5,0,3.6,0.1
				c3,0.3,5.7,1.3,7.2,2.9c0.7,0.8,1.1,1.7,1.2,2.6c0,0.7-0.1,1.3-0.2,2c-0.1,0.4-0.1,0.7-0.2,1l-7.2,49.7c0,0.8-0.1,1.7-0.2,2.6
				c-0.1,1.6-0.3,3.2-0.2,4.8l1.7-0.1l-1.7,0.1c0.3,8.1,2.7,15.5,7,21.8c4.8,7.1,11.6,13.4,20.1,18.7c8.7,5.4,19.1,9.6,30.8,12.5
				l4.4,1c1,0.2,2,0.4,2.9,0.5l1.6,0.3c0.5,0.1,1,0.2,1.5,0.3c1,0.2,2,0.4,3.1,0.5l4.5,0.5c2.9,0.4,6,0.6,9.5,0.8l9.7,0.3l97.2,0
				h180.7h12.8c1.5,0,2.9,0,4.2,0.2c1.7,0.2,3.4,0.7,4.9,1.4c3.2,1.4,5.7,3.4,6.7,5.6c0.4,0.8,0.6,1.7,0.9,2.6
				c0.1,0.4,0.2,0.8,0.3,1.2l11.4,40.3l13.7,48.5c1.1,3.9,2.3,8.1,3.7,12.1c3.6,10.8,9.9,21.4,18.6,31.6c8.8,10.2,20,19.7,33.1,28.1
				c13.5,8.4,28.2,15.1,43.6,19.8c15.7,4.9,31.7,7.6,47.4,8c4.7,0.2,9.4,0.3,14,0.3c1.2,0,2.3,0,3.5,0c2,0,4.1,0,6.1,0h15.3h218.5
				h218.5h218.5L2054.2,375.6z"/>
			<polygon class="st13" points="1881.1,332.4 1933.1,332.4 1929.1,328.1 1877.3,328.1 			"/>
		</g>
	</g>
</g>
</svg>
