<?xml version="1.0" encoding="utf-8"?>
<!-- Generator: Adobe Illustrator 25.2.1, SVG Export Plug-In . SVG Version: 6.00 Build 0)  -->
<svg version="1.1" id="Camada_1" xmlns="http://www.w3.org/2000/svg" xmlns:xlink="http://www.w3.org/1999/xlink" x="0px" y="0px"
	 viewBox="0 0 1027.1 328.4" style="enable-background:new 0 0 1027.1 328.4;" xml:space="preserve">
<style type="text/css">
	.st0{fill:url(#SVGID_1_);}
	.st1{fill:url(#SVGID_2_);}
	.st2{fill:url(#SVGID_3_);}
	.st3{fill:url(#SVGID_4_);}
	.st4{fill:url(#SVGID_5_);}
	.st5{fill:url(#SVGID_6_);}
	.st6{fill:url(#SVGID_7_);}
	.st7{fill:url(#SVGID_8_);}
	.st8{fill:url(#SVGID_9_);}
	.st9{fill:url(#SVGID_10_);}
	.st10{fill:url(#SVGID_11_);}
	.st11{fill:url(#SVGID_12_);}
	.st12{fill:url(#SVGID_13_);}
	.st13{fill:#D6D6D6;}
</style>
<g>
	<g>
		
			<radialGradient id="SVGID_1_" cx="-808.2" cy="76.0375" r="157.3562" gradientTransform="matrix(1 0 0 -1 0 226)" gradientUnits="userSpaceOnUse">
			<stop  offset="0" style="stop-color:#FFFFFF"/>
			<stop  offset="1" style="stop-color:#C2CCCE"/>
		</radialGradient>
		<path class="st0" d="M-926.8,100.2l-98.3,99.5h197.5h98.8h49.4h24.7h12c4.1,0,8.2,0.1,12.4-0.1c4.2-0.2,8.3-0.2,12.5-0.6
			c4.2-0.3,8.4-0.9,12.6-1.5l13.9-97.3h-156.9H-926.8z"/>
		
			<radialGradient id="SVGID_2_" cx="-505.05" cy="160.45" r="117.2197" gradientTransform="matrix(1 0 0 -1 0 226)" gradientUnits="userSpaceOnUse">
			<stop  offset="0" style="stop-color:#FFFFFF"/>
			<stop  offset="1" style="stop-color:#C2CCCE"/>
		</radialGradient>
		<path class="st1" d="M-485.4-43.2c-10,5.7-18.6,12.2-25.3,19l-2.6,2.6l-2.3,2.7c-1.5,1.8-2.7,3.7-4.1,5.6s-2.5,3.8-3.7,5.7
			l-3.4,5.4l-31.3,49.5l-33.4,52.9l-13.9,97.3c16.7-2.3,33.8-6.6,50.1-12.7c16.1-5.9,31.4-13.4,44.9-22
			c13.3-8.4,24.7-17.8,33.6-27.6l3.3-3.6l2.9-3.7c2-2.4,3.7-4.9,5.3-7.4l4.2-7.5c1.3-2.5,2.5-5,3.7-7.5l28.4-58.4l24.3-49.9
			l-12.1-63.6C-441.3-62.7-466-54.3-485.4-43.2z"/>
		
			<radialGradient id="SVGID_3_" cx="-332.5" cy="261.5" r="64.129" gradientTransform="matrix(1 0 0 -1 0 226)" gradientUnits="userSpaceOnUse">
			<stop  offset="0" style="stop-color:#FFFFFF"/>
			<stop  offset="1" style="stop-color:#C2CCCE"/>
		</radialGradient>
		<path class="st2" d="M-321.4-68.4h-36.7h-22c-3.1,0-6.1,0-9.2,0c-3.1,0.1-6.1,0.1-9.2,0.3l-4.6,0.3l-4.6,0.5
			c-1.5,0.2-3,0.3-4.6,0.5l-4.6,0.6l12.1,63.6h135.2l21.5-65.8C-248.1-68.4-321.4-68.4-321.4-68.4z"/>
		
			<radialGradient id="SVGID_4_" cx="-175.331" cy="261.5" r="70.52" gradientTransform="matrix(1 0 0 -1 0 226)" gradientUnits="userSpaceOnUse">
			<stop  offset="0" style="stop-color:#FFFFFF"/>
			<stop  offset="1" style="stop-color:#C2CCCE"/>
		</radialGradient>
		<path class="st3" d="M-85.4-67l-4.3-0.5c-2.8-0.3-5.7-0.6-8.7-0.7l-9-0.2h-9.2h-21.5h-36.7h-73.4l-21.5,65.8h135.9l52.4-63.8
			C-82.6-66.6-83.9-66.8-85.4-67z"/>
		
			<radialGradient id="SVGID_5_" cx="398.2864" cy="95" r="407.0911" gradientTransform="matrix(1 0 0 -1 0 226)" gradientUnits="userSpaceOnUse">
			<stop  offset="0" style="stop-color:#FFFFFF"/>
			<stop  offset="1" style="stop-color:#C2CCCE"/>
		</radialGradient>
		<path class="st4" d="M641.8,204.3H443.4H433l-17.2-42l-11.9-29.1l-7.3-17.9c-1.7-4.5-3.9-9-6.2-13.3c-1.3-2.1-2.6-4.2-4.1-6.3
			c-1.4-2-2.9-4.1-4.6-6.1c-12.9-15.6-32.6-29.1-55.3-38.3c-11.2-4.5-23-8.1-35.2-10.5c-12.1-2.4-24.3-3.6-36.8-3.7h-25.6H62.1
			h-74.5l0.8-43.5l0.1-5.5c-0.1-1.8-0.2-3.6-0.3-5.4c0-0.9-0.2-1.8-0.4-2.6c-0.2-0.9-0.4-1.7-0.7-2.5l-0.8-2.5
			c-0.2-0.8-0.5-1.7-1-2.5c-2.8-6.4-7.6-12.5-13.9-17.7c-12.3-10.4-31.2-18-52.6-21.3l-52.4,63.8l-8.9,24.2l0.6,26.4l-0.4,4.3
			c-0.1,1.4-0.3,2.9-0.2,4.3c0.5,8.6,3,17.1,8.4,24.9c5.4,8,13.1,15.3,22.9,21.5c9.9,6.3,21.8,11.3,34.9,14.8l5,1.3
			c1.7,0.4,3.4,0.7,5.2,1c1.7,0.3,3.4,0.7,5.2,1l5.3,0.7c3.5,0.5,7.2,0.9,10.8,1.1l11.3,0.4H67.7h183h9l10.3,39.1l9.1,34.5l2.8,10.6
			c1.7,6.1,3.1,12.3,5.3,18.5c1.8,6.3,5.3,12.3,8.6,18.3c3.8,6,7.9,12.1,13,17.8c10.2,11.8,23.1,22.7,37.8,32.3
			c15.1,9.5,32.1,17.6,49.8,23.4c8.9,3,18.1,5.2,27.3,7c9.2,1.5,18.4,3.2,27.7,3.2c9.3,0.5,18.5,0.3,27.8,0.4h16.1h221.9h221.9
			L840,204.3L641.8,204.3L641.8,204.3z"/>
		
			<radialGradient id="SVGID_6_" cx="1000.65" cy="-40.35" r="121.6437" gradientTransform="matrix(1 0 0 -1 0 226)" gradientUnits="userSpaceOnUse">
			<stop  offset="0" style="stop-color:#FFFFFF"/>
			<stop  offset="1" style="stop-color:#C2CCCE"/>
		</radialGradient>
		<polygon class="st5" points="1038.5,204.3 840.2,204.3 939.2,328.4 1161.1,328.4 		"/>
		
			<radialGradient id="SVGID_7_" cx="-138.35" cy="187.5" r="12.2857" gradientTransform="matrix(1 0 0 -1 0 226)" gradientUnits="userSpaceOnUse">
			<stop  offset="0" style="stop-color:#FFFFFF"/>
			<stop  offset="1" style="stop-color:#C2CCCE"/>
		</radialGradient>
		<polyline class="st6" points="-142.5,55.4 -142.4,21.6 -134.2,41.2 -142.1,55.4 		"/>
	</g>
	<g>
		<g>
			
				<radialGradient id="SVGID_8_" cx="12.8084" cy="962.4172" r="1681.0894" gradientTransform="matrix(1 0 0 -0.9275 0 126.6946)" gradientUnits="userSpaceOnUse">
				<stop  offset="0" style="stop-color:#404040"/>
				<stop  offset="0.2299" style="stop-color:#3B3B3B"/>
				<stop  offset="0.5042" style="stop-color:#2C2C2C"/>
				<stop  offset="0.7999" style="stop-color:#151515"/>
				<stop  offset="1" style="stop-color:#000000"/>
			</radialGradient>
			<path class="st7" d="M-926.8,66.6l-98.3,99.5h197.5h98.8h49.4h24.7h12c4.1,0,8.2,0.1,12.4-0.1c4.2-0.2,8.3-0.2,12.5-0.6
				c4.2-0.3,8.4-0.9,12.6-1.5l13.9-97.3h-156.9L-926.8,66.6L-926.8,66.6z"/>
			
				<radialGradient id="SVGID_9_" cx="12.8099" cy="962.4149" r="1681.1001" gradientTransform="matrix(1 0 0 -0.9275 0 126.6946)" gradientUnits="userSpaceOnUse">
				<stop  offset="0" style="stop-color:#404040"/>
				<stop  offset="0.2299" style="stop-color:#3B3B3B"/>
				<stop  offset="0.5042" style="stop-color:#2C2C2C"/>
				<stop  offset="0.7999" style="stop-color:#151515"/>
				<stop  offset="1" style="stop-color:#000000"/>
			</radialGradient>
			<path class="st8" d="M-485.4-76.7c-10,5.7-18.6,12.2-25.3,19l-2.6,2.6l-2.3,2.7c-1.5,1.8-2.7,3.7-4.1,5.6
				c-1.4,1.9-2.5,3.8-3.7,5.7l-3.4,5.4l-31.3,49.4l-33.4,52.9l-13.9,97.4c16.7-2.3,33.8-6.6,50.1-12.7c16.1-5.9,31.4-13.4,44.9-22
				c13.3-8.4,24.7-17.8,33.6-27.6l3.3-3.6l2.9-3.7c2-2.4,3.7-4.9,5.3-7.4l4.2-7.5c1.3-2.5,2.5-5,3.7-7.5l28.4-58.4l24.3-49.9
				l-12.1-63.5C-441.3-96.2-466-87.9-485.4-76.7z"/>
			
				<radialGradient id="SVGID_10_" cx="12.8109" cy="962.4146" r="1681.1016" gradientTransform="matrix(1 0 0 -0.9275 0 126.6946)" gradientUnits="userSpaceOnUse">
				<stop  offset="0" style="stop-color:#404040"/>
				<stop  offset="0.2299" style="stop-color:#3B3B3B"/>
				<stop  offset="0.5042" style="stop-color:#2C2C2C"/>
				<stop  offset="0.7999" style="stop-color:#151515"/>
				<stop  offset="1" style="stop-color:#000000"/>
			</radialGradient>
			<path class="st9" d="M-321.4-102h-36.7h-22c-3.1,0-6.1,0-9.2,0c-3.1,0.1-6.1,0.1-9.2,0.3l-4.6,0.3l-4.6,0.5
				c-1.5,0.2-3,0.3-4.6,0.5l-4.6,0.6l12.1,63.6h135.2L-248-102H-321.4z"/>
			
				<radialGradient id="SVGID_11_" cx="12.8499" cy="962.4131" r="1681.0104" gradientTransform="matrix(1 0 0 -0.9275 0 126.6946)" gradientUnits="userSpaceOnUse">
				<stop  offset="0" style="stop-color:#404040"/>
				<stop  offset="0.2299" style="stop-color:#3B3B3B"/>
				<stop  offset="0.5042" style="stop-color:#2C2C2C"/>
				<stop  offset="0.7999" style="stop-color:#151515"/>
				<stop  offset="1" style="stop-color:#000000"/>
			</radialGradient>
			<path class="st10" d="M-85.4-100.6l-4.2-0.4c-2.8-0.3-5.7-0.6-8.7-0.7l-9-0.2h-9.2H-138h-36.7h-73.4l-21.5,65.8h135.9l52.4-63.8
				C-82.6-100.2-83.9-100.4-85.4-100.6z"/>
			
				<radialGradient id="SVGID_12_" cx="12.8106" cy="962.4166" r="1681.0829" gradientTransform="matrix(1 0 0 -0.9275 0 126.6946)" gradientUnits="userSpaceOnUse">
				<stop  offset="0" style="stop-color:#404040"/>
				<stop  offset="0.2299" style="stop-color:#3B3B3B"/>
				<stop  offset="0.5042" style="stop-color:#2C2C2C"/>
				<stop  offset="0.7999" style="stop-color:#151515"/>
				<stop  offset="1" style="stop-color:#000000"/>
			</radialGradient>
			<path class="st11" d="M641.8,170.7H443.4H433l-17.2-42l-11.9-29.1l-7.3-17.9c-1.7-4.5-3.9-9-6.2-13.3c-1.3-2.1-2.6-4.2-4.1-6.3
				c-1.4-2-2.9-4.1-4.6-6.1c-12.9-15.6-32.6-29.1-55.3-38.3c-11.2-4.5-23-8.1-35.2-10.5c-12.1-2.4-24.3-3.6-36.8-3.7h-25.6H62.1
				h-74.5l0.8-43.5l0.1-5.5c-0.1-1.8-0.2-3.6-0.3-5.4c0-0.9-0.2-1.8-0.4-2.6c-0.2-0.9-0.4-1.7-0.7-2.5l-0.8-2.5
				c-0.2-0.8-0.5-1.7-1-2.5c-2.8-6.4-7.6-12.5-13.9-17.7c-12.3-10.4-31.2-18-52.6-21.3l-52.4,63.8l-8.3,50.6l-0.4,4.3
				c-0.1,1.4-0.3,2.9-0.2,4.3c0.5,8.6,3,17.1,8.4,24.9c5.4,8,13.1,15.3,22.9,21.5c9.9,6.3,21.8,11.3,34.9,14.8l5,1.3
				c1.7,0.4,3.4,0.7,5.2,1c1.7,0.3,3.4,0.7,5.2,1l5.3,0.7c3.5,0.5,7.2,0.9,10.8,1.1l11.3,0.4H67.7h183h9l10.3,39.1l9.1,34.5
				l2.8,10.6c1.7,6.1,3.1,12.3,5.3,18.5c1.8,6.3,5.3,12.3,8.6,18.3c3.8,6,7.9,12.1,13,17.8c10.2,11.8,23.1,22.7,37.8,32.3
				c15.1,9.5,32.1,17.6,49.8,23.4c8.9,3,18.1,5.2,27.3,7c9.2,1.5,18.4,3.2,27.7,3.2c9.3,0.5,18.5,0.3,27.8,0.4h16.1h221.9h221.9
				L840,170.7L641.8,170.7L641.8,170.7z"/>
			
				<radialGradient id="SVGID_13_" cx="12.8112" cy="962.4164" r="1681.0802" gradientTransform="matrix(1 0 0 -0.9275 0 126.6946)" gradientUnits="userSpaceOnUse">
				<stop  offset="0" style="stop-color:#404040"/>
				<stop  offset="0.2299" style="stop-color:#3B3B3B"/>
				<stop  offset="0.5042" style="stop-color:#2C2C2C"/>
				<stop  offset="0.7999" style="stop-color:#151515"/>
				<stop  offset="1" style="stop-color:#000000"/>
			</radialGradient>
			<polygon class="st12" points="1038.5,170.7 840.2,170.7 939.2,294.9 1161.1,294.9 			"/>
		</g>
		<g>
			<polygon class="st13" points="-856.9,114.8 -853.8,111.3 -900.2,111.3 -903.4,114.8 			"/>
			<polygon class="st13" points="-811.7,114.8 -786.6,114.8 -761.6,114.8 -758.9,111.3 -783.8,111.3 -808.8,111.3 			"/>
			<path class="st13" d="M-593.9,79.2l0.8-1.2L-593.9,79.2c4.4-0.1,9.4-1.7,13.6-4.1c1.9-1.1,3.6-2.5,4.8-4c0.8-0.9,1.3-1.9,1.9-2.8
				c0.2-0.4,0.4-0.7,0.7-1.1l32.8-53.6l33.2-54.2c0.4-0.6,0.7-1.2,1.1-1.8c0.6-1.1,1.3-2.1,2-3.2c0.4-0.6,0.8-1.2,1.2-1.8
				c0.7-1,1.4-2.1,2.2-3.1l1.9-2.3l2.1-2.3c5.7-6.1,12.9-11.8,21.3-16.7c16.9-9.9,38.6-17.2,59.7-20.1l0,0l4-0.5
				c0.8-0.1,1.7-0.2,2.5-0.2c0.5,0,1-0.1,1.4-0.1l4-0.4l4-0.2c1.7-0.1,3.4-0.1,5.2-0.1l2.9-0.1c1.7,0,3.4,0,5.2,0c1,0,1.9,0,2.9,0
				h132.6l0.5-1.6h-132.4c-1,0-1.9,0-2.9,0c-1.8,0-3.5,0-5.3,0l-2.9,0.1c-1.7,0-3.5,0.1-5.3,0.1l-4.1,0.3l-4,0.3
				c-0.5,0-0.9,0.1-1.4,0.1c-0.9,0.1-1.8,0.2-2.8,0.3l-4.1,0.5v0.8v-0.8c-21.9,3-44.4,10.5-61.9,20.8c-8.8,5.1-16.3,10.9-22.2,17.3
				l-2.2,2.4l-2,2.4c-0.8,1.1-1.5,2.1-2.3,3.2c-0.4,0.6-0.8,1.2-1.2,1.7c-0.8,1.1-1.4,2.2-2.1,3.3c-0.4,0.6-0.7,1.2-1.1,1.8
				l-33.4,54.2l-33,53.6c-0.2,0.4-0.5,0.8-0.7,1.2c-0.5,0.8-1,1.6-1.6,2.4c-0.9,1.1-2.2,2.1-3.5,2.9c-3.1,1.8-6.8,3-10,3.1h-163.9
				h-180.4l-2.4,2.4h181.1L-593.9,79.2z"/>
			<polygon class="st13" points="-669.1,114.8 -666.7,111.3 -713.1,111.3 -715.7,114.8 			"/>
			<path class="st13" d="M-571.5,109.4l-0.9-3c-8.3,2.8-16.9,4.5-24.7,4.7c-5.3,0.1-10.6,0.1-15.7,0.1c-2.9,0-5.8,0-8.8,0l-2.2,3.5
				c2.9,0,5.8,0,8.7,0c1.7,0,3.3,0,5,0c3.6,0,7.3,0,11.1-0.1l1-1.7l-0.9,1.7C-590.3,114.3-580.8,112.5-571.5,109.4z"/>
			<path class="st13" d="M-532.5,76.8c-1.2,2.1-2.6,4.4-4.3,6.6l4.6,0.5c1.9-2.4,3.3-4.9,4.6-7.1l12.5-22.4h-4.8l-11,19.5
				L-532.5,76.8z"/>
			<polygon class="st13" points="-504.9,27.9 -500.3,27.9 -492.4,13.7 -484.7,0 -489.2,0 -496.9,13.7 			"/>
			<path class="st13" d="M-465.3-42.4l-10.3,18.2h4.4l10.2-18.2l1-1.7c0.6-1.1,1.2-2.1,1.9-3.1l-4.2-0.2c-0.8,1.1-1.4,2.2-2,3.3
				L-465.3-42.4z"/>
			<path class="st13" d="M-433.3-67l1.5,1.9c6.6-2.3,13.6-3.8,20.2-4.4l0,0l2.5-0.2l2.7-0.1c1.5-0.1,3-0.1,4.5-0.1h10.9l1.1-2.3
				h-10.9c-1.6,0-3.2,0-4.8,0.1l-2.8,0.1l-2.7,0.2l-0.3,1.1l0.3-1.1C-418.3-71.1-426-69.5-433.3-67z"/>
			<path class="st13" d="M-400.5-47.2c-0.5,0-1.1,0-1.6,0c-1.4,0-2.8,0-4.3,0.1l0,0l0,0l0,0l0,0c-4.2,0.3-8.8,1.9-12.1,4.1
				c-1.6,1.1-2.8,2.3-3.5,3.5c-0.2,0.4-0.4,0.8-0.6,1.2l-26.5,52l-29.3,57.6l-3.3,6.4l-3.6,6.4c-1.5,2.3-3,4.4-4.4,6.2l-2.3,3.1
				l-2.8,3.1c-7.4,8.2-17.1,16.2-28.2,23.2c-23.2,14.6-52.4,25-79.7,28.2l-0.8,0.1c-3.2,0.4-6.5,0.8-9.7,1c-2.2,0.2-4.4,0.2-6.6,0.3
				c-1.3,0-2.5,0.1-3.8,0.1c-2.2,0.1-4.5,0.1-6.7,0.1c-1.2,0-2.4,0-3.6,0h-180.2h-194.3l-2.8,2.8h194.8h180.7c1.2,0,2.4,0,3.6,0
				c0.7,0,1.4,0,2.1,0c1.6,0,3.3,0,4.9-0.1c1.2-0.1,2.5-0.1,3.7-0.1c2.3-0.1,4.6-0.1,6.9-0.3c3.3-0.2,6.7-0.6,10-1l0.8-0.1
				c28.4-3.3,58.8-14.1,82.9-29.4c11.7-7.3,21.5-15.5,29.3-24.1l2.8-3.2l2.4-3.1c1.5-1.9,3-4,4.6-6.5l3.7-6.5l32.4-64l26.3-52
				c0.2-0.3,0.3-0.7,0.5-1c0.6-1,1.5-1.9,2.7-2.7c2.6-1.7,6.1-2.9,9.3-3.2l0.2-0.9l-0.2,0.9c1.2-0.1,2.4-0.1,3.7-0.1
				c0.6,0,1.1,0,1.7,0h134.9l0.6-1.8h-134.6V-47.2z"/>
			<polygon class="st13" points="-315.7,-69.8 -314.7,-72.2 -352.5,-72.2 -353.6,-69.8 			"/>
			<polygon class="st13" points="-278.1,-72.2 -278.9,-69.8 -258.5,-69.8 -238.1,-69.8 -237.4,-72.2 -257.7,-72.2 			"/>
			<path class="st13" d="M-110.6-93.5l8,0.2c2.7,0.1,5.2,0.3,7.6,0.5l3.8,0.4c0.8,0.1,1.5,0.2,2.3,0.3c0.4,0.1,0.9,0.1,1.3,0.2l0,0
				c18.8,2.7,35.4,9.4,45.8,18.5c5.5,4.7,9.3,9.9,11.5,15.6c1.2,3.4,1.8,6.2,2,8.8l0.1,4.7l-2,50.3l0,0c-0.2,2.5,1.4,5,4.4,6.5
				c1.4,0.8,3.2,1.4,5.2,1.8c1.5,0.3,3,0.3,4.5,0.3c0.2,0,0.4,0,0.5,0h78.4h168.8h23.7c11.7,0.1,22.2,1.1,32.2,3
				c10.4,1.9,20.8,5,30.8,9.1c19.9,8.1,36.7,20,47.4,33.8c1.4,1.7,2.5,3.4,3.7,5.3c1.1,1.6,2.1,3.3,3.3,5.4
				c1.8,3.9,3.6,7.7,5.1,11.7l17.9,46l17.4,44.6c0.4,1.3,1.2,3.2,2.9,5c2.9,3.4,7.7,6.1,12.7,7.3c2.3,0.6,4.5,0.7,6.2,0.7
				c0.3,0,0.7,0,1,0h14.2h201.3h201.3h201.2l-3-3H850.1H649.3H448.5h-14.2c-1.6,0-3.6,0-5.7-0.5c-3.7-0.8-7.3-2.9-9.5-5.4
				c-0.9-1.1-1.6-2.3-2.2-4L399.4,129l-18.1-46c-1.5-4-3.3-7.9-5.2-11.9c-1.2-2.2-2.3-4-3.5-5.7c-1.2-1.8-2.4-3.6-3.8-5.4
				c-11.1-14.2-28.5-26.6-49.1-34.9c-10.4-4.2-21.1-7.4-31.8-9.4c-10.3-1.9-21.1-2.9-33.2-3H231H62.7h-77.5h-0.7
				c-1.4,0-2.8,0-4.1-0.2c-1.5-0.3-2.9-0.7-3.9-1.3c-2.2-1.2-3.5-3-3.3-4.9h-1.7h1.7L-25-44l-0.2-4.7c-0.2-2.8-0.8-5.6-2.1-9.1
				c-2.2-5.8-6.3-11.3-11.9-16.1c-10.7-9.4-28-16.4-47.4-19.2l-0.5,0.8l0.4-0.8c-0.4-0.1-0.9-0.1-1.3-0.2c-0.8-0.1-1.7-0.3-2.5-0.3
				l-3.8-0.4c-2.5-0.3-5-0.4-7.9-0.6l-8.1-0.2h-140l-0.5,1.6L-110.6-93.5z"/>
			<polygon class="st13" points="-162.9,-69.8 -162.4,-72.2 -200.2,-72.2 -200.8,-69.8 			"/>
			<path class="st13" d="M-88.2-65.3l2.7-1.9c-5.4-2.4-12.1-4-19.3-4.6l0,0l0,0l0,0l0,0c-3.2-0.3-6.4-0.3-9.5-0.3h-11.4l-0.4,2.3
				h11.4c3.1,0,6,0,8.9,0.3l0.5-1.1l-0.5,1.2C-99.2-68.9-93.1-67.5-88.2-65.3z"/>
			<path class="st13" d="M-69.9-30.4c0.1-0.8,0.1-1.7,0.2-2.5l0.6-6.9c0.2-2.2,0.4-5,0.5-7.8l-4.3,0.1c-0.1,2.8-0.3,5.6-0.5,7.7
				l-0.7,6.9c-0.1,0.8-0.2,1.7-0.2,2.5l-0.6,6h4.4L-69.9-30.4z"/>
			<path class="st13" d="M-78,20.3c0.8,2.8,1.7,5,3.1,7l4.3-1.3c-1.2-1.7-2.1-3.7-2.8-6.2c-0.4-2.1-0.5-4.3-0.3-6.6H-76h2.3
				l1.2-13.6H-77l-1.3,13.6l0,0C-78.6,15.6-78.5,18-78,20.3z"/>
			<path class="st13" d="M-29.4,42.4c-5,0-9.2-0.3-12.9-1l-1.4,2.9c4.1,0.7,8.8,1.1,14.2,1.1c0.7,0,1.3,0,1.9,0H0v-3h-27.6
				C-28.2,42.4-28.8,42.4-29.4,42.4z"/>
			<polygon class="st13" points="41.4,42.4 41.5,45.4 64.8,45.4 88.1,45.4 87.8,42.4 64.6,42.4 			"/>
			<polygon class="st13" points="130.8,45.4 174.1,45.4 173.5,42.4 130.4,42.4 			"/>
			<polygon class="st13" points="215.5,42.4 216.1,45.4 239.4,45.4 263,45.4 262.1,42.4 238.7,42.4 			"/>
			<path class="st13" d="M306.2,52.7l-2.7,2.2c8.7,4.8,15.6,11.3,19.2,18.4c1.1,2.4,1.9,4.8,2.6,6.9l0.1,0.4h4.9l-0.1-0.4
				c-0.7-2.2-1.6-4.7-2.8-7.2C323.4,65.1,315.8,58,306.2,52.7z"/>
			<polygon class="st13" points="335.8,111.3 341.6,128.8 347.7,146.9 353,146.9 346.8,128.8 340.8,111.3 			"/>
			<path class="st13" d="M370.6,194.6c-2-3.1-3.6-6.5-5.2-11.1c-0.2-0.6-0.4-1.2-0.6-1.8l-5.4-0.1c0.2,0.6,0.4,1.2,0.6,1.9
				c1.1,3.3,2.7,7.6,5.6,12c2.9,4.6,6.9,9.1,11.9,13.4c3.7,3.1,7.8,6.1,12.3,8.7l2.8-3.1c-4-2.4-7.8-5-11.1-7.8
				C376.9,202.8,373.2,198.8,370.6,194.6z"/>
			<polygon class="st13" points="439,226.1 440.7,230.4 468.4,230.4 496.4,230.4 494.4,226.1 466.6,226.1 			"/>
			<polygon class="st13" points="547.6,230.4 599.7,230.4 597.3,226.1 545.5,226.1 			"/>
			<polygon class="st13" points="647.6,226.1 650.1,230.4 678.1,230.4 706.1,230.4 703.3,226.1 675.4,226.1 			"/>
			<polygon class="st13" points="757.3,230.4 809.3,230.4 806.2,226.1 754.4,226.1 			"/>
			<polygon class="st13" points="856.5,226.1 859.8,230.4 887.8,230.4 915.8,230.4 912.2,226.1 884.3,226.1 			"/>
			<path class="st13" d="M1140.1,273.6H922.2H704.3H486.4h-15.2c-2,0-4.1,0-6.1,0c-5.6,0-11.4,0-17.2-0.3c-15.1-0.4-30.5-3-45.6-7.7
				c-14.8-4.6-28.9-11-41.9-19c-12.7-8-23.4-17.1-31.9-27c-8.5-9.8-14.5-20-18.1-30.5c-1.5-4-2.6-8-3.7-11.9
				c-0.4-1.3-0.7-2.5-1.1-3.8l-12.8-44.7l-11.6-40.3c-0.1-0.4-0.2-0.7-0.3-1.1c-0.3-1-0.5-1.9-1-2.9c-1.4-2.9-4.5-5.5-8.7-7.3
				c-2-0.8-4.2-1.4-6.4-1.7c-1.8-0.3-3.4-0.3-5.1-0.3H247H66.8h-96.9l-9.5-0.3c-3.3-0.2-6.3-0.4-9.1-0.8l-4.5-0.5
				c-0.9-0.1-1.8-0.3-2.8-0.4c-0.5-0.1-1.1-0.2-1.6-0.3l-1.6-0.3c-0.9-0.2-1.9-0.3-2.7-0.5l-4.3-1c-11.3-2.8-21.2-6.8-29.6-12
				c-8.2-5.1-14.8-11.1-19.4-18c-4.2-6.1-6.5-13.2-6.8-21l0,0c-0.1-1.5,0.1-3.1,0.2-4.6c0.1-0.9,0.1-1.7,0.2-2.5l7-49.6
				c0-0.3,0.1-0.7,0.1-1c0.1-0.7,0.2-1.5,0.2-2.3c-0.1-1.2-0.6-2.3-1.6-3.3c-1.9-2-5.3-3.4-9.3-3.8l-0.4,0.9l0.4-0.9
				c-1.4-0.1-2.8-0.1-4.1-0.1c-0.6,0-1.1,0-1.7,0h-134.9l-0.6,1.8h135.4c0.6,0,1.2,0,1.8,0c1.3,0,2.5,0,3.6,0.1
				c3,0.3,5.7,1.3,7.2,2.9c0.7,0.8,1.1,1.7,1.2,2.6c0,0.7-0.1,1.3-0.2,2c-0.1,0.4-0.1,0.7-0.2,1l-7.2,49.7c0,0.8-0.1,1.7-0.2,2.6
				c-0.1,1.6-0.3,3.2-0.2,4.8l1.7-0.1l-1.7,0.1c0.3,8.1,2.7,15.5,7,21.8c4.8,7.1,11.6,13.4,20.1,18.7c8.7,5.4,19.1,9.6,30.8,12.5
				l4.4,1c1,0.2,2,0.4,2.9,0.5l1.6,0.3c0.5,0.1,1,0.2,1.5,0.3c1,0.2,2,0.4,3.1,0.5l4.5,0.5c2.9,0.4,6,0.6,9.5,0.8l9.7,0.3H67h180.7
				h12.8c1.5,0,2.9,0,4.2,0.2c1.7,0.2,3.4,0.7,4.9,1.4c3.2,1.4,5.7,3.4,6.7,5.6c0.4,0.8,0.6,1.7,0.9,2.6c0.1,0.4,0.2,0.8,0.3,1.2
				l11.4,40.3l13.7,48.5c1.1,3.9,2.3,8.1,3.7,12.1c3.6,10.8,9.9,21.4,18.6,31.6c8.8,10.2,20,19.7,33.1,28.1
				c13.5,8.4,28.2,15.1,43.6,19.8c15.7,4.9,31.7,7.6,47.4,8c4.7,0.2,9.4,0.3,14,0.3c1.2,0,2.3,0,3.5,0c2,0,4.1,0,6.1,0h15.3h218.5
				h218.5h218.5L1140.1,273.6z"/>
			<polygon class="st13" points="967,230.4 1019,230.4 1015,226.1 963.2,226.1 			"/>
		</g>
	</g>
</g>
</svg>
