<?xml version="1.0" encoding="utf-8"?>
<!-- Generator: Adobe Illustrator 25.2.1, SVG Export Plug-In . SVG Version: 6.00 Build 0)  -->
<svg version="1.1" id="Camada_1" xmlns="http://www.w3.org/2000/svg" xmlns:xlink="http://www.w3.org/1999/xlink" x="0px" y="0px"
	 viewBox="0 0 537.9 625.8" style="enable-background:new 0 0 537.9 625.8;" xml:space="preserve">
<style type="text/css">
	.st0{clip-path:url(#SVGID_1_);}
	.st1{fill:#FFFFFF;}
</style>
<g>
	<defs>
		
			<rect id="SVGID_3_" x="78.8" y="122.7" transform="matrix(0.7071 -0.7071 0.7071 0.7071 -142.4753 281.8383)" width="380.4" height="380.4"/>
	</defs>
	<clipPath id="SVGID_1_">
		<use xlink:href="#SVGID_3_"  style="overflow:visible;"/>
	</clipPath>
	<g class="st0">
		<g>
			<rect x="3.1" class="st1" width="4.5" height="625.8"/>
			<rect x="30.9" class="st1" width="4.5" height="625.8"/>
			<rect x="58.6" class="st1" width="4.5" height="625.8"/>
			<rect x="86.4" class="st1" width="4.5" height="625.8"/>
			<rect x="114.1" class="st1" width="4.5" height="625.8"/>
			<rect x="141.9" class="st1" width="4.5" height="625.8"/>
			<rect x="169.6" class="st1" width="4.5" height="625.8"/>
			<rect x="197.4" class="st1" width="4.5" height="625.8"/>
			<rect x="225.1" class="st1" width="4.5" height="625.8"/>
			<rect x="252.8" class="st1" width="4.5" height="625.8"/>
			<rect x="280.6" class="st1" width="4.5" height="625.8"/>
			<rect x="308.3" class="st1" width="4.5" height="625.8"/>
			<rect x="336.1" class="st1" width="4.5" height="625.8"/>
			<rect x="363.8" class="st1" width="4.5" height="625.8"/>
			<rect x="391.6" class="st1" width="4.5" height="625.8"/>
			<rect x="419.3" class="st1" width="4.5" height="625.8"/>
			<rect x="447.1" class="st1" width="4.5" height="625.8"/>
			<rect x="474.8" class="st1" width="4.5" height="625.8"/>
			<rect x="502.6" class="st1" width="4.5" height="625.8"/>
			<rect x="530.3" class="st1" width="4.5" height="625.8"/>
		</g>
	</g>
</g>
<g>
</g>
<g>
</g>
<g>
</g>
<g>
</g>
<g>
</g>
<g>
</g>
<g>
</g>
<g>
</g>
<g>
</g>
<g>
</g>
<g>
</g>
<g>
</g>
<g>
</g>
<g>
</g>
<g>
</g>
</svg>
