<?xml version="1.0" encoding="utf-8"?>
<!-- Generator: Adobe Illustrator 25.2.1, SVG Export Plug-In . SVG Version: 6.00 Build 0)  -->
<svg version="1.1" id="Camada_1" xmlns="http://www.w3.org/2000/svg" xmlns:xlink="http://www.w3.org/1999/xlink" x="0px" y="0px"
	 viewBox="0 0 516.9 460.6" style="enable-background:new 0 0 516.9 460.6;" xml:space="preserve">
<style type="text/css">
	.st0{fill:#FFFFFF;}
	.st1{fill:#F9F9E8;}
	.st2{fill:#54C076;}
</style>
<g>
	<g>
		<g>
			<path class="st0" d="M103.4,309.8l8.4-66.7l5.8,5.3l-34.8,10.4l4.5-9l5.3,17.5l-13.3,4l-6.8-22.7l51.8-15.5l2.9,9.7l-7.5,62.1
				L103.4,309.8z"/>
			<path class="st0" d="M199,281.1l-19.4-64.6l29.4-8.8c7-2.1,13.6-2.6,19.8-1.5c6.2,1.1,11.5,3.6,15.9,7.5
				c4.5,3.9,7.7,9.1,9.6,15.7c2,6.5,2.2,12.7,0.6,18.4c-1.6,5.7-4.6,10.7-9.2,15c-4.6,4.3-10.3,7.5-17.4,9.6L199,281.1z
				 M210.3,264.4l13.7-4.1c4.3-1.3,7.8-3.2,10.5-5.8c2.7-2.6,4.4-5.6,5.3-9.2c0.9-3.5,0.7-7.3-0.6-11.4c-1.2-4.1-3.2-7.4-5.8-9.9
				c-2.6-2.5-5.8-4-9.5-4.7c-3.7-0.7-7.6-0.4-12,0.9l-13.7,4.1L210.3,264.4z"/>
			<path class="st0" d="M284.5,255.5l-19.4-64.6l15-4.5l19.4,64.6L284.5,255.5z"/>
			<path class="st0" d="M315.6,246.2l9.4-73.3l14.8-4.4l48.3,56l-15.7,4.7l-40.7-50l5.9-1.8l-6.6,64.2L315.6,246.2z M325.8,228
				l0.6-12.5l33.2-10l7.5,10.1L325.8,228z"/>
			<path class="st0" d="M425.6,214.4c-5.2,1.5-10.3,2.3-15.5,2.4c-5.2,0-9.5-0.6-13.1-2l1.7-12.8c3.4,1.1,7.1,1.8,11.3,1.9
				c4.2,0.1,8.2-0.4,12.1-1.6c3-0.9,5.3-1.9,6.9-3c1.6-1.1,2.7-2.3,3.3-3.6c0.5-1.3,0.6-2.6,0.2-4c-0.5-1.7-1.6-2.9-3.3-3.5
				c-1.7-0.6-3.7-0.9-6.1-0.9c-2.4,0-5,0.1-7.9,0.4c-2.9,0.2-5.7,0.3-8.7,0.2c-2.9-0.1-5.7-0.4-8.3-1.1s-5-1.9-7-3.7
				s-3.6-4.4-4.6-7.9c-1.1-3.7-1.1-7.4,0-11c1.1-3.6,3.4-7,6.9-10c3.5-3,8.3-5.5,14.4-7.3c4.1-1.2,8.2-1.9,12.4-2.2
				c4.2-0.2,8.1,0.2,11.7,1.2l-1.2,12.7c-3.5-0.8-6.9-1.2-10.2-1.1c-3.3,0.1-6.3,0.5-9.2,1.4c-2.9,0.9-5.2,1.9-6.8,3.1
				c-1.6,1.2-2.7,2.5-3.2,3.8c-0.5,1.3-0.5,2.7-0.1,4.1c0.5,1.7,1.6,2.8,3.2,3.4c1.7,0.6,3.7,0.9,6.1,0.8c2.4,0,5-0.2,7.9-0.4
				s5.8-0.3,8.7-0.3c2.9,0,5.7,0.3,8.3,1c2.6,0.7,5,1.9,7,3.7s3.6,4.4,4.6,7.8c1.1,3.6,1.1,7.3-0.1,10.9s-3.4,7-6.9,10
				C436.6,210.1,431.8,212.6,425.6,214.4z"/>
		</g>
	</g>
	<g>
		<g>
			<path class="st1" d="M37,236.1c-1.1-38.3,7.9-76.3,26.5-110.9c28.1-52.1,74.7-90.1,131.4-107.1S311.4,7.2,363.5,35.3
				c34.6,18.6,63,45.5,83.1,78l8.6-2.6c-21-34.7-51-63.3-87.6-83.1C313.5-1.5,251.3-7.9,192.4,9.8S85,67,55.8,121.1
				c-19.8,36.7-29,77-27.5,117.6L37,236.1z"/>
			<path class="st1" d="M480,224.4c1.1,38.3-7.9,76.3-26.5,110.9c-28.1,52.1-74.7,90.1-131.4,107.1s-116.6,10.9-168.6-17.2
				c-34.6-18.6-63-45.5-83.1-78l-8.6,2.6c21,34.7,51,63.3,87.6,83.1c54.1,29.2,116.4,35.5,175.3,17.9s107.4-57.2,136.6-111.3
				c19.8-36.7,29-77,27.5-117.6L480,224.4z"/>
		</g>
		<g>
			<g>
				<path class="st2" d="M453.9,232.2c-0.3,31.3-8.2,62.3-23.5,90.7c-24.8,45.9-65.9,79.5-115.9,94.5c-50,15-102.8,9.6-148.8-15.2
					c-28.4-15.3-52-36.8-69.5-62.9l-17.4,5.2c19.3,30.4,46.1,55.4,78.6,73c50,27,107.6,32.8,162,16.5
					c54.4-16.3,99.3-52.9,126.2-102.9c17.5-32.5,26.1-68.2,25.5-104.2L453.9,232.2z"/>
				<path class="st2" d="M63,228.3c0.3-31.3,8.2-62.3,23.5-90.7c24.8-45.9,65.9-79.5,115.9-94.5s102.8-9.6,148.8,15.2
					c28.4,15.3,52,36.8,69.5,62.9l17.4-5.2c-19.3-30.4-46.1-55.4-78.6-73c-50-27-107.6-32.8-162-16.5S98.1,79.3,71.1,129.4
					C53.6,161.9,45,197.6,45.6,233.5L63,228.3z"/>
			</g>
			<path class="st2" d="M477,229.9L75.7,350.1c-30.3,9.1-63-10.3-72.9-43.2s6.8-67.1,37.1-76.2l401.3-120.3
				c30.3-9.1,63,10.3,72.9,43.2C524,186.6,507.3,220.8,477,229.9z M42.4,239c-26.1,7.8-40.4,37.2-31.9,65.6s36.6,45,62.7,37.2
				l401.3-120.3c26.1-7.8,40.4-37.2,31.9-65.6c-8.5-28.3-36.6-45-62.7-37.2L42.4,239z"/>
		</g>
	</g>
	<g>
		<g>
			<path class="st0" d="M127.5,186.5c-1.1,2.5-2.6,4.6-4.3,6.3c-1.8,1.7-3.7,3-5.9,3.8c-2.2,0.9-4.4,1.3-6.8,1.2
				c-2.4-0.1-4.7-0.6-7.1-1.7c-2.4-1.1-4.3-2.5-5.9-4.3c-1.6-1.8-2.7-3.8-3.5-6c-0.7-2.2-1-4.6-0.8-7c0.2-2.5,0.8-4.9,2-7.4
				c1.3-2.8,2.9-5.1,4.9-6.8c2-1.8,4.2-3,6.6-3.7l2.1,6.6c-1.7,0.6-3.2,1.4-4.4,2.5c-1.2,1.1-2.2,2.4-2.9,4c-0.7,1.5-1.1,3-1.2,4.5
				c-0.1,1.5,0.1,2.9,0.6,4.2c0.5,1.3,1.2,2.5,2.2,3.6c1,1.1,2.2,1.9,3.7,2.6c1.5,0.7,2.9,1.1,4.4,1.1c1.5,0.1,2.8-0.1,4.2-0.6
				c1.3-0.5,2.5-1.2,3.6-2.3c1-1,1.9-2.3,2.6-3.8c0.7-1.4,1.1-2.9,1.2-4.5c0.2-1.6,0-3.2-0.5-5l7.1-1.7c0.5,2.3,0.6,4.7,0.2,7.3
				C129.2,181.8,128.6,184.2,127.5,186.5z M125.4,178.2l-11.8-5.5l3.1-6.6l12.7,5.9L125.4,178.2z"/>
			<path class="st0" d="M135.5,168.5L119,134.5l5.1-6l36.3,10.4l-5.4,6.4l-31.4-9.9l2-2.4l15.2,29.3L135.5,168.5z M134.8,157.8
				l-3.3-5.5l11.4-13.6l6,2.2L134.8,157.8z"/>
			<path class="st0" d="M165.7,134.9l-19.8-28.2l12.2-8.6c2.5-1.8,5-2.9,7.4-3.4c2.4-0.5,4.6-0.3,6.7,0.6c2.1,0.8,3.9,2.3,5.3,4.4
				c1.5,2.1,2.2,4.3,2.3,6.5c0.1,2.2-0.5,4.4-1.8,6.5c-1.3,2.1-3.2,4-5.7,5.8l-8.6,6l0.9-4.9l7.5,10.7L165.7,134.9z M165.2,120.4
				l-5.1-1l8.2-5.8c2-1.4,3.2-2.9,3.6-4.5c0.4-1.6,0-3.1-1-4.7c-1.1-1.6-2.4-2.4-4-2.6c-1.6-0.2-3.4,0.5-5.4,1.9l-8.2,5.8l0.7-5.1
				L165.2,120.4z M183.6,122.3l-14.2-5.3l7-4.9l14.3,5.2L183.6,122.3z"/>
			<path class="st0" d="M194.1,115.2l2.6-37.7l7.4-2.7l26.4,27.1l-7.9,2.9l-22.3-24.2l3-1.1l-1.4,32.9L194.1,115.2z M198.8,105.6
				l-0.1-6.4l16.7-6.1l4.1,4.9L198.8,105.6z"/>
			<path class="st0" d="M236.8,100.9L234,66.6l6.6-0.5l22.3,23.1l-3.2,0.3l-2-24.7l7.9-0.6l2.8,34.4l-6.5,0.5l-22.4-23.1l3.2-0.3
				l2,24.7L236.8,100.9z"/>
			<path class="st0" d="M286.5,100.6l4.7-27.6l-10.9-1.8l1.1-6.4l29.6,5l-1.1,6.4L299,74.3l-4.7,27.6L286.5,100.6z"/>
			<path class="st0" d="M312.5,106.6l11.6-32.5l7.5,2.7L320,109.3L312.5,106.6z"/>
			<path class="st0" d="M327,110.9l30.9-21.7l6.8,4l-4.5,37.5l-7.2-4.3l4.8-32.6l2.7,1.6L334,115.1L327,110.9z M337.4,108.5l4.9-4.1
				l15.2,9.1l-1.2,6.3L337.4,108.5z"/>
		</g>
	</g>
	<g>
		<g>
			<path class="st0" d="M163.3,367.2c-2-1.8-3.6-3.8-4.7-6c-1.1-2.2-1.8-4.4-1.9-6.8c-0.2-2.3,0.1-4.6,0.9-6.8
				c0.8-2.2,2-4.3,3.7-6.2c1.7-1.9,3.7-3.4,5.8-4.4c2.1-1,4.4-1.5,6.7-1.5c2.3,0,4.7,0.4,7,1.3c2.3,0.9,4.5,2.3,6.5,4.1
				c2.3,2,4,4.3,5.1,6.7c1.1,2.4,1.7,4.9,1.6,7.4l-7,0.1c0-1.8-0.4-3.5-1.1-4.9c-0.7-1.5-1.6-2.8-2.9-3.9c-1.2-1.1-2.6-2-3.9-2.5
				c-1.4-0.5-2.8-0.8-4.2-0.7c-1.4,0.1-2.8,0.4-4.1,1s-2.5,1.6-3.6,2.8c-1.1,1.2-1.9,2.5-2.4,3.8c-0.5,1.4-0.7,2.8-0.6,4.2
				s0.4,2.8,1.1,4.1c0.7,1.3,1.6,2.5,2.8,3.6c1.2,1.1,2.5,1.9,3.9,2.5c1.5,0.6,3.1,1,5,1l-0.5,7.3c-2.3-0.2-4.7-0.9-7-2
				C167.2,370.2,165.1,368.8,163.3,367.2z M171.9,367.6l8.7-9.6l5.4,4.9l-9.4,10.4L171.9,367.6z"/>
			<path class="st0" d="M186.3,384.7l27.9-25.5l7.2,3.1l0.4,37.8l-7.7-3.3l0.6-33l2.9,1.3l-23.8,22.9L186.3,384.7z M196.3,381
				l4.4-4.7l16.3,7.1l-0.4,6.4L196.3,381z"/>
			<path class="st0" d="M237.1,403.2l3.2-34.3l14.9,1.4c3.1,0.3,5.7,1,7.8,2.2c2.1,1.2,3.7,2.8,4.8,4.8c1,2,1.4,4.3,1.2,6.8
				c-0.2,2.6-1,4.7-2.4,6.4c-1.4,1.7-3.2,3-5.5,3.8c-2.3,0.8-5,1-8.1,0.7l-10.4-1l3.9-3.2l-1.2,13L237.1,403.2z M246.2,391.8
				l-3.2-4.1l10,0.9c2.5,0.2,4.3-0.1,5.6-1.1c1.3-1,2-2.4,2.2-4.2c0.2-1.9-0.3-3.4-1.4-4.6c-1.1-1.2-2.9-1.8-5.4-2.1l-10-0.9
				l3.9-3.5L246.2,391.8z M258.9,405.2l-7.4-13.3l8.5,0.8l7.5,13.3L258.9,405.2z"/>
			<path class="st0" d="M280.7,405.5l7.2-37.1l7.7-1.8l22.8,30.1l-8.2,1.9L291,371.8l3.1-0.7l-5.4,32.5L280.7,405.5z M286.5,396.6
				l0.7-6.4l17.3-4l3.5,5.4L286.5,396.6z"/>
			<path class="st0" d="M332.8,390.2l-18.3-29.2l5.6-3.5l30.4,10.3l-2.7,1.7l-13.2-21.1l6.7-4.2l18.3,29.2l-5.6,3.5l-30.5-10.2
				l2.7-1.7l13.2,21.1L332.8,390.2z"/>
			<path class="st0" d="M378.8,354.4l-21.3-18.1l-7.2,8.4l-5-4.2l19.5-22.9l5,4.2l-7.2,8.4l21.3,18.1L378.8,354.4z"/>
			<path class="st0" d="M398,327.9l-30.4-16.3l3.8-7l30.4,16.3L398,327.9z"/>
			<path class="st0" d="M408.5,308.6l-29.6-23.4l2-7.6l37.2-6.4l-2.1,8.1l-32.6,4.7l0.8-3.1l26.4,19.8L408.5,308.6z M403.2,299.3
				l-5.3-3.6l4.4-17.2l6.4-0.6L403.2,299.3z"/>
		</g>
	</g>
</g>
<g>
</g>
<g>
</g>
<g>
</g>
<g>
</g>
<g>
</g>
<g>
</g>
<g>
</g>
<g>
</g>
<g>
</g>
<g>
</g>
<g>
</g>
<g>
</g>
<g>
</g>
<g>
</g>
<g>
</g>
</svg>
