<?xml version="1.0" encoding="utf-8"?>
<!-- Generator: Adobe Illustrator 25.2.1, SVG Export Plug-In . SVG Version: 6.00 Build 0)  -->
<svg version="1.1" id="Camada_1" xmlns="http://www.w3.org/2000/svg" xmlns:xlink="http://www.w3.org/1999/xlink" x="0px" y="0px"
	 viewBox="0 0 642.9 499.9" style="enable-background:new 0 0 642.9 499.9;" xml:space="preserve">
<style type="text/css">
	.st0{fill:#FFFFFF;}
	.st1{fill:none;}
</style>
<g>
	<g>
		<g>
			<path d="M220.4,212.8v-47.7h20.7c4.3,0,8,0.7,11,2.1c3.1,1.4,5.5,3.4,7.2,6c1.7,2.6,2.5,5.7,2.5,9.3c0,3.5-0.8,6.6-2.5,9.2
				c-1.7,2.6-4.1,4.5-7.2,5.9c-3.1,1.4-6.8,2-11,2h-14.5l4.9-4.8v18.1H220.4z M231.5,195.9l-4.9-5.2h13.9c3.4,0,6-0.7,7.6-2.2
				c1.7-1.5,2.5-3.5,2.5-6.1c0-2.6-0.8-4.7-2.5-6.1c-1.7-1.5-4.2-2.2-7.6-2.2h-13.9l4.9-5.3V195.9z M250.8,212.8l-11.9-17.3h11.8
				l12.1,17.3H250.8z"/>
			<path d="M300.6,213.6c-3.8,0-7.3-0.6-10.5-1.8c-3.2-1.2-6-3-8.3-5.2c-2.3-2.2-4.2-4.8-5.5-7.8s-1.9-6.3-1.9-9.8s0.6-6.8,1.9-9.8
				c1.3-3,3.1-5.6,5.5-7.8c2.4-2.2,5.1-4,8.3-5.2c3.2-1.2,6.6-1.8,10.4-1.8c3.8,0,7.2,0.6,10.4,1.8c3.2,1.2,5.9,3,8.3,5.2
				c2.3,2.2,4.2,4.8,5.5,7.8c1.3,3,2,6.3,2,9.9c0,3.5-0.7,6.8-2,9.9c-1.3,3-3.1,5.6-5.5,7.8c-2.3,2.2-5.1,3.9-8.3,5.1
				C307.8,213,304.3,213.6,300.6,213.6z M300.5,204.2c2.1,0,4.1-0.4,5.9-1.1c1.8-0.7,3.4-1.8,4.7-3.1c1.4-1.4,2.4-3,3.2-4.8
				s1.1-3.9,1.1-6.2c0-2.3-0.4-4.3-1.1-6.2c-0.8-1.9-1.8-3.5-3.1-4.8c-1.3-1.4-2.9-2.4-4.7-3.1c-1.8-0.7-3.8-1.1-5.9-1.1
				c-2.1,0-4.1,0.4-5.9,1.1c-1.8,0.7-3.4,1.8-4.7,3.1s-2.4,3-3.2,4.8c-0.8,1.9-1.1,3.9-1.1,6.2c0,2.2,0.4,4.3,1.1,6.2
				c0.8,1.9,1.8,3.5,3.1,4.9c1.3,1.4,2.9,2.4,4.7,3.1C296.4,203.9,298.4,204.2,300.5,204.2z"/>
			<path d="M351,212.8v-38.7h-15.3v-9h41.6v9H362v38.7H351z"/>
			<path d="M381.4,212.8l21.3-47.7h10.9l21.3,47.7h-11.6l-17.5-42.2h4.4l-17.5,42.2H381.4z M392,202.6l2.9-8.4h24.6l3,8.4H392z"/>
		</g>
	</g>
	<g>
		<g>
			<path class="st0" d="M173,237.8l-43-12.6l2.4-8.2l35.7-9.4l-1.3,4.4l-25-26.9l2.4-8.2l43,12.5l-2.7,9.3l-28.7-8.4l0.5-1.7
				l19.9,21.5l-1.3,4.5l-28.5,7.6l0.6-2.1l28.7,8.4L173,237.8z"/>
			<path class="st0" d="M198.1,159.7l15.5-18.9l6.4,5.3l-22,26.8l-34.7-28.4l21.5-26.2l6.4,5.3l-14.9,18.2L198.1,159.7z
				 M183.4,148.6l13.7-16.7l6.2,5.1l-13.7,16.7L183.4,148.6z"/>
			<path class="st0" d="M233.1,134.6l-22-39l7.5-4.2l38.9,15.1l-3.6,2l-15.8-28.1l8.9-5l22,39l-7.4,4.2l-38.9-15.1l3.6-2l15.8,28.1
				L233.1,134.6z"/>
			<path class="st0" d="M297.1,107.6l-5.5-35.9l-14.2,2.2l-1.3-8.4l38.6-5.9l1.3,8.4l-14.2,2.2l5.5,35.9L297.1,107.6z"/>
			<path class="st0" d="M356.8,109.3c-3.5-0.7-6.5-2-9.2-3.8c-2.7-1.8-4.9-3.9-6.6-6.4c-1.7-2.5-2.9-5.3-3.5-8.3
				c-0.6-3-0.5-6.1,0.2-9.4s1.9-6.1,3.7-8.6c1.8-2.5,4-4.5,6.6-6.1c2.6-1.6,5.5-2.6,8.7-3.1c3.2-0.5,6.5-0.4,9.9,0.4
				c3.5,0.7,6.5,2,9.2,3.7c2.7,1.8,4.8,3.9,6.5,6.4c1.7,2.5,2.9,5.3,3.5,8.2c0.6,3,0.6,6.1-0.1,9.4c-0.7,3.3-2,6.1-3.8,8.7
				c-1.8,2.5-4,4.6-6.6,6.1c-2.6,1.6-5.4,2.6-8.6,3.1C363.5,110.1,360.3,110,356.8,109.3z M358.6,100.6c2,0.4,3.8,0.5,5.6,0.2
				c1.8-0.3,3.4-1,5-1.9c1.5-1,2.8-2.3,3.9-3.8c1.1-1.6,1.8-3.4,2.3-5.5c0.4-2.1,0.5-4.1,0.2-5.9c-0.3-1.9-1-3.5-1.9-5.1
				c-1-1.5-2.2-2.8-3.7-3.8c-1.5-1-3.3-1.8-5.2-2.2c-2-0.4-3.8-0.5-5.6-0.2s-3.4,1-5,1.9c-1.5,1-2.8,2.3-3.9,3.8
				c-1.1,1.6-1.8,3.4-2.3,5.5c-0.4,2-0.5,4-0.2,5.9c0.3,1.9,1,3.6,1.9,5.1s2.2,2.8,3.7,3.8C354.9,99.5,356.7,100.2,358.6,100.6z"/>
			<path class="st0" d="M395.9,121.5l25.5-36.9l16,11c3.3,2.3,5.8,4.8,7.4,7.5c1.6,2.7,2.4,5.5,2.3,8.4c-0.1,2.9-1.1,5.7-3,8.5
				c-1.9,2.7-4.2,4.7-6.8,5.7s-5.6,1.3-8.7,0.7c-3.1-0.6-6.3-2-9.6-4.3l-11.2-7.7l6.4-1.1l-9.7,14L395.9,121.5z M413.4,114.3l-1-6.6
				l10.7,7.4c2.6,1.8,5,2.6,7.1,2.4c2.1-0.2,3.8-1.4,5.2-3.4c1.4-2,1.8-4.1,1.3-6.1c-0.5-2-2.1-3.9-4.7-5.8l-10.7-7.4l6.6-1.4
				L413.4,114.3z M419.3,137.7l0-19.7l9.1,6.3l0.1,19.8L419.3,137.7z"/>
			<path class="st0" d="M439.5,157.4l34.9-28.1l6.5,8.1L446,165.5L439.5,157.4z"/>
			<path class="st0" d="M455.9,176.5l49,1.8l3.8,9.5l-34.1,35.3l-4.1-10.1l30.6-30l1.5,3.8l-42.8-0.5L455.9,176.5z M468.5,182.2
				l8.3-0.4l8.6,21.4l-6.3,5.5L468.5,182.2z"/>
		</g>
	</g>
	<g>
		<g>
			<path d="M314.6,459.8C314.6,459.8,314.6,459.8,314.6,459.8c-4.8-0.2-9.5-0.5-14.1-0.9c-1.6-0.2-2.7-1.6-2.6-3.1
				c0.2-1.6,1.5-2.7,3.1-2.6c4.5,0.4,9.1,0.7,13.6,0.9c1.6,0.1,2.8,1.4,2.8,3C317.5,458.5,316.2,459.8,314.6,459.8z M328.5,459.7
				c-1.5,0-2.8-1.2-2.9-2.8c-0.1-1.6,1.2-2.9,2.8-3c4.5-0.2,9.1-0.5,13.6-0.9c1.6-0.2,3,1,3.1,2.6c0.2,1.6-1,3-2.6,3.1
				C337.9,459.3,333.2,459.6,328.5,459.7C328.5,459.7,328.5,459.7,328.5,459.7z M287.1,457c-0.2,0-0.3,0-0.5,0
				c-4.6-0.8-9.2-1.7-13.7-2.8c-1.5-0.4-2.5-1.9-2.1-3.5c0.4-1.5,1.9-2.5,3.5-2.1c4.4,1,8.9,1.9,13.4,2.7c1.6,0.3,2.6,1.7,2.4,3.3
				C289.7,456,288.5,457,287.1,457z M356,457c-1.4,0-2.6-1-2.8-2.4c-0.3-1.6,0.8-3,2.4-3.3c4.5-0.7,9-1.7,13.4-2.7
				c1.5-0.4,3.1,0.6,3.5,2.1c0.4,1.5-0.6,3.1-2.1,3.5c-4.5,1.1-9.2,2-13.7,2.8C356.3,457,356.1,457,356,457z M260.2,450.7
				c-0.3,0-0.6,0-0.9-0.1c-4.5-1.4-8.9-2.9-13.3-4.6c-1.5-0.6-2.2-2.2-1.7-3.7c0.6-1.5,2.2-2.2,3.7-1.7c4.2,1.6,8.6,3.1,12.9,4.5
				c1.5,0.5,2.4,2.1,1.9,3.6C262.6,449.9,261.4,450.7,260.2,450.7z M382.9,450.6c-1.2,0-2.4-0.8-2.7-2c-0.5-1.5,0.4-3.1,1.9-3.6
				c4.3-1.3,8.7-2.8,12.9-4.5c1.5-0.6,3.1,0.2,3.7,1.6c0.6,1.5-0.2,3.1-1.6,3.7c-4.3,1.7-8.8,3.2-13.2,4.6
				C383.4,450.6,383.2,450.6,382.9,450.6z M234.4,440.7c-0.4,0-0.8-0.1-1.2-0.3c-4.2-2-8.4-4.1-12.5-6.3c-1.4-0.8-1.9-2.5-1.1-3.9
				c0.8-1.4,2.5-1.9,3.9-1.1c4,2.2,8.1,4.3,12.2,6.2c1.4,0.7,2.1,2.4,1.4,3.8C236.5,440.1,235.4,440.7,234.4,440.7z M408.7,440.7
				c-1.1,0-2.1-0.6-2.6-1.7c-0.7-1.4,0-3.2,1.4-3.8c4.1-1.9,8.2-4,12.2-6.2c1.4-0.8,3.1-0.3,3.9,1.1c0.8,1.4,0.3,3.1-1.1,3.9
				c-4.1,2.2-8.3,4.4-12.5,6.3C409.5,440.6,409.1,440.7,408.7,440.7z M432.9,427.3c-0.9,0-1.9-0.5-2.4-1.3c-0.9-1.3-0.5-3.1,0.9-4
				c3.8-2.4,7.6-5,11.2-7.7c1.3-0.9,3.1-0.7,4,0.6c0.9,1.3,0.7,3.1-0.6,4c-3.7,2.8-7.6,5.4-11.5,7.9
				C433.9,427.2,433.4,427.3,432.9,427.3z M455.1,410.9c-0.8,0-1.6-0.3-2.2-1c-1-1.2-0.9-3,0.3-4.1c3.5-2.9,6.9-6,10.1-9.2
				c1.1-1.1,3-1.1,4.1,0.1c1.1,1.1,1.1,3-0.1,4.1c-3.3,3.2-6.8,6.4-10.4,9.4C456.4,410.7,455.8,410.9,455.1,410.9z M114.8,239.2
				c-0.1,0-0.1,0-0.2,0c-1.6-0.1-2.8-1.5-2.7-3.1c0.3-4.7,0.8-9.4,1.4-14c0.2-1.6,1.7-2.7,3.2-2.5c1.6,0.2,2.7,1.7,2.5,3.2
				c-0.6,4.5-1,9-1.3,13.6C117.6,238.1,116.3,239.2,114.8,239.2z M528,238.5c-1.5,0-2.8-1.2-2.9-2.7c-0.3-4.5-0.8-9.1-1.4-13.6
				c-0.2-1.6,0.9-3,2.5-3.2c1.6-0.2,3,0.9,3.2,2.5c0.6,4.6,1.1,9.3,1.4,14c0.1,1.6-1.1,3-2.7,3.1C528.1,238.5,528,238.5,528,238.5z
				 M118.4,211.8c-0.2,0-0.4,0-0.6-0.1c-1.6-0.3-2.6-1.8-2.3-3.4c0.9-4.6,2-9.2,3.2-13.7c0.4-1.5,2-2.4,3.5-2c1.5,0.4,2.4,2,2,3.5
				c-1.2,4.4-2.2,8.8-3.1,13.3C121,210.9,119.8,211.8,118.4,211.8z M524.3,211.1c-1.3,0-2.5-0.9-2.8-2.3c-0.9-4.4-2-8.9-3.2-13.3
				c-0.4-1.5,0.5-3.1,2-3.5c1.5-0.4,3.1,0.5,3.5,2c1.2,4.5,2.3,9.1,3.3,13.6c0.3,1.6-0.7,3.1-2.2,3.4
				C524.7,211.1,524.5,211.1,524.3,211.1z M125.7,185.1c-0.3,0-0.6-0.1-0.9-0.2c-1.5-0.5-2.3-2.2-1.8-3.7c1.5-4.4,3.2-8.8,5-13.1
				c0.6-1.5,2.3-2.1,3.8-1.5c1.5,0.6,2.1,2.3,1.5,3.8c-1.8,4.2-3.4,8.5-4.9,12.8C128,184.4,126.9,185.1,125.7,185.1z M516.9,184.5
				c-1.2,0-2.3-0.7-2.7-1.9c-1.5-4.3-3.1-8.5-4.9-12.7c-0.6-1.5,0.1-3.2,1.5-3.8c1.5-0.6,3.2,0.1,3.8,1.5c1.8,4.3,3.5,8.7,5.1,13.1
				c0.5,1.5-0.3,3.1-1.8,3.7C517.6,184.4,517.2,184.5,516.9,184.5z M136.5,159.6c-0.4,0-0.9-0.1-1.3-0.3c-1.4-0.7-2-2.4-1.3-3.9
				c2.1-4.2,4.4-8.3,6.7-12.3c0.8-1.4,2.6-1.8,3.9-1c1.4,0.8,1.8,2.6,1,3.9c-2.3,3.9-4.5,7.9-6.6,12
				C138.5,159.1,137.5,159.6,136.5,159.6z M506.1,159.1c-1,0-2.1-0.6-2.6-1.6c-2-4-4.3-8-6.6-11.9c-0.8-1.4-0.4-3.1,1-3.9
				c1.4-0.8,3.1-0.4,3.9,1c2.4,4,4.7,8.1,6.8,12.3c0.7,1.4,0.2,3.1-1.3,3.9C507,159,506.5,159.1,506.1,159.1z M150.6,135.8
				c-0.6,0-1.1-0.2-1.6-0.5c-1.3-0.9-1.6-2.7-0.7-4c2.6-3.8,5.4-7.6,8.3-11.3c1-1.2,2.8-1.5,4-0.5c1.2,1,1.5,2.8,0.5,4
				c-2.8,3.6-5.5,7.3-8.1,11C152.4,135.4,151.5,135.8,150.6,135.8z M491.9,135.3c-0.9,0-1.8-0.4-2.4-1.2c-2.6-3.7-5.3-7.4-8.1-11
				c-1-1.2-0.8-3.1,0.5-4c1.2-1,3.1-0.8,4,0.5c2.9,3.6,5.7,7.4,8.3,11.3c0.9,1.3,0.6,3.1-0.7,4C493.1,135.2,492.5,135.3,491.9,135.3
				z M167.7,114.1c-0.7,0-1.4-0.2-1.9-0.7c-1.2-1.1-1.3-2.9-0.2-4.1c3.1-3.5,6.4-6.8,9.7-10.1c1.1-1.1,3-1.1,4.1,0.1
				c1.1,1.1,1.1,3-0.1,4.1c-3.3,3.2-6.4,6.5-9.5,9.8C169.3,113.8,168.5,114.1,167.7,114.1z M474.7,113.7c-0.8,0-1.6-0.3-2.1-0.9
				c-3-3.4-6.2-6.6-9.5-9.8c-1.1-1.1-1.2-2.9-0.1-4.1c1.1-1.1,2.9-1.2,4.1-0.1c3.4,3.2,6.6,6.6,9.8,10.1c1.1,1.2,1,3-0.2,4.1
				C476.1,113.4,475.4,113.7,474.7,113.7z M187.6,94.9c-0.8,0-1.6-0.3-2.2-1c-1-1.2-0.9-3,0.3-4.1c3.5-3,7.2-5.9,11-8.7
				c1.3-0.9,3.1-0.7,4,0.6c0.9,1.3,0.7,3.1-0.6,4c-3.6,2.7-7.2,5.5-10.7,8.5C188.9,94.6,188.2,94.9,187.6,94.9z M454.8,94.5
				c-0.7,0-1.3-0.2-1.9-0.7c-3.5-2.9-7.1-5.8-10.7-8.4c-1.3-0.9-1.6-2.7-0.6-4c0.9-1.3,2.7-1.6,4-0.6c3.8,2.8,7.5,5.7,11,8.7
				c1.2,1,1.4,2.8,0.3,4.1C456.5,94.1,455.7,94.5,454.8,94.5z M209.8,78.4c-0.9,0-1.9-0.5-2.4-1.3c-0.9-1.3-0.5-3.1,0.9-4
				c3.9-2.5,8-4.9,12-7.2c1.4-0.8,3.1-0.3,3.9,1.1c0.8,1.4,0.3,3.1-1.1,3.9c-4,2.2-7.9,4.5-11.7,7C210.8,78.3,210.3,78.4,209.8,78.4
				z M432.5,78.1c-0.5,0-1.1-0.1-1.5-0.5c-3.8-2.4-7.8-4.8-11.8-6.9c-1.4-0.8-1.9-2.5-1.1-3.9c0.8-1.4,2.5-1.9,3.9-1.1
				c4.1,2.2,8.2,4.6,12.1,7.1c1.3,0.9,1.7,2.6,0.9,4C434.4,77.6,433.5,78.1,432.5,78.1z M234,65.1c-1.1,0-2.1-0.6-2.6-1.7
				c-0.7-1.4,0-3.2,1.4-3.8c4.2-2,8.6-3.8,12.9-5.5c1.5-0.6,3.1,0.2,3.7,1.6c0.6,1.5-0.2,3.1-1.6,3.7c-4.2,1.6-8.4,3.4-12.5,5.3
				C234.8,65,234.4,65.1,234,65.1z M408.3,64.8c-0.4,0-0.8-0.1-1.2-0.3c-4.1-1.9-8.3-3.7-12.6-5.3c-1.5-0.6-2.2-2.2-1.7-3.7
				c0.6-1.5,2.2-2.2,3.7-1.7c4.4,1.7,8.7,3.5,12.9,5.5c1.4,0.7,2.1,2.4,1.4,3.8C410.4,64.2,409.3,64.8,408.3,64.8z M259.7,55.1
				c-1.2,0-2.4-0.8-2.7-2c-0.5-1.5,0.4-3.1,1.9-3.6c4.5-1.4,9-2.6,13.5-3.7c1.5-0.4,3.1,0.6,3.5,2.1c0.4,1.5-0.6,3.1-2.1,3.5
				c-4.4,1.1-8.8,2.3-13.1,3.6C260.3,55.1,260,55.1,259.7,55.1z M382.4,54.9c-0.3,0-0.6,0-0.8-0.1c-4.3-1.3-8.8-2.5-13.2-3.6
				c-1.5-0.4-2.5-1.9-2.1-3.5c0.4-1.5,1.9-2.5,3.5-2.1c4.5,1.1,9.1,2.3,13.5,3.7c1.5,0.5,2.4,2.1,1.9,3.6
				C384.8,54.1,383.6,54.9,382.4,54.9z M286.6,48.7c-1.4,0-2.6-1-2.8-2.4c-0.3-1.6,0.8-3.1,2.4-3.3c4.6-0.8,9.3-1.4,13.9-1.9
				c1.6-0.2,3,1,3.2,2.6c0.2,1.6-1,3-2.6,3.2c-4.5,0.5-9.1,1.1-13.5,1.8C287,48.7,286.8,48.7,286.6,48.7z M355.5,48.6
				c-0.2,0-0.3,0-0.5,0c-4.5-0.7-9-1.3-13.5-1.8c-1.6-0.2-2.7-1.6-2.6-3.1c0.2-1.6,1.6-2.7,3.1-2.6c4.6,0.5,9.3,1.1,13.9,1.8
				c1.6,0.3,2.6,1.7,2.4,3.3C358.1,47.6,356.9,48.6,355.5,48.6z M314.1,45.9c-1.5,0-2.8-1.2-2.9-2.8c-0.1-1.6,1.2-2.9,2.8-3
				c4.6-0.2,9.4-0.2,14,0c1.6,0.1,2.8,1.4,2.8,3c0,1.6-1.3,2.8-2.9,2.8c0,0-0.1,0-0.1,0c-4.5-0.1-9.2-0.1-13.6,0
				C314.2,45.9,314.2,45.9,314.1,45.9z"/>
		</g>
		<g>
			<g>
				<path class="st0" d="M94.5,253.7c0-1.3,0-2.5,0-3.8C94.5,124.8,196.3,23,321.4,23c125.1,0,226.9,101.8,226.9,226.9
					c0,5.7-0.2,11.3-0.6,16.8c7,2.1,14.4,4.1,22.6,5.8c0.7-7.5,1-15,1-22.6c0-66.8-26-129.5-73.2-176.7S388.2,0,321.4,0
					c-66.8,0-129.5,26-176.7,73.2C98,119.9,72,181.9,71.5,247.9C79.9,249.6,87.5,251.6,94.5,253.7z"/>
				<path class="st0" d="M494.6,396.4c-41.7,49.2-103.8,80.5-173.2,80.5c-56.6,0-108.5-20.9-148.3-55.3c-16.6-2.3-29.8-5.7-41.9-9.5
					c4.3,5,8.8,9.9,13.5,14.6c47.2,47.2,110,73.2,176.7,73.2c66.8,0,129.5-26,176.7-73.2c7.4-7.4,14.2-15.1,20.5-23.2
					C511.1,401,503.3,398.5,494.6,396.4z"/>
			</g>
			<path class="st0" d="M631.4,435.8c-53.6,0-80.8-9.3-107-18.3c-25.6-8.8-49.8-17.1-99.6-17.1s-74,8.3-99.6,17.1
				c-26.3,9-53.5,18.3-107,18.3c-53.6,0-80.7-9.3-107-18.3c-25.6-8.8-49.8-17.1-99.6-17.1C5.2,400.5,0,395.3,0,389V242.7
				c0-6.4,5.2-11.5,11.5-11.5c53.6,0,80.7,9.3,107,18.3c25.6,8.8,49.8,17.1,99.6,17.1c49.7,0,74-8.3,99.6-17.1
				c26.3-9,53.5-18.3,107-18.3c53.6,0,80.8,9.3,107,18.3c25.6,8.8,49.8,17.1,99.6,17.1c6.4,0,11.5,5.2,11.5,11.5v146.3
				C642.9,430.7,637.7,435.8,631.4,435.8z M23,377.6c46.1,1.2,71.2,9.8,95.5,18.1c25.6,8.8,49.8,17.1,99.6,17.1
				c49.7,0,74-8.3,99.6-17.1c26.3-9,53.5-18.3,107-18.3c53.6,0,80.8,9.3,107,18.3c23.6,8.1,45.9,15.7,88.1,16.9V289.4
				c-46.1-1.2-71.2-9.8-95.5-18.1c-25.6-8.8-49.8-17.1-99.6-17.1s-74,8.3-99.6,17.1c-26.3,9-53.5,18.3-107,18.3
				c-53.6,0-80.7-9.3-107-18.3c-23.6-8.1-45.9-15.7-88.1-16.9V377.6z"/>
		</g>
	</g>
	<g>
		<path class="st1" d="M23,354.4c55.6,0,113.4,37.1,178.3,38.4c64.9,1.3,139.5-39,222.6-36.5c83.1,2.5,173,36.3,196,37"/>
		<path d="M79.6,351.3l34.5,10.3l-3.5,11.8l-49.1-14.6l18.8-63.5l48,14.2l-3.5,11.8l-33.4-9.9L79.6,351.3z M86.2,324.9l30.6,9.1
			l-3.4,11.4l-30.6-9.1L86.2,324.9z"/>
		<path d="M159.4,387.6l-15.1-2.9l12.3-65l49.2,9.3l-2.3,12.1l-34.1-6.5L159.4,387.6z M165.1,351.7l31.2,5.9l-2.3,12.1l-31.2-5.9
			L165.1,351.7z"/>
		<path d="M252,374.7l35.1-8l2.7,12l-50,11.4l-14.7-64.5l48.8-11.1l2.7,12l-33.9,7.7L252,374.7z M244.8,348.4l31.1-7.1l2.7,11.6
			l-31.1,7.1L244.8,348.4z"/>
		<path d="M333.4,367.2l-11.5-52.5l-20.7,4.6l-2.7-12.2l56.3-12.4l2.7,12.2l-20.7,4.6l11.5,52.5L333.4,367.2z"/>
		<path d="M393.7,357.1l-3.7-66.1l15.3-0.9l3.7,66.1L393.7,357.1z"/>
		<path d="M459.8,359.1l-19.3-69.5l16.4,2.3l16.8,61.5l-9.6-1.3l33.1-54.6l15.1,2.1l-37.4,61.7L459.8,359.1z"/>
		<path d="M514.7,368l44.8-57l14.7,3.7l12.5,71.4l-15.6-3.9l-9.2-62.6l5.9,1.5l-37.9,50.7L514.7,368z M532.5,357.9l6.8-10.3l33,8.3
			l1.2,12.3L532.5,357.9z"/>
	</g>
</g>
<g>
</g>
<g>
</g>
<g>
</g>
<g>
</g>
<g>
</g>
<g>
</g>
<g>
</g>
<g>
</g>
<g>
</g>
<g>
</g>
<g>
</g>
<g>
</g>
<g>
</g>
<g>
</g>
<g>
</g>
</svg>
