<?xml version="1.0" encoding="utf-8"?>
<!-- Generator: Adobe Illustrator 25.2.1, SVG Export Plug-In . SVG Version: 6.00 Build 0)  -->
<svg version="1.1" id="Camada_1" xmlns="http://www.w3.org/2000/svg" xmlns:xlink="http://www.w3.org/1999/xlink" x="0px" y="0px"
	 viewBox="0 0 577.8 449.3" style="enable-background:new 0 0 577.8 449.3;" xml:space="preserve">
<style type="text/css">
	.st0{fill:#54C076;}
	.st1{fill:url(#SVGID_1_);}
	.st2{fill:url(#SVGID_2_);}
	.st3{fill:url(#SVGID_3_);}
	.st4{fill:none;}
</style>
<g>
	<g>
		<g>
			<path class="st0" d="M149.2,181.1l19.6-44h10.1l19.7,44h-10.7l-16.1-38.8h4l-16.2,38.8H149.2z M159,171.7l2.7-7.7h22.6l2.8,7.7
				H159z"/>
			<path class="st0" d="M233.5,181.1v-44h19c3.9,0,7.3,0.6,10.2,1.9c2.8,1.3,5,3.1,6.6,5.5c1.5,2.4,2.3,5.2,2.3,8.5
				c0,3.3-0.8,6.1-2.3,8.5c-1.6,2.4-3.8,4.2-6.6,5.4c-2.9,1.3-6.2,1.9-10.2,1.9h-13.4l4.5-4.5v16.7H233.5z M243.6,165.5l-4.5-4.8
				h12.8c3.1,0,5.5-0.7,7-2c1.5-1.4,2.3-3.2,2.3-5.6c0-2.4-0.8-4.3-2.3-5.7c-1.6-1.3-3.9-2-7-2h-12.8l4.5-4.8V165.5z M261.4,181.1
				l-11-16h10.9l11.1,16H261.4z"/>
			<path class="st0" d="M307.3,181.9c-3.5,0-6.7-0.6-9.6-1.7c-3-1.1-5.5-2.7-7.7-4.8c-2.2-2.1-3.8-4.5-5-7.2s-1.8-5.8-1.8-9.1
				s0.6-6.3,1.8-9.1c1.2-2.8,2.9-5.2,5.1-7.2c2.2-2.1,4.7-3.6,7.7-4.8c2.9-1.1,6.1-1.7,9.6-1.7c3.5,0,6.7,0.6,9.6,1.7
				c2.9,1.1,5.4,2.7,7.6,4.8c2.2,2.1,3.8,4.5,5.1,7.2c1.2,2.7,1.8,5.8,1.8,9.1c0,3.3-0.6,6.3-1.8,9.1c-1.2,2.8-2.9,5.2-5.1,7.2
				c-2.2,2-4.7,3.6-7.6,4.7C313.9,181.3,310.7,181.9,307.3,181.9z M307.2,173.2c2,0,3.8-0.3,5.4-1c1.7-0.7,3.1-1.6,4.4-2.9
				c1.3-1.3,2.2-2.7,2.9-4.5c0.7-1.7,1-3.6,1-5.7c0-2.1-0.3-4-1-5.7c-0.7-1.7-1.7-3.2-2.9-4.5c-1.2-1.3-2.7-2.2-4.4-2.9
				c-1.7-0.7-3.5-1-5.5-1c-2,0-3.8,0.3-5.4,1c-1.7,0.7-3.1,1.6-4.4,2.9c-1.3,1.3-2.2,2.7-2.9,4.5c-0.7,1.7-1,3.6-1,5.7
				c0,2.1,0.3,4,1,5.7c0.7,1.7,1.7,3.2,2.9,4.5c1.2,1.3,2.7,2.2,4.4,2.9C303.5,172.9,305.3,173.2,307.2,173.2z"/>
			<path class="st0" d="M353.8,181.1v-35.7h-14.1v-8.3H378v8.3h-14.1v35.7H353.8z"/>
			<path class="st0" d="M381.8,181.1l19.6-44h10.1l19.7,44h-10.7l-16.1-38.8h4l-16.2,38.8H381.8z M391.6,171.7l2.7-7.7h22.6l2.8,7.7
				H391.6z"/>
		</g>
	</g>
	<g>
		<g>
			<path d="M282.8,413.2C282.8,413.2,282.7,413.2,282.8,413.2c-4.3-0.1-8.5-0.4-12.7-0.8c-1.4-0.1-2.5-1.4-2.3-2.8
				c0.1-1.4,1.4-2.4,2.8-2.3c4,0.4,8.2,0.7,12.2,0.8c1.4,0,2.5,1.2,2.5,2.7C285.3,412.1,284.2,413.2,282.8,413.2z M295.2,413.2
				c-1.4,0-2.5-1.1-2.6-2.5c0-1.4,1.1-2.6,2.5-2.7c4.1-0.1,8.2-0.4,12.2-0.8c1.4-0.2,2.7,0.9,2.8,2.3c0.1,1.4-0.9,2.7-2.3,2.8
				C303.7,412.8,299.5,413.1,295.2,413.2C295.3,413.2,295.3,413.2,295.2,413.2z M258.1,410.8c-0.1,0-0.3,0-0.4,0
				c-4.1-0.7-8.3-1.5-12.4-2.5c-1.4-0.3-2.3-1.7-1.9-3.1c0.3-1.4,1.7-2.3,3.1-1.9c4,0.9,8,1.8,12,2.4c1.4,0.2,2.4,1.6,2.1,3
				C260.4,409.9,259.3,410.8,258.1,410.8z M320,410.8c-1.2,0-2.3-0.9-2.5-2.2c-0.2-1.4,0.7-2.7,2.1-3c4-0.7,8.1-1.5,12-2.4
				c1.4-0.3,2.8,0.5,3.1,1.9c0.3,1.4-0.5,2.8-1.9,3.1c-4.1,1-8.2,1.8-12.4,2.5C320.2,410.8,320.1,410.8,320,410.8z M233.9,405.1
				c-0.3,0-0.5,0-0.8-0.1c-4-1.2-8-2.6-11.9-4.1c-1.3-0.5-2-2-1.5-3.3c0.5-1.3,2-2,3.3-1.5c3.8,1.5,7.7,2.8,11.6,4
				c1.4,0.4,2.1,1.9,1.7,3.2C236,404.4,235,405.1,233.9,405.1z M344.1,405c-1.1,0-2.1-0.7-2.5-1.8c-0.4-1.4,0.3-2.8,1.7-3.2
				c3.9-1.2,7.8-2.6,11.6-4c1.3-0.5,2.8,0.1,3.3,1.5c0.5,1.3-0.1,2.8-1.5,3.3c-3.9,1.5-7.9,2.9-11.9,4.1
				C344.7,405,344.4,405,344.1,405z M210.7,396.1c-0.4,0-0.7-0.1-1.1-0.2c-3.8-1.8-7.6-3.7-11.3-5.7c-1.3-0.7-1.7-2.3-1-3.5
				c0.7-1.3,2.3-1.7,3.5-1c3.6,2,7.3,3.8,11,5.5c1.3,0.6,1.9,2.1,1.3,3.4C212.6,395.6,211.6,396.1,210.7,396.1z M367.3,396.1
				c-1,0-1.9-0.6-2.3-1.5c-0.6-1.3,0-2.8,1.3-3.4c3.7-1.7,7.4-3.6,10.9-5.5c1.3-0.7,2.8-0.2,3.5,1c0.7,1.3,0.2,2.8-1,3.5
				c-3.7,2-7.4,3.9-11.2,5.7C368.1,396,367.7,396.1,367.3,396.1z M389.1,384.1c-0.9,0-1.7-0.4-2.2-1.2c-0.8-1.2-0.4-2.8,0.8-3.6
				c3.4-2.2,6.8-4.5,10.1-6.9c1.1-0.8,2.8-0.6,3.6,0.5c0.8,1.1,0.6,2.8-0.5,3.6c-3.4,2.5-6.9,4.9-10.4,7.1
				C390,384,389.6,384.1,389.1,384.1z M409.1,369.4c-0.7,0-1.5-0.3-2-0.9c-0.9-1.1-0.8-2.7,0.3-3.6c3.1-2.6,6.2-5.4,9.1-8.2
				c1-1,2.7-1,3.7,0.1c1,1,1,2.7-0.1,3.7c-3,2.9-6.2,5.8-9.3,8.5C410.3,369.2,409.7,369.4,409.1,369.4z M103.2,215
				c-0.1,0-0.1,0-0.2,0c-1.4-0.1-2.5-1.3-2.4-2.7c0.3-4.2,0.7-8.4,1.2-12.5c0.2-1.4,1.5-2.4,2.9-2.2c1.4,0.2,2.4,1.5,2.2,2.9
				c-0.5,4-0.9,8.1-1.2,12.2C105.7,214,104.6,215,103.2,215z M474.6,214.4c-1.3,0-2.5-1-2.6-2.4c-0.3-4.1-0.7-8.2-1.2-12.2
				c-0.2-1.4,0.8-2.7,2.2-2.9c1.4-0.2,2.7,0.8,2.9,2.2c0.6,4.1,1,8.4,1.3,12.5c0.1,1.4-1,2.7-2.4,2.8
				C474.7,214.4,474.6,214.4,474.6,214.4z M106.5,190.4c-0.2,0-0.3,0-0.5-0.1c-1.4-0.3-2.3-1.6-2-3c0.8-4.1,1.8-8.2,2.9-12.3
				c0.4-1.4,1.8-2.2,3.2-1.8c1.4,0.4,2.2,1.8,1.8,3.2c-1.1,3.9-2,7.9-2.8,11.9C108.7,189.5,107.7,190.4,106.5,190.4z M471.2,189.8
				c-1.2,0-2.3-0.8-2.5-2.1c-0.8-4-1.8-8-2.9-11.9c-0.4-1.4,0.4-2.8,1.8-3.2c1.4-0.4,2.8,0.4,3.2,1.8c1.1,4,2.1,8.1,2.9,12.3
				c0.3,1.4-0.6,2.8-2,3.1C471.6,189.7,471.4,189.8,471.2,189.8z M113,166.4c-0.3,0-0.6,0-0.8-0.1c-1.4-0.5-2.1-1.9-1.6-3.3
				c1.4-4,2.9-7.9,4.5-11.8c0.6-1.3,2.1-1.9,3.4-1.4c1.3,0.6,1.9,2.1,1.4,3.4c-1.6,3.8-3.1,7.6-4.4,11.5
				C115,165.7,114,166.4,113,166.4z M464.6,165.8c-1.1,0-2.1-0.7-2.4-1.7c-1.3-3.8-2.8-7.7-4.4-11.4c-0.6-1.3,0-2.8,1.4-3.4
				c1.3-0.6,2.8,0,3.4,1.4c1.6,3.8,3.2,7.8,4.6,11.7c0.5,1.3-0.2,2.8-1.6,3.3C465.2,165.7,464.9,165.8,464.6,165.8z M122.7,143.5
				c-0.4,0-0.8-0.1-1.2-0.3c-1.3-0.6-1.8-2.2-1.1-3.5c1.9-3.7,3.9-7.5,6.1-11.1c0.7-1.2,2.3-1.6,3.5-0.9c1.2,0.7,1.6,2.3,0.9,3.5
				c-2.1,3.5-4.1,7.1-5.9,10.8C124.5,143,123.6,143.5,122.7,143.5z M454.9,143c-0.9,0-1.9-0.5-2.3-1.4c-1.8-3.6-3.8-7.2-5.9-10.7
				c-0.7-1.2-0.3-2.8,0.9-3.5c1.2-0.7,2.8-0.3,3.5,0.9c2.1,3.6,4.2,7.3,6.1,11c0.6,1.3,0.1,2.8-1.1,3.5
				C455.7,142.9,455.3,143,454.9,143z M135.3,122.1c-0.5,0-1-0.1-1.5-0.5c-1.2-0.8-1.5-2.4-0.7-3.6c2.4-3.5,4.9-6.9,7.5-10.2
				c0.9-1.1,2.5-1.3,3.6-0.4c1.1,0.9,1.3,2.5,0.4,3.6c-2.5,3.2-5,6.5-7.3,9.9C137,121.7,136.2,122.1,135.3,122.1z M442.2,121.6
				c-0.8,0-1.6-0.4-2.1-1.1c-2.3-3.4-4.8-6.7-7.3-9.9c-0.9-1.1-0.7-2.7,0.4-3.6c1.1-0.9,2.7-0.7,3.6,0.4c2.6,3.3,5.1,6.7,7.5,10.1
				c0.8,1.2,0.5,2.8-0.7,3.6C443.2,121.5,442.7,121.6,442.2,121.6z M150.7,102.6c-0.6,0-1.2-0.2-1.7-0.7c-1.1-1-1.1-2.6-0.2-3.7
				c2.8-3.1,5.7-6.2,8.8-9.1c1-1,2.7-1,3.7,0.1c1,1,1,2.7-0.1,3.7c-2.9,2.8-5.8,5.8-8.5,8.8C152.1,102.3,151.4,102.6,150.7,102.6z
				 M426.7,102.2c-0.7,0-1.4-0.3-1.9-0.8c-2.7-3-5.6-6-8.5-8.8c-1-1-1.1-2.6-0.1-3.7c1-1,2.6-1.1,3.7-0.1c3,2.9,6,6,8.8,9
				c1,1.1,0.9,2.7-0.2,3.7C428,101.9,427.3,102.2,426.7,102.2z M168.6,85.3c-0.7,0-1.5-0.3-2-0.9c-0.9-1.1-0.8-2.7,0.3-3.6
				c3.2-2.7,6.5-5.3,9.9-7.8c1.1-0.8,2.8-0.6,3.6,0.5c0.8,1.1,0.6,2.8-0.5,3.6c-3.3,2.4-6.5,5-9.6,7.6
				C169.8,85.1,169.2,85.3,168.6,85.3z M408.8,84.9c-0.6,0-1.2-0.2-1.7-0.6c-3.1-2.6-6.4-5.2-9.6-7.6c-1.2-0.8-1.4-2.5-0.6-3.6
				c0.8-1.2,2.5-1.4,3.6-0.6c3.4,2.5,6.7,5.1,9.9,7.8c1.1,0.9,1.2,2.6,0.3,3.6C410.3,84.6,409.6,84.9,408.8,84.9z M188.6,70.5
				c-0.9,0-1.7-0.4-2.2-1.2c-0.8-1.2-0.4-2.8,0.8-3.6c3.5-2.3,7.2-4.4,10.8-6.4c1.3-0.7,2.8-0.2,3.5,1c0.7,1.3,0.2,2.8-1,3.5
				c-3.6,2-7.1,4.1-10.5,6.3C189.5,70.4,189,70.5,188.6,70.5z M388.8,70.2c-0.5,0-1-0.1-1.4-0.4c-3.4-2.2-7-4.3-10.6-6.2
				c-1.3-0.7-1.7-2.3-1-3.5c0.7-1.3,2.3-1.7,3.5-1c3.7,2,7.3,4.2,10.9,6.4c1.2,0.8,1.6,2.4,0.8,3.6
				C390.5,69.8,389.6,70.2,388.8,70.2z M210.3,58.5c-1,0-1.9-0.6-2.3-1.5c-0.6-1.3,0-2.8,1.3-3.4c3.8-1.8,7.7-3.4,11.6-4.9
				c1.3-0.5,2.8,0.1,3.3,1.5c0.5,1.3-0.1,2.8-1.5,3.3c-3.8,1.5-7.6,3.1-11.3,4.8C211,58.4,210.7,58.5,210.3,58.5z M367,58.2
				c-0.4,0-0.7-0.1-1.1-0.2c-3.7-1.7-7.5-3.3-11.3-4.8c-1.3-0.5-2-2-1.5-3.3c0.5-1.3,2-2,3.3-1.5c3.9,1.5,7.8,3.2,11.6,4.9
				c1.3,0.6,1.9,2.1,1.3,3.4C368.9,57.7,367.9,58.2,367,58.2z M233.5,49.5c-1.1,0-2.1-0.7-2.5-1.8c-0.4-1.4,0.3-2.8,1.7-3.2
				c4-1.2,8.1-2.4,12.2-3.3c1.4-0.3,2.8,0.5,3.1,1.9c0.3,1.4-0.5,2.8-1.9,3.1c-4,0.9-7.9,2-11.8,3.3C234,49.5,233.7,49.5,233.5,49.5
				z M343.7,49.3c-0.3,0-0.5,0-0.8-0.1c-3.9-1.2-7.9-2.3-11.8-3.2c-1.4-0.3-2.3-1.7-1.9-3.1c0.3-1.4,1.7-2.2,3.1-1.9
				c4.1,1,8.2,2.1,12.2,3.3c1.4,0.4,2.1,1.9,1.7,3.2C345.9,48.6,344.8,49.3,343.7,49.3z M257.6,43.8c-1.2,0-2.3-0.9-2.5-2.2
				c-0.2-1.4,0.7-2.7,2.1-3c4.1-0.7,8.3-1.3,12.5-1.7c1.4-0.1,2.7,0.9,2.8,2.3c0.1,1.4-0.9,2.7-2.3,2.8c-4.1,0.4-8.1,1-12.2,1.6
				C257.9,43.7,257.8,43.8,257.6,43.8z M319.5,43.6c-0.1,0-0.3,0-0.4,0c-4-0.7-8.1-1.2-12.2-1.6c-1.4-0.1-2.5-1.4-2.3-2.8
				c0.1-1.4,1.4-2.5,2.8-2.3c4.2,0.4,8.4,1,12.5,1.6c1.4,0.2,2.4,1.6,2.1,3C321.9,42.7,320.8,43.6,319.5,43.6z M282.4,41.3
				c-1.4,0-2.5-1.1-2.6-2.5c0-1.4,1.1-2.6,2.5-2.7c4.1-0.1,8.5-0.2,12.6,0c1.4,0,2.5,1.2,2.5,2.7c0,1.4-1.2,2.5-2.6,2.5
				c0,0-0.1,0-0.1,0C290.7,41.1,286.5,41.1,282.4,41.3C282.4,41.3,282.4,41.3,282.4,41.3z"/>
		</g>
		<g>
			<g>
				<linearGradient id="SVGID_1_" gradientUnits="userSpaceOnUse" x1="64.2747" y1="122.4868" x2="513.5652" y2="122.4868">
					<stop  offset="0" style="stop-color:#80D494"/>
					<stop  offset="0.9637" style="stop-color:#54C076"/>
				</linearGradient>
				<path class="st1" d="M85,228c0-1.1,0-2.2,0-3.4c0-112.5,91.5-204,204-204c112.5,0,204,91.5,204,204c0,5.1-0.2,10.1-0.6,15.1
					c6.3,1.9,12.9,3.7,20.3,5.2c0.6-6.7,0.9-13.5,0.9-20.3c0-60-23.4-116.4-65.8-158.9S348.9,0,288.9,0c-60,0-116.4,23.4-158.9,65.8
					c-42,42-65.3,97.7-65.8,157C71.8,224.3,78.6,226.1,85,228z"/>
				<linearGradient id="SVGID_2_" gradientUnits="userSpaceOnUse" x1="117.9302" y1="402.8068" x2="466.2314" y2="402.8068">
					<stop  offset="0" style="stop-color:#80D494"/>
					<stop  offset="0.9637" style="stop-color:#54C076"/>
				</linearGradient>
				<path class="st2" d="M444.6,356.3c-37.4,44.2-93.3,72.3-155.7,72.3c-50.9,0-97.5-18.8-133.3-49.7c-14.9-2-26.8-5.1-37.7-8.5
					c3.9,4.5,7.9,8.9,12.1,13.1c42.4,42.4,98.8,65.8,158.9,65.8c60,0,116.4-23.4,158.9-65.8c6.6-6.6,12.8-13.6,18.5-20.9
					C459.4,360.4,452.4,358.2,444.6,356.3z"/>
			</g>
			<linearGradient id="SVGID_3_" gradientUnits="userSpaceOnUse" x1="0" y1="299.7477" x2="577.8412" y2="299.7477">
				<stop  offset="0" style="stop-color:#80D494"/>
				<stop  offset="0.9637" style="stop-color:#54C076"/>
			</linearGradient>
			<path class="st3" d="M567.5,391.7c-48.2,0-72.6-8.4-96.2-16.4c-23-7.9-44.8-15.3-89.5-15.3s-66.5,7.4-89.5,15.3
				c-23.6,8.1-48.1,16.4-96.2,16.4c-48.1,0-72.6-8.4-96.2-16.4c-23-7.9-44.8-15.3-89.5-15.3C4.6,360,0,355.3,0,349.6V218.1
				c0-5.7,4.6-10.3,10.3-10.3c48.1,0,72.6,8.4,96.2,16.4c23,7.9,44.8,15.3,89.5,15.3c44.7,0,66.5-7.4,89.5-15.3
				c23.6-8.1,48.1-16.4,96.2-16.4c48.2,0,72.6,8.4,96.2,16.4c23,7.9,44.8,15.3,89.5,15.3c5.7,0,10.3,4.6,10.3,10.3v131.5
				C577.8,387.1,573.2,391.7,567.5,391.7z M20.7,339.4c41.4,1.1,64,8.8,85.9,16.3c23,7.9,44.8,15.3,89.5,15.3
				c44.7,0,66.5-7.4,89.5-15.3c23.6-8.1,48.1-16.4,96.2-16.4c48.2,0,72.6,8.4,96.2,16.4c21.2,7.2,41.3,14.1,79.2,15.2V260.1
				c-41.4-1.1-64-8.8-85.9-16.3c-23-7.9-44.8-15.3-89.5-15.3s-66.5,7.4-89.5,15.3c-23.6,8.1-48.1,16.4-96.2,16.4
				c-48.1,0-72.6-8.4-96.2-16.4c-21.2-7.2-41.3-14.1-79.2-15.2V339.4z"/>
		</g>
	</g>
	<g>
		<path class="st4" d="M20.7,318.6c49.9,0,101.9,33.4,160.2,34.5c58.3,1.1,125.4-35.1,200.1-32.8c74.7,2.3,155.5,32.7,176.2,33.2"/>
		<path d="M71.5,315.8l31,9.2l-3.1,10.6l-44.2-13.1l16.9-57l43.1,12.8l-3.1,10.6l-30-8.9L71.5,315.8z M77.5,292l27.5,8.2l-3,10.3
			l-27.5-8.2L77.5,292z"/>
		<path d="M143.3,348.4l-13.5-2.6l11.1-58.5l44.2,8.4l-2.1,10.9l-30.7-5.8L143.3,348.4z M148.4,316.1l28.1,5.3l-2.1,10.9l-28.1-5.3
			L148.4,316.1z"/>
		<path d="M226.5,336.8l31.6-7.2l2.5,10.8l-44.9,10.3l-13.2-58l43.8-10l2.5,10.8l-30.5,7L226.5,336.8z M220.1,313.2l27.9-6.4
			l2.4,10.4l-27.9,6.4L220.1,313.2z"/>
		<path d="M299.8,330l-10.4-47.2l-18.6,4.1l-2.4-11l50.6-11.1l2.4,11l-18.6,4.1l10.4,47.2L299.8,330z"/>
		<path d="M353.9,320.9l-3.3-59.4l13.7-0.8l3.3,59.4L353.9,320.9z"/>
		<path d="M413.4,322.8L396,260.3l14.7,2l15.1,55.3l-8.7-1.2l29.7-49.1l13.6,1.9l-33.6,55.4L413.4,322.8z"/>
		<path d="M462.6,330.8l40.3-51.2l13.2,3.3l11.2,64.2l-14-3.5l-8.2-56.3l5.3,1.3l-34,45.6L462.6,330.8z M478.6,321.7l6.1-9.2
			l29.7,7.5l1.1,11.1L478.6,321.7z"/>
	</g>
</g>
<g>
</g>
<g>
</g>
<g>
</g>
<g>
</g>
<g>
</g>
<g>
</g>
<g>
</g>
<g>
</g>
<g>
</g>
<g>
</g>
<g>
</g>
<g>
</g>
<g>
</g>
<g>
</g>
<g>
</g>
</svg>
