<?xml version="1.0" encoding="utf-8"?>
<!-- Generator: Adobe Illustrator 25.2.1, SVG Export Plug-In . SVG Version: 6.00 Build 0)  -->
<svg version="1.1" id="Camada_1" xmlns="http://www.w3.org/2000/svg" xmlns:xlink="http://www.w3.org/1999/xlink" x="0px" y="0px"
	 viewBox="0 0 1043 1044" style="enable-background:new 0 0 1043 1044;" xml:space="preserve">
<style type="text/css">
	.st0{fill:url(#SVGID_1_);}
	.st1{fill:#FFFFFF;}
	.st2{fill:url(#SVGID_2_);}
	.st3{fill:none;stroke:url(#SVGID_3_);stroke-width:3;stroke-linecap:round;stroke-miterlimit:10;}
	
		.st4{fill:none;stroke:url(#SVGID_4_);stroke-width:3;stroke-linecap:round;stroke-miterlimit:10;stroke-dasharray:10.2872,10.2872;}
	.st5{fill:none;stroke:url(#SVGID_5_);stroke-width:3;stroke-linecap:round;stroke-miterlimit:10;}
	.st6{fill:none;stroke:#000000;stroke-width:6;stroke-linecap:round;stroke-linejoin:round;}
</style>
<g>
	<image style="overflow:visible;opacity:0.2;" width="1043" height="1044" xlink:href="28F0F5E9.png" >
	</image>
	<g>
		
			<linearGradient id="SVGID_1_" gradientUnits="userSpaceOnUse" x1="5126.6211" y1="3454.3599" x2="6049.1353" y2="3454.3599" gradientTransform="matrix(-5.806000e-11 -1 1 -5.806000e-11 -2933.0247 6110.0903)">
			<stop  offset="0" style="stop-color:#72CC85"/>
			<stop  offset="0.9637" style="stop-color:#54C076"/>
		</linearGradient>
		<circle class="st0" cx="521.3" cy="522.2" r="461.3"/>
	</g>
</g>
<circle class="st1" cx="521.3" cy="522.2" r="313.8"/>
<g>
	
		<image style="overflow:visible;opacity:0.2;" width="689" height="689" xlink:href="28F0F5EB.png"  transform="matrix(1 0 0 1 177 178)">
	</image>
	<g>
		
			<linearGradient id="SVGID_2_" gradientUnits="userSpaceOnUse" x1="5303.9551" y1="3454.3599" x2="5871.8013" y2="3454.3599" gradientTransform="matrix(-5.806000e-11 -1 1 -5.806000e-11 -2933.0247 6110.0903)">
			<stop  offset="0" style="stop-color:#72CC85"/>
			<stop  offset="0.9637" style="stop-color:#54C076"/>
		</linearGradient>
		<circle class="st2" cx="521.3" cy="522.2" r="283.9"/>
	</g>
</g>
<g>
	<g>
		<path class="st1" d="M207.1,367.4l-30.8-41.1l5.2-9.4l51.2,4.5l-5.5,10l-44.5-5.1l2.1-3.7l27.8,35.2L207.1,367.4z M203.4,353.4
			l-5.8-6.5l11.7-21.1l8.6,1.4L203.4,353.4z"/>
		<path class="st1" d="M235.3,318.3l-37.4-28.3l12.2-16.2c2.5-3.3,5.3-5.8,8.2-7.4c2.9-1.6,5.9-2.3,8.9-2.1c3,0.2,6,1.4,8.8,3.5
			c2.8,2.1,4.7,4.6,5.7,7.4c1,2.9,1.2,5.9,0.4,9.1c-0.7,3.2-2.4,6.5-4.9,9.9l-8.6,11.4l-1-6.8l14.2,10.7L235.3,318.3z M228.6,299.7
			l-7,0.7l8.2-10.9c2-2.7,3-5.1,2.8-7.3c-0.1-2.2-1.2-4-3.3-5.6c-2.1-1.6-4.2-2.1-6.3-1.7c-2.1,0.5-4.2,2-6.2,4.7l-8.2,10.9l-1.2-7
			L228.6,299.7z"/>
		<path class="st1" d="M264.4,280.8l-33.3-33l14.3-14.4c3-3,6-5.1,9.1-6.3c3.1-1.2,6.1-1.5,9.1-0.9c3,0.6,5.7,2.2,8.2,4.7
			c2.5,2.5,4,5.2,4.7,8.1c0.6,3,0.4,6-0.8,9.1c-1.2,3.1-3.3,6.1-6.2,9.1l-10,10.1l0-6.8l12.7,12.5L264.4,280.8z M260.3,261.4l-7-0.2
			l9.6-9.7c2.4-2.4,3.6-4.7,3.7-6.9c0.1-2.2-0.7-4.2-2.5-6c-1.8-1.8-3.9-2.6-6-2.5c-2.2,0.2-4.4,1.4-6.8,3.8l-9.6,9.7l-0.3-7.1
			L260.3,261.4z M285.4,259.6l-20.3-3.6l8.2-8.2l20.4,3.5L285.4,259.6z"/>
		<path class="st1" d="M302.3,233.4l20.2-15.7l5.3,6.9l-28.7,22.3l-28.8-37l28-21.7l5.3,6.9l-19.5,15.1L302.3,233.4z M289.8,218.7
			l17.8-13.8l5.2,6.7L295,225.4L289.8,218.7z"/>
		<path class="st1" d="M334.2,220.2l-23.4-40.6l7.8-4.5l40.8,15.4l-3.8,2.2l-16.9-29.3l9.3-5.4l23.4,40.6l-7.7,4.5l-40.9-15.4
			l3.8-2.2l16.9,29.3L334.2,220.2z"/>
		<path class="st1" d="M380.6,194.3l-17-43.7l19.9-7.7c4.7-1.8,9.3-2.6,13.6-2.2s8.1,1.8,11.4,4.3c3.3,2.5,5.8,5.9,7.5,10.4
			c1.7,4.4,2.2,8.7,1.4,12.7c-0.8,4.1-2.6,7.7-5.5,10.9c-2.9,3.2-6.8,5.7-11.5,7.6L380.6,194.3z M387.5,182l9.2-3.6
			c2.9-1.1,5.2-2.7,6.9-4.6c1.7-1.9,2.8-4.2,3.2-6.7c0.4-2.5,0.1-5.1-1-7.9c-1.1-2.8-2.6-5-4.6-6.5c-2-1.6-4.2-2.5-6.8-2.7
			c-2.6-0.3-5.3,0.2-8.2,1.3l-9.2,3.6L387.5,182z"/>
		<path class="st1" d="M432.1,175.8L420,130.5l10.5-2.8l12.1,45.3L432.1,175.8z"/>
		<path class="st1" d="M450,170.7l-1.2-6.9l22.8-39.3l2,3.7l-29.4,5l-1.5-8.7l38.9-6.6l1.2,6.9L460.1,164l-2-3.7l30.8-5.2l1.5,8.7
			L450,170.7z"/>
		<path class="st1" d="M490.4,163.5l19.3-47.6l10.7-0.4l22.6,46.1l-11.4,0.4L513,121.3l4.3-0.2l-15.8,42L490.4,163.5z M500.5,153.1
			l2.6-8.3l24.1-0.8l3.2,8.1L500.5,153.1z"/>
		<path class="st1" d="M568.8,165.4c-3.7-0.4-7-1.3-10-2.8c-3-1.5-5.5-3.5-7.5-5.9c-2.1-2.4-3.6-5.2-4.5-8.2c-1-3.1-1.3-6.4-0.9-9.9
			c0.4-3.5,1.3-6.7,2.9-9.5c1.6-2.8,3.6-5.2,6.2-7.1c2.5-1.9,5.4-3.3,8.7-4.2c3.2-0.9,6.7-1.1,10.4-0.7c4.1,0.4,7.8,1.5,10.9,3.2
			c3.2,1.7,5.7,4,7.7,6.9l-7.6,5.7c-1.5-2-3.2-3.5-5.1-4.5s-4-1.7-6.4-2c-2.3-0.2-4.4-0.1-6.3,0.4c-1.9,0.5-3.7,1.4-5.2,2.6
			c-1.5,1.2-2.7,2.7-3.6,4.4c-0.9,1.7-1.5,3.7-1.7,5.9c-0.2,2.2-0.1,4.2,0.5,6.1c0.5,1.9,1.4,3.6,2.6,5.1c1.2,1.5,2.7,2.7,4.5,3.6
			c1.8,0.9,3.8,1.5,6,1.7c2.1,0.2,4.2,0.1,6.3-0.4c2.1-0.5,4.2-1.4,6.3-2.9l5.3,8.4c-2.7,1.6-5.8,2.8-9.3,3.5
			C575.5,165.6,572.1,165.7,568.8,165.4z M578.5,159l1.8-17.5l9.9,1l-2,18.9L578.5,159z"/>
		<path class="st1" d="M609.3,162.5l24.8,6l-2.1,8.5l-35.3-8.6l11.1-45.6l34.4,8.4l-2.1,8.5l-24-5.8L609.3,162.5z M613.1,143.6
			l21.9,5.3l-2,8.2l-21.9-5.3L613.1,143.6z"/>
		<path class="st1" d="M639.5,178.9l17.9-43.4l8.3,3.4l5.9,38.2l-4.4-1.8l30.8-23.1l8.2,3.4L688.4,199l-9.4-3.9l11.9-29l1.7,0.7
			L668,185.3l-4.5-1.9l-4.8-30.4l2.1,0.9l-11.9,28.9L639.5,178.9z"/>
		<path class="st1" d="M708.6,210l43.9-26.7l8.8,6.1l-9.4,50.5l-9.4-6.5l9.4-43.8l3.5,2.4l-37.7,24.3L708.6,210z M722.9,207.7
			l7.1-5.1l19.8,13.7l-2.3,8.5L722.9,207.7z"/>
		<path class="st1" d="M760.2,248.1l25.3-28.4l-11.2-10l5.9-6.6l30.5,27.2l-5.9,6.6l-11.2-10l-25.3,28.4L760.2,248.1z"/>
		<path class="st1" d="M783,269.5l34.1-32.2l7.4,7.9l-34.1,32.2L783,269.5z"/>
		<path class="st1" d="M806.3,296.1l24.8-44.7l7.2,9.3l-22.1,39.4l-4.2-5.5l43.9-11.2l6.6,8.5l-49.5,12.6L806.3,296.1z"/>
		<path class="st1" d="M822.7,316.8l51.1-5.4l5.4,9.3L849,362.3l-5.7-9.9l27.3-35.6l2.1,3.7l-44.5,5.8L822.7,316.8z M836.6,320.8
			l8.6-1.6l12.1,20.9l-5.7,6.7L836.6,320.8z"/>
	</g>
</g>
<g>
	<g>
		<path class="st1" d="M138.6,646l44.1-15.9l3,8.4l-24.4,30l-1.6-4.5l37.8,7.2l3,8.4l-44.1,16.1l-3.5-9.6l29.4-10.7l0.6,1.8
			l-30.1-5.8l-1.7-4.6l19.3-24l0.8,2.1l-29.4,10.6L138.6,646z"/>
		<path class="st1" d="M174.1,730.9c-1.8-3.2-3-6.5-3.4-9.9c-0.5-3.3-0.3-6.5,0.5-9.6c0.8-3.1,2.2-5.9,4.1-8.4
			c2-2.5,4.5-4.7,7.5-6.4c3-1.7,6.2-2.7,9.4-3c3.2-0.3,6.3,0,9.4,1c3,1,5.9,2.5,8.4,4.7c2.6,2.1,4.8,4.8,6.5,8
			c1.8,3.2,2.9,6.5,3.4,9.8c0.5,3.3,0.3,6.5-0.5,9.6c-0.8,3.1-2.1,5.9-4.1,8.4c-1.9,2.6-4.4,4.7-7.5,6.4c-3,1.7-6.2,2.7-9.4,3
			c-3.2,0.3-6.3,0-9.4-1c-3-1-5.8-2.5-8.4-4.6S175.9,734.1,174.1,730.9z M182.2,726.3c1,1.8,2.3,3.3,3.8,4.5c1.5,1.2,3.1,2,5,2.6
			c1.8,0.5,3.7,0.7,5.7,0.4c2-0.2,3.9-0.9,5.9-2c1.9-1.1,3.5-2.4,4.8-3.9c1.2-1.5,2.1-3.2,2.7-5c0.5-1.8,0.7-3.7,0.4-5.6
			c-0.2-1.9-0.9-3.8-1.9-5.6c-1-1.8-2.3-3.3-3.8-4.5c-1.5-1.2-3.1-2-5-2.6s-3.7-0.7-5.7-0.4c-2,0.2-3.9,0.9-5.9,2
			c-1.9,1.1-3.5,2.4-4.8,3.9c-1.3,1.5-2.2,3.2-2.7,5c-0.5,1.8-0.7,3.7-0.4,5.6C180.5,722.6,181.1,724.5,182.2,726.3z"/>
		<path class="st1" d="M194.8,763.8l37.1-28.7l13,16.8c3.1,4,5.1,8.2,5.9,12.4c0.8,4.3,0.6,8.3-0.9,12.2c-1.4,3.9-4,7.3-7.8,10.2
			c-3.7,2.9-7.7,4.6-11.8,5c-4.1,0.4-8.1-0.3-12-2.2c-3.9-1.9-7.4-4.8-10.6-8.9L194.8,763.8z M208.5,766.9l6.1,7.8
			c1.9,2.5,4,4.3,6.4,5.3c2.3,1.1,4.8,1.5,7.3,1.1c2.5-0.3,4.9-1.4,7.3-3.2c2.4-1.8,4-3.9,4.9-6.2c0.9-2.3,1.2-4.8,0.7-7.3
			c-0.5-2.5-1.7-5.1-3.6-7.5l-6.1-7.8L208.5,766.9z"/>
		<path class="st1" d="M246.4,811.6l18.2,17.9l-6.1,6.2l-25.9-25.5l32.9-33.4l25.3,24.9l-6.1,6.2l-17.6-17.3L246.4,811.6z
			 M259.4,797.3l16.1,15.8l-5.9,6l-16.1-15.8L259.4,797.3z"/>
		<path class="st1" d="M268.1,843.8l28.9-37l8.6,6.7l-23.4,30l18.5,14.5l-5.4,7L268.1,843.8z"/>
		<path class="st1" d="M298.7,867.9l42-29.5l9.2,5.5l-6.1,51l-9.8-5.8l6.5-44.3l3.7,2.2l-36,26.7L298.7,867.9z M312.9,864.6l6.7-5.6
			l20.7,12.4l-1.7,8.6L312.9,864.6z"/>
		<path class="st1" d="M372.5,908.2c-3.4-1.5-6.3-3.3-8.7-5.6c-2.4-2.3-4.2-4.9-5.5-7.8c-1.3-2.9-1.9-6-1.9-9.2c0-3.2,0.7-6.4,2-9.7
			c1.4-3.2,3.2-6,5.6-8.2s5-3.9,8-5c3-1.1,6.2-1.6,9.5-1.5c3.3,0.1,6.7,0.9,10.2,2.4c3.8,1.6,7,3.7,9.5,6.3c2.5,2.6,4.3,5.5,5.4,8.8
			l-8.9,3.2c-0.9-2.3-2-4.3-3.6-5.8c-1.5-1.6-3.4-2.8-5.5-3.8c-2.1-0.9-4.1-1.4-6.2-1.5c-2-0.1-3.9,0.2-5.7,0.9
			c-1.8,0.7-3.4,1.7-4.8,3.1c-1.4,1.4-2.5,3.1-3.4,5.2c-0.9,2-1.3,4-1.3,6c0,2,0.3,3.9,1,5.6c0.7,1.8,1.8,3.4,3.2,4.8
			c1.4,1.4,3.2,2.5,5.2,3.4c2,0.8,4,1.3,6.2,1.5c2.1,0.2,4.4-0.1,6.8-0.9l2.6,9.6c-3.1,0.8-6.4,1-9.9,0.6
			C378.9,910.3,375.6,909.5,372.5,908.2z M383.7,904.9l6.9-16.2l9.1,3.9l-7.4,17.5L383.7,904.9z"/>
		<path class="st1" d="M416.8,913.9l24.6,6.8l-2.3,8.4l-35-9.7l12.6-45.2l34.1,9.5l-2.3,8.4l-23.8-6.6L416.8,913.9z M421.2,895.1
			l21.8,6l-2.3,8.1l-21.8-6L421.2,895.1z"/>
		<path class="st1" d="M452.4,932.3l5.8-46.5l8.9,1.1l15.7,35.3l-4.7-0.6l23.6-30.4l8.8,1.1l-5.7,46.6l-10.1-1.3l3.8-31.1l1.9,0.2
			l-18.8,24.2l-4.9-0.6l-12.6-28.1l2.3,0.3l-3.9,31L452.4,932.3z"/>
		<path class="st1" d="M552,929.4l25.5-1.8l0.6,8.7l-36.2,2.6l-3.4-46.8l35.4-2.5l0.6,8.7l-24.6,1.8L552,929.4z M549.8,910.2
			l22.5-1.6l0.6,8.4l-22.5,1.6L549.8,910.2z"/>
		<path class="st1" d="M606,932.3c-3.7,0.7-7.3,0.9-10.9,0.6s-6.5-1.1-8.9-2.3l2.1-8.7c2.2,1,4.8,1.7,7.7,2.1s5.7,0.3,8.5-0.2
			c2.1-0.4,3.8-0.9,5-1.6c1.2-0.7,2.1-1.4,2.5-2.3c0.5-0.9,0.6-1.8,0.4-2.7c-0.2-1.2-0.9-2.1-2-2.7c-1.1-0.5-2.5-0.9-4.2-1
			c-1.7-0.2-3.5-0.3-5.5-0.3c-2,0-4-0.2-6-0.4c-2-0.2-3.9-0.7-5.7-1.4s-3.3-1.7-4.6-3.1c-1.3-1.4-2.2-3.3-2.6-5.8
			c-0.5-2.6-0.3-5.2,0.8-7.6c1-2.4,2.8-4.6,5.4-6.4c2.6-1.8,6.1-3.2,10.5-4c2.9-0.6,5.8-0.8,8.7-0.6c2.9,0.1,5.6,0.7,8,1.6l-1.7,8.7
			c-2.4-0.8-4.7-1.3-7-1.5c-2.3-0.2-4.4-0.1-6.5,0.3c-2.1,0.4-3.7,1-4.9,1.7c-1.2,0.7-2,1.5-2.5,2.4s-0.5,1.8-0.3,2.8
			c0.2,1.2,0.9,2,2,2.6c1.1,0.5,2.5,0.9,4.2,1s3.5,0.2,5.5,0.3c2,0.1,4,0.2,6,0.4c2,0.2,3.9,0.6,5.7,1.3c1.8,0.7,3.3,1.7,4.6,3.1
			s2.2,3.3,2.6,5.7c0.5,2.6,0.2,5.1-0.8,7.5c-1,2.4-2.9,4.6-5.5,6.4S610.4,931.4,606,932.3z"/>
		<path class="st1" d="M645,922l-11.3-36.3l-14.3,4.5l-2.6-8.4l39-12.2l2.6,8.4l-14.3,4.5l11.3,36.3L645,922z"/>
		<path class="st1" d="M679.1,910.6l-19.4-42.7l18.5-8.4c3.8-1.7,7.4-2.6,10.7-2.6c3.3,0,6.3,0.8,8.8,2.4c2.6,1.6,4.6,4.1,6,7.3
			c1.4,3.2,1.9,6.3,1.5,9.2c-0.5,3-1.8,5.7-4,8.2s-5.2,4.6-9.1,6.3l-13,5.9l2.4-6.3l7.4,16.2L679.1,910.6z M682.1,891l-6.5-2.6
			l12.5-5.6c3.1-1.4,5-3.1,5.9-5.1c0.9-2,0.8-4.2-0.2-6.5c-1.1-2.4-2.7-3.8-4.7-4.5s-4.7-0.2-7.7,1.1l-12.5,5.6l2.3-6.7L682.1,891z
			 M706.3,898.3l-17.7-10.7l10.6-4.8l17.8,10.6L706.3,898.3z"/>
		<path class="st1" d="M722.5,890.7l-7.3-50.8l9.1-5.7l42.7,28.6l-9.6,6.1l-36.6-25.9l3.6-2.3l7.4,44.2L722.5,890.7z M726,876.7
			l-1.9-8.5l20.4-12.8l6.9,5.4L726,876.7z"/>
		<path class="st1" d="M779.6,852.3l-23.9-29.6l-11.7,9.4l-5.6-6.9l31.8-25.7l5.6,6.9l-11.7,9.4l23.9,29.6L779.6,852.3z"/>
		<path class="st1" d="M808.3,815.4l17.9-18.2l6.2,6.1l-25.4,25.9l-33.5-32.9l24.8-25.3l6.2,6.1l-17.3,17.6L808.3,815.4z
			 M778.9,785.4l-0.6-13.2l7.9-8l-1.6,15.4L778.9,785.4z M793.9,802.5l15.8-16.1l6,5.9L800,808.4L793.9,802.5z"/>
		<path class="st1" d="M855.3,775.8c-2.2,3-4.8,5.3-7.6,7.1c-2.8,1.8-5.8,2.9-8.9,3.4c-3.1,0.5-6.3,0.4-9.4-0.4
			c-3.1-0.8-6.1-2.2-8.9-4.3c-2.8-2.1-5-4.6-6.6-7.4c-1.6-2.8-2.6-5.8-2.9-8.9c-0.3-3.2-0.1-6.4,0.9-9.6c0.9-3.2,2.5-6.3,4.8-9.3
			c2.5-3.3,5.3-5.9,8.4-7.7c3.1-1.8,6.4-2.8,9.9-3.1l0.9,9.4c-2.4,0.3-4.6,1-6.5,2s-3.6,2.6-5,4.5c-1.4,1.8-2.3,3.7-2.9,5.6
			c-0.6,1.9-0.7,3.8-0.5,5.7c0.2,1.9,0.9,3.7,1.9,5.4c1,1.7,2.4,3.2,4.2,4.6c1.7,1.3,3.6,2.2,5.5,2.8c1.9,0.5,3.8,0.6,5.7,0.4
			c1.9-0.3,3.7-0.9,5.4-2c1.7-1,3.2-2.5,4.5-4.2c1.3-1.7,2.3-3.6,2.9-5.6c0.7-2,0.9-4.3,0.8-6.9l10-0.2c0,3.2-0.6,6.4-1.8,9.7
			C858.9,770.2,857.3,773.2,855.3,775.8z M854.8,764.2l-14.1-10.6l6-7.9l15.2,11.5L854.8,764.2z"/>
		<path class="st1" d="M873,748.5l-40-24.4l5.6-9.3l40,24.4L873,748.5z"/>
		<path class="st1" d="M896.7,706.9c-1.6,3.3-3.6,6-6,8.3s-5.1,4-8.1,5.1c-3,1.1-6,1.6-9.3,1.4s-6.4-1-9.6-2.5
			c-3.2-1.5-5.8-3.5-7.9-6c-2.1-2.4-3.6-5.2-4.6-8.2c-1-3-1.3-6.2-1-9.5c0.3-3.3,1.2-6.6,2.8-9.9c1.8-3.7,4-6.7,6.7-9
			c2.7-2.3,5.8-3.9,9.2-4.7l2.8,9.1c-2.3,0.6-4.4,1.7-6,3c-1.7,1.4-3,3.1-4,5.2c-1,2-1.5,3.9-1.7,5.9c-0.2,2,0.1,3.8,0.7,5.6
			c0.6,1.8,1.6,3.4,2.9,4.9c1.3,1.5,3,2.7,5,3.7c2,1,4,1.5,6,1.7c2,0.1,3.8-0.1,5.6-0.7c1.8-0.6,3.4-1.6,4.8-2.9
			c1.4-1.3,2.6-3,3.6-5c1-2.1,1.5-4.2,1.6-6.4s-0.4-4.4-1.4-6.6l8.8-3.5c1.5,3.2,2.1,6.6,2,10.2
			C899.5,699.6,898.5,703.2,896.7,706.9z"/>
		<path class="st1" d="M906.5,684.8l-38-34.5l3.3-10.2l51.1-5.3l-3.6,10.8l-44.7,3.4l1.3-4.1l34,29.3L906.5,684.8z M900.2,671.7
			l-6.9-5.3l7.5-22.9l8.7-0.2L900.2,671.7z"/>
	</g>
</g>
<g>
	<g>
		<linearGradient id="SVGID_3_" gradientUnits="userSpaceOnUse" x1="518.7562" y1="1024.1252" x2="518.7562" y2="8.2697">
			<stop  offset="0" style="stop-color:#72CC85"/>
			<stop  offset="0.9637" style="stop-color:#54C076"/>
		</linearGradient>
		<path class="st3" d="M521.3,9.8c-1.7,0-3.4,0-5.2,0"/>
		<linearGradient id="SVGID_4_" gradientUnits="userSpaceOnUse" x1="521.2839" y1="1024.125" x2="521.2839" y2="8.5007">
			<stop  offset="0" style="stop-color:#72CC85"/>
			<stop  offset="0.9637" style="stop-color:#54C076"/>
		</linearGradient>
		<path class="st4" d="M505.9,10c-272.5,8.2-491,231.7-491,506.2c0,279.7,226.7,506.4,506.4,506.4c276.3,0,500.8-221.2,506.3-496.1"
			/>
		<linearGradient id="SVGID_5_" gradientUnits="userSpaceOnUse" x1="1027.7524" y1="1024.1252" x2="1027.7524" y2="8.2697">
			<stop  offset="0" style="stop-color:#72CC85"/>
			<stop  offset="0.9637" style="stop-color:#54C076"/>
		</linearGradient>
		<path class="st5" d="M1027.7,521.4c0-1.7,0-3.4,0-5.2"/>
	</g>
</g>
<g>
	<g>
		<path d="M310.8,513.5h26.8v9.1h-38.1v-49.2h37.2v9.1h-25.9V513.5z M310,493.2h23.7v8.9H310V493.2z"/>
		<path d="M358,522.6h-11.4v-49.2h37.2v9.1H358V522.6z M357.2,495.6h23.6v9.1h-23.6V495.6z"/>
		<path d="M402.8,513.5h26.8v9.1h-38.1v-49.2h37.2v9.1h-25.9V513.5z M402,493.2h23.7v8.9H402V493.2z"/>
		<path d="M448.9,522.6v-39.9h-15.7v-9.3H476v9.3h-15.7v39.9H448.9z"/>
		<path d="M482.1,522.6v-49.2h11.4v49.2H482.1z"/>
		<path d="M519.6,522.6l-21.2-49.2h12.3l18.5,43.6H522l18.8-43.6h11.3l-21.3,49.2H519.6z"/>
		<path d="M548.1,522.6l21.9-49.2h11.2l22,49.2h-11.9l-18-43.4h4.5l-18.1,43.4H548.1z M559.1,512.1l3-8.6h25.3l3.1,8.6H559.1z"/>
		<path d="M631.3,523.4c-3.8,0-7.3-0.6-10.6-1.9c-3.3-1.2-6.1-3-8.5-5.3c-2.4-2.3-4.3-5-5.6-8.1s-2-6.5-2-10.2c0-3.7,0.7-7.1,2-10.2
			c1.3-3.1,3.2-5.8,5.6-8.1c2.4-2.3,5.2-4.1,8.5-5.3s6.8-1.9,10.6-1.9c4.3,0,8.1,0.7,11.6,2.2c3.4,1.5,6.3,3.6,8.7,6.5l-7.3,6.7
			c-1.7-1.9-3.6-3.4-5.6-4.3c-2.1-1-4.3-1.4-6.7-1.4c-2.3,0-4.4,0.4-6.3,1.1c-1.9,0.8-3.6,1.8-5,3.2s-2.5,3.1-3.3,5
			c-0.8,1.9-1.2,4.1-1.2,6.4c0,2.3,0.4,4.5,1.2,6.4c0.8,1.9,1.9,3.6,3.3,5s3.1,2.5,5,3.2c1.9,0.8,4,1.1,6.3,1.1
			c2.4,0,4.7-0.5,6.7-1.4c2.1-1,3.9-2.4,5.6-4.4l7.3,6.7c-2.3,2.9-5.2,5-8.7,6.5C639.5,522.7,635.6,523.4,631.3,523.4z M627.5,538.9
			c-1.2,0-2.4-0.1-3.5-0.4c-1.1-0.3-2.1-0.6-3-1.1l1.7-4.7c0.7,0.3,1.4,0.6,2.2,0.8c0.7,0.2,1.5,0.3,2.4,0.3c1.3,0,2.2-0.2,2.8-0.6
			c0.6-0.4,0.8-1,0.8-1.6c0-0.6-0.3-1.1-0.8-1.5c-0.5-0.4-1.4-0.6-2.6-0.6H625l1.8-7.4h5.8l-1,4.1c2.1,0.2,3.7,0.9,4.6,2
			s1.5,2.4,1.5,3.8c0,2.1-0.9,3.8-2.8,5.1C633.1,538.3,630.6,538.9,627.5,538.9z"/>
		<path d="M651.8,522.6l21.9-49.2H685l22,49.2H695l-18-43.4h4.5l-18.1,43.4H651.8z M662.8,512.1l3-8.6h25.3l3.1,8.6H662.8z
			 M684.6,469.6c-1.2,0-2.3-0.2-3.2-0.7c-0.9-0.4-1.8-1-2.5-1.5s-1.5-1.1-2.1-1.5c-0.7-0.4-1.3-0.7-2-0.7c-0.9,0-1.7,0.3-2.3,1
			c-0.6,0.7-1,1.7-1.1,2.9h-5.6c0.1-3.1,0.9-5.6,2.3-7.5c1.5-1.9,3.4-2.8,5.9-2.8c1.2,0,2.3,0.2,3.2,0.7c0.9,0.4,1.8,1,2.6,1.6
			c0.8,0.6,1.5,1.1,2.1,1.6c0.7,0.4,1.3,0.7,1.9,0.7c1,0,1.8-0.3,2.4-1c0.6-0.7,0.9-1.6,1-2.8h5.6c0,3-0.8,5.4-2.3,7.3
			C689.1,468.7,687.1,469.6,684.6,469.6z"/>
		<path d="M735.3,523.4c-3.9,0-7.5-0.6-10.8-1.9c-3.3-1.3-6.2-3-8.6-5.3c-2.4-2.3-4.3-5-5.6-8.1s-2-6.5-2-10.1c0-3.7,0.7-7,2-10.1
			s3.2-5.8,5.7-8.1c2.4-2.3,5.3-4.1,8.6-5.3c3.3-1.3,6.8-1.9,10.7-1.9c3.9,0,7.5,0.6,10.7,1.9c3.3,1.3,6.1,3,8.5,5.3
			c2.4,2.3,4.3,5,5.7,8c1.4,3.1,2,6.5,2,10.2c0,3.7-0.7,7-2,10.2c-1.4,3.1-3.2,5.8-5.7,8.1c-2.4,2.3-5.2,4-8.5,5.3
			C742.7,522.8,739.1,523.4,735.3,523.4z M735.2,513.7c2.2,0,4.2-0.4,6.1-1.1c1.8-0.7,3.5-1.8,4.9-3.2s2.5-3.1,3.3-5
			c0.8-1.9,1.2-4.1,1.2-6.4c0-2.3-0.4-4.5-1.2-6.4c-0.8-1.9-1.9-3.6-3.2-5c-1.4-1.4-3-2.5-4.9-3.2c-1.9-0.7-3.9-1.1-6.1-1.1
			c-2.2,0-4.2,0.4-6.1,1.1c-1.9,0.8-3.5,1.8-4.9,3.2s-2.5,3.1-3.3,5c-0.8,1.9-1.2,4.1-1.2,6.4c0,2.3,0.4,4.4,1.2,6.4
			c0.8,1.9,1.9,3.6,3.2,5c1.4,1.4,3,2.5,4.9,3.2C731,513.4,733,513.7,735.2,513.7z"/>
	</g>
</g>
<g>
	<g>
		<path class="st6" d="M888.4,413c8.5,20.6,33.3,92.4,10.1,180.5"/>
		<g>
			<polygon points="872.4,440.5 878,442.8 889,415.3 915.6,428.2 918.2,422.8 885.8,407.1 			"/>
		</g>
		<g>
			<polygon points="879.3,568.3 884.5,565.4 898.9,591.2 923.6,575 926.9,580 896.8,599.8 			"/>
		</g>
	</g>
</g>
<g>
	<g>
		<path class="st6" d="M150.8,593.4c-7.3-21.1-28-94.2,0.2-180.8"/>
		<g>
			<polygon points="168.3,566.8 162.9,564.3 150.4,591.1 124.6,576.6 121.7,581.9 153.1,599.5 			"/>
		</g>
		<g>
			<polygon points="168.8,438.9 163.4,441.5 150.5,414.9 124.9,429.6 121.9,424.4 153.1,406.4 			"/>
		</g>
	</g>
</g>
<g>
</g>
<g>
</g>
<g>
</g>
<g>
</g>
<g>
</g>
<g>
</g>
<g>
</g>
<g>
</g>
<g>
</g>
<g>
</g>
<g>
</g>
<g>
</g>
<g>
</g>
<g>
</g>
<g>
</g>
<g>
</g>
</svg>
