<?xml version="1.0" encoding="utf-8"?>
<!-- Generator: Adobe Illustrator 25.2.1, SVG Export Plug-In . SVG Version: 6.00 Build 0)  -->
<svg version="1.1" id="Camada_1" xmlns="http://www.w3.org/2000/svg" xmlns:xlink="http://www.w3.org/1999/xlink" x="0px" y="0px"
	 viewBox="0 0 301.3 234.3" style="enable-background:new 0 0 301.3 234.3;" xml:space="preserve">
<style type="text/css">
	.st0{fill:#54C076;}
	.st1{fill:url(#SVGID_1_);}
	.st2{fill:url(#SVGID_2_);}
	.st3{fill:url(#SVGID_3_);}
	.st4{fill:none;}
</style>
<g>
	<g>
		<g>
			<path d="M103.3,99.7V77.4h9.7c2,0,3.7,0.3,5.2,1c1.4,0.7,2.6,1.6,3.4,2.8c0.8,1.2,1.2,2.7,1.2,4.3c0,1.7-0.4,3.1-1.2,4.3
				c-0.8,1.2-1.9,2.1-3.4,2.8c-1.4,0.6-3.2,1-5.2,1h-6.8l2.3-2.3v8.5H103.3z M108.5,91.8l-2.3-2.4h6.5c1.6,0,2.8-0.3,3.6-1
				c0.8-0.7,1.2-1.6,1.2-2.9c0-1.2-0.4-2.2-1.2-2.9c-0.8-0.7-2-1-3.6-1h-6.5l2.3-2.5V91.8z M117.5,99.7l-5.6-8.1h5.5l5.7,8.1H117.5z
				"/>
			<path d="M140.9,100.1c-1.8,0-3.4-0.3-4.9-0.9c-1.5-0.6-2.8-1.4-3.9-2.4c-1.1-1-1.9-2.3-2.6-3.7s-0.9-2.9-0.9-4.6
				c0-1.7,0.3-3.2,0.9-4.6c0.6-1.4,1.5-2.6,2.6-3.7c1.1-1,2.4-1.9,3.9-2.4c1.5-0.6,3.1-0.9,4.9-0.9c1.8,0,3.4,0.3,4.9,0.9
				c1.5,0.6,2.8,1.4,3.9,2.4c1.1,1,2,2.3,2.6,3.7c0.6,1.4,0.9,2.9,0.9,4.6c0,1.7-0.3,3.2-0.9,4.6c-0.6,1.4-1.5,2.6-2.6,3.7
				s-2.4,1.8-3.9,2.4C144.2,99.8,142.6,100.1,140.9,100.1z M140.8,95.7c1,0,1.9-0.2,2.8-0.5c0.8-0.3,1.6-0.8,2.2-1.5
				c0.6-0.6,1.1-1.4,1.5-2.3c0.4-0.9,0.5-1.8,0.5-2.9c0-1.1-0.2-2-0.5-2.9c-0.4-0.9-0.8-1.6-1.5-2.3c-0.6-0.6-1.4-1.1-2.2-1.5
				c-0.9-0.3-1.8-0.5-2.8-0.5c-1,0-1.9,0.2-2.8,0.5s-1.6,0.8-2.2,1.5c-0.6,0.6-1.1,1.4-1.5,2.3c-0.4,0.9-0.5,1.8-0.5,2.9
				c0,1,0.2,2,0.5,2.9s0.8,1.6,1.5,2.3c0.6,0.6,1.4,1.1,2.2,1.5S139.8,95.7,140.8,95.7z"/>
			<path d="M164.5,99.7V81.6h-7.2v-4.2h19.5v4.2h-7.2v18.2H164.5z"/>
			<path d="M178.8,99.7l10-22.4h5.1l10,22.4h-5.4L190.2,80h2l-8.2,19.8H178.8z M183.7,95l1.4-3.9h11.5L198,95H183.7z"/>
		</g>
	</g>
	<g>
		<g>
			<path class="st0" d="M81.1,111.5l-20.2-5.9l1.1-3.9l16.7-4.4l-0.6,2L66.4,86.8l1.1-3.8l20.2,5.8l-1.3,4.4L73,89.3l0.2-0.8l9.3,10
				l-0.6,2.1l-13.3,3.6l0.3-1l13.4,3.9L81.1,111.5z"/>
			<path class="st0" d="M92.8,74.9L100,66l3,2.5L92.8,81.1L76.5,67.8l10.1-12.3l3,2.5l-7,8.5L92.8,74.9z M85.9,69.7l6.4-7.8l2.9,2.4
				l-6.4,7.8L85.9,69.7z"/>
			<path class="st0" d="M109.2,63.1L98.9,44.8l3.5-2l18.2,7.1l-1.7,1l-7.4-13.2l4.2-2.4L126,53.6l-3.5,2l-18.2-7.1l1.7-1l7.4,13.2
				L109.2,63.1z"/>
			<path class="st0" d="M139.2,50.4l-2.6-16.8l-6.6,1l-0.6-3.9l18.1-2.7l0.6,3.9l-6.6,1l2.6,16.8L139.2,50.4z"/>
			<path class="st0" d="M167.2,51.2c-1.6-0.4-3.1-0.9-4.3-1.8c-1.3-0.8-2.3-1.8-3.1-3c-0.8-1.2-1.3-2.5-1.6-3.9
				c-0.3-1.4-0.3-2.9,0.1-4.4s0.9-2.9,1.7-4s1.9-2.1,3.1-2.9c1.2-0.7,2.6-1.2,4.1-1.5c1.5-0.2,3-0.2,4.6,0.2
				c1.6,0.4,3.1,0.9,4.3,1.8s2.3,1.8,3.1,3c0.8,1.2,1.3,2.5,1.6,3.9c0.3,1.4,0.3,2.9-0.1,4.4c-0.3,1.5-0.9,2.9-1.8,4.1
				c-0.8,1.2-1.9,2.1-3.1,2.9c-1.2,0.7-2.6,1.2-4,1.4C170.4,51.6,168.8,51.6,167.2,51.2z M168.1,47.2c0.9,0.2,1.8,0.2,2.6,0.1
				c0.8-0.1,1.6-0.4,2.3-0.9c0.7-0.5,1.3-1.1,1.8-1.8c0.5-0.7,0.8-1.6,1.1-2.6c0.2-1,0.2-1.9,0.1-2.8c-0.1-0.9-0.5-1.7-0.9-2.4
				c-0.5-0.7-1-1.3-1.7-1.8c-0.7-0.5-1.5-0.8-2.5-1c-0.9-0.2-1.8-0.2-2.6-0.1c-0.8,0.1-1.6,0.4-2.3,0.9c-0.7,0.5-1.3,1.1-1.8,1.8
				c-0.5,0.7-0.8,1.6-1.1,2.6c-0.2,1-0.2,1.9-0.1,2.8c0.1,0.9,0.4,1.7,0.9,2.4c0.5,0.7,1,1.3,1.7,1.8
				C166.4,46.6,167.2,47,168.1,47.2z"/>
			<path class="st0" d="M185.5,57l11.9-17.3l7.5,5.2c1.5,1.1,2.7,2.2,3.5,3.5s1.1,2.6,1.1,4c0,1.4-0.5,2.7-1.4,4
				c-0.9,1.3-2,2.2-3.2,2.7c-1.3,0.5-2.6,0.6-4.1,0.3c-1.5-0.3-3-1-4.5-2l-5.3-3.6l3-0.5l-4.5,6.6L185.5,57z M193.8,53.6l-0.5-3.1
				l5,3.5c1.2,0.9,2.3,1.2,3.3,1.1c1-0.1,1.8-0.6,2.4-1.6c0.7-1,0.9-1.9,0.6-2.9c-0.2-0.9-1-1.8-2.2-2.7l-5-3.5l3.1-0.7L193.8,53.6z
				 M196.5,64.5l0-9.3l4.3,3l0,9.3L196.5,64.5z"/>
			<path class="st0" d="M206,73.8l16.4-13.2l3,3.8L209,77.6L206,73.8z"/>
			<path class="st0" d="M213.7,82.8l23,0.9l1.8,4.5l-16,16.5l-1.9-4.7l14.4-14l0.7,1.8l-20.1-0.3L213.7,82.8z M219.6,85.5l3.9-0.2
				l4,10l-2.9,2.6L219.6,85.5z"/>
		</g>
	</g>
	<g>
		<g>
			<path d="M147.5,215.5C147.4,215.5,147.4,215.5,147.5,215.5c-2.2-0.1-4.4-0.2-6.6-0.4c-0.7-0.1-1.3-0.7-1.2-1.5
				c0.1-0.7,0.7-1.3,1.5-1.2c2.1,0.2,4.3,0.3,6.4,0.4c0.7,0,1.3,0.6,1.3,1.4C148.8,214.9,148.2,215.5,147.5,215.5z M153.9,215.5
				c-0.7,0-1.3-0.6-1.3-1.3c0-0.7,0.6-1.4,1.3-1.4c2.1-0.1,4.3-0.2,6.4-0.4c0.7-0.1,1.4,0.5,1.5,1.2c0.1,0.7-0.5,1.4-1.2,1.5
				C158.4,215.3,156.2,215.4,153.9,215.5C154,215.5,154,215.5,153.9,215.5z M134.6,214.2c-0.1,0-0.1,0-0.2,0
				c-2.2-0.4-4.3-0.8-6.4-1.3c-0.7-0.2-1.2-0.9-1-1.6c0.2-0.7,0.9-1.2,1.6-1c2.1,0.5,4.2,0.9,6.3,1.3c0.7,0.1,1.2,0.8,1.1,1.6
				C135.8,213.7,135.2,214.2,134.6,214.2z M166.8,214.2c-0.6,0-1.2-0.5-1.3-1.1c-0.1-0.7,0.4-1.4,1.1-1.6c2.1-0.4,4.2-0.8,6.3-1.3
				c0.7-0.2,1.5,0.3,1.6,1c0.2,0.7-0.3,1.5-1,1.6c-2.1,0.5-4.3,0.9-6.4,1.3C167,214.2,166.9,214.2,166.8,214.2z M122,211.2
				c-0.1,0-0.3,0-0.4-0.1c-2.1-0.6-4.2-1.4-6.2-2.2c-0.7-0.3-1-1-0.8-1.7c0.3-0.7,1-1,1.7-0.8c2,0.8,4,1.5,6,2.1
				c0.7,0.2,1.1,1,0.9,1.7C123.1,210.8,122.5,211.2,122,211.2z M179.4,211.2c-0.6,0-1.1-0.4-1.3-0.9c-0.2-0.7,0.2-1.5,0.9-1.7
				c2-0.6,4.1-1.3,6-2.1c0.7-0.3,1.5,0.1,1.7,0.8c0.3,0.7-0.1,1.5-0.8,1.7c-2,0.8-4.1,1.5-6.2,2.2
				C179.7,211.2,179.6,211.2,179.4,211.2z M109.8,206.6c-0.2,0-0.4,0-0.6-0.1c-2-0.9-4-1.9-5.9-3c-0.7-0.4-0.9-1.2-0.5-1.8
				c0.4-0.7,1.2-0.9,1.8-0.5c1.9,1,3.8,2,5.7,2.9c0.7,0.3,1,1.1,0.7,1.8C110.8,206.3,110.3,206.6,109.8,206.6z M191.5,206.5
				c-0.5,0-1-0.3-1.2-0.8c-0.3-0.7,0-1.5,0.7-1.8c1.9-0.9,3.8-1.9,5.7-2.9c0.7-0.4,1.5-0.1,1.8,0.5c0.4,0.7,0.1,1.5-0.5,1.8
				c-1.9,1.1-3.9,2-5.9,3C191.9,206.5,191.7,206.5,191.5,206.5z M202.9,200.3c-0.4,0-0.9-0.2-1.1-0.6c-0.4-0.6-0.2-1.5,0.4-1.9
				c1.8-1.1,3.6-2.4,5.3-3.6c0.6-0.4,1.4-0.3,1.9,0.3c0.4,0.6,0.3,1.4-0.3,1.9c-1.8,1.3-3.6,2.5-5.4,3.7
				C203.4,200.2,203.1,200.3,202.9,200.3z M213.3,192.6c-0.4,0-0.8-0.2-1-0.5c-0.5-0.6-0.4-1.4,0.2-1.9c1.6-1.4,3.2-2.8,4.7-4.3
				c0.5-0.5,1.4-0.5,1.9,0c0.5,0.5,0.5,1.4,0,1.9c-1.6,1.5-3.2,3-4.9,4.4C213.9,192.5,213.6,192.6,213.3,192.6z M53.8,112.1
				C53.8,112.1,53.8,112.1,53.8,112.1c-0.8-0.1-1.4-0.7-1.3-1.4c0.1-2.2,0.4-4.4,0.6-6.5c0.1-0.7,0.8-1.3,1.5-1.2
				c0.7,0.1,1.3,0.8,1.2,1.5c-0.3,2.1-0.5,4.2-0.6,6.4C55.1,111.6,54.5,112.1,53.8,112.1z M247.5,111.8c-0.7,0-1.3-0.5-1.3-1.3
				c-0.1-2.1-0.4-4.3-0.6-6.4c-0.1-0.7,0.4-1.4,1.2-1.5c0.7-0.1,1.4,0.4,1.5,1.2c0.3,2.2,0.5,4.4,0.7,6.5
				C248.8,111.1,248.3,111.7,247.5,111.8C247.5,111.8,247.5,111.8,247.5,111.8z M55.5,99.3c-0.1,0-0.2,0-0.3,0
				c-0.7-0.1-1.2-0.9-1.1-1.6c0.4-2.1,0.9-4.3,1.5-6.4c0.2-0.7,0.9-1.1,1.7-0.9c0.7,0.2,1.1,0.9,0.9,1.7c-0.6,2-1,4.1-1.5,6.2
				C56.7,98.8,56.1,99.3,55.5,99.3z M245.7,98.9c-0.6,0-1.2-0.4-1.3-1.1c-0.4-2.1-0.9-4.2-1.5-6.2c-0.2-0.7,0.2-1.5,0.9-1.7
				c0.7-0.2,1.5,0.2,1.7,0.9c0.6,2.1,1.1,4.2,1.5,6.4c0.1,0.7-0.3,1.4-1.1,1.6C245.9,98.9,245.8,98.9,245.7,98.9z M58.9,86.8
				c-0.1,0-0.3,0-0.4-0.1c-0.7-0.2-1.1-1-0.8-1.7c0.7-2.1,1.5-4.1,2.4-6.1c0.3-0.7,1.1-1,1.8-0.7c0.7,0.3,1,1.1,0.7,1.8
				c-0.8,2-1.6,4-2.3,6C60,86.4,59.5,86.8,58.9,86.8z M242.3,86.4c-0.6,0-1.1-0.3-1.3-0.9c-0.7-2-1.5-4-2.3-6
				c-0.3-0.7,0-1.5,0.7-1.8c0.7-0.3,1.5,0,1.8,0.7c0.9,2,1.7,4.1,2.4,6.1c0.2,0.7-0.1,1.5-0.8,1.7C242.6,86.4,242.4,86.4,242.3,86.4
				z M64,74.8c-0.2,0-0.4,0-0.6-0.1c-0.7-0.3-0.9-1.1-0.6-1.8c1-1.9,2-3.9,3.2-5.8c0.4-0.6,1.2-0.9,1.8-0.5c0.6,0.4,0.9,1.2,0.5,1.8
				c-1.1,1.8-2.1,3.7-3.1,5.6C64.9,74.6,64.5,74.8,64,74.8z M237.2,74.5c-0.5,0-1-0.3-1.2-0.7c-1-1.9-2-3.8-3.1-5.6
				c-0.4-0.6-0.2-1.5,0.5-1.8c0.6-0.4,1.5-0.2,1.8,0.5c1.1,1.9,2.2,3.8,3.2,5.8c0.3,0.7,0.1,1.5-0.6,1.8
				C237.6,74.5,237.4,74.5,237.2,74.5z M70.6,63.7c-0.3,0-0.5-0.1-0.8-0.2c-0.6-0.4-0.8-1.3-0.3-1.9c1.2-1.8,2.5-3.6,3.9-5.3
				c0.5-0.6,1.3-0.7,1.9-0.2c0.6,0.5,0.7,1.3,0.2,1.9c-1.3,1.7-2.6,3.4-3.8,5.2C71.4,63.5,71,63.7,70.6,63.7z M230.6,63.4
				c-0.4,0-0.8-0.2-1.1-0.6c-1.2-1.7-2.5-3.5-3.8-5.1c-0.5-0.6-0.4-1.4,0.2-1.9c0.6-0.5,1.4-0.4,1.9,0.2c1.4,1.7,2.7,3.5,3.9,5.3
				c0.4,0.6,0.3,1.5-0.3,1.9C231.1,63.3,230.8,63.4,230.6,63.4z M78.6,53.5c-0.3,0-0.6-0.1-0.9-0.3c-0.6-0.5-0.6-1.4-0.1-1.9
				c1.5-1.6,3-3.2,4.6-4.7c0.5-0.5,1.4-0.5,1.9,0s0.5,1.4,0,1.9c-1.5,1.5-3,3-4.4,4.6C79.3,53.3,79,53.5,78.6,53.5z M222.5,53.3
				c-0.4,0-0.7-0.1-1-0.4c-1.4-1.6-2.9-3.1-4.5-4.6c-0.5-0.5-0.6-1.4,0-1.9c0.5-0.5,1.4-0.6,1.9,0c1.6,1.5,3.1,3.1,4.6,4.7
				c0.5,0.6,0.5,1.4-0.1,1.9C223.1,53.2,222.8,53.3,222.5,53.3z M87.9,44.5c-0.4,0-0.8-0.2-1-0.5c-0.5-0.6-0.4-1.4,0.2-1.9
				c1.7-1.4,3.4-2.8,5.1-4.1c0.6-0.4,1.4-0.3,1.9,0.3c0.4,0.6,0.3,1.4-0.3,1.9c-1.7,1.3-3.4,2.6-5,4C88.5,44.4,88.2,44.5,87.9,44.5z
				 M213.2,44.3c-0.3,0-0.6-0.1-0.9-0.3c-1.6-1.4-3.3-2.7-5-4c-0.6-0.4-0.7-1.3-0.3-1.9c0.4-0.6,1.3-0.7,1.9-0.3
				c1.8,1.3,3.5,2.7,5.2,4.1c0.6,0.5,0.6,1.3,0.2,1.9C213.9,44.1,213.6,44.3,213.2,44.3z M98.3,36.8c-0.4,0-0.9-0.2-1.1-0.6
				c-0.4-0.6-0.2-1.5,0.4-1.9c1.8-1.2,3.7-2.3,5.6-3.4c0.7-0.4,1.5-0.1,1.8,0.5c0.4,0.7,0.1,1.5-0.5,1.8c-1.9,1-3.7,2.1-5.5,3.3
				C98.8,36.7,98.6,36.8,98.3,36.8z M202.7,36.6c-0.2,0-0.5-0.1-0.7-0.2c-1.8-1.1-3.6-2.2-5.5-3.3c-0.7-0.4-0.9-1.2-0.5-1.8
				c0.4-0.7,1.2-0.9,1.8-0.5c1.9,1,3.8,2.2,5.7,3.3c0.6,0.4,0.8,1.2,0.4,1.9C203.6,36.4,203.2,36.6,202.7,36.6z M109.7,30.5
				c-0.5,0-1-0.3-1.2-0.8c-0.3-0.7,0-1.5,0.7-1.8c2-0.9,4-1.8,6-2.6c0.7-0.3,1.5,0.1,1.7,0.8c0.3,0.7-0.1,1.5-0.8,1.7
				c-2,0.8-3.9,1.6-5.9,2.5C110,30.5,109.8,30.5,109.7,30.5z M191.3,30.4c-0.2,0-0.4,0-0.6-0.1c-1.9-0.9-3.9-1.7-5.9-2.5
				c-0.7-0.3-1-1-0.8-1.7c0.3-0.7,1-1,1.7-0.8c2,0.8,4.1,1.6,6.1,2.6c0.7,0.3,1,1.1,0.7,1.8C192.3,30.1,191.8,30.4,191.3,30.4z
				 M121.7,25.8c-0.6,0-1.1-0.4-1.3-0.9c-0.2-0.7,0.2-1.5,0.9-1.7c2.1-0.6,4.2-1.2,6.3-1.7c0.7-0.2,1.5,0.3,1.6,1
				c0.2,0.7-0.3,1.5-1,1.6c-2.1,0.5-4.1,1.1-6.2,1.7C122,25.8,121.9,25.8,121.7,25.8z M179.2,25.7c-0.1,0-0.3,0-0.4-0.1
				c-2-0.6-4.1-1.2-6.2-1.7c-0.7-0.2-1.2-0.9-1-1.6c0.2-0.7,0.9-1.2,1.6-1c2.1,0.5,4.3,1.1,6.3,1.7c0.7,0.2,1.1,1,0.9,1.7
				C180.3,25.4,179.8,25.7,179.2,25.7z M134.3,22.8c-0.6,0-1.2-0.5-1.3-1.1c-0.1-0.7,0.4-1.4,1.1-1.6c2.1-0.4,4.3-0.7,6.5-0.9
				c0.7-0.1,1.4,0.5,1.5,1.2c0.1,0.7-0.5,1.4-1.2,1.5c-2.1,0.2-4.2,0.5-6.3,0.9C134.5,22.8,134.4,22.8,134.3,22.8z M166.6,22.8
				c-0.1,0-0.1,0-0.2,0c-2.1-0.3-4.2-0.6-6.3-0.8c-0.7-0.1-1.3-0.7-1.2-1.5c0.1-0.7,0.7-1.3,1.5-1.2c2.2,0.2,4.4,0.5,6.5,0.9
				c0.7,0.1,1.2,0.8,1.1,1.6C167.8,22.3,167.3,22.8,166.6,22.8z M147.2,21.5c-0.7,0-1.3-0.6-1.3-1.3c0-0.7,0.6-1.4,1.3-1.4
				c2.2-0.1,4.4-0.1,6.6,0c0.7,0,1.3,0.6,1.3,1.4c0,0.7-0.6,1.3-1.3,1.3c0,0,0,0,0,0C151.6,21.4,149.4,21.4,147.2,21.5
				C147.3,21.5,147.2,21.5,147.2,21.5z"/>
		</g>
		<g>
			<g>
				<linearGradient id="SVGID_1_" gradientUnits="userSpaceOnUse" x1="33.5139" y1="63.8665" x2="267.7811" y2="63.8665">
					<stop  offset="0" style="stop-color:#80D494"/>
					<stop  offset="0.9637" style="stop-color:#54C076"/>
				</linearGradient>
				<path class="st1" d="M44.3,118.9c0-0.6,0-1.2,0-1.8C44.3,58.5,92,10.8,150.6,10.8c58.6,0,106.4,47.7,106.4,106.4
					c0,2.7-0.1,5.3-0.3,7.9c3.3,1,6.7,1.9,10.6,2.7c0.3-3.5,0.5-7,0.5-10.6c0-31.3-12.2-60.7-34.3-82.8S181.9,0,150.6,0
					c-31.3,0-60.7,12.2-82.8,34.3c-21.9,21.9-34.1,50.9-34.3,81.9C37.5,117,41,117.9,44.3,118.9z"/>
				<linearGradient id="SVGID_2_" gradientUnits="userSpaceOnUse" x1="61.4907" y1="210.0299" x2="243.1005" y2="210.0299">
					<stop  offset="0" style="stop-color:#80D494"/>
					<stop  offset="0.9637" style="stop-color:#54C076"/>
				</linearGradient>
				<path class="st2" d="M231.8,185.8c-19.5,23.1-48.7,37.7-81.2,37.7c-26.5,0-50.9-9.8-69.5-25.9c-7.8-1.1-14-2.7-19.6-4.4
					c2,2.3,4.1,4.6,6.3,6.8c22.1,22.1,51.5,34.3,82.8,34.3c31.3,0,60.7-12.2,82.8-34.3c3.5-3.5,6.7-7.1,9.6-10.9
					C239.6,187.9,235.9,186.8,231.8,185.8z"/>
			</g>
			<linearGradient id="SVGID_3_" gradientUnits="userSpaceOnUse" x1="0" y1="156.2932" x2="301.2956" y2="156.2932">
				<stop  offset="0" style="stop-color:#80D494"/>
				<stop  offset="0.9637" style="stop-color:#54C076"/>
			</linearGradient>
			<path class="st3" d="M295.9,204.3c-25.1,0-37.8-4.4-50.2-8.6c-12-4.1-23.4-8-46.7-8s-34.7,3.9-46.7,8
				c-12.3,4.2-25.1,8.6-50.2,8.6c-25.1,0-37.8-4.4-50.2-8.6c-12-4.1-23.4-8-46.7-8c-3,0-5.4-2.4-5.4-5.4v-68.6c0-3,2.4-5.4,5.4-5.4
				c25.1,0,37.8,4.4,50.2,8.6c12,4.1,23.4,8,46.7,8c23.3,0,34.7-3.9,46.7-8c12.3-4.2,25.1-8.6,50.2-8.6c25.1,0,37.8,4.4,50.2,8.6
				c12,4.1,23.4,8,46.7,8c3,0,5.4,2.4,5.4,5.4v68.6C301.3,201.8,298.9,204.3,295.9,204.3z M10.8,177c21.6,0.6,33.4,4.6,44.8,8.5
				c12,4.1,23.4,8,46.7,8c23.3,0,34.7-3.9,46.7-8c12.3-4.2,25.1-8.6,50.2-8.6c25.1,0,37.8,4.4,50.2,8.6c11,3.8,21.5,7.4,41.3,7.9
				v-57.8c-21.6-0.6-33.4-4.6-44.8-8.5c-12-4.1-23.4-8-46.7-8s-34.7,3.9-46.7,8c-12.3,4.2-25.1,8.6-50.2,8.6
				c-25.1,0-37.8-4.4-50.2-8.6c-11-3.8-21.5-7.4-41.3-7.9V177z"/>
		</g>
	</g>
	<g>
		<path class="st4" d="M10.8,166.1c26,0,53.1,17.4,83.5,18c30.4,0.6,65.4-18.3,104.3-17.1c39,1.2,81.1,17,91.9,17.3"/>
		<path d="M37.3,164.6l16.2,4.8l-1.6,5.5l-23-6.8l8.8-29.7l22.5,6.7l-1.6,5.5l-15.6-4.6L37.3,164.6z M40.4,152.3l14.3,4.2l-1.6,5.4
			l-14.3-4.2L40.4,152.3z"/>
		<path d="M74.7,181.7l-7.1-1.3l5.8-30.5l23,4.4l-1.1,5.7l-16-3L74.7,181.7z M77.4,164.8l14.6,2.8l-1.1,5.7l-14.6-2.8L77.4,164.8z"
			/>
		<path d="M118.2,175.6l16.5-3.8l1.3,5.6l-23.4,5.3l-6.9-30.2l22.9-5.2l1.3,5.6l-15.9,3.6L118.2,175.6z M114.8,163.3l14.6-3.3
			l1.2,5.4l-14.6,3.3L114.8,163.3z"/>
		<path d="M156.5,172l-5.4-24.6l-9.7,2.1l-1.3-5.7l26.4-5.8l1.3,5.7l-9.7,2.1l5.4,24.6L156.5,172z"/>
		<path d="M184.6,167.3l-1.7-31l7.2-0.4l1.7,31L184.6,167.3z"/>
		<path d="M215.6,168.3l-9-32.6l7.7,1.1l7.8,28.8l-4.5-0.6l15.5-25.6l7.1,1l-17.5,28.9L215.6,168.3z"/>
		<path d="M241.3,172.5l21-26.7l6.9,1.7l5.9,33.5l-7.3-1.8l-4.3-29.3l2.8,0.7l-17.7,23.8L241.3,172.5z M249.7,167.8l3.2-4.8
			l15.5,3.9l0.6,5.8L249.7,167.8z"/>
	</g>
</g>
<g>
</g>
<g>
</g>
<g>
</g>
<g>
</g>
<g>
</g>
<g>
</g>
<g>
</g>
<g>
</g>
<g>
</g>
<g>
</g>
<g>
</g>
<g>
</g>
<g>
</g>
<g>
</g>
<g>
</g>
</svg>
