<?xml version="1.0" encoding="utf-8"?>
<!-- Generator: Adobe Illustrator 25.2.1, SVG Export Plug-In . SVG Version: 6.00 Build 0)  -->
<svg version="1.1" id="Camada_1" xmlns="http://www.w3.org/2000/svg" xmlns:xlink="http://www.w3.org/1999/xlink" x="0px" y="0px"
	 viewBox="0 0 553.3 460.7" style="enable-background:new 0 0 553.3 460.7;" xml:space="preserve">
<style type="text/css">
	.st0{fill:url(#SVGID_1_);}
	.st1{fill:url(#SVGID_2_);}
	.st2{fill:url(#SVGID_3_);}
	.st3{fill:url(#SVGID_4_);}
	.st4{fill:url(#SVGID_5_);}
	.st5{opacity:0.93;fill:url(#SVGID_6_);}
	.st6{opacity:0.93;fill:url(#SVGID_7_);}
	.st7{opacity:0.93;fill:url(#SVGID_8_);}
	.st8{opacity:0.93;fill:url(#SVGID_9_);}
</style>
<g>
	<g>
		<linearGradient id="SVGID_1_" gradientUnits="userSpaceOnUse" x1="0" y1="169.4211" x2="366.7823" y2="169.4211">
			<stop  offset="0" style="stop-color:#FFFFFF"/>
			<stop  offset="1" style="stop-color:#DCE1E2"/>
		</linearGradient>
		<path class="st0" d="M0,104.7v226.9c0,6.8,8.5,9.8,12.8,4.6l11.1-13.5c15-18.2,37.4-28.8,61-28.8H262
			c57.8,0,104.7-46.9,104.7-104.7v-84.5C366.8,46.9,319.9,0,262.1,0H104.7C46.9,0,0,46.9,0,104.7z M65.4,104.7
			c0-21.7,17.6-39.3,39.3-39.3h157.3c21.7,0,39.3,17.6,39.3,39.3v84.5c0,21.7-17.6,39.3-39.3,39.3H84.9c-6.5,0-13,0.4-19.4,1.3
			V104.7z"/>
		
			<linearGradient id="SVGID_2_" gradientUnits="userSpaceOnUse" x1="203.3296" y1="137.3214" x2="204.866" y2="60.5028" gradientTransform="matrix(-1 0 0 1 480.8382 0)">
			<stop  offset="0" style="stop-color:#4BFF9F;stop-opacity:0.4"/>
			<stop  offset="0.3048" style="stop-color:#30E665;stop-opacity:0.2781"/>
			<stop  offset="0.6275" style="stop-color:#16CE2F;stop-opacity:0.149"/>
			<stop  offset="0.8691" style="stop-color:#06BF0D;stop-opacity:5.235383e-02"/>
			<stop  offset="1" style="stop-color:#00B900;stop-opacity:0"/>
		</linearGradient>
		<path class="st1" d="M186.1,0h75.9c57.8,0,104.7,46.9,104.7,104.7v65.9h-65.4v-65.9c0-21.7-17.6-39.3-39.3-39.3h-75.9V0z"/>
		
			<linearGradient id="SVGID_3_" gradientUnits="userSpaceOnUse" x1="274.8222" y1="249.7934" x2="360.8758" y2="210.4129" gradientTransform="matrix(-1 0 0 1 480.8382 0)">
			<stop  offset="0" style="stop-color:#4BFF9F;stop-opacity:0.4"/>
			<stop  offset="0.3048" style="stop-color:#30E665;stop-opacity:0.2781"/>
			<stop  offset="0.6275" style="stop-color:#16CE2F;stop-opacity:0.149"/>
			<stop  offset="0.8691" style="stop-color:#06BF0D;stop-opacity:5.235383e-02"/>
			<stop  offset="1" style="stop-color:#00B900;stop-opacity:0"/>
		</linearGradient>
		<path class="st2" d="M65.4,142.6v87.2c6.4-0.9,12.9-1.3,19.4-1.3h177.2c21.7,0,39.3-17.6,39.3-39.3v-46.5h65.4v46.5
			c0,57.8-46.9,104.7-104.7,104.7H84.9c-23.6,0-46,10.6-61,28.8l-11.1,13.5C8.5,341.4,0,338.4,0,331.6v-189H65.4z"/>
		
			<linearGradient id="SVGID_4_" gradientUnits="userSpaceOnUse" x1="180.5739" y1="148.8263" x2="23.4132" y2="419.4917" gradientTransform="matrix(-1 0 0 1 480.8382 0)">
			<stop  offset="0" style="stop-color:#66C480"/>
			<stop  offset="0.9637" style="stop-color:#279D4C"/>
		</linearGradient>
		<path class="st3" d="M186.6,261v50.1c0,57.8,46.9,104.7,104.7,104.7h36.2c85.5,0,115.9,0,115.9,0h25c23.6,0,46,10.6,61,28.8
			l11.1,13.5c4.3,5.2,12.8,2.2,12.8-4.6V226.6c0-57.8-46.9-104.7-104.7-104.7H333.8c-17.9,0-32.5,14.5-32.5,32.5v34.8
			c0,21.7-17.6,39.3-39.3,39.3h-43C201.1,228.5,186.6,243,186.6,261z M291.3,350.4c-17.4,0-32.2-11.4-37.3-27.1
			c-1.3-3.8-2-7.9-2-12.2v-17.2h10.1c57.8,0,104.7-46.9,104.7-104.7v-1.9h81.9c21.7,0,39.3,17.6,39.3,39.3v125.1
			c-6.4-0.9-12.9-1.3-19.4-1.3H291.3z"/>
		
			<linearGradient id="SVGID_5_" gradientUnits="userSpaceOnUse" x1="435.6162" y1="22.5613" x2="252.2244" y2="79.2275" gradientTransform="matrix(-1 0 0 1 480.8382 0)">
			<stop  offset="0" style="stop-color:#4BFF9F;stop-opacity:0.4"/>
			<stop  offset="0.3048" style="stop-color:#30E665;stop-opacity:0.2781"/>
			<stop  offset="0.6275" style="stop-color:#16CE2F;stop-opacity:0.149"/>
			<stop  offset="0.8691" style="stop-color:#06BF0D;stop-opacity:5.235383e-02"/>
			<stop  offset="1" style="stop-color:#00B900;stop-opacity:0"/>
		</linearGradient>
		<path class="st4" d="M65.4,68.6v36.1c0-21.7,17.6-39.3,39.3-39.3h113.1V0h-83.8C96.2,0,65.4,30.7,65.4,68.6z"/>
		
			<linearGradient id="SVGID_6_" gradientUnits="userSpaceOnUse" x1="140.9323" y1="179.0469" x2="-1.7912" y2="169.4738" gradientTransform="matrix(-1 0 0 1 480.8382 0)">
			<stop  offset="0" style="stop-color:#FFFFFF;stop-opacity:0"/>
			<stop  offset="1" style="stop-color:#6E7E8F"/>
		</linearGradient>
		<path class="st5" d="M487.9,190.5v36.1c0-21.7-17.6-39.3-39.3-39.3H335.5v-65.4h83.8C457.2,121.9,487.9,152.6,487.9,190.5z"/>
		
			<linearGradient id="SVGID_7_" gradientUnits="userSpaceOnUse" x1="190.7971" y1="240.307" x2="240.7114" y2="254.1721" gradientTransform="matrix(-1 0 0 1 480.8382 0)">
			<stop  offset="0" style="stop-color:#FFFFFF;stop-opacity:0"/>
			<stop  offset="1" style="stop-color:#6E7E8F"/>
		</linearGradient>
		<path class="st6" d="M252,228.5v65.4h10.1c57.8,0,104.7-46.9,104.7-104.7v-1.9h-65.4v1.9c0,21.7-17.6,39.3-39.3,39.3H252z"/>
		
			<linearGradient id="SVGID_8_" gradientUnits="userSpaceOnUse" x1="172.0961" y1="217.1709" x2="167.0804" y2="182.5625" gradientTransform="matrix(-1 0 0 1 480.8382 0)">
			<stop  offset="0" style="stop-color:#FFFFFF;stop-opacity:0"/>
			<stop  offset="1" style="stop-color:#6E7E8F"/>
		</linearGradient>
		<path class="st7" d="M252,228.5v65.4h10.1c57.8,0,104.7-46.9,104.7-104.7v-1.9h-65.4v1.9c0,21.7-17.6,39.3-39.3,39.3H252z"/>
		
			<linearGradient id="SVGID_9_" gradientUnits="userSpaceOnUse" x1="138.3872" y1="371.6646" x2="209.127" y2="400.1571" gradientTransform="matrix(-1 0 0 1 480.8382 0)">
			<stop  offset="0" style="stop-color:#FFFFFF;stop-opacity:0"/>
			<stop  offset="1" style="stop-color:#6E7E8F"/>
		</linearGradient>
		<path class="st8" d="M327.5,415.8c85.5,0,115.9,0,115.9,0v-65.4H291.3c-17.4,0-32.2-11.4-37.3-27.1h-2
			C252,323.3,242,415.8,327.5,415.8z"/>
	</g>
</g>
<g>
</g>
<g>
</g>
<g>
</g>
<g>
</g>
<g>
</g>
<g>
</g>
<g>
</g>
<g>
</g>
<g>
</g>
<g>
</g>
<g>
</g>
<g>
</g>
<g>
</g>
<g>
</g>
<g>
</g>
</svg>
