<?xml version="1.0" encoding="utf-8"?>
<!-- Generator: Adobe Illustrator 25.2.1, SVG Export Plug-In . SVG Version: 6.00 Build 0)  -->
<svg version="1.1" id="Camada_1" xmlns="http://www.w3.org/2000/svg" xmlns:xlink="http://www.w3.org/1999/xlink" x="0px" y="0px"
	 viewBox="0 0 145 183" style="enable-background:new 0 0 145 183;" xml:space="preserve">
<style type="text/css">
	.st0{fill:url(#SVGID_1_);}
	.st1{fill:url(#SVGID_2_);}
	.st2{fill:#FFFFFF;}
</style>
<g>
	<g>
		<g>
			<image style="overflow:visible;opacity:0.15;" width="145" height="183" xlink:href="CECB7781.png" >
			</image>
			<g>
				<linearGradient id="SVGID_1_" gradientUnits="userSpaceOnUse" x1="11.5911" y1="87.4779" x2="125.5703" y2="87.4779">
					<stop  offset="0" style="stop-color:#80D494"/>
					<stop  offset="0.9637" style="stop-color:#54C076"/>
				</linearGradient>
				<path class="st0" d="M125.6,68.3c0,31.5-57,95.3-57,95.3s-57-63.8-57-95.3s25.5-57,57-57S125.6,36.9,125.6,68.3z"/>
			</g>
		</g>
		<linearGradient id="SVGID_2_" gradientUnits="userSpaceOnUse" x1="110.4883" y1="67.3313" x2="26.6735" y2="67.3313">
			<stop  offset="0" style="stop-color:#80D494"/>
			<stop  offset="0.9637" style="stop-color:#54C076"/>
		</linearGradient>
		<circle class="st1" cx="68.6" cy="67.3" r="41.9"/>
	</g>
</g>
<g>
	<g>
		<path class="st2" d="M58.6,80.8c-1.9,0-3.7-0.5-5.2-1.4c-1.5-1-2.8-2.4-3.6-4.2c-0.9-1.8-1.3-4.1-1.3-6.7c0-2.6,0.4-4.8,1.3-6.7
			c0.9-1.8,2.1-3.2,3.6-4.2c1.5-1,3.3-1.4,5.2-1.4c2,0,3.7,0.5,5.3,1.4c1.5,1,2.7,2.4,3.6,4.2c0.9,1.8,1.3,4.1,1.3,6.7
			c0,2.6-0.4,4.8-1.3,6.7c-0.9,1.8-2.1,3.2-3.6,4.2C62.3,80.4,60.6,80.8,58.6,80.8z M58.6,76.2c0.9,0,1.7-0.3,2.4-0.8
			c0.7-0.5,1.2-1.3,1.6-2.5s0.6-2.6,0.6-4.4c0-1.8-0.2-3.3-0.6-4.4c-0.4-1.1-0.9-2-1.6-2.5c-0.7-0.5-1.5-0.8-2.4-0.8
			c-0.9,0-1.7,0.3-2.4,0.8S55,63,54.6,64.1c-0.4,1.1-0.6,2.6-0.6,4.4c0,1.8,0.2,3.3,0.6,4.4c0.4,1.1,0.9,2,1.6,2.5
			C56.9,75.9,57.7,76.2,58.6,76.2z"/>
		<path class="st2" d="M71.1,80.4v-3.6l9.2-8.7c0.7-0.7,1.3-1.2,1.6-1.8s0.6-1,0.7-1.4c0.1-0.4,0.2-0.8,0.2-1.2c0-1-0.3-1.7-1-2.2
			c-0.6-0.5-1.6-0.8-2.8-0.8c-1,0-1.9,0.2-2.8,0.6c-0.8,0.4-1.6,1-2.2,1.8l-4-2.6c0.9-1.4,2.2-2.4,3.8-3.2c1.6-0.8,3.5-1.2,5.6-1.2
			c1.8,0,3.3,0.3,4.6,0.9s2.4,1.4,3.1,2.4c0.7,1,1.1,2.3,1.1,3.7c0,0.8-0.1,1.5-0.3,2.3c-0.2,0.8-0.6,1.6-1.2,2.4
			c-0.6,0.8-1.4,1.8-2.5,2.8l-7.6,7.2l-1.1-2h13.4v4.5H71.1z"/>
	</g>
</g>
<g>
</g>
<g>
</g>
<g>
</g>
<g>
</g>
<g>
</g>
<g>
</g>
<g>
</g>
<g>
</g>
<g>
</g>
<g>
</g>
<g>
</g>
<g>
</g>
<g>
</g>
<g>
</g>
<g>
</g>
</svg>
