<?xml version="1.0" encoding="utf-8"?>
<!-- Generator: Adobe Illustrator 25.2.1, SVG Export Plug-In . SVG Version: 6.00 Build 0)  -->
<svg version="1.1" id="Camada_1" xmlns="http://www.w3.org/2000/svg" xmlns:xlink="http://www.w3.org/1999/xlink" x="0px" y="0px"
	 viewBox="0 0 145 183" style="enable-background:new 0 0 145 183;" xml:space="preserve">
<style type="text/css">
	.st0{fill:url(#SVGID_1_);}
	.st1{fill:url(#SVGID_2_);}
	.st2{fill:#FFFFFF;}
</style>
<g>
	<g>
		<g>
			<image style="overflow:visible;opacity:0.15;" width="145" height="183" xlink:href="88D9CBC8.png" >
			</image>
			<g>
				<linearGradient id="SVGID_1_" gradientUnits="userSpaceOnUse" x1="11.5911" y1="87.4779" x2="125.5703" y2="87.4779">
					<stop  offset="0" style="stop-color:#80D494"/>
					<stop  offset="0.9637" style="stop-color:#54C076"/>
				</linearGradient>
				<path class="st0" d="M125.6,68.3c0,31.5-57,95.3-57,95.3s-57-63.8-57-95.3s25.5-57,57-57S125.6,36.9,125.6,68.3z"/>
			</g>
		</g>
		<linearGradient id="SVGID_2_" gradientUnits="userSpaceOnUse" x1="110.4883" y1="67.3313" x2="26.6735" y2="67.3313">
			<stop  offset="0" style="stop-color:#80D494"/>
			<stop  offset="0.9637" style="stop-color:#54C076"/>
		</linearGradient>
		<circle class="st1" cx="68.6" cy="67.3" r="41.9"/>
	</g>
</g>
<g>
	<g>
		<path class="st2" d="M58.7,80.8c-1.9,0-3.7-0.5-5.2-1.4c-1.5-1-2.8-2.4-3.6-4.2c-0.9-1.8-1.3-4.1-1.3-6.7c0-2.6,0.4-4.8,1.3-6.7
			c0.9-1.8,2.1-3.2,3.6-4.2c1.5-1,3.3-1.4,5.2-1.4c2,0,3.7,0.5,5.3,1.4c1.5,1,2.7,2.4,3.6,4.2c0.9,1.8,1.3,4.1,1.3,6.7
			c0,2.6-0.4,4.8-1.3,6.7c-0.9,1.8-2.1,3.2-3.6,4.2C62.4,80.4,60.6,80.8,58.7,80.8z M58.7,76.2c0.9,0,1.7-0.3,2.4-0.8
			c0.7-0.5,1.2-1.3,1.6-2.5s0.6-2.6,0.6-4.4c0-1.8-0.2-3.3-0.6-4.4c-0.4-1.1-0.9-2-1.6-2.5c-0.7-0.5-1.5-0.8-2.4-0.8
			c-0.9,0-1.7,0.3-2.4,0.8S55,63,54.6,64.1c-0.4,1.1-0.6,2.6-0.6,4.4c0,1.8,0.2,3.3,0.6,4.4c0.4,1.1,0.9,2,1.6,2.5
			C57,75.9,57.8,76.2,58.7,76.2z"/>
		<path class="st2" d="M78.9,80.8c-1.7,0-3.3-0.2-4.9-0.7c-1.6-0.4-3-1.1-4.1-1.9l2.1-4.2c0.9,0.7,2,1.2,3.2,1.6
			c1.2,0.4,2.4,0.6,3.6,0.6c1.4,0,2.5-0.3,3.3-0.8c0.8-0.5,1.2-1.3,1.2-2.2c0-0.9-0.4-1.6-1.1-2.1c-0.7-0.5-1.8-0.8-3.4-0.8h-2.5
			v-3.6l6.6-7.5l0.6,2H71v-4.4h16.7v3.6l-6.6,7.5l-2.8-1.6h1.6c2.9,0,5.1,0.7,6.6,2s2.2,3,2.2,5.1c0,1.3-0.4,2.6-1.1,3.8
			C87,78.1,86,79,84.5,79.8C83.1,80.5,81.2,80.8,78.9,80.8z"/>
	</g>
</g>
<g>
</g>
<g>
</g>
<g>
</g>
<g>
</g>
<g>
</g>
<g>
</g>
<g>
</g>
<g>
</g>
<g>
</g>
<g>
</g>
<g>
</g>
<g>
</g>
<g>
</g>
<g>
</g>
<g>
</g>
</svg>
