<?xml version="1.0" encoding="utf-8"?>
<!-- Generator: Adobe Illustrator 25.2.1, SVG Export Plug-In . SVG Version: 6.00 Build 0)  -->
<svg version="1.1" id="Camada_1" xmlns="http://www.w3.org/2000/svg" xmlns:xlink="http://www.w3.org/1999/xlink" x="0px" y="0px"
	 viewBox="0 0 508.9 911.6" style="enable-background:new 0 0 508.9 911.6;" xml:space="preserve">
<style type="text/css">
	.st0{fill:#54C076;}
</style>
<path class="st0" d="M138.2,691.6c-29.9-16.9-60.6-29.4-93.1-37.1C-53,631.3-146.7,643-235.2,692.3c-10.7,6-20.9,13-31.1,19.9
	c-9.4,6.3-19.3,5.5-25.1-2.5c-5.9-8.2-3.6-18,6-24.8c57-40.1,120.1-64.2,189.3-72.1c58.8-6.7,116.5-1.4,173,16.3
	c1.6,0.5,3.2,0.9,5.4,1.5c0-32.7,0-65,0-97.8c-1.4,0.6-2.4,1-3.4,1.6c-49.7,28.3-98.8,25.5-147.5-2.6
	c-26.6-15.4-48.9-35.9-69.1-58.8c-28.8-32.7-52.6-68.8-72.4-107.6c-6.8-13.3-1.8-23.3,12.8-26.9c42.2-10.1,84.8-16.4,128.3-13.9
	c41.7,2.4,80.8,12.9,114.9,38.3c12.5,9.3,23.5,20.3,32.9,32.7c1,1.3,2,2.6,4,5.1c0-5.4,0-9.3,0-13.3c0-17.4-0.2-34.8,0.1-52.1
	c0-3.8-1.4-5.6-4.6-7.3c-32.4-17.6-58.6-41.5-74-75.6c-15.4-34.2-15-69.4-4.7-104.8C10.3,111,29,78.9,51.6,49
	C62.3,34.7,73.9,21,85.4,7.4c9.3-10.9,21.5-9.5,29.2,2.8c24.8,40,49,80.4,74.8,119.7c29.9,45.5,27,90.9-3.3,133.9
	c-17.6,25-40.3,44.8-65.6,61.7c-3.5,2.4-4.7,4.8-4.7,9c0.2,20.1,0.1,40.2,0.1,60.2c0,1.5,0,2.9,0,4.9c1-0.6,1.5-0.8,1.7-1.1
	c27.9-38.1,66.1-59.7,111.8-69.1c39.4-8.1,78.9-6.6,118.3-0.5c17,2.6,33.8,6.3,50.6,10c11.8,2.6,17.1,13.6,11.6,24.2
	c-27,52.8-60,101.3-104.7,140.9c-23.6,20.9-49.8,37.5-80.8,45.5c-35.9,9.3-69.9,3.7-102.1-14.1c-1.8-1-3.5-2-6.1-3.4
	c-0.1,2.3-0.3,3.8-0.3,5.4c0,33.8,0.1,67.5-0.1,101.3c0,3.6,1.2,5.3,4.5,6.7c22.4,9.9,43.6,22,64,35.6c2.5,1.7,6.2,2.8,9.2,2.6
	c59.2-4.4,116.8,2.6,172.8,22.4c50.4,17.8,95.5,44.6,135.2,80.4c3.1,2.8,5.7,6.9,6.8,10.8c2,7.1-1.8,14.1-8,17.5
	c-6.3,3.5-13.6,2.3-19.7-2.6c-13.4-10.8-26.4-22.1-40.6-31.8c-51.5-35.2-108.5-55.9-170.6-62.4c-75.1-7.9-146.5,4.7-214,38.8
	c-1.5,0.7-2.9,1.6-4.9,2.8c11.3,2.2,21.9,3.9,32.4,6.3c69.2,15.5,130.4,46.8,183.4,94.1c5.5,4.9,8.4,10.5,6.5,17.9
	c-1.6,6.2-5.6,10.3-11.8,12c-6.5,1.8-11.8-0.5-16.7-4.9c-25.2-22.8-53-41.7-83.4-56.7c-60.3-29.6-124.1-42.6-191.2-38.3
	c-93.4,6-173.9,41.5-241.4,106.5c-2.9,2.8-5.6,5.8-8.5,8.7c-7.6,7.8-17.6,8.7-24.7,2.1c-7.2-6.7-7-17.1,0.7-25.1
	c46.5-48.8,102-83.6,165.9-105c41.3-13.8,83.7-20.6,127.2-21.3c2.2,0,4.7-0.7,6.5-1.9c42.9-29.1,89.5-49.6,140.1-61.1
	C136.2,692.5,136.8,692.2,138.2,691.6z M96.7,45c-25.1,30.4-47.2,61.7-60.8,98.2c-8.9,23.8-13.3,48.2-8.1,73.5
	c6.7,32.6,26.5,55.8,53.4,73.9c0.3,0.2,0.9,0,1.8,0c0-5.7,0-11.3,0-16.8c0-22.3,0-44.6,0-66.8c0-2.8,0.1-5.8,1-8.5
	c2.5-7.7,10.4-12.2,18.4-10.8c7.9,1.4,13.5,7.9,13.6,16.5c0.1,25.8,0,51.6,0.1,77.5c0,1.7,0.1,3.4,0.3,6.1
	c19.3-15.1,35.9-31,48-51.1c17.6-29.1,17.7-57.8-1.4-86.5c-11.6-17.4-22.6-35.2-33.7-52.9C118.4,80.1,107.8,62.9,96.7,45z
	 M-172.2,366.3c7.6,12.1,14.1,23.1,21.1,33.8c22.1,33.5,47.1,64.6,79.2,89.3c17.3,13.3,36,23.7,57.5,28.7c26,6,50.4,1.7,73.7-11
	c-0.4-0.5-0.6-0.9-0.8-1c-1.6-0.6-3.2-1.1-4.8-1.7C8.5,489-31.9,465.7-66.8,433.1c-8-7.5-8.8-17.5-2.1-24.7c6.6-7.1,16.8-7,24.7,0.4
	c34.1,31.7,73.8,53.5,118.1,67.2c1.7,0.5,3.4,0.9,5.7,1.4c-0.5-2.3-0.7-4-1.1-5.6c-16.5-63.4-58-99.5-121.8-111.1
	c-30-5.5-60.1-4.4-90.2-0.6C-146,361.8-158.3,364.1-172.2,366.3z M370.1,366.3c-10.1-1.7-19.8-3.6-29.6-5
	c-34.6-5.1-69.2-6.7-103.7,0.5c-61.3,12.8-100.7,48.9-116.5,109.9c-0.4,1.7-0.7,3.5-1.1,5.5c1.3-0.2,2-0.1,2.6-0.3
	c30.7-9.2,59.8-22,86.1-40.4c12.7-8.9,24.3-19.2,36.4-28.9c5.1-4.2,10.7-5.6,17-3.3c6.1,2.2,9.7,6.6,10.7,13
	c1.1,6.6-1.7,11.7-6.5,16.1c-35,32.5-75.4,55.9-120.6,71.2c-1.8,0.6-3.5,1.3-6.1,2.2c25.6,13.9,51.4,17.8,78.7,10.4
	c26.4-7.2,48.3-22,68.3-40.1c34.3-31,60.5-68.3,83.4-108.1C369.5,368.3,369.6,367.7,370.1,366.3z"/>
</svg>
