<?xml version="1.0" encoding="utf-8"?>
<!-- Generator: Adobe Illustrator 25.2.1, SVG Export Plug-In . SVG Version: 6.00 Build 0)  -->
<svg version="1.1" id="Camada_1" xmlns="http://www.w3.org/2000/svg" xmlns:xlink="http://www.w3.org/1999/xlink" x="0px" y="0px"
	 viewBox="0 0 571.3 566.8" style="enable-background:new 0 0 571.3 566.8;" xml:space="preserve">
<style type="text/css">
	.st0{fill:#54C076;}
</style>
<g>
	<g>
		<path class="st0" d="M275.7,413.6c-56.4,3.1-97.3-23.1-109.5-69.8c-2.9-11.2-2.9-23.5-2.8-35.2c0.2-14.9,3.6-28.6,25-28.9
			c-15-17.5-24.8-35.5-25.3-56.8c-1-44.7,3.4-48.7,47.2-47.6c6.9,0.2,13.8,2,19.8,2.9c0.9-15.2,0.4-30.5,3.2-45.3
			c4.7-25,20-43.4,41-57.6c9.1-6.1,16.7-5.3,25.2,0.8c33,23.5,46.3,55.3,41.5,95.2c-0.2,2-0.8,4-0.9,4.7c15.9,0,31-0.4,46.2,0.1
			c13,0.5,20,7,22.4,20.9c5.3,31-3.7,57.3-24,82.3c25.1,1.5,24.9,20,25.6,36.7c2.3,54.4-40.8,98.6-95.2,98.3c-4.8,0-9.7,0-16.8,0
			c0,17.6,0,35.5,0,53.3c0,5.7,1.4,12-0.5,17c-1.8,4.7-7.1,8.1-10.9,12c-3.7-4.1-10-8-10.5-12.4c-1.4-14-0.6-28.2-0.6-42.3
			C275.7,432.8,275.7,423.6,275.7,413.6z M315.2,287.6c41.3-0.1,76.4-36.7,73.5-76.6c-0.5-6.6-0.6-12.7-10.2-13.8
			c-41.9-4.8-81.6,29.8-81.9,72.2C296.5,287,297.2,287.6,315.2,287.6z M285.8,94.7c-45.7,30-45.7,91.3-0.4,122.4
			C330.6,191.2,331.2,126.2,285.8,94.7z M256.8,392.7c8.3-0.3,16.7,1,18-11.7c4.4-42.4-36.6-84.3-78.7-80.1
			c-8.6,0.9-12.1,4.3-12.7,13C180.3,354.5,216,393,256.8,392.7z M274.8,273.7c-0.1-43.4-38.2-79.3-78.1-75.8
			c-8.2,0.7-12.5,3.3-13.3,12.4c-3.7,41.6,34.7,81.2,76,78.5C270.9,288,276.6,283.8,274.8,273.7z M385.7,304.1
			c-48-9.5-92.1,27.7-88.6,74.9c0.5,6.3,0.9,11.7,9.4,13.1C353.2,400,399.1,349.2,385.7,304.1z"/>
		<path class="st0" d="M22.5,272.7c0.6,65.7,16.2,116.2,47.5,161.8c4.3,6.3,7.8,9.4,16.9,6.9c19-5.3,38.8,5.3,47.4,22.7
			c8.4,17,4,37.7-10.6,50.4c-14.7,12.8-34.2,14.2-50.1,3.6c-16.7-11.1-24.4-31.2-17.2-49.6c3-7.8,1.8-12.4-2.7-18.7
			C-69.5,277.8,30.7,35,239.1,2.3c32.1-5,65.7-0.4,98.6,0.4c8.7,0.2,18.2,3.8,16.2,14.6c-2.1,11.7-12.6,8.8-20.6,7.4
			C256,10.8,186,28.1,124.5,76.1C57.5,128.3,24.8,198.5,22.5,272.7z M96.4,461.8c-11.3-0.1-20.3,8.6-20.4,19.7
			c-0.1,11.2,8.6,19.9,20.1,20c11.2,0.1,20.4-8.7,20.4-19.7C116.6,470.8,107.5,461.9,96.4,461.8z"/>
		<path class="st0" d="M495.1,123.6c-26,6.4-43.2,1.3-54.7-15.9c-10.6-15.7-9-37.1,3.8-51.3c12.8-14.3,34.1-18.3,50.7-9.5
			c17.1,9,27.6,28.6,21.5,46.4c-4.3,12.7-0.4,20.7,6.2,30.5c114.3,171.5,17.1,403.3-185.4,440c-30.6,5.5-63,1.5-94.6,1.6
			c-8.6,0-16.9-2.4-15.3-13.3c1.7-11.8,11.7-9,19-8c42.2,5.8,83.4,2.8,123.7-11.1c165.9-57.1,231.6-255.2,132.5-399.1
			C500.4,130.6,497.9,127.5,495.1,123.6z M495.8,84.3c-0.2-11.1-9.3-19.8-20.5-19.7c-11.1,0.1-20,9.2-19.8,20.3
			c0.2,11.1,9.1,19.7,20.5,19.5C487.3,104.4,496,95.4,495.8,84.3z"/>
		<path class="st0" d="M404.1,27.6c-7.2,5.1-11.5,10.3-15.5,10.2c-3.7-0.1-7.3-6.1-10.9-9.5c3.5-3.7,6.7-9.8,10.6-10.3
			C392.2,17.6,396.7,22.8,404.1,27.6z"/>
		<path class="st0" d="M184.2,522.4c4.7,7.2,9.9,11.8,9,14.6c-1.3,4.3-6.4,9.2-10.6,10c-2.7,0.5-9.3-6.1-9.3-9.5
			C173.4,533.5,178.7,529.6,184.2,522.4z"/>
	</g>
</g>
<g>
</g>
<g>
</g>
<g>
</g>
<g>
</g>
<g>
</g>
<g>
</g>
<g>
</g>
<g>
</g>
<g>
</g>
<g>
</g>
<g>
</g>
<g>
</g>
<g>
</g>
<g>
</g>
<g>
</g>
</svg>
