<?xml version="1.0" encoding="utf-8"?>
<!-- Generator: Adobe Illustrator 24.1.2, SVG Export Plug-In . SVG Version: 6.00 Build 0)  -->
<svg version="1.1" id="Camada_1" xmlns="http://www.w3.org/2000/svg" xmlns:xlink="http://www.w3.org/1999/xlink" x="0px" y="0px"
	 viewBox="0 0 500.4 609.6" style="enable-background:new 0 0 500.4 609.6;" xml:space="preserve">
<style type="text/css">
	.st0{fill:#54C076;}
</style>
<path class="st0" d="M-0.3,304.9C-0.3,136.5,136.6-0.4,305-0.2c168.5,0.2,305.1,137,304.9,305.4C609.7,473.3,473.2,609.8,305,610
	C136.7,610.1-0.3,473.2-0.3,304.9z M21.1,309.8c95.5-33.5,186.2-23.8,272.8,28.1c0-24.9,0-49.1,0-73.3c-7.9-1.1-15.5-1.9-23-3.3
	c-31.8-6-59.1-19.2-76-48.5c-13.5-23.4-18.3-49-17.8-75.7c0.1-7.1,4-11.2,11.2-10.9c11.1,0.4,22.4,0.9,33.3,2.9
	c30.6,5.6,56.9,18.7,74.3,45.9c0.1,0.2,0.7,0.2,1.5,0.3c0.3-1.2,0.6-2.4,0.9-3.6c5.4-22.3,14.1-43,31.9-58.4
	c26.5-22.9,58.5-29.5,92.4-29.1c6.1,0.1,9.9,4.5,9.7,11c-0.5,11.1-0.8,22.4-2.8,33.3c-7.5,42.3-29.6,73.1-72.1,86.1
	c-13.5,4.1-27.6,6-41.8,8.9c0,37.5,0,75.6,0,114.9c41.3-26,85.5-41.5,133.2-46.4c47.8-5,94.3,1.3,139.5,18.1
	C593,163.3,474.5,23,308.2,21C142.1,19,17.2,156.9,21.1,309.8z M366.6,582.7c12.5-3.9,24.6-7.4,36.6-11.4c9.2-3.1,9.3-3.4,7.9-12.8
	c-11-76.3-46.1-139.1-106.8-186.8c-61.1-48-130.9-67-208.1-58.7c-23.8,2.6-46.9,8.6-69.2,17.4c-1.9,0.8-4.5,3.3-4.4,5
	c0.2,5.8,1.5,11.6,2.3,17.5c78.1-10.2,149.8,5.2,214.8,48.7C304.8,445.2,346.3,506,366.6,582.7z M29,374.7
	c3.5,10.7,7.1,21.1,10.4,31.7c1.2,3.7,3.3,4.8,7.1,5.3c47.5,5.7,91.5,21.5,131.4,47.9c47.4,31.3,83.4,72.5,108.1,123.6
	c1.1,2.2,3.7,5.3,5.5,5.3c17.8-0.1,35.6-0.7,53.8-1.2C307.8,433.3,156.8,352.6,29,374.7z M584.8,353c0.7-4.7,0.7-9,1.9-12.9
	c1.9-6.4-0.7-8.6-6.5-10.7c-84.4-29.8-165.5-23-243.5,21c-4.7,2.6-9.1,5.6-11.6,7.2c14.8,14.7,29.3,29.2,44.4,44.1
	C433.1,359.3,505.4,342.6,584.8,353z M263.2,584.8c-23.7-45.7-56.9-82.2-99.9-109.7c-33.9-21.7-70.6-35.5-111.1-41.5
	C94.8,521.2,186.6,577.4,263.2,584.8z M581,373.6c-74-9.1-140.5,6.2-200.7,46.1c10.5,18.9,20.4,36.8,30.3,54.6
	c0.3-0.1,0.5-0.2,0.7-0.3c45.4-35,96.4-56.2,153.5-62.7c1.5-0.2,3.7-1.2,4.1-2.4C573,397.5,576.8,385.9,581,373.6z M558.2,433.2
	c-6.8,1.2-11.9,2.1-17,3.1c-44.3,9.1-84.1,27.9-119.4,56.1c-3,2.4-3.8,4.4-2.5,8.2c2.9,8.7,5.4,17.6,7.5,26.5
	c2.3,10.1,3.9,20.4,6,31.2C487.5,529.9,528.8,488.9,558.2,433.2z M316.1,200.3c50.2,5.7,102-46.2,94.5-94.7
	C352.8,108.2,318.1,138.4,316.1,200.3z M293.7,242.6c-1-57.8-44.5-100.9-94.9-94.6C200.6,208.6,234.4,240.5,293.7,242.6z"/>
<g>
</g>
<g>
</g>
<g>
</g>
<g>
</g>
<g>
</g>
<g>
</g>
<g>
</g>
<g>
</g>
<g>
</g>
<g>
</g>
<g>
</g>
</svg>
