<?xml version="1.0" encoding="utf-8"?>
<!-- Generator: Adobe Illustrator 25.2.1, SVG Export Plug-In . SVG Version: 6.00 Build 0)  -->
<svg version="1.1" id="Camada_1" xmlns="http://www.w3.org/2000/svg" xmlns:xlink="http://www.w3.org/1999/xlink" x="0px" y="0px"
	 viewBox="0 0 610.2 610.2" style="enable-background:new 0 0 610.2 610.2;" xml:space="preserve">
<style type="text/css">
	.st0{fill:#54C076;}
</style>
<path class="st0" d="M0,305.1C0,136.7,136.9-0.2,305.3,0c168.5,0.2,305.1,137,304.9,305.4C610,473.6,473.4,610,305.3,610.2
	C137,610.3,0,473.4,0,305.1z M21.4,310c95.5-33.5,186.2-23.8,272.8,28.1c0-24.9,0-49.1,0-73.3c-7.9-1.1-15.5-1.9-23-3.3
	c-31.8-6-59.1-19.2-76-48.5c-13.5-23.4-18.3-49-17.8-75.7c0.1-7.1,4-11.2,11.2-10.9c11.1,0.4,22.4,0.9,33.3,2.9
	c30.6,5.6,56.9,18.7,74.3,45.9c0.1,0.2,0.7,0.2,1.5,0.3c0.3-1.2,0.6-2.4,0.9-3.6c5.4-22.3,14.1-43,31.9-58.4
	C357.1,90.6,389,84,423,84.4c6.1,0.1,9.9,4.5,9.7,11c-0.5,11.1-0.8,22.4-2.8,33.3c-7.5,42.3-29.6,73.1-72.1,86.1
	c-13.5,4.1-27.6,6-41.8,8.9c0,37.5,0,75.6,0,114.9c41.3-26,85.5-41.5,133.2-46.4c47.8-5,94.3,1.3,139.5,18.1
	c4.6-146.8-113.9-287-280.2-289C142.4,19.2,17.5,157.1,21.4,310z M366.8,582.9c12.5-3.9,24.6-7.4,36.6-11.4
	c9.2-3.1,9.3-3.4,7.9-12.8c-11-76.3-46.1-139.1-106.8-186.8c-61.1-48-130.9-67-208.1-58.7c-23.8,2.6-46.9,8.6-69.2,17.4
	c-1.9,0.8-4.5,3.3-4.4,5c0.2,5.8,1.5,11.6,2.3,17.5c78.1-10.2,149.8,5.2,214.8,48.7C305.1,445.5,346.6,506.3,366.8,582.9z
	 M29.3,374.9c3.5,10.7,7.1,21.1,10.4,31.7c1.2,3.7,3.3,4.8,7.1,5.3c47.5,5.7,91.5,21.5,131.4,47.9c47.4,31.3,83.4,72.5,108.1,123.6
	c1.1,2.2,3.7,5.3,5.5,5.3c17.8-0.1,35.6-0.7,53.8-1.2C308.1,433.6,157.1,352.8,29.3,374.9z M585.1,353.2c0.7-4.7,0.7-9,1.9-12.9
	c1.9-6.4-0.7-8.6-6.5-10.7c-84.4-29.8-165.5-23-243.5,21c-4.7,2.6-9.1,5.6-11.6,7.2c14.8,14.7,29.3,29.2,44.4,44.1
	C433.4,359.6,505.7,342.9,585.1,353.2z M263.5,585c-23.7-45.7-56.9-82.2-99.9-109.7c-33.9-21.7-70.6-35.5-111.1-41.5
	C95,521.4,186.9,577.6,263.5,585z M581.3,373.8c-74-9.1-140.5,6.2-200.7,46.1c10.5,18.9,20.4,36.8,30.3,54.6
	c0.3-0.1,0.5-0.2,0.7-0.3c45.4-35,96.4-56.2,153.5-62.7c1.5-0.2,3.7-1.2,4.1-2.4C573.3,397.7,577.1,386.2,581.3,373.8z M558.5,433.5
	c-6.8,1.2-11.9,2.1-17,3.1c-44.3,9.1-84.1,27.9-119.4,56.1c-3,2.4-3.8,4.4-2.5,8.2c2.9,8.7,5.4,17.6,7.5,26.5
	c2.3,10.1,3.9,20.4,6,31.2C487.8,530.2,529.1,489.1,558.5,433.5z M316.4,200.5c50.2,5.7,102-46.2,94.5-94.7
	C353,108.4,318.3,138.7,316.4,200.5z M294,242.8c-1-57.8-44.5-100.9-94.9-94.6C200.9,208.8,234.7,240.7,294,242.8z"/>
<g>
</g>
<g>
</g>
<g>
</g>
<g>
</g>
<g>
</g>
<g>
</g>
<g>
</g>
<g>
</g>
<g>
</g>
<g>
</g>
<g>
</g>
<g>
</g>
<g>
</g>
<g>
</g>
<g>
</g>
</svg>
