<?xml version="1.0" encoding="utf-8"?>
<!-- Generator: Adobe Illustrator 24.1.2, SVG Export Plug-In . SVG Version: 6.00 Build 0)  -->
<svg version="1.1" id="Camada_1" xmlns="http://www.w3.org/2000/svg" xmlns:xlink="http://www.w3.org/1999/xlink" x="0px" y="0px"
	 viewBox="0 0 364 633" style="enable-background:new 0 0 364 633;" xml:space="preserve">
<style type="text/css">
	.st0{fill:#54C076;}
</style>
<path class="st0" d="M0.4,319.7c0-168.4,136.9-305.2,305.3-305.1c168.5,0.2,305.1,137,304.9,305.4
	c-0.2,168.2-136.7,304.6-304.9,304.8C137.4,625,0.4,488.1,0.4,319.7z M21.8,324.7c95.5-33.5,186.2-23.8,272.8,28.1
	c0-24.9,0-49.1,0-73.3c-7.9-1.1-15.5-1.9-23-3.3c-31.8-6-59.1-19.2-76-48.5c-13.5-23.4-18.3-49-17.8-75.7c0.1-7.1,4-11.2,11.2-10.9
	c11.1,0.4,22.4,0.9,33.3,2.9c30.6,5.6,56.9,18.7,74.3,45.9c0.1,0.2,0.7,0.2,1.5,0.3c0.3-1.2,0.6-2.4,0.9-3.6
	c5.4-22.3,14.1-43,31.9-58.4c26.5-22.9,58.5-29.5,92.4-29.1c6.1,0.1,9.9,4.5,9.7,11c-0.5,11.1-0.8,22.4-2.8,33.3
	c-7.5,42.3-29.6,73.1-72.1,86.1c-13.5,4.1-27.6,6-41.8,8.9c0,37.5,0,75.6,0,114.9c41.3-26,85.5-41.5,133.2-46.4
	c47.8-5,94.3,1.3,139.5,18.1c4.6-146.8-113.9-287-280.2-289C142.9,33.9,17.9,171.8,21.8,324.7z M367.3,597.6
	c12.5-3.9,24.6-7.4,36.6-11.4c9.2-3.1,9.3-3.4,7.9-12.8c-11-76.3-46.1-139.1-106.8-186.8c-61.1-48-130.9-67-208.1-58.7
	c-23.8,2.6-46.9,8.6-69.2,17.4c-1.9,0.8-4.5,3.3-4.4,5c0.2,5.8,1.5,11.6,2.3,17.5c78.1-10.2,149.8,5.2,214.8,48.7
	C305.5,460.1,347,520.9,367.3,597.6z M29.7,389.5c3.5,10.7,7.1,21.1,10.4,31.7c1.2,3.7,3.3,4.8,7.1,5.3
	c47.5,5.7,91.5,21.5,131.4,47.9C226,505.6,262,546.9,286.7,598c1.1,2.2,3.7,5.3,5.5,5.3c17.8-0.1,35.6-0.7,53.8-1.2
	C308.5,448.2,157.5,367.4,29.7,389.5z M585.5,367.8c0.7-4.7,0.7-9,1.9-12.9c1.9-6.4-0.7-8.6-6.5-10.7c-84.4-29.8-165.5-23-243.5,21
	c-4.7,2.6-9.1,5.6-11.6,7.2c14.8,14.7,29.3,29.2,44.4,44.1C433.9,374.2,506.2,357.5,585.5,367.8z M263.9,599.7
	C240.2,553.9,207,517.5,164,490c-33.9-21.7-70.6-35.5-111.1-41.5C95.5,536,187.3,592.3,263.9,599.7z M581.8,388.5
	c-74-9.1-140.5,6.2-200.7,46.1c10.5,18.9,20.4,36.8,30.3,54.6c0.3-0.1,0.5-0.2,0.7-0.3c45.4-35,96.4-56.2,153.5-62.7
	c1.5-0.2,3.7-1.2,4.1-2.4C573.8,412.3,577.6,400.8,581.8,388.5z M558.9,448.1c-6.8,1.2-11.9,2.1-17,3.1
	c-44.3,9.1-84.1,27.9-119.4,56.1c-3,2.4-3.8,4.4-2.5,8.2c2.9,8.7,5.4,17.6,7.5,26.5c2.3,10.1,3.9,20.4,6,31.2
	C488.3,544.8,529.6,503.7,558.9,448.1z M316.8,215.2c50.2,5.7,102-46.2,94.5-94.7C353.5,123,318.8,153.3,316.8,215.2z M294.4,257.5
	c-1-57.8-44.5-100.9-94.9-94.6C201.4,223.4,235.1,255.3,294.4,257.5z"/>
<g>
</g>
<g>
</g>
<g>
</g>
<g>
</g>
<g>
</g>
<g>
</g>
<g>
</g>
<g>
</g>
<g>
</g>
<g>
</g>
<g>
</g>
</svg>
