<?xml version="1.0" encoding="utf-8"?>
<!-- Generator: Adobe Illustrator 24.1.2, SVG Export Plug-In . SVG Version: 6.00 Build 0)  -->
<svg version="1.1" id="Camada_1" xmlns="http://www.w3.org/2000/svg" xmlns:xlink="http://www.w3.org/1999/xlink" x="0px" y="0px"
	 viewBox="0 0 341.4 576.6" style="enable-background:new 0 0 341.4 576.6;" xml:space="preserve">
<style type="text/css">
	.st0{fill:#54C076;}
</style>
<g>
	<g>
		<path class="st0" d="M278,418.1c-56.4,3.1-97.3-23.1-109.5-69.8c-2.9-11.2-2.9-23.5-2.8-35.2c0.2-14.9,3.6-28.6,25-28.9
			c-15-17.5-24.8-35.5-25.3-56.8c-1-44.7,3.4-48.7,47.2-47.6c6.9,0.2,13.8,2,19.8,2.9c0.9-15.2,0.4-30.5,3.2-45.3
			c4.7-25,20-43.4,41-57.6c9.1-6.1,16.7-5.3,25.2,0.8c33,23.5,46.3,55.3,41.5,95.2c-0.2,2-0.8,4-0.9,4.7c15.9,0,31-0.4,46.2,0.1
			c13,0.5,20,7,22.4,20.9c5.3,31-3.7,57.3-24,82.3c25.1,1.5,24.9,20,25.6,36.7c2.3,54.4-40.8,98.6-95.2,98.3c-4.8,0-9.7,0-16.8,0
			c0,17.6,0,35.5,0,53.3c0,5.7,1.4,12-0.5,17c-1.8,4.7-7.1,8.1-10.9,12c-3.7-4.1-10-8-10.5-12.4c-1.4-14-0.6-28.2-0.6-42.3
			C278,437.3,278,428.1,278,418.1z M317.5,292.1c41.3-0.1,76.4-36.7,73.5-76.6c-0.5-6.6-0.6-12.7-10.2-13.8
			c-41.9-4.8-81.6,29.8-81.9,72.2C298.8,291.5,299.5,292.1,317.5,292.1z M288.1,99.2c-45.7,30-45.7,91.3-0.4,122.4
			C332.9,195.7,333.5,130.7,288.1,99.2z M259.1,397.2c8.3-0.3,16.7,1,18-11.7c4.4-42.4-36.6-84.3-78.7-80.1
			c-8.6,0.9-12.1,4.3-12.7,13C182.6,359,218.3,397.5,259.1,397.2z M277.1,278.1c-0.1-43.4-38.2-79.3-78.1-75.8
			c-8.2,0.7-12.5,3.3-13.3,12.4c-3.7,41.6,34.7,81.2,76,78.5C273.2,292.5,279,288.3,277.1,278.1z M388,308.6
			c-48-9.5-92.1,27.7-88.6,74.9c0.5,6.3,0.9,11.7,9.4,13.1C355.5,404.5,401.4,353.7,388,308.6z"/>
		<path class="st0" d="M24.8,277.1C25.4,342.8,41,393.3,72.3,439c4.3,6.3,7.8,9.4,16.9,6.9c19-5.3,38.8,5.3,47.4,22.7
			c8.4,17,4,37.7-10.6,50.4c-14.7,12.8-34.2,14.2-50.1,3.6c-16.7-11.1-24.4-31.2-17.2-49.6c3-7.8,1.8-12.4-2.7-18.7
			C-67.1,282.3,33,39.5,241.5,6.8c32.1-5,65.7-0.4,98.6,0.4c8.7,0.2,18.2,3.8,16.2,14.6c-2.1,11.7-12.6,8.8-20.6,7.4
			c-77.3-13.9-147.3,3.5-208.8,51.4C59.9,132.8,27.2,203,24.8,277.1z M98.7,466.3c-11.3-0.1-20.3,8.6-20.4,19.7
			c-0.1,11.2,8.6,19.9,20.1,20c11.2,0.1,20.4-8.7,20.4-19.7C118.9,475.3,109.9,466.3,98.7,466.3z"/>
		<path class="st0" d="M497.4,128.1c-26,6.4-43.2,1.3-54.7-15.9c-10.6-15.7-9-37.1,3.8-51.3c12.8-14.3,34.1-18.3,50.7-9.5
			c17.1,9,27.6,28.6,21.5,46.4c-4.3,12.7-0.4,20.7,6.2,30.5c114.3,171.5,17.1,403.3-185.4,440c-30.6,5.5-63,1.5-94.6,1.6
			c-8.6,0-16.9-2.4-15.3-13.3c1.7-11.8,11.7-9,19-8c42.2,5.8,83.4,2.8,123.7-11.1C538.3,480.4,604,282.3,504.9,138.3
			C502.7,135.1,500.3,132,497.4,128.1z M498.1,88.8c-0.2-11.1-9.3-19.8-20.5-19.7c-11.1,0.1-20,9.2-19.8,20.3
			c0.2,11.1,9.1,19.7,20.5,19.5C489.6,108.9,498.3,99.9,498.1,88.8z"/>
		<path class="st0" d="M406.4,32c-7.2,5.1-11.5,10.3-15.5,10.2c-3.7-0.1-7.3-6.1-10.9-9.5c3.5-3.7,6.7-9.8,10.6-10.3
			C394.5,22.1,399,27.3,406.4,32z"/>
		<path class="st0" d="M186.6,526.9c4.7,7.2,9.9,11.8,9,14.6c-1.3,4.3-6.4,9.2-10.6,10c-2.7,0.5-9.3-6.1-9.3-9.5
			C175.7,538,181,534,186.6,526.9z"/>
	</g>
</g>
<g>
</g>
<g>
</g>
<g>
</g>
<g>
</g>
<g>
</g>
<g>
</g>
<g>
</g>
<g>
</g>
<g>
</g>
<g>
</g>
<g>
</g>
</svg>
