<?xml version="1.0" encoding="utf-8"?>
<!-- Generator: Adobe Illustrator 25.2.1, SVG Export Plug-In . SVG Version: 6.00 Build 0)  -->
<svg version="1.1" id="Camada_1" xmlns="http://www.w3.org/2000/svg" xmlns:xlink="http://www.w3.org/1999/xlink" x="0px" y="0px"
	 viewBox="0 0 1661.2 666.9" style="enable-background:new 0 0 1661.2 666.9;" xml:space="preserve">
<style type="text/css">
	.st0{fill:url(#SVGID_1_);}
	.st1{fill:url(#SVGID_2_);}
	.st2{fill:url(#SVGID_3_);}
	.st3{fill:url(#SVGID_4_);}
	.st4{fill:url(#SVGID_5_);}
	.st5{fill:url(#SVGID_6_);}
	.st6{fill:url(#SVGID_7_);}
	.st7{fill:url(#SVGID_8_);}
	.st8{fill:url(#SVGID_9_);}
	.st9{fill:url(#SVGID_10_);}
	.st10{fill:url(#SVGID_11_);}
	.st11{fill:url(#SVGID_12_);}
	.st12{fill:url(#SVGID_13_);}
	.st13{fill:url(#SVGID_14_);}
	.st14{fill:url(#SVGID_15_);}
	.st15{fill:url(#SVGID_16_);}
	.st16{fill:url(#SVGID_17_);}
	.st17{fill:url(#SVGID_18_);}
	.st18{fill:url(#SVGID_19_);}
	.st19{fill:url(#SVGID_20_);}
	.st20{fill:url(#SVGID_21_);}
	.st21{fill:url(#SVGID_22_);}
	.st22{fill:url(#SVGID_23_);}
	.st23{fill:url(#SVGID_24_);}
	.st24{fill:url(#SVGID_25_);}
	.st25{fill:url(#SVGID_26_);}
	.st26{fill:url(#SVGID_27_);}
	.st27{fill:url(#SVGID_28_);}
	.st28{fill:url(#SVGID_29_);}
	.st29{fill:url(#SVGID_30_);}
	.st30{fill:url(#SVGID_31_);}
	.st31{fill:url(#SVGID_32_);}
	.st32{fill:url(#SVGID_33_);}
	.st33{fill:url(#SVGID_34_);}
</style>
<g>
	<g>
		<path d="M759.8,46.7V8.2h16.7c3.4,0,6.4,0.6,8.9,1.7c2.5,1.1,4.4,2.7,5.8,4.8c1.4,2.1,2,4.6,2,7.5c0,2.9-0.7,5.3-2,7.4
			c-1.4,2.1-3.3,3.7-5.8,4.8s-5.5,1.6-8.9,1.6h-11.7l4-3.9v14.6H759.8z M768.7,33.1l-4-4.2H776c2.8,0,4.8-0.6,6.2-1.8
			c1.4-1.2,2-2.8,2-4.9c0-2.1-0.7-3.8-2-5c-1.4-1.2-3.4-1.8-6.2-1.8h-11.2l4-4.2V33.1z M784.3,46.7l-9.6-14h9.5l9.7,14H784.3z"/>
		<path d="M813.7,47.2c-3.2,0-5.9-0.7-8.4-2s-4.4-3.1-5.8-5.4c-1.4-2.3-2.1-4.9-2.1-7.8c0-3,0.7-5.6,2.1-7.9
			c1.4-2.3,3.3-4.1,5.8-5.4c2.4-1.3,5.2-2,8.4-2c3.1,0,5.9,0.7,8.4,2c2.5,1.3,4.4,3.1,5.8,5.4c1.4,2.3,2.1,4.9,2.1,7.9
			c0,2.9-0.7,5.5-2.1,7.8c-1.4,2.3-3.3,4.1-5.8,5.4C819.6,46.5,816.8,47.2,813.7,47.2z M813.7,40.1c1.4,0,2.7-0.3,3.8-1
			c1.1-0.7,2-1.6,2.7-2.8s1-2.7,1-4.4c0-1.7-0.3-3.2-1-4.4s-1.6-2.1-2.7-2.8s-2.4-1-3.8-1s-2.7,0.3-3.8,1c-1.1,0.7-2,1.6-2.7,2.8
			c-0.7,1.2-1,2.7-1,4.4c0,1.7,0.3,3.1,1,4.4c0.7,1.2,1.6,2.2,2.7,2.8C811,39.8,812.3,40.1,813.7,40.1z"/>
		<path d="M832.1,24.4v-6.6h20.5v6.6H832.1z M847.8,47.2c-3.5,0-6.2-0.9-8.1-2.7c-1.9-1.8-2.9-4.4-2.9-7.9v-26h8.6v25.9
			c0,1.2,0.3,2.2,1,2.9c0.7,0.7,1.6,1,2.7,1c1.4,0,2.5-0.4,3.5-1.1l2.3,6c-0.9,0.6-1.9,1.1-3.2,1.4C850.4,47,849.1,47.2,847.8,47.2z
			"/>
		<path d="M868.7,47.2c-2.3,0-4.3-0.4-5.9-1.2c-1.7-0.8-2.9-1.9-3.8-3.2c-0.9-1.4-1.3-2.9-1.3-4.6c0-1.8,0.4-3.3,1.3-4.6
			s2.2-2.4,4.1-3.1c1.9-0.8,4.3-1.1,7.3-1.1h7.9v5h-6.9c-2,0-3.4,0.3-4.2,1c-0.8,0.7-1.1,1.5-1.1,2.5c0,1.1,0.4,2,1.3,2.6
			c0.9,0.6,2,1,3.5,1c1.4,0,2.7-0.3,3.8-1c1.1-0.7,2-1.7,2.5-3l1.3,4c-0.6,1.9-1.8,3.4-3.4,4.3C873.4,46.7,871.3,47.2,868.7,47.2z
			 M877.7,46.7V41l-0.6-1.3V29.4c0-1.8-0.6-3.3-1.7-4.3c-1.1-1-2.8-1.5-5.1-1.5c-1.6,0-3.1,0.2-4.6,0.7c-1.5,0.5-2.8,1.2-3.9,2
			l-3.1-6c1.6-1.1,3.6-2,5.8-2.6c2.3-0.6,4.6-0.9,6.9-0.9c4.5,0,8,1.1,10.5,3.2c2.5,2.1,3.7,5.4,3.7,10v16.9H877.7z"/>
		<path d="M913.2,46.7V11.5l3.8,3.8h-11.5V8.2h16.6v38.5H913.2z"/>
	</g>
</g>
<g>
	<g>
		<path d="M4.6,478v-38.5h16.7c3.4,0,6.4,0.6,8.9,1.7c2.5,1.1,4.4,2.7,5.8,4.8c1.4,2.1,2,4.6,2,7.5c0,2.9-0.7,5.3-2,7.4
			c-1.4,2.1-3.3,3.7-5.8,4.8c-2.5,1.1-5.5,1.6-8.9,1.6H9.5l4-3.9V478H4.6z M13.5,464.4l-4-4.2h11.2c2.8,0,4.8-0.6,6.2-1.8
			s2-2.8,2-4.9c0-2.1-0.7-3.8-2-5c-1.4-1.2-3.4-1.8-6.2-1.8H9.5l4-4.2V464.4z M29,478l-9.6-14h9.5l9.7,14H29z"/>
		<path d="M58.5,478.5c-3.2,0-5.9-0.7-8.4-2c-2.4-1.3-4.4-3.1-5.8-5.4c-1.4-2.3-2.1-4.9-2.1-7.8c0-3,0.7-5.6,2.1-7.9
			c1.4-2.3,3.3-4.1,5.8-5.4c2.4-1.3,5.2-2,8.4-2c3.1,0,5.9,0.7,8.4,2c2.5,1.3,4.4,3.1,5.8,5.4c1.4,2.3,2.1,4.9,2.1,7.9
			c0,2.9-0.7,5.5-2.1,7.8c-1.4,2.3-3.3,4.1-5.8,5.4C64.4,477.8,61.6,478.5,58.5,478.5z M58.5,471.4c1.4,0,2.7-0.3,3.8-1
			c1.1-0.7,2-1.6,2.7-2.8s1-2.7,1-4.4c0-1.7-0.3-3.2-1-4.4s-1.6-2.1-2.7-2.8c-1.1-0.7-2.4-1-3.8-1s-2.7,0.3-3.8,1
			c-1.1,0.7-2,1.6-2.7,2.8c-0.7,1.2-1,2.7-1,4.4c0,1.7,0.3,3.1,1,4.4c0.7,1.2,1.6,2.2,2.7,2.8C55.8,471.1,57,471.4,58.5,471.4z"/>
		<path d="M76.9,455.7v-6.6h20.5v6.6H76.9z M92.5,478.5c-3.5,0-6.2-0.9-8.1-2.7c-1.9-1.8-2.9-4.4-2.9-7.9v-26H90v25.9
			c0,1.2,0.3,2.2,1,2.9c0.7,0.7,1.6,1,2.7,1c1.4,0,2.5-0.4,3.5-1.1l2.3,6c-0.9,0.6-1.9,1.1-3.2,1.4
			C95.1,478.3,93.8,478.5,92.5,478.5z"/>
		<path d="M113.5,478.5c-2.3,0-4.3-0.4-5.9-1.2c-1.7-0.8-2.9-1.9-3.8-3.2c-0.9-1.4-1.3-2.9-1.3-4.6c0-1.8,0.4-3.3,1.3-4.6
			s2.2-2.4,4.1-3.1c1.9-0.8,4.3-1.1,7.3-1.1h7.9v5H116c-2,0-3.4,0.3-4.2,1c-0.8,0.7-1.1,1.5-1.1,2.5c0,1.1,0.4,2,1.3,2.6
			c0.9,0.6,2,1,3.5,1c1.4,0,2.7-0.3,3.8-1c1.1-0.7,2-1.7,2.5-3l1.3,4c-0.6,1.9-1.8,3.4-3.4,4.3C118.2,478,116.1,478.5,113.5,478.5z
			 M122.5,478v-5.8l-0.6-1.3v-10.3c0-1.8-0.6-3.3-1.7-4.3c-1.1-1-2.8-1.5-5.1-1.5c-1.6,0-3.1,0.2-4.6,0.7c-1.5,0.5-2.8,1.2-3.9,2
			l-3.1-6c1.6-1.1,3.6-2,5.8-2.6c2.3-0.6,4.6-0.9,6.9-0.9c4.5,0,8,1.1,10.5,3.2c2.5,2.1,3.7,5.4,3.7,10V478H122.5z"/>
		<path d="M151.7,478v-5.8l14.8-14c1.2-1.1,2-2,2.6-2.9s0.9-1.6,1.1-2.3c0.2-0.7,0.3-1.3,0.3-1.9c0-1.5-0.5-2.7-1.6-3.5
			c-1-0.8-2.6-1.2-4.6-1.2c-1.6,0-3.1,0.3-4.5,0.9c-1.4,0.6-2.5,1.6-3.5,2.9l-6.5-4.2c1.5-2.2,3.5-3.9,6.2-5.2
			c2.6-1.3,5.7-1.9,9.1-1.9c2.9,0,5.4,0.5,7.5,1.4c2.1,0.9,3.8,2.2,5,3.9s1.8,3.7,1.8,6c0,1.2-0.2,2.5-0.5,3.7
			c-0.3,1.2-0.9,2.5-1.9,3.9c-0.9,1.4-2.3,2.9-4.1,4.6L160.8,474l-1.7-3.2h21.7v7.3H151.7z"/>
	</g>
</g>
<g>
	<g>
		<path d="M1483.3,478v-38.5h16.7c3.4,0,6.4,0.6,8.9,1.7c2.5,1.1,4.4,2.7,5.8,4.8c1.4,2.1,2,4.6,2,7.5c0,2.9-0.7,5.3-2,7.4
			c-1.4,2.1-3.3,3.7-5.8,4.8c-2.5,1.1-5.5,1.6-8.9,1.6h-11.7l4-3.9V478H1483.3z M1492.2,464.4l-4-4.2h11.2c2.8,0,4.8-0.6,6.2-1.8
			s2-2.8,2-4.9c0-2.1-0.7-3.8-2-5c-1.4-1.2-3.4-1.8-6.2-1.8h-11.2l4-4.2V464.4z M1507.8,478l-9.6-14h9.5l9.7,14H1507.8z"/>
		<path d="M1537.2,478.5c-3.2,0-5.9-0.7-8.4-2c-2.4-1.3-4.4-3.1-5.8-5.4c-1.4-2.3-2.1-4.9-2.1-7.8c0-3,0.7-5.6,2.1-7.9
			c1.4-2.3,3.3-4.1,5.8-5.4c2.4-1.3,5.2-2,8.4-2c3.1,0,5.9,0.7,8.4,2c2.5,1.3,4.4,3.1,5.8,5.4c1.4,2.3,2.1,4.9,2.1,7.9
			c0,2.9-0.7,5.5-2.1,7.8c-1.4,2.3-3.3,4.1-5.8,5.4C1543.1,477.8,1540.3,478.5,1537.2,478.5z M1537.2,471.4c1.4,0,2.7-0.3,3.8-1
			c1.1-0.7,2-1.6,2.7-2.8s1-2.7,1-4.4c0-1.7-0.3-3.2-1-4.4s-1.6-2.1-2.7-2.8c-1.1-0.7-2.4-1-3.8-1s-2.7,0.3-3.8,1
			c-1.1,0.7-2,1.6-2.7,2.8c-0.7,1.2-1,2.7-1,4.4c0,1.7,0.3,3.1,1,4.4c0.7,1.2,1.6,2.2,2.7,2.8
			C1534.5,471.1,1535.8,471.4,1537.2,471.4z"/>
		<path d="M1555.7,455.7v-6.6h20.5v6.6H1555.7z M1571.3,478.5c-3.5,0-6.2-0.9-8.1-2.7c-1.9-1.8-2.9-4.4-2.9-7.9v-26h8.6v25.9
			c0,1.2,0.3,2.2,1,2.9c0.7,0.7,1.6,1,2.7,1c1.4,0,2.5-0.4,3.5-1.1l2.3,6c-0.9,0.6-1.9,1.1-3.2,1.4
			C1573.9,478.3,1572.6,478.5,1571.3,478.5z"/>
		<path d="M1592.2,478.5c-2.3,0-4.3-0.4-5.9-1.2c-1.7-0.8-2.9-1.9-3.8-3.2c-0.9-1.4-1.3-2.9-1.3-4.6c0-1.8,0.4-3.3,1.3-4.6
			s2.2-2.4,4.1-3.1c1.9-0.8,4.3-1.1,7.3-1.1h7.9v5h-6.9c-2,0-3.4,0.3-4.2,1c-0.8,0.7-1.1,1.5-1.1,2.5c0,1.1,0.4,2,1.3,2.6
			c0.9,0.6,2,1,3.5,1c1.4,0,2.7-0.3,3.8-1c1.1-0.7,2-1.7,2.5-3l1.3,4c-0.6,1.9-1.8,3.4-3.4,4.3C1597,478,1594.8,478.5,1592.2,478.5z
			 M1601.3,478v-5.8l-0.6-1.3v-10.3c0-1.8-0.6-3.3-1.7-4.3c-1.1-1-2.8-1.5-5.1-1.5c-1.6,0-3.1,0.2-4.6,0.7c-1.5,0.5-2.8,1.2-3.9,2
			l-3.1-6c1.6-1.1,3.6-2,5.8-2.6c2.3-0.6,4.6-0.9,6.9-0.9c4.5,0,8,1.1,10.5,3.2c2.5,2.1,3.7,5.4,3.7,10V478H1601.3z"/>
		<path d="M1643.3,478.7c-2.7,0-5.3-0.4-8-1.1c-2.6-0.7-4.9-1.7-6.7-3.1l3.5-6.8c1.5,1.1,3.2,1.9,5.1,2.5c1.9,0.6,3.9,0.9,5.9,0.9
			c2.2,0,4-0.4,5.3-1.3c1.3-0.9,1.9-2.1,1.9-3.6c0-1.5-0.6-2.6-1.7-3.5c-1.1-0.8-3-1.3-5.5-1.3h-4.1v-5.9l10.7-12.2l1,3.2h-20.2
			v-7.1h27v5.8l-10.7,12.2l-4.5-2.6h2.6c4.7,0,8.3,1.1,10.7,3.2c2.4,2.1,3.6,4.9,3.6,8.2c0,2.2-0.6,4.2-1.7,6.1
			c-1.1,1.9-2.9,3.4-5.2,4.6C1649.9,478.1,1646.9,478.7,1643.3,478.7z"/>
	</g>
</g>
<g>
	<g>
		<g>
			<linearGradient id="SVGID_1_" gradientUnits="userSpaceOnUse" x1="684.7969" y1="591.551" x2="737.4223" y2="591.551">
				<stop  offset="0" style="stop-color:#80D494"/>
				<stop  offset="0.9637" style="stop-color:#54C076"/>
			</linearGradient>
			<path class="st0" d="M705.7,555.7c0,0,22.8,38.1-20.9,71.7C684.8,627.4,787.7,588.3,705.7,555.7z"/>
			<linearGradient id="SVGID_2_" gradientUnits="userSpaceOnUse" x1="711.1096" y1="586.4224" x2="711.1096" y2="548.3193">
				<stop  offset="0" style="stop-color:#80D494"/>
				<stop  offset="0.9637" style="stop-color:#54C076"/>
			</linearGradient>
			<path class="st1" d="M705.7,555.7c0,0,22.8,38.1-20.9,71.7C684.8,627.4,787.7,588.3,705.7,555.7z"/>
			<linearGradient id="SVGID_3_" gradientUnits="userSpaceOnUse" x1="488.6927" y1="570.2357" x2="655.5341" y2="570.2357">
				<stop  offset="0" style="stop-color:#80D494"/>
				<stop  offset="0.9637" style="stop-color:#54C076"/>
			</linearGradient>
			<path class="st2" d="M480.1,514.9l1.3,16.1c1.6-0.1,160.1-12.8,232.4,30.6c0,0,5.3,3.3,8.4,6.1c3.2,2.9,6.4,6.7,7.5,11.3
				c0.5,2.3,0.7,4.8,0,7.5c-0.7,2.6-1.7,5.4-3.5,8c-1.6,2.6-3.7,5.1-5.8,7.5c-2.2,2.3-4.5,4.5-7,6.5c-2.3,2.1-4.9,3.8-7.2,5.6
				c-2.4,1.6-4.7,3.2-6.8,4.6c-4.3,2.7-8,4.9-10.6,6.3c-2.6,1.5-4.1,2.3-4.1,2.3s1.6-0.6,4.4-1.7c2.8-1,6.8-2.7,11.5-4.8
				c2.3-1.1,4.9-2.3,7.5-3.6c2.6-1.5,5.4-2.8,8.2-4.6c2.8-1.7,5.6-3.7,8.4-5.8c2.7-2.2,5.5-4.7,7.9-7.5c2.5-2.8,4.5-6.2,6.1-9.9
				c1.5-3.7,2.1-8,1.8-12c-0.3-4-1.6-7.8-3.1-11c-1.6-3.2-3.5-5.8-5.4-8.1c-3.8-4.6-7.5-7.6-10.2-9.7c0,0-0.1-0.1-0.1-0.1
				c0,0-1.7-1.4-2.7-1.9c-0.1-0.1-0.3-0.2-0.4-0.3c-0.9-0.5-1.4-0.7-1.4-0.7c-69-37.9-195.7-33.3-229.1-31.3
				C483.7,514.7,480.9,514.9,480.1,514.9z"/>
			<linearGradient id="SVGID_4_" gradientUnits="userSpaceOnUse" x1="232.8761" y1="447.9182" x2="740.9767" y2="447.9182">
				<stop  offset="0" style="stop-color:#80D494"/>
				<stop  offset="0.9637" style="stop-color:#54C076"/>
			</linearGradient>
			<path class="st3" d="M475.1,299.1l-16.5,71.7c0,0,294.9,23.4,282,206.7c0,0,0-0.2-0.1-0.6c-1.6-6.7-22.4-68.1-258.3-61.1l28.4,81
				L232.9,446L475.1,299.1z"/>
			<linearGradient id="SVGID_5_" gradientUnits="userSpaceOnUse" x1="232.8816" y1="438.2815" x2="740.9817" y2="438.2815">
				<stop  offset="0" style="stop-color:#80D494"/>
				<stop  offset="0.9637" style="stop-color:#54C076"/>
			</linearGradient>
			<path class="st4" d="M740.6,577.5c0,0,0-0.2-0.1-0.6l0-0.2c0.8-127.6-308.1-170.9-507.6-130.7c0,0,0,0,0.1,0c0,0,0.2-0.1,0.4-0.3
				c0.1,0,0.1-0.1,0.2-0.1v0c0.1-0.1,0.2-0.2,0.4-0.2L474,299.8c0.1-0.1,0.3-0.2,0.4-0.2v0l0.2-0.1c0.1-0.1,0.2-0.1,0.3-0.2
				c0,0,0.1-0.1,0.1-0.1c0,0,0,0,0,0l-16.5,71.7C458.6,370.8,753.4,394.2,740.6,577.5z"/>
			<linearGradient id="SVGID_6_" gradientUnits="userSpaceOnUse" x1="233.3645" y1="372.7377" x2="474.0079" y2="372.7377">
				<stop  offset="0" style="stop-color:#80D494"/>
				<stop  offset="0.9637" style="stop-color:#54C076"/>
			</linearGradient>
			<path class="st5" d="M234,445.3L474,299.8c-1.5,1-4.7,3-9.2,5.9c-6.6,4.1-15.9,10-27.2,17.1c-11.3,7-24.4,15.1-38.6,23.9
				c-14.2,8.7-29.3,17.9-44.4,27.1c-15.2,9.1-30.4,18.3-44.6,26.8c-14.3,8.5-27.6,16.4-39,23.2c-11.4,6.7-21,12.3-27.7,16.2
				c-5,2.9-8.4,4.9-9.8,5.7c-0.1,0.1-0.2,0.1-0.2,0.1c0.1-0.1,0.1-0.1,0.2-0.1C233.7,445.5,233.8,445.4,234,445.3z"/>
			
				<linearGradient id="SVGID_7_" gradientUnits="userSpaceOnUse" x1="2659.418" y1="3141.6733" x2="2707.5647" y2="3141.6733" gradientTransform="matrix(-0.9987 5.130000e-02 -5.130000e-02 -0.9987 3548.6389 3593.9771)">
				<stop  offset="0" style="stop-color:#80D494"/>
				<stop  offset="0.9637" style="stop-color:#54C076"/>
			</linearGradient>
			<path class="st6" d="M688.4,625.6c-1.7,0.9-2.8,1.4-3.3,1.7c0.5-0.3,1.9-1.1,3.8-2.2c2.6-1.4,6.3-3.6,10.6-6.3
				c2.1-1.4,4.4-3,6.8-4.6c2.3-1.8,4.8-3.5,7.2-5.6c2.4-2,4.7-4.2,7-6.5c2.2-2.4,4.2-4.8,5.8-7.5c1.7-2.6,2.8-5.4,3.5-8
				c0.6-2.7,0.5-5.2,0-7.5c-1.1-4.7-4.3-8.5-7.5-11.3c-2.7-2.4-7.1-5.2-8.2-5.9c-0.1,0-0.1-0.1-0.2-0.1c0.1,0.1,0.4,0.2,0.9,0.5
				c0.6,0.4,1.5,0.8,2.6,1.5c1.1,0.7,2.3,1.7,3.8,2.7c1.5,1,3,2.3,4.6,4c1.5,1.6,3,3.7,4,6.1c0.5,1.2,0.9,2.6,1.1,3.8
				c0.1,0.7,0.2,1.4,0.2,2.1c0,0.7,0,1.5-0.1,2.2c-0.1,0.7-0.2,1.4-0.3,2.2c-0.2,0.7-0.4,1.3-0.6,2c-0.5,1.4-1,2.8-1.7,4.1
				c-0.7,1.3-1.6,2.6-2.4,3.8c-0.8,1.2-1.7,2.4-2.7,3.6l-1.5,1.7c-0.3,0.3-0.4,0.5-0.8,0.9l-0.8,0.7c-1.1,1-2.2,2-3.2,3
				c-1.1,1-2.1,1.9-3.2,2.9c-1.1,0.9-2.2,1.8-3.3,2.6c-1.1,0.8-2.2,1.6-3.3,2.4c-1.2,0.8-2.2,1.5-3.3,2.2c-2.1,1.3-4.1,2.7-6.1,3.8
				C693.9,622.6,690.7,624.3,688.4,625.6z"/>
			
				<linearGradient id="SVGID_8_" gradientUnits="userSpaceOnUse" x1="2880.2944" y1="3231.448" x2="3149.8467" y2="3231.448" gradientTransform="matrix(-0.9987 5.130000e-02 -5.130000e-02 -0.9987 3548.6389 3593.9771)">
				<stop  offset="0" style="stop-color:#80D494"/>
				<stop  offset="0.9637" style="stop-color:#54C076"/>
			</linearGradient>
			<path class="st7" d="M510.5,596.8c0,0-4.4-2.2-12.2-6c-7.7-3.9-18.8-9.4-31.9-16.2c-13.2-6.8-28.5-14.7-44.9-23.4
				c-8.2-4.3-16.6-8.8-25.2-13.4c-8.6-4.6-17.2-9.3-25.9-14c-8.7-4.7-17.3-9.5-25.8-14.1c-8.5-4.7-16.9-9.3-25-13.8
				c-16.2-9-31.2-17.5-44.1-24.9c-12.9-7.3-23.5-13.6-31-18c-7.4-4.4-11.7-6.9-11.7-6.9s4.4,2.2,12.2,6c7.7,3.9,18.8,9.4,31.9,16.2
				c13.2,6.8,28.5,14.8,44.9,23.4c8.2,4.3,16.6,8.8,25.2,13.4c8.6,4.6,17.2,9.3,25.9,14c8.7,4.7,17.3,9.5,25.9,14.1
				c8.5,4.7,16.9,9.3,25,13.8c16.2,9,31.2,17.5,44.1,24.9c12.9,7.3,23.5,13.6,31,18C506.3,594.2,510.5,596.8,510.5,596.8z"/>
			<linearGradient id="SVGID_9_" gradientUnits="userSpaceOnUse" x1="371.3538" y1="617.6204" x2="371.3538" y2="446.0327">
				<stop  offset="0" style="stop-color:#80D494"/>
				<stop  offset="0.9637" style="stop-color:#54C076"/>
			</linearGradient>
			<polygon class="st8" points="232.2,467.5 506.2,617.6 510.5,596.8 232.9,446 			"/>
			
				<linearGradient id="SVGID_10_" gradientUnits="userSpaceOnUse" x1="2649.5874" y1="3194.0588" x2="2904.4729" y2="3194.0588" gradientTransform="matrix(-0.9987 5.130000e-02 -5.130000e-02 -0.9987 3548.6389 3593.9771)">
				<stop  offset="0" style="stop-color:#80D494"/>
				<stop  offset="0.9637" style="stop-color:#54C076"/>
			</linearGradient>
			<path class="st9" d="M740.6,577.4c0-0.1,0-0.3-0.1-0.7c-0.1-0.5-0.4-1.3-0.6-2.2c-0.4-0.9-0.9-2.1-1.5-3.5
				c-0.8-1.3-1.6-2.7-2.6-4.4c-1.2-1.5-2.5-3.2-4-5c-1.5-1.7-3.4-3.4-5.3-5.2c-0.9-1-2-1.8-3.2-2.7c-1.1-0.9-2.3-1.7-3.5-2.6
				c-1.2-0.9-2.4-1.9-3.7-2.7c-1.4-0.8-2.7-1.6-4.2-2.4c-2.9-1.6-5.7-3.6-9-4.9c-3.2-1.5-6.5-3-10-4.5c-3.4-1.5-7.1-2.6-10.8-4
				c-3.7-1.3-7.5-2.8-11.5-3.7c-3.9-1-8-2.1-12-3.2c-2-0.5-4.1-1.1-6.1-1.6c-2.1-0.4-4.2-0.8-6.3-1.2c-4.2-0.8-8.5-1.6-12.7-2.4
				c-2.1-0.4-4.3-0.8-6.4-1.1l-6.5-0.8c-4.3-0.5-8.6-1-12.9-1.5c-4.3-0.5-8.6-1.1-12.8-1.3c-8.5-0.5-16.9-1.1-25-1.6
				c-4.1-0.3-8.1-0.4-12-0.4c-3.9,0-7.7-0.1-11.5-0.1c-7.5-0.1-14.5-0.1-21-0.1c-13,0.5-23.8,1.1-31.4,1.4
				c-7.6,0.4-11.9,0.7-11.9,0.7C726.8,508.5,740.1,574.8,740.6,577.4z"/>
			
				<linearGradient id="SVGID_11_" gradientUnits="userSpaceOnUse" x1="2649.5239" y1="3239.8386" x2="3149.8574" y2="3239.8386" gradientTransform="matrix(-0.9987 5.130000e-02 -5.130000e-02 -0.9987 3548.6389 3593.9771)">
				<stop  offset="0" style="stop-color:#80D494"/>
				<stop  offset="0.9637" style="stop-color:#54C076"/>
			</linearGradient>
			<path class="st10" d="M740.4,576.7c0,0-0.1-2.2-0.2-6.4c-0.4-4.1-1-10.3-3.4-17.7c-2.3-7.4-6.4-16.1-12.8-24.9
				c-6.5-8.7-15.1-17.6-25.8-25.6c-5.3-4.1-11.1-8-17.2-11.7c-6.1-3.8-12.7-7.3-19.6-10.6c-13.7-6.7-28.7-12.7-44.6-17.9
				c-15.8-5.2-32.5-9.7-49.5-13.5c-17.1-3.8-34.5-7-52.1-9.6c-35.2-5-70.6-7.6-103.9-8.3c-33.3-0.8-64.3,0.6-90.9,2.8
				c-13.3,1.1-25.4,2.4-36.1,3.9c-10.7,1.4-20,2.9-27.7,4.2c-7.7,1.3-13.6,2.5-17.7,3.3c-4.1,0.8-6.2,1.3-6.2,1.3
				C432.3,405.8,741.2,449.1,740.4,576.7z"/>
		</g>
	</g>
</g>
<g>
	<g>
		<g>
			<linearGradient id="SVGID_12_" gradientUnits="userSpaceOnUse" x1="937.2138" y1="591.551" x2="989.8393" y2="591.551">
				<stop  offset="0" style="stop-color:#80D494"/>
				<stop  offset="0.9637" style="stop-color:#54C076"/>
			</linearGradient>
			<path class="st11" d="M968.9,555.7c0,0-22.8,38.1,20.9,71.7C989.8,627.4,886.9,588.3,968.9,555.7z"/>
			
				<linearGradient id="SVGID_13_" gradientUnits="userSpaceOnUse" x1="518.4458" y1="586.4224" x2="518.4458" y2="548.3193" gradientTransform="matrix(-1 0 0 1 1481.9723 0)">
				<stop  offset="0" style="stop-color:#80D494"/>
				<stop  offset="0.9637" style="stop-color:#54C076"/>
			</linearGradient>
			<path class="st12" d="M968.9,555.7c0,0-22.8,38.1,20.9,71.7C989.8,627.4,886.9,588.3,968.9,555.7z"/>
			
				<linearGradient id="SVGID_14_" gradientUnits="userSpaceOnUse" x1="296.029" y1="570.2357" x2="462.8703" y2="570.2357" gradientTransform="matrix(-1 0 0 1 1481.9723 0)">
				<stop  offset="0" style="stop-color:#80D494"/>
				<stop  offset="0.9637" style="stop-color:#54C076"/>
			</linearGradient>
			<path class="st13" d="M1194.5,514.9l-1.3,16.1c-1.6-0.1-160.1-12.8-232.4,30.6c0,0-5.3,3.3-8.4,6.1c-3.2,2.9-6.4,6.7-7.5,11.3
				c-0.5,2.3-0.7,4.8,0,7.5c0.7,2.6,1.7,5.4,3.5,8c1.6,2.6,3.7,5.1,5.8,7.5c2.2,2.3,4.5,4.5,7,6.5c2.3,2.1,4.9,3.8,7.2,5.6
				c2.4,1.6,4.7,3.2,6.8,4.6c4.3,2.7,8,4.9,10.6,6.3c2.6,1.5,4.1,2.3,4.1,2.3s-1.6-0.6-4.4-1.7c-2.8-1-6.8-2.7-11.5-4.8
				c-2.3-1.1-4.9-2.3-7.5-3.6c-2.6-1.5-5.4-2.8-8.2-4.6c-2.8-1.7-5.6-3.7-8.4-5.8c-2.7-2.2-5.5-4.7-7.9-7.5
				c-2.5-2.8-4.5-6.2-6.1-9.9c-1.5-3.7-2.1-8-1.8-12c0.3-4,1.6-7.8,3.1-11c1.6-3.2,3.5-5.8,5.4-8.1c3.8-4.6,7.5-7.6,10.2-9.7
				c0,0,0.1-0.1,0.1-0.1c0,0,1.7-1.4,2.7-1.9c0.1-0.1,0.3-0.2,0.4-0.3c0.9-0.5,1.4-0.7,1.4-0.7c69-37.9,195.7-33.3,229.1-31.3
				C1191,514.7,1193.8,514.9,1194.5,514.9z"/>
			<linearGradient id="SVGID_15_" gradientUnits="userSpaceOnUse" x1="933.6594" y1="447.9182" x2="1441.76" y2="447.9182">
				<stop  offset="0" style="stop-color:#80D494"/>
				<stop  offset="0.9637" style="stop-color:#54C076"/>
			</linearGradient>
			<path class="st14" d="M1199.5,299.1l16.5,71.7c0,0-294.9,23.4-282,206.7c0,0,0-0.2,0.1-0.6c1.6-6.7,22.4-68.1,258.3-61.1
				l-28.4,81L1441.8,446L1199.5,299.1z"/>
			
				<linearGradient id="SVGID_16_" gradientUnits="userSpaceOnUse" x1="40.2178" y1="438.2815" x2="548.3179" y2="438.2815" gradientTransform="matrix(-1 0 0 1 1481.9723 0)">
				<stop  offset="0" style="stop-color:#80D494"/>
				<stop  offset="0.9637" style="stop-color:#54C076"/>
			</linearGradient>
			<path class="st15" d="M934.1,577.5c0,0,0-0.2,0.1-0.6l0-0.2c-0.8-127.6,308.1-170.9,507.6-130.7c0,0,0,0-0.1,0
				c0,0-0.2-0.1-0.4-0.3c-0.1,0-0.1-0.1-0.2-0.1v0c-0.1-0.1-0.2-0.2-0.4-0.2l-240.1-145.6c-0.1-0.1-0.3-0.2-0.4-0.2v0l-0.2-0.1
				c-0.1-0.1-0.2-0.1-0.3-0.2c0,0-0.1-0.1-0.1-0.1c0,0,0,0,0,0l16.5,71.7C1216,370.8,921.2,394.2,934.1,577.5z"/>
			
				<linearGradient id="SVGID_17_" gradientUnits="userSpaceOnUse" x1="40.7007" y1="372.7377" x2="281.3441" y2="372.7377" gradientTransform="matrix(-1 0 0 1 1481.9723 0)">
				<stop  offset="0" style="stop-color:#80D494"/>
				<stop  offset="0.9637" style="stop-color:#54C076"/>
			</linearGradient>
			<path class="st16" d="M1440.7,445.3l-240.1-145.6c1.5,1,4.7,3,9.2,5.9c6.6,4.1,15.9,10,27.2,17.1c11.3,7,24.4,15.1,38.6,23.9
				c14.2,8.7,29.3,17.9,44.4,27.1c15.2,9.1,30.4,18.3,44.6,26.8c14.3,8.5,27.6,16.4,39,23.2c11.4,6.7,21,12.3,27.7,16.2
				c5,2.9,8.4,4.9,9.8,5.7c0.1,0.1,0.2,0.1,0.2,0.1c-0.1-0.1-0.1-0.1-0.2-0.1C1441,445.5,1440.8,445.4,1440.7,445.3z"/>
			
				<linearGradient id="SVGID_18_" gradientUnits="userSpaceOnUse" x1="2851.825" y1="3151.5566" x2="2899.9717" y2="3151.5566" gradientTransform="matrix(0.9987 5.130000e-02 5.130000e-02 -0.9987 -2066.6667 3593.9771)">
				<stop  offset="0" style="stop-color:#80D494"/>
				<stop  offset="0.9637" style="stop-color:#54C076"/>
			</linearGradient>
			<path class="st17" d="M986.2,625.6c1.7,0.9,2.8,1.4,3.3,1.7c-0.5-0.3-1.9-1.1-3.8-2.2c-2.6-1.4-6.3-3.6-10.6-6.3
				c-2.1-1.4-4.4-3-6.8-4.6c-2.3-1.8-4.8-3.5-7.2-5.6c-2.4-2-4.7-4.2-7-6.5c-2.2-2.4-4.2-4.8-5.8-7.5c-1.7-2.6-2.8-5.4-3.5-8
				c-0.6-2.7-0.5-5.2,0-7.5c1.1-4.7,4.3-8.5,7.5-11.3c2.7-2.4,7.1-5.2,8.2-5.9c0.1,0,0.1-0.1,0.2-0.1c-0.1,0.1-0.4,0.2-0.9,0.5
				c-0.6,0.4-1.5,0.8-2.6,1.5c-1.1,0.7-2.3,1.7-3.8,2.7c-1.5,1-3,2.3-4.6,4c-1.5,1.6-3,3.7-4,6.1c-0.5,1.2-0.9,2.6-1.1,3.8
				c-0.1,0.7-0.2,1.4-0.2,2.1c0,0.7,0,1.5,0.1,2.2c0.1,0.7,0.2,1.4,0.3,2.2c0.2,0.7,0.4,1.3,0.6,2c0.5,1.4,1,2.8,1.7,4.1
				c0.7,1.3,1.6,2.6,2.4,3.8c0.8,1.2,1.7,2.4,2.7,3.6l1.5,1.7c0.3,0.3,0.4,0.5,0.8,0.9l0.8,0.7c1.1,1,2.2,2,3.2,3
				c1.1,1,2.1,1.9,3.2,2.9c1.1,0.9,2.2,1.8,3.3,2.6c1.1,0.8,2.2,1.6,3.3,2.4c1.2,0.8,2.2,1.5,3.3,2.2c2.1,1.3,4.1,2.7,6.1,3.8
				C980.7,622.6,984,624.3,986.2,625.6z"/>
			
				<linearGradient id="SVGID_19_" gradientUnits="userSpaceOnUse" x1="3072.7014" y1="3241.3313" x2="3342.2534" y2="3241.3313" gradientTransform="matrix(0.9987 5.130000e-02 5.130000e-02 -0.9987 -2066.6667 3593.9771)">
				<stop  offset="0" style="stop-color:#80D494"/>
				<stop  offset="0.9637" style="stop-color:#54C076"/>
			</linearGradient>
			<path class="st18" d="M1164.1,596.8c0,0,4.4-2.2,12.2-6c7.7-3.9,18.8-9.4,31.9-16.2c13.2-6.8,28.5-14.7,44.9-23.4
				c8.2-4.3,16.6-8.8,25.2-13.4c8.6-4.6,17.2-9.3,25.9-14c8.7-4.7,17.3-9.5,25.8-14.1c8.5-4.7,16.9-9.3,25-13.8
				c16.2-9,31.2-17.5,44.1-24.9c12.9-7.3,23.5-13.6,31-18c7.4-4.4,11.7-6.9,11.7-6.9s-4.4,2.2-12.2,6c-7.7,3.9-18.8,9.4-31.9,16.2
				c-13.2,6.8-28.5,14.8-44.9,23.4c-8.2,4.3-16.6,8.8-25.2,13.4c-8.6,4.6-17.2,9.3-25.9,14c-8.7,4.7-17.3,9.5-25.9,14.1
				c-8.5,4.7-16.9,9.3-25,13.8c-16.2,9-31.2,17.5-44.1,24.9c-12.9,7.3-23.5,13.6-31,18C1168.3,594.2,1164.1,596.8,1164.1,596.8z"/>
			
				<linearGradient id="SVGID_20_" gradientUnits="userSpaceOnUse" x1="178.69" y1="617.6204" x2="178.69" y2="446.0327" gradientTransform="matrix(-1 0 0 1 1481.9723 0)">
				<stop  offset="0" style="stop-color:#80D494"/>
				<stop  offset="0.9637" style="stop-color:#54C076"/>
			</linearGradient>
			<polygon class="st19" points="1442.5,467.5 1168.4,617.6 1164.1,596.8 1441.7,446 			"/>
			
				<linearGradient id="SVGID_21_" gradientUnits="userSpaceOnUse" x1="2841.9944" y1="3203.9421" x2="3096.8799" y2="3203.9421" gradientTransform="matrix(0.9987 5.130000e-02 5.130000e-02 -0.9987 -2066.6667 3593.9771)">
				<stop  offset="0" style="stop-color:#80D494"/>
				<stop  offset="0.9637" style="stop-color:#54C076"/>
			</linearGradient>
			<path class="st20" d="M934.1,577.4c0-0.1,0-0.3,0.1-0.7c0.1-0.5,0.4-1.3,0.6-2.2c0.4-0.9,0.9-2.1,1.5-3.5
				c0.8-1.3,1.6-2.7,2.6-4.4c1.2-1.5,2.5-3.2,4-5c1.5-1.7,3.4-3.4,5.3-5.2c0.9-1,2-1.8,3.2-2.7c1.1-0.9,2.3-1.7,3.5-2.6
				c1.2-0.9,2.4-1.9,3.7-2.7c1.4-0.8,2.7-1.6,4.2-2.4c2.9-1.6,5.7-3.6,9-4.9c3.2-1.5,6.5-3,10-4.5c3.4-1.5,7.1-2.6,10.8-4
				c3.7-1.3,7.5-2.8,11.5-3.7c3.9-1,8-2.1,12-3.2c2-0.5,4.1-1.1,6.1-1.6c2.1-0.4,4.2-0.8,6.3-1.2c4.2-0.8,8.5-1.6,12.7-2.4
				c2.1-0.4,4.3-0.8,6.4-1.1l6.5-0.8c4.3-0.5,8.6-1,12.9-1.5c4.3-0.5,8.6-1.1,12.8-1.3c8.5-0.5,16.9-1.1,25-1.6
				c4.1-0.3,8.1-0.4,12-0.4c3.9,0,7.7-0.1,11.5-0.1c7.5-0.1,14.5-0.1,21-0.1c13,0.5,23.8,1.1,31.4,1.4c7.6,0.4,11.9,0.7,11.9,0.7
				C947.8,508.5,934.5,574.8,934.1,577.4z"/>
			
				<linearGradient id="SVGID_22_" gradientUnits="userSpaceOnUse" x1="2841.9309" y1="3249.7219" x2="3342.2644" y2="3249.7219" gradientTransform="matrix(0.9987 5.130000e-02 5.130000e-02 -0.9987 -2066.6667 3593.9771)">
				<stop  offset="0" style="stop-color:#80D494"/>
				<stop  offset="0.9637" style="stop-color:#54C076"/>
			</linearGradient>
			<path class="st21" d="M934.2,576.7c0,0,0.1-2.2,0.2-6.4c0.4-4.1,1-10.3,3.4-17.7c2.3-7.4,6.4-16.1,12.8-24.9
				c6.5-8.7,15.1-17.6,25.8-25.6c5.3-4.1,11.1-8,17.2-11.7c6.1-3.8,12.7-7.3,19.6-10.6c13.7-6.7,28.7-12.7,44.6-17.9
				c15.8-5.2,32.5-9.7,49.5-13.5c17.1-3.8,34.5-7,52.1-9.6c35.2-5,70.6-7.6,103.9-8.3c33.3-0.8,64.3,0.6,90.9,2.8
				c13.3,1.1,25.4,2.4,36.1,3.9c10.7,1.4,20,2.9,27.7,4.2c7.7,1.3,13.6,2.5,17.7,3.3c4.1,0.8,6.2,1.3,6.2,1.3
				C1242.3,405.8,933.4,449.1,934.2,576.7z"/>
		</g>
	</g>
</g>
<g>
	<g>
		<g>
			<linearGradient id="SVGID_23_" gradientUnits="userSpaceOnUse" x1="694.9516" y1="205.0193" x2="859.9709" y2="205.0193">
				<stop  offset="0" style="stop-color:#80D494"/>
				<stop  offset="0.9637" style="stop-color:#54C076"/>
			</linearGradient>
			<polygon class="st22" points="860,69.7 840,69.7 695,340.3 714.7,340.3 			"/>
			
				<linearGradient id="SVGID_24_" gradientUnits="userSpaceOnUse" x1="568.3138" y1="335.7245" x2="568.3138" y2="170.7052" gradientTransform="matrix(0 1 -1 0 1030.676 -363.2945)">
				<stop  offset="0" style="stop-color:#80D494"/>
				<stop  offset="0.9637" style="stop-color:#54C076"/>
			</linearGradient>
			<polygon class="st23" points="860,69.7 840,69.7 695,340.3 714.7,340.3 			"/>
			
				<linearGradient id="SVGID_25_" gradientUnits="userSpaceOnUse" x1="841.3129" y1="316.0147" x2="841.3129" y2="232.8366" gradientTransform="matrix(0 1 -1 0 1030.676 -363.2945)">
				<stop  offset="0" style="stop-color:#80D494"/>
				<stop  offset="0.9637" style="stop-color:#54C076"/>
			</linearGradient>
			<path class="st24" d="M797.8,516.3c0-51.1-2-200.1-2-200.1l-15.2,4.5c0,20.9,0,77,0,153.5c0,87.2-1.2,146.4-66,165.3
				C714.7,639.6,797.8,650.4,797.8,516.3z"/>
			
				<linearGradient id="SVGID_26_" gradientUnits="userSpaceOnUse" x1="690.5735" y1="118.5918" x2="690.5735" y2="38.4235" gradientTransform="matrix(0 1 -1 0 1030.676 -363.2945)">
				<stop  offset="0" style="stop-color:#80D494"/>
				<stop  offset="0.9637" style="stop-color:#54C076"/>
			</linearGradient>
			<polygon class="st25" points="992.3,342.3 952,342.3 912.1,327.6 912.1,312.2 			"/>
			<linearGradient id="SVGID_27_" gradientUnits="userSpaceOnUse" x1="714.6677" y1="368.3262" x2="992.2526" y2="368.3262">
				<stop  offset="0" style="stop-color:#80D494"/>
				<stop  offset="0.9637" style="stop-color:#54C076"/>
			</linearGradient>
			<path class="st26" d="M714.7,639.6c0,0,83.2,10.8,83.2-123.3c0-47.6-1.7-175.3-2-197.5c0-0.2,0-0.5,0-0.7v-1.8l-1.8,0.5l-0.7,0.2
				l-78.7,23.3L860,69.7l132.3,272.6l-80.2-30.1c0,0,0,61.8,0,206.1C912.1,692.5,788.1,684.5,714.7,639.6z"/>
			
				<linearGradient id="SVGID_28_" gradientUnits="userSpaceOnUse" x1="433.0246" y1="243.3568" x2="703.603" y2="243.3568" gradientTransform="matrix(0 1 -1 0 1030.676 -363.2945)">
				<stop  offset="0" style="stop-color:#80D494"/>
				<stop  offset="0.9637" style="stop-color:#54C076"/>
			</linearGradient>
			<path class="st27" d="M714.7,340.3c0,0,2.5-4.1,6.8-11.3c4.2-7.3,10.4-17.6,17.5-30.1c7.1-12.5,15.4-27.1,24.1-42.9
				c4.3-7.9,8.8-16,13.4-24.3c4.5-8.3,9.1-16.7,13.6-25.2c4.5-8.5,9-16.9,13.5-25.3c4.4-8.4,8.7-16.6,12.9-24.6
				c8.3-16,16-30.9,22.5-43.8c6.5-12.8,11.7-23.7,15.5-31.2c3.7-7.5,5.7-11.9,5.7-11.9L714.7,340.2
				C714.7,340.2,714.7,340.3,714.7,340.3z"/>
			
				<linearGradient id="SVGID_29_" gradientUnits="userSpaceOnUse" x1="433.0091" y1="177.1856" x2="1030.2321" y2="177.1856" gradientTransform="matrix(0 1 -1 0 1030.676 -363.2945)">
				<stop  offset="0" style="stop-color:#80D494"/>
				<stop  offset="0.9637" style="stop-color:#54C076"/>
			</linearGradient>
			<path class="st28" d="M717.1,641.1c-0.3-0.2-0.5-0.3-0.8-0.5c-0.3-0.2-0.5-0.3-0.8-0.5c-0.2-0.1-0.3-0.2-0.4-0.2v0
				c-0.1,0-0.1,0-0.2-0.1c-0.1-0.1-0.1-0.1-0.2-0.2C807.2,666.9,860,610.3,860,500.1c0-197.4,0-430.3,0-430.3s0,0,0,0.1
				c0,0,0,0.1,0.1,0.1l132.1,272.2c0,0.1,0.1,0.1,0.1,0.1c0,0,0,0.1,0,0.1l-77.8-29.2l-0.8-0.3l-1.6-0.6c0,0,0,0.6,0,1.7v204.4
				C912.1,690.5,790.9,684.6,717.1,641.1z"/>
			
				<linearGradient id="SVGID_30_" gradientUnits="userSpaceOnUse" x1="672.0225" y1="80.0154" x2="881.6003" y2="80.0154" gradientTransform="matrix(0 1 -1 0 1030.676 -363.2945)">
				<stop  offset="0" style="stop-color:#80D494"/>
				<stop  offset="0.9637" style="stop-color:#54C076"/>
			</linearGradient>
			<path class="st29" d="M912.1,518.3c-0.5-10-0.8-20.1-1.1-30.1c-0.4-10-0.6-20-0.8-30.1c-0.4-20.1-0.7-5.6-0.9-25.7l-0.2-30.1
				c-0.1-10,0-20.1,0-30.1l0.2-30.1l0.4-30.1l0-3.5l3.2,1.3c13.3,5.2,26.5,10.5,39.8,15.9c13.2,5.5,26.5,10.8,39.6,16.4l-77.8-29.2
				l-0.8-0.3l-1.6-0.6c0,0,0,0.6,0,1.7V518.3z"/>
			
				<linearGradient id="SVGID_31_" gradientUnits="userSpaceOnUse" x1="433.0246" y1="242.6054" x2="1010.0111" y2="242.6054" gradientTransform="matrix(0 1 -1 0 1030.676 -363.2945)">
				<stop  offset="0" style="stop-color:#80D494"/>
				<stop  offset="0.9637" style="stop-color:#54C076"/>
			</linearGradient>
			<path class="st30" d="M714.7,639.6c0,0,2.7,0.7,7.7,2c2.5,0.6,5.7,1.2,9.4,2c3.7,0.6,8,1.4,12.8,1.8c2.4,0.3,5,0.4,7.6,0.5
				c2.7,0.2,5.5,0.1,8.4,0c2.9,0,5.9-0.4,9.1-0.6c3.1-0.5,6.3-0.8,9.6-1.7c13.1-2.7,27.4-9.2,39.5-20.4
				c12.2-11.1,21.8-26.8,28.2-44.6c6.4-17.8,9.7-37.7,11.1-58.4c0.6-10.3,0.6-20.9,0.6-31.6c0-10.7,0-21.5,0-32.4
				c0-21.8-0.1-9.6-0.1-31.7c0.1-44.4,0.1-88.7,0.2-130.3c0.2-41.6,0.3-80.4,0.5-113.7c0.5-66.5,0.8-110.9,0.8-110.9
				s0.3,44.4,0.8,110.9c0.1,33.3,0.3,72.1,0.5,113.7c0.1,41.6,0.1,85.9,0.2,130.3c0,22.2-0.1,9.9-0.1,31.7c0,10.9,0,21.7-0.1,32.4
				c0,10.7,0,21.3-0.7,31.7c-1.4,20.8-5,40.9-11.7,58.9c-6.6,18-16.5,33.8-29.1,45.1c-12.5,11.3-27.1,17.7-40.4,20.2
				c-3.3,0.8-6.6,1-9.7,1.5c-3.2,0.2-6.2,0.5-9.1,0.5c-2.9,0-5.7,0.1-8.4-0.2c-2.7-0.2-5.2-0.3-7.7-0.6c-4.8-0.5-9.1-1.3-12.8-2
				c-3.7-0.8-6.8-1.5-9.3-2.2C717.3,640.3,714.7,639.6,714.7,639.6z"/>
			
				<linearGradient id="SVGID_32_" gradientUnits="userSpaceOnUse" x1="433.2187" y1="104.534" x2="705.5426" y2="104.534" gradientTransform="matrix(0 1 -1 0 1030.676 -363.2945)">
				<stop  offset="0" style="stop-color:#80D494"/>
				<stop  offset="0.9637" style="stop-color:#54C076"/>
			</linearGradient>
			<path class="st31" d="M992.2,342.2c-0.3-0.5-2.5-4.5-6.2-11.4c-3.8-7.3-9.5-17.7-16-30.4c-6.6-12.6-14.1-27.4-22-43.3
				c-4-7.9-8.1-16.2-12.2-24.5c-4.1-8.4-8.2-16.9-12.4-25.4c-4.1-8.5-8.2-17.1-12.2-25.5c-4-8.4-7.9-16.7-11.7-24.7
				c-7.5-16.1-14.5-31.1-20.4-44.1c-5.9-12.9-10.6-23.8-13.9-31.4c-2.9-6.6-4.7-10.9-5.1-11.8l132.1,272.2
				C992.2,342.2,992.2,342.2,992.2,342.2z"/>
			
				<linearGradient id="SVGID_33_" gradientUnits="userSpaceOnUse" x1="881.6003" y1="217.1715" x2="1030.2321" y2="217.1715" gradientTransform="matrix(0 1 -1 0 1030.676 -363.2945)">
				<stop  offset="0" style="stop-color:#80D494"/>
				<stop  offset="0.9637" style="stop-color:#54C076"/>
			</linearGradient>
			<path class="st32" d="M717.1,641.1c-0.3-0.2-0.5-0.3-0.8-0.5c-0.3-0.2-0.5-0.3-0.8-0.5c-0.2-0.1-0.3-0.2-0.4-0.2
				c-0.1-0.1-0.1-0.1-0.2-0.1c0.1,0,0.1,0.1,0.2,0.1c0.5,0.3,1.3,0.8,2.6,1.4c1.9,1.1,4.8,2.6,8.5,4.5c1.8,1,3.9,2,6.2,3
				c2.3,1,4.7,2.2,7.4,3.2c2.7,1.1,5.5,2.3,8.5,3.3c3,1.1,6.3,2.2,9.6,3.2c3.3,1.1,6.9,1.9,10.6,2.9c3.7,0.7,7.5,1.7,11.5,2.3
				c7.9,1.4,16.4,2.1,25.2,2c8.8-0.1,17.9-0.9,26.7-3.3c8.9-2.3,17.6-5.9,25.5-10.8c7.9-4.8,15.1-10.9,21-18
				c5.9-7,11-14.5,14.7-22.5c2.1-3.8,3.5-8,5.2-11.8c1.6-3.9,2.7-7.9,4.1-11.7c1.1-3.9,2-7.7,3-11.4c0.8-3.7,1.5-7.3,2.2-10.8
				c0.8-3.5,1-6.9,1.6-10c0.4-3.2,1-6.2,1.1-9.1c0.5-5.7,1.1-10.7,1.2-14.9c0.4-8.3,0.6-13,0.6-13
				C912.1,690.5,790.9,684.6,717.1,641.1z"/>
			
				<linearGradient id="SVGID_34_" gradientUnits="userSpaceOnUse" x1="678.8585" y1="235.1358" x2="702.9108" y2="312.3662" gradientTransform="matrix(0 1 -1 0 1030.676 -363.2945)">
				<stop  offset="0" style="stop-color:#80D494"/>
				<stop  offset="0.9637" style="stop-color:#54C076"/>
			</linearGradient>
			<polygon class="st33" points="714.7,340.3 795.4,314.8 795.8,316.2 794.1,316.8 793.4,317 			"/>
		</g>
	</g>
</g>
<g>
</g>
<g>
</g>
<g>
</g>
<g>
</g>
<g>
</g>
<g>
</g>
<g>
</g>
<g>
</g>
<g>
</g>
<g>
</g>
<g>
</g>
<g>
</g>
<g>
</g>
<g>
</g>
<g>
</g>
</svg>
