<?xml version="1.0" encoding="utf-8"?>
<!-- Generator: Adobe Illustrator 25.2.1, SVG Export Plug-In . SVG Version: 6.00 Build 0)  -->
<svg version="1.1" id="Camada_1" xmlns="http://www.w3.org/2000/svg" xmlns:xlink="http://www.w3.org/1999/xlink" x="0px" y="0px"
	 viewBox="0 0 1210.3 597.2" style="enable-background:new 0 0 1210.3 597.2;" xml:space="preserve">
<style type="text/css">
	.st0{fill:url(#SVGID_1_);}
	.st1{fill:url(#SVGID_2_);}
	.st2{fill:url(#SVGID_3_);}
	.st3{fill:url(#SVGID_4_);}
	.st4{fill:url(#SVGID_5_);}
	.st5{fill:url(#SVGID_6_);}
	.st6{fill:url(#SVGID_7_);}
	.st7{fill:url(#SVGID_8_);}
	.st8{fill:url(#SVGID_9_);}
	.st9{fill:url(#SVGID_10_);}
	.st10{fill:url(#SVGID_11_);}
	.st11{fill:url(#SVGID_12_);}
	.st12{fill:url(#SVGID_13_);}
	.st13{fill:url(#SVGID_14_);}
	.st14{fill:url(#SVGID_15_);}
	.st15{fill:url(#SVGID_16_);}
	.st16{fill:url(#SVGID_17_);}
	.st17{fill:url(#SVGID_18_);}
	.st18{fill:url(#SVGID_19_);}
	.st19{fill:url(#SVGID_20_);}
	.st20{fill:url(#SVGID_21_);}
	.st21{fill:url(#SVGID_22_);}
	.st22{fill:url(#SVGID_23_);}
	.st23{fill:url(#SVGID_24_);}
	.st24{fill:url(#SVGID_25_);}
	.st25{fill:url(#SVGID_26_);}
	.st26{fill:url(#SVGID_27_);}
	.st27{fill:url(#SVGID_28_);}
	.st28{fill:url(#SVGID_29_);}
	.st29{fill:url(#SVGID_30_);}
	.st30{fill:url(#SVGID_31_);}
	.st31{fill:url(#SVGID_32_);}
	.st32{fill:url(#SVGID_33_);}
	.st33{fill:url(#SVGID_34_);}
</style>
<g>
	<g>
		<g>
			<linearGradient id="SVGID_1_" gradientUnits="userSpaceOnUse" x1="452.6315" y1="521.8364" x2="505.2569" y2="521.8364">
				<stop  offset="0" style="stop-color:#80D494"/>
				<stop  offset="0.9637" style="stop-color:#54C076"/>
			</linearGradient>
			<path class="st0" d="M473.6,486c0,0,22.8,38.1-20.9,71.7C452.6,557.7,555.5,518.6,473.6,486z"/>
			<linearGradient id="SVGID_2_" gradientUnits="userSpaceOnUse" x1="478.9442" y1="516.7078" x2="478.9442" y2="478.6047">
				<stop  offset="0" style="stop-color:#80D494"/>
				<stop  offset="0.9637" style="stop-color:#54C076"/>
			</linearGradient>
			<path class="st1" d="M473.6,486c0,0,22.8,38.1-20.9,71.7C452.6,557.7,555.5,518.6,473.6,486z"/>
			<linearGradient id="SVGID_3_" gradientUnits="userSpaceOnUse" x1="256.5274" y1="500.5211" x2="423.3687" y2="500.5211">
				<stop  offset="0" style="stop-color:#80D494"/>
				<stop  offset="0.9637" style="stop-color:#54C076"/>
			</linearGradient>
			<path class="st2" d="M247.9,445.2l1.3,16.1c1.6-0.1,160.1-12.8,232.4,30.6c0,0,5.3,3.3,8.4,6.1c3.2,2.9,6.4,6.7,7.5,11.3
				c0.5,2.3,0.7,4.8,0,7.5c-0.7,2.6-1.7,5.4-3.5,8c-1.6,2.6-3.7,5.1-5.8,7.5c-2.2,2.3-4.5,4.5-7,6.5c-2.3,2.1-4.9,3.8-7.2,5.6
				c-2.4,1.6-4.7,3.2-6.8,4.6c-4.3,2.7-8,4.9-10.6,6.3c-2.6,1.5-4.1,2.3-4.1,2.3s1.6-0.6,4.4-1.7c2.8-1,6.8-2.7,11.5-4.8
				c2.3-1.1,4.9-2.3,7.5-3.6c2.6-1.5,5.4-2.8,8.2-4.6c2.8-1.7,5.6-3.7,8.4-5.8c2.7-2.2,5.5-4.7,7.9-7.5c2.5-2.8,4.5-6.2,6.1-9.9
				c1.5-3.7,2.1-8,1.8-12c-0.3-4-1.6-7.8-3.1-11c-1.6-3.2-3.5-5.8-5.4-8.1c-3.8-4.6-7.5-7.6-10.2-9.7c0,0-0.1-0.1-0.1-0.1
				c0,0-1.7-1.4-2.7-1.9c-0.1-0.1-0.3-0.2-0.4-0.3c-0.9-0.5-1.4-0.7-1.4-0.7c-69-37.9-195.7-33.3-229.1-31.3
				C251.5,444.9,248.7,445.2,247.9,445.2z"/>
			<linearGradient id="SVGID_4_" gradientUnits="userSpaceOnUse" x1="0.7107" y1="378.2036" x2="508.8114" y2="378.2036">
				<stop  offset="0" style="stop-color:#80D494"/>
				<stop  offset="0.9637" style="stop-color:#54C076"/>
			</linearGradient>
			<path class="st3" d="M242.9,229.4L226.4,301c0,0,294.9,23.4,282,206.7c0,0,0-0.2-0.1-0.6c-1.6-6.7-22.4-68.1-258.3-61.1l28.4,81
				L0.7,376.3L242.9,229.4z"/>
			<linearGradient id="SVGID_5_" gradientUnits="userSpaceOnUse" x1="0.7162" y1="368.5669" x2="508.8163" y2="368.5669">
				<stop  offset="0" style="stop-color:#80D494"/>
				<stop  offset="0.9637" style="stop-color:#54C076"/>
			</linearGradient>
			<path class="st4" d="M508.4,507.8c0,0,0-0.2-0.1-0.6l0-0.2c0.8-127.6-308.1-170.9-507.6-130.7c0,0,0,0,0.1,0c0,0,0.2-0.1,0.4-0.3
				c0.1,0,0.1-0.1,0.2-0.1v0c0.1-0.1,0.2-0.2,0.4-0.2L241.8,230c0.1-0.1,0.3-0.2,0.4-0.2v0l0.2-0.1c0.1-0.1,0.2-0.1,0.3-0.2
				c0,0,0.1-0.1,0.1-0.1c0,0,0,0,0,0L226.4,301C226.4,301,521.3,324.5,508.4,507.8z"/>
			<linearGradient id="SVGID_6_" gradientUnits="userSpaceOnUse" x1="1.1991" y1="303.0231" x2="241.8425" y2="303.0231">
				<stop  offset="0" style="stop-color:#80D494"/>
				<stop  offset="0.9637" style="stop-color:#54C076"/>
			</linearGradient>
			<path class="st5" d="M1.8,375.6L241.8,230c-1.5,1-4.7,3-9.2,5.9c-6.6,4.1-15.9,10-27.2,17.1c-11.3,7-24.4,15.1-38.6,23.9
				c-14.2,8.7-29.3,17.9-44.4,27.1c-15.2,9.1-30.4,18.3-44.6,26.8c-14.3,8.5-27.6,16.4-39,23.2c-11.4,6.7-21,12.3-27.7,16.2
				c-5,2.9-8.4,4.9-9.8,5.7C1.3,376,1.3,376,1.2,376c0.1-0.1,0.1-0.1,0.2-0.1C1.5,375.8,1.7,375.7,1.8,375.6z"/>
			
				<linearGradient id="SVGID_7_" gradientUnits="userSpaceOnUse" x1="2407.8242" y1="3142.1736" x2="2455.9709" y2="3142.1736" gradientTransform="matrix(-0.9987 5.130000e-02 -5.130000e-02 -0.9987 3065.2327 3537.6689)">
				<stop  offset="0" style="stop-color:#80D494"/>
				<stop  offset="0.9637" style="stop-color:#54C076"/>
			</linearGradient>
			<path class="st6" d="M456.2,555.8c-1.7,0.9-2.8,1.4-3.3,1.7c0.5-0.3,1.9-1.1,3.8-2.2c2.6-1.4,6.3-3.6,10.6-6.3
				c2.1-1.4,4.4-3,6.8-4.6c2.3-1.8,4.8-3.5,7.2-5.6c2.4-2,4.7-4.2,7-6.5c2.2-2.4,4.2-4.8,5.8-7.5c1.7-2.6,2.8-5.4,3.5-8
				c0.6-2.7,0.5-5.2,0-7.5c-1.1-4.7-4.3-8.5-7.5-11.3c-2.7-2.4-7.1-5.2-8.2-5.9c-0.1,0-0.1-0.1-0.2-0.1c0.1,0.1,0.4,0.2,0.9,0.5
				c0.6,0.4,1.5,0.8,2.6,1.5c1.1,0.7,2.3,1.7,3.8,2.7c1.5,1,3,2.3,4.6,4c1.5,1.6,3,3.7,4,6.1c0.5,1.2,0.9,2.6,1.1,3.8
				c0.1,0.7,0.2,1.4,0.2,2.1c0,0.7,0,1.5-0.1,2.2c-0.1,0.7-0.2,1.4-0.3,2.2c-0.2,0.7-0.4,1.3-0.6,2c-0.5,1.4-1,2.8-1.7,4.1
				c-0.7,1.3-1.6,2.6-2.4,3.8c-0.8,1.2-1.7,2.4-2.7,3.6l-1.5,1.7c-0.3,0.3-0.4,0.5-0.8,0.9l-0.8,0.7c-1.1,1-2.2,2-3.2,3
				c-1.1,1-2.1,1.9-3.2,2.9c-1.1,0.9-2.2,1.8-3.3,2.6c-1.1,0.8-2.2,1.6-3.3,2.4c-1.2,0.8-2.2,1.5-3.3,2.2c-2.1,1.3-4.1,2.7-6.1,3.8
				C461.7,552.9,458.5,554.6,456.2,555.8z"/>
			
				<linearGradient id="SVGID_8_" gradientUnits="userSpaceOnUse" x1="2628.7007" y1="3231.9485" x2="2898.2529" y2="3231.9485" gradientTransform="matrix(-0.9987 5.130000e-02 -5.130000e-02 -0.9987 3065.2327 3537.6689)">
				<stop  offset="0" style="stop-color:#80D494"/>
				<stop  offset="0.9637" style="stop-color:#54C076"/>
			</linearGradient>
			<path class="st7" d="M278.4,527.1c0,0-4.4-2.2-12.2-6c-7.7-3.9-18.8-9.4-31.9-16.2c-13.2-6.8-28.5-14.7-44.9-23.4
				c-8.2-4.3-16.6-8.8-25.2-13.4c-8.6-4.6-17.2-9.3-25.9-14c-8.7-4.7-17.3-9.5-25.8-14.1c-8.5-4.7-16.9-9.3-25-13.8
				c-16.2-9-31.2-17.5-44.1-24.9c-12.9-7.3-23.5-13.6-31-18c-7.4-4.4-11.7-6.9-11.7-6.9s4.4,2.2,12.2,6c7.7,3.9,18.8,9.4,31.9,16.2
				c13.2,6.8,28.5,14.8,44.9,23.4c8.2,4.3,16.6,8.8,25.2,13.4c8.6,4.6,17.2,9.3,25.9,14c8.7,4.7,17.3,9.5,25.9,14.1
				c8.5,4.7,16.9,9.3,25,13.8c16.2,9,31.2,17.5,44.1,24.9c12.9,7.3,23.5,13.6,31,18C274.1,524.5,278.4,527.1,278.4,527.1z"/>
			<linearGradient id="SVGID_9_" gradientUnits="userSpaceOnUse" x1="139.1884" y1="547.9058" x2="139.1884" y2="376.3181">
				<stop  offset="0" style="stop-color:#80D494"/>
				<stop  offset="0.9637" style="stop-color:#54C076"/>
			</linearGradient>
			<polygon class="st8" points="0,397.8 274.1,547.9 278.4,527.1 0.7,376.3 			"/>
			
				<linearGradient id="SVGID_10_" gradientUnits="userSpaceOnUse" x1="2397.9937" y1="3194.5593" x2="2652.8792" y2="3194.5593" gradientTransform="matrix(-0.9987 5.130000e-02 -5.130000e-02 -0.9987 3065.2327 3537.6689)">
				<stop  offset="0" style="stop-color:#80D494"/>
				<stop  offset="0.9637" style="stop-color:#54C076"/>
			</linearGradient>
			<path class="st9" d="M508.4,507.7c0-0.1,0-0.3-0.1-0.7c-0.1-0.5-0.4-1.3-0.6-2.2c-0.4-0.9-0.9-2.1-1.5-3.5
				c-0.8-1.3-1.6-2.7-2.6-4.4c-1.2-1.5-2.5-3.2-4-5c-1.5-1.7-3.4-3.4-5.3-5.2c-0.9-1-2-1.8-3.2-2.7c-1.1-0.9-2.3-1.7-3.5-2.6
				c-1.2-0.9-2.4-1.9-3.7-2.7c-1.4-0.8-2.7-1.6-4.2-2.4c-2.9-1.6-5.7-3.6-9-4.9c-3.2-1.5-6.5-3-10-4.5c-3.4-1.5-7.1-2.6-10.8-4
				c-3.7-1.3-7.5-2.8-11.5-3.7c-3.9-1-8-2.1-12-3.2c-2-0.5-4.1-1.1-6.1-1.6c-2.1-0.4-4.2-0.8-6.3-1.2c-4.2-0.8-8.5-1.6-12.7-2.4
				c-2.1-0.4-4.3-0.8-6.4-1.1l-6.5-0.8c-4.3-0.5-8.6-1-12.9-1.5c-4.3-0.5-8.6-1.1-12.8-1.3c-8.5-0.5-16.9-1.1-25-1.6
				c-4.1-0.3-8.1-0.4-12-0.4c-3.9,0-7.7-0.1-11.5-0.1c-7.5-0.1-14.5-0.1-21-0.1c-13,0.5-23.8,1.1-31.4,1.4
				c-7.6,0.4-11.9,0.7-11.9,0.7C494.6,438.8,508,505.1,508.4,507.7z"/>
			
				<linearGradient id="SVGID_11_" gradientUnits="userSpaceOnUse" x1="2397.9302" y1="3240.3391" x2="2898.2637" y2="3240.3391" gradientTransform="matrix(-0.9987 5.130000e-02 -5.130000e-02 -0.9987 3065.2327 3537.6689)">
				<stop  offset="0" style="stop-color:#80D494"/>
				<stop  offset="0.9637" style="stop-color:#54C076"/>
			</linearGradient>
			<path class="st10" d="M508.3,507c0,0-0.1-2.2-0.2-6.4c-0.4-4.1-1-10.3-3.4-17.7c-2.3-7.4-6.4-16.1-12.8-24.9
				c-6.5-8.7-15.1-17.6-25.8-25.6c-5.3-4.1-11.1-8-17.2-11.7c-6.1-3.8-12.7-7.3-19.6-10.6c-13.7-6.7-28.7-12.7-44.6-17.9
				c-15.8-5.2-32.5-9.7-49.5-13.5c-17.1-3.8-34.5-7-52.1-9.6c-35.2-5-70.6-7.6-103.9-8.3c-33.3-0.8-64.3,0.6-90.9,2.8
				c-13.3,1.1-25.4,2.4-36.1,3.9c-10.7,1.4-20,2.9-27.7,4.2C17,373.1,11,374.2,7,375c-4.1,0.8-6.2,1.3-6.2,1.3
				C200.1,336.1,509,379.4,508.3,507z"/>
		</g>
	</g>
</g>
<g>
	<g>
		<g>
			<linearGradient id="SVGID_12_" gradientUnits="userSpaceOnUse" x1="705.0485" y1="521.8364" x2="757.6739" y2="521.8364">
				<stop  offset="0" style="stop-color:#80D494"/>
				<stop  offset="0.9637" style="stop-color:#54C076"/>
			</linearGradient>
			<path class="st11" d="M736.7,486c0,0-22.8,38.1,20.9,71.7C757.7,557.7,654.8,518.6,736.7,486z"/>
			
				<linearGradient id="SVGID_13_" gradientUnits="userSpaceOnUse" x1="268.654" y1="516.7078" x2="268.654" y2="478.6047" gradientTransform="matrix(-1 0 0 1 1000.0152 0)">
				<stop  offset="0" style="stop-color:#80D494"/>
				<stop  offset="0.9637" style="stop-color:#54C076"/>
			</linearGradient>
			<path class="st12" d="M736.7,486c0,0-22.8,38.1,20.9,71.7C757.7,557.7,654.8,518.6,736.7,486z"/>
			
				<linearGradient id="SVGID_14_" gradientUnits="userSpaceOnUse" x1="46.2372" y1="500.5211" x2="213.0786" y2="500.5211" gradientTransform="matrix(-1 0 0 1 1000.0152 0)">
				<stop  offset="0" style="stop-color:#80D494"/>
				<stop  offset="0.9637" style="stop-color:#54C076"/>
			</linearGradient>
			<path class="st13" d="M962.4,445.2l-1.3,16.1c-1.6-0.1-160.1-12.8-232.4,30.6c0,0-5.3,3.3-8.4,6.1c-3.2,2.9-6.4,6.7-7.5,11.3
				c-0.5,2.3-0.7,4.8,0,7.5c0.7,2.6,1.7,5.4,3.5,8c1.6,2.6,3.7,5.1,5.8,7.5c2.2,2.3,4.5,4.5,7,6.5c2.3,2.1,4.9,3.8,7.2,5.6
				c2.4,1.6,4.7,3.2,6.8,4.6c4.3,2.7,8,4.9,10.6,6.3c2.6,1.5,4.1,2.3,4.1,2.3s-1.6-0.6-4.4-1.7c-2.8-1-6.8-2.7-11.5-4.8
				c-2.3-1.1-4.9-2.3-7.5-3.6c-2.6-1.5-5.4-2.8-8.2-4.6c-2.8-1.7-5.6-3.7-8.4-5.8c-2.7-2.2-5.5-4.7-7.9-7.5
				c-2.5-2.8-4.5-6.2-6.1-9.9c-1.5-3.7-2.1-8-1.8-12c0.3-4,1.6-7.8,3.1-11c1.6-3.2,3.5-5.8,5.4-8.1c3.8-4.6,7.5-7.6,10.2-9.7
				c0,0,0.1-0.1,0.1-0.1c0,0,1.7-1.4,2.7-1.9c0.1-0.1,0.3-0.2,0.4-0.3c0.9-0.5,1.4-0.7,1.4-0.7c69-37.9,195.7-33.3,229.1-31.3
				C958.8,444.9,961.6,445.2,962.4,445.2z"/>
			<linearGradient id="SVGID_15_" gradientUnits="userSpaceOnUse" x1="701.494" y1="378.2036" x2="1209.5947" y2="378.2036">
				<stop  offset="0" style="stop-color:#80D494"/>
				<stop  offset="0.9637" style="stop-color:#54C076"/>
			</linearGradient>
			<path class="st14" d="M967.4,229.4l16.5,71.7c0,0-294.9,23.4-282,206.7c0,0,0-0.2,0.1-0.6c1.6-6.7,22.4-68.1,258.3-61.1l-28.4,81
				l277.7-150.7L967.4,229.4z"/>
			
				<linearGradient id="SVGID_16_" gradientUnits="userSpaceOnUse" x1="-209.5739" y1="368.5669" x2="298.5261" y2="368.5669" gradientTransform="matrix(-1 0 0 1 1000.0152 0)">
				<stop  offset="0" style="stop-color:#80D494"/>
				<stop  offset="0.9637" style="stop-color:#54C076"/>
			</linearGradient>
			<path class="st15" d="M701.9,507.8c0,0,0-0.2,0.1-0.6l0-0.2c-0.8-127.6,308.1-170.9,507.6-130.7c0,0,0,0-0.1,0
				c0,0-0.2-0.1-0.4-0.3c-0.1,0-0.1-0.1-0.2-0.1v0c-0.1-0.1-0.2-0.2-0.4-0.2L968.5,230c-0.1-0.1-0.3-0.2-0.4-0.2v0l-0.2-0.1
				c-0.1-0.1-0.2-0.1-0.3-0.2c0,0-0.1-0.1-0.1-0.1c0,0,0,0,0,0l16.5,71.7C983.9,301,689,324.5,701.9,507.8z"/>
			
				<linearGradient id="SVGID_17_" gradientUnits="userSpaceOnUse" x1="-209.091" y1="303.0231" x2="31.5524" y2="303.0231" gradientTransform="matrix(-1 0 0 1 1000.0152 0)">
				<stop  offset="0" style="stop-color:#80D494"/>
				<stop  offset="0.9637" style="stop-color:#54C076"/>
			</linearGradient>
			<path class="st16" d="M1208.5,375.6L968.5,230c1.5,1,4.7,3,9.2,5.9c6.6,4.1,15.9,10,27.2,17.1c11.3,7,24.5,15.1,38.6,23.9
				c14.2,8.7,29.3,17.9,44.4,27.1c15.2,9.1,30.4,18.3,44.6,26.8c14.3,8.5,27.6,16.4,39,23.2c11.4,6.7,21,12.3,27.7,16.2
				c5,2.9,8.4,4.9,9.8,5.7c0.1,0.1,0.2,0.1,0.2,0.1c-0.1-0.1-0.1-0.1-0.2-0.1C1208.8,375.8,1208.7,375.7,1208.5,375.6z"/>
			
				<linearGradient id="SVGID_18_" gradientUnits="userSpaceOnUse" x1="2617.834" y1="3152.9612" x2="2665.9807" y2="3152.9612" gradientTransform="matrix(0.9987 5.130000e-02 5.130000e-02 -0.9987 -2065.2173 3537.6689)">
				<stop  offset="0" style="stop-color:#80D494"/>
				<stop  offset="0.9637" style="stop-color:#54C076"/>
			</linearGradient>
			<path class="st17" d="M754.1,555.8c1.7,0.9,2.8,1.4,3.3,1.7c-0.5-0.3-1.9-1.1-3.8-2.2c-2.6-1.4-6.3-3.6-10.6-6.3
				c-2.1-1.4-4.4-3-6.8-4.6c-2.3-1.8-4.8-3.5-7.2-5.6c-2.4-2-4.7-4.2-7-6.5c-2.2-2.4-4.2-4.8-5.8-7.5c-1.7-2.6-2.8-5.4-3.5-8
				c-0.6-2.7-0.5-5.2,0-7.5c1.1-4.7,4.3-8.5,7.5-11.3c2.7-2.4,7.1-5.2,8.2-5.9c0.1,0,0.1-0.1,0.2-0.1c-0.1,0.1-0.4,0.2-0.9,0.5
				c-0.6,0.4-1.5,0.8-2.6,1.5c-1.1,0.7-2.3,1.7-3.8,2.7c-1.5,1-3,2.3-4.6,4c-1.5,1.6-3,3.7-4,6.1c-0.5,1.2-0.9,2.6-1.1,3.8
				c-0.1,0.7-0.2,1.4-0.2,2.1c0,0.7,0,1.5,0.1,2.2c0.1,0.7,0.2,1.4,0.3,2.2c0.2,0.7,0.4,1.3,0.6,2c0.5,1.4,1,2.8,1.7,4.1
				c0.7,1.3,1.6,2.6,2.4,3.8c0.8,1.2,1.7,2.4,2.7,3.6l1.5,1.7c0.3,0.3,0.4,0.5,0.8,0.9l0.8,0.7c1.1,1,2.2,2,3.2,3
				c1.1,1,2.1,1.9,3.2,2.9c1.1,0.9,2.2,1.8,3.3,2.6c1.1,0.8,2.2,1.6,3.3,2.4c1.2,0.8,2.2,1.5,3.3,2.2c2.1,1.3,4.1,2.7,6.1,3.8
				C748.6,552.9,751.8,554.6,754.1,555.8z"/>
			
				<linearGradient id="SVGID_19_" gradientUnits="userSpaceOnUse" x1="2838.7104" y1="3242.7358" x2="3108.2627" y2="3242.7358" gradientTransform="matrix(0.9987 5.130000e-02 5.130000e-02 -0.9987 -2065.2173 3537.6689)">
				<stop  offset="0" style="stop-color:#80D494"/>
				<stop  offset="0.9637" style="stop-color:#54C076"/>
			</linearGradient>
			<path class="st18" d="M931.9,527.1c0,0,4.4-2.2,12.2-6c7.7-3.9,18.8-9.4,31.9-16.2c13.2-6.8,28.5-14.7,44.9-23.4
				c8.2-4.3,16.6-8.8,25.2-13.4c8.6-4.6,17.2-9.3,25.9-14c8.7-4.7,17.3-9.5,25.8-14.1c8.5-4.7,16.9-9.3,25-13.8
				c16.2-9,31.2-17.5,44.1-24.9c12.9-7.3,23.5-13.6,31-18c7.4-4.4,11.7-6.9,11.7-6.9s-4.4,2.2-12.2,6c-7.7,3.9-18.8,9.4-31.9,16.2
				c-13.2,6.8-28.5,14.8-44.9,23.4c-8.2,4.3-16.6,8.8-25.2,13.4c-8.6,4.6-17.2,9.3-25.9,14c-8.7,4.7-17.3,9.5-25.9,14.1
				c-8.5,4.7-16.9,9.3-25,13.8c-16.2,9-31.2,17.5-44.1,24.9c-12.9,7.3-23.5,13.6-31,18C936.2,524.5,931.9,527.1,931.9,527.1z"/>
			
				<linearGradient id="SVGID_20_" gradientUnits="userSpaceOnUse" x1="-71.1017" y1="547.9058" x2="-71.1017" y2="376.3181" gradientTransform="matrix(-1 0 0 1 1000.0152 0)">
				<stop  offset="0" style="stop-color:#80D494"/>
				<stop  offset="0.9637" style="stop-color:#54C076"/>
			</linearGradient>
			<polygon class="st19" points="1210.3,397.8 936.2,547.9 931.9,527.1 1209.6,376.3 			"/>
			
				<linearGradient id="SVGID_21_" gradientUnits="userSpaceOnUse" x1="2608.0034" y1="3205.3467" x2="2862.8889" y2="3205.3467" gradientTransform="matrix(0.9987 5.130000e-02 5.130000e-02 -0.9987 -2065.2173 3537.6689)">
				<stop  offset="0" style="stop-color:#80D494"/>
				<stop  offset="0.9637" style="stop-color:#54C076"/>
			</linearGradient>
			<path class="st20" d="M701.9,507.7c0-0.1,0-0.3,0.1-0.7c0.1-0.5,0.4-1.3,0.6-2.2c0.4-0.9,0.9-2.1,1.5-3.5
				c0.8-1.3,1.6-2.7,2.6-4.4c1.2-1.5,2.5-3.2,4-5c1.5-1.7,3.4-3.4,5.3-5.2c0.9-1,2-1.8,3.2-2.7c1.1-0.9,2.3-1.7,3.5-2.6
				c1.2-0.9,2.4-1.9,3.7-2.7c1.4-0.8,2.7-1.6,4.2-2.4c2.9-1.6,5.7-3.6,9-4.9c3.2-1.5,6.5-3,10-4.5c3.4-1.5,7.1-2.6,10.8-4
				c3.7-1.3,7.5-2.8,11.5-3.7c3.9-1,8-2.1,12-3.2c2-0.5,4.1-1.1,6.1-1.6c2.1-0.4,4.2-0.8,6.3-1.2c4.2-0.8,8.5-1.6,12.7-2.4
				c2.1-0.4,4.3-0.8,6.4-1.1l6.5-0.8c4.3-0.5,8.6-1,12.9-1.5c4.3-0.5,8.6-1.1,12.8-1.3c8.5-0.5,16.9-1.1,25-1.6
				c4.1-0.3,8.1-0.4,12-0.4c3.9,0,7.7-0.1,11.5-0.1c7.5-0.1,14.5-0.1,21-0.1c13,0.5,23.8,1.1,31.4,1.4c7.6,0.4,11.9,0.7,11.9,0.7
				C715.7,438.8,702.3,505.1,701.9,507.7z"/>
			
				<linearGradient id="SVGID_22_" gradientUnits="userSpaceOnUse" x1="2607.9399" y1="3251.1267" x2="3108.2734" y2="3251.1267" gradientTransform="matrix(0.9987 5.130000e-02 5.130000e-02 -0.9987 -2065.2173 3537.6689)">
				<stop  offset="0" style="stop-color:#80D494"/>
				<stop  offset="0.9637" style="stop-color:#54C076"/>
			</linearGradient>
			<path class="st21" d="M702,507c0,0,0.1-2.2,0.2-6.4c0.4-4.1,1-10.3,3.4-17.7c2.3-7.4,6.4-16.1,12.8-24.9
				c6.5-8.7,15.1-17.6,25.8-25.6c5.3-4.1,11.1-8,17.2-11.7c6.1-3.8,12.7-7.3,19.6-10.6c13.7-6.7,28.7-12.7,44.6-17.9
				c15.8-5.2,32.5-9.7,49.5-13.5c17.1-3.8,34.5-7,52.1-9.6c35.2-5,70.6-7.6,103.9-8.3c33.3-0.8,64.3,0.6,90.9,2.8
				c13.3,1.1,25.4,2.4,36.1,3.9c10.7,1.4,20,2.9,27.7,4.2c7.7,1.3,13.6,2.5,17.7,3.3c4.1,0.8,6.2,1.3,6.2,1.3
				C1010.2,336.1,701.3,379.4,702,507z"/>
		</g>
	</g>
</g>
<g>
	<g>
		<g>
			<linearGradient id="SVGID_23_" gradientUnits="userSpaceOnUse" x1="462.7862" y1="135.3047" x2="627.8055" y2="135.3047">
				<stop  offset="0" style="stop-color:#80D494"/>
				<stop  offset="0.9637" style="stop-color:#54C076"/>
			</linearGradient>
			<polygon class="st22" points="627.8,0 607.8,0 462.8,270.6 482.5,270.6 			"/>
			
				<linearGradient id="SVGID_24_" gradientUnits="userSpaceOnUse" x1="291.9781" y1="292.5538" x2="291.9781" y2="127.5345" gradientTransform="matrix(0 1 -1 0 755.3401 -156.6734)">
				<stop  offset="0" style="stop-color:#80D494"/>
				<stop  offset="0.9637" style="stop-color:#54C076"/>
			</linearGradient>
			<polygon class="st23" points="627.8,0 607.8,0 462.8,270.6 482.5,270.6 			"/>
			
				<linearGradient id="SVGID_25_" gradientUnits="userSpaceOnUse" x1="564.9772" y1="272.8441" x2="564.9772" y2="189.666" gradientTransform="matrix(0 1 -1 0 755.3401 -156.6734)">
				<stop  offset="0" style="stop-color:#80D494"/>
				<stop  offset="0.9637" style="stop-color:#54C076"/>
			</linearGradient>
			<path class="st24" d="M565.7,446.6c0-51.1-2-200.1-2-200.1l-15.2,4.5c0,20.9,0,77,0,153.5c0,87.2-1.2,146.4-66,165.3
				C482.5,569.9,565.7,580.7,565.7,446.6z"/>
			
				<linearGradient id="SVGID_26_" gradientUnits="userSpaceOnUse" x1="414.2378" y1="75.4212" x2="414.2378" y2="-4.7471" gradientTransform="matrix(0 1 -1 0 755.3401 -156.6734)">
				<stop  offset="0" style="stop-color:#80D494"/>
				<stop  offset="0.9637" style="stop-color:#54C076"/>
			</linearGradient>
			<polygon class="st25" points="760.1,272.6 719.8,272.6 679.9,257.9 679.9,242.5 			"/>
			<linearGradient id="SVGID_27_" gradientUnits="userSpaceOnUse" x1="482.5023" y1="298.6116" x2="760.0872" y2="298.6116">
				<stop  offset="0" style="stop-color:#80D494"/>
				<stop  offset="0.9637" style="stop-color:#54C076"/>
			</linearGradient>
			<path class="st26" d="M482.5,569.8c0,0,83.2,10.8,83.2-123.3c0-47.6-1.7-175.3-2-197.5c0-0.2,0-0.5,0-0.7v-1.8l-1.8,0.5l-0.7,0.2
				l-78.7,23.3L627.8,0l132.3,272.6l-80.2-30.1c0,0,0,61.8,0,206.1C679.9,622.8,556,614.8,482.5,569.8z"/>
			
				<linearGradient id="SVGID_28_" gradientUnits="userSpaceOnUse" x1="156.6889" y1="200.1861" x2="427.2673" y2="200.1861" gradientTransform="matrix(0 1 -1 0 755.3401 -156.6734)">
				<stop  offset="0" style="stop-color:#80D494"/>
				<stop  offset="0.9637" style="stop-color:#54C076"/>
			</linearGradient>
			<path class="st27" d="M482.5,270.6c0,0,2.5-4.1,6.8-11.3c4.2-7.3,10.4-17.6,17.5-30.1c7.1-12.5,15.4-27.1,24.1-42.9
				c4.3-7.9,8.8-16,13.4-24.3c4.5-8.3,9.1-16.7,13.6-25.2c4.5-8.5,9-16.9,13.5-25.3c4.4-8.4,8.7-16.6,12.9-24.6
				c8.3-16,16-30.9,22.5-43.8c6.5-12.8,11.7-23.7,15.5-31.2c3.7-7.5,5.7-11.9,5.7-11.9L482.6,270.5
				C482.5,270.5,482.5,270.6,482.5,270.6z"/>
			
				<linearGradient id="SVGID_29_" gradientUnits="userSpaceOnUse" x1="156.6734" y1="134.015" x2="753.8963" y2="134.015" gradientTransform="matrix(0 1 -1 0 755.3401 -156.6734)">
				<stop  offset="0" style="stop-color:#80D494"/>
				<stop  offset="0.9637" style="stop-color:#54C076"/>
			</linearGradient>
			<path class="st28" d="M485,571.3c-0.3-0.2-0.5-0.3-0.8-0.5c-0.3-0.2-0.5-0.3-0.8-0.5c-0.2-0.1-0.3-0.2-0.4-0.2v0
				c-0.1,0-0.1,0-0.2-0.1c-0.1-0.1-0.1-0.1-0.2-0.2c92.5,27.3,145.2-29.3,145.2-139.5c0-197.4,0-430.3,0-430.3s0,0,0,0.1
				c0,0,0,0.1,0.1,0.1L760,272.4c0,0.1,0.1,0.1,0.1,0.1c0,0,0,0.1,0,0.1l-77.8-29.2l-0.8-0.3l-1.6-0.6c0,0,0,0.6,0,1.7v204.4
				C679.9,620.8,558.7,614.9,485,571.3z"/>
			
				<linearGradient id="SVGID_30_" gradientUnits="userSpaceOnUse" x1="395.6867" y1="36.8448" x2="605.2645" y2="36.8448" gradientTransform="matrix(0 1 -1 0 755.3401 -156.6734)">
				<stop  offset="0" style="stop-color:#80D494"/>
				<stop  offset="0.9637" style="stop-color:#54C076"/>
			</linearGradient>
			<path class="st29" d="M679.9,448.6c-0.5-10-0.8-20.1-1.1-30.1c-0.4-10-0.6-20-0.8-30.1c-0.4-20.1-0.7-5.6-0.9-25.7l-0.2-30.1
				c-0.1-10,0-20.1,0-30.1l0.2-30.1l0.4-30.1l0-3.5l3.2,1.3c13.3,5.2,26.5,10.5,39.8,15.9c13.2,5.5,26.5,10.8,39.6,16.4l-77.8-29.2
				l-0.8-0.3l-1.6-0.6c0,0,0,0.6,0,1.7V448.6z"/>
			
				<linearGradient id="SVGID_31_" gradientUnits="userSpaceOnUse" x1="156.6889" y1="199.4348" x2="733.6754" y2="199.4348" gradientTransform="matrix(0 1 -1 0 755.3401 -156.6734)">
				<stop  offset="0" style="stop-color:#80D494"/>
				<stop  offset="0.9637" style="stop-color:#54C076"/>
			</linearGradient>
			<path class="st30" d="M482.5,569.9c0,0,2.7,0.7,7.7,2c2.5,0.6,5.7,1.2,9.4,2c3.7,0.6,8,1.4,12.8,1.8c2.4,0.3,5,0.4,7.6,0.5
				c2.7,0.2,5.5,0.1,8.4,0c2.9,0,5.9-0.4,9.1-0.6c3.1-0.5,6.3-0.8,9.6-1.7c13.1-2.7,27.4-9.2,39.5-20.4
				c12.2-11.1,21.8-26.8,28.2-44.6c6.4-17.8,9.7-37.7,11.1-58.4c0.6-10.3,0.6-20.9,0.6-31.6c0-10.7,0-21.5,0-32.4
				c0-21.8-0.1-9.6-0.1-31.7c0.1-44.4,0.1-88.7,0.2-130.3c0.2-41.6,0.3-80.4,0.5-113.7C627.5,44.4,627.8,0,627.8,0
				s0.3,44.4,0.8,110.9c0.1,33.3,0.3,72.1,0.5,113.7c0.1,41.6,0.1,85.9,0.2,130.3c0,22.2-0.1,9.9-0.1,31.7c0,10.9,0,21.7-0.1,32.4
				c0,10.7,0,21.3-0.7,31.7c-1.4,20.8-5,40.9-11.7,58.9c-6.6,18-16.5,33.8-29.1,45.1c-12.5,11.3-27.1,17.7-40.4,20.2
				c-3.3,0.8-6.6,1-9.7,1.5c-3.2,0.2-6.2,0.5-9.1,0.5c-2.9,0-5.7,0.1-8.4-0.2c-2.7-0.2-5.2-0.3-7.7-0.6c-4.8-0.5-9.1-1.3-12.8-2
				c-3.7-0.8-6.8-1.5-9.3-2.2C485.2,570.6,482.5,569.9,482.5,569.9z"/>
			
				<linearGradient id="SVGID_32_" gradientUnits="userSpaceOnUse" x1="156.8829" y1="61.3634" x2="429.2069" y2="61.3634" gradientTransform="matrix(0 1 -1 0 755.3401 -156.6734)">
				<stop  offset="0" style="stop-color:#80D494"/>
				<stop  offset="0.9637" style="stop-color:#54C076"/>
			</linearGradient>
			<path class="st31" d="M760.1,272.5c-0.3-0.5-2.5-4.5-6.2-11.4c-3.8-7.3-9.5-17.7-16-30.4c-6.6-12.6-14.1-27.4-22-43.3
				c-4-7.9-8.1-16.2-12.2-24.5c-4.1-8.4-8.2-16.9-12.4-25.4c-4.1-8.5-8.2-17.1-12.2-25.5c-4-8.4-7.9-16.7-11.7-24.7
				c-7.5-16.1-14.5-31.1-20.4-44.1C641,30.4,636.3,19.5,633,12c-2.9-6.6-4.7-10.9-5.1-11.8L760,272.4
				C760,272.5,760.1,272.5,760.1,272.5z"/>
			
				<linearGradient id="SVGID_33_" gradientUnits="userSpaceOnUse" x1="605.2645" y1="174.0009" x2="753.8963" y2="174.0009" gradientTransform="matrix(0 1 -1 0 755.3401 -156.6734)">
				<stop  offset="0" style="stop-color:#80D494"/>
				<stop  offset="0.9637" style="stop-color:#54C076"/>
			</linearGradient>
			<path class="st32" d="M485,571.3c-0.3-0.2-0.5-0.3-0.8-0.5c-0.3-0.2-0.5-0.3-0.8-0.5c-0.2-0.1-0.3-0.2-0.4-0.2
				c-0.1-0.1-0.1-0.1-0.2-0.1c0.1,0,0.1,0.1,0.2,0.1c0.5,0.3,1.3,0.8,2.6,1.4c1.9,1.1,4.8,2.6,8.5,4.5c1.8,1,3.9,2,6.2,3
				c2.3,1,4.7,2.2,7.4,3.2c2.7,1.1,5.5,2.3,8.5,3.3c3,1.1,6.3,2.2,9.6,3.2c3.3,1.1,6.9,1.9,10.6,2.9c3.7,0.7,7.5,1.7,11.5,2.3
				c7.9,1.4,16.4,2.1,25.2,2c8.8-0.1,17.9-0.9,26.7-3.3c8.9-2.3,17.6-5.9,25.5-10.8c7.9-4.8,15.1-10.9,21-18
				c5.9-7,11-14.5,14.7-22.5c2.1-3.8,3.5-8,5.2-11.8c1.6-3.9,2.7-7.9,4.1-11.7c1.1-3.9,2-7.7,3-11.4c0.8-3.7,1.5-7.3,2.2-10.8
				c0.8-3.5,1-6.9,1.6-10c0.4-3.2,1-6.2,1.1-9.1c0.5-5.7,1.1-10.7,1.2-14.9c0.4-8.3,0.6-13,0.6-13
				C679.9,620.8,558.7,614.9,485,571.3z"/>
			
				<linearGradient id="SVGID_34_" gradientUnits="userSpaceOnUse" x1="402.5228" y1="191.9652" x2="426.575" y2="269.1956" gradientTransform="matrix(0 1 -1 0 755.3401 -156.6734)">
				<stop  offset="0" style="stop-color:#80D494"/>
				<stop  offset="0.9637" style="stop-color:#54C076"/>
			</linearGradient>
			<polygon class="st33" points="482.5,270.6 563.3,245.1 563.7,246.5 561.9,247 561.2,247.2 			"/>
		</g>
	</g>
</g>
<g>
</g>
<g>
</g>
<g>
</g>
<g>
</g>
<g>
</g>
<g>
</g>
<g>
</g>
<g>
</g>
<g>
</g>
<g>
</g>
<g>
</g>
<g>
</g>
<g>
</g>
<g>
</g>
<g>
</g>
</svg>
