<?xml version="1.0" encoding="utf-8"?>
<!-- Generator: Adobe Illustrator 25.2.1, SVG Export Plug-In . SVG Version: 6.00 Build 0)  -->
<svg version="1.1" id="Camada_1" xmlns="http://www.w3.org/2000/svg" xmlns:xlink="http://www.w3.org/1999/xlink" x="0px" y="0px"
	 viewBox="0 0 966.9 509.3" style="enable-background:new 0 0 966.9 509.3;" xml:space="preserve">
<style type="text/css">
	.st0{fill:url(#SVGID_1_);}
	.st1{fill:url(#SVGID_2_);}
	.st2{fill:url(#SVGID_3_);}
	.st3{fill:url(#SVGID_4_);}
	.st4{fill:url(#SVGID_5_);}
	.st5{fill:url(#SVGID_6_);}
	.st6{fill:url(#SVGID_7_);}
	.st7{fill:url(#SVGID_8_);}
	.st8{fill:url(#SVGID_9_);}
	.st9{fill:url(#SVGID_10_);}
	.st10{fill:url(#SVGID_11_);}
	.st11{fill:url(#SVGID_12_);}
	.st12{fill:url(#SVGID_13_);}
	.st13{fill:url(#SVGID_14_);}
	.st14{fill:url(#SVGID_15_);}
	.st15{fill:url(#SVGID_16_);}
	.st16{fill:url(#SVGID_17_);}
	.st17{fill:url(#SVGID_18_);}
	.st18{fill:url(#SVGID_19_);}
	.st19{fill:url(#SVGID_20_);}
	.st20{fill:url(#SVGID_21_);}
	.st21{fill:url(#SVGID_22_);}
	.st22{fill:url(#SVGID_23_);}
	.st23{fill:url(#SVGID_24_);}
	.st24{fill:url(#SVGID_25_);}
	.st25{fill:url(#SVGID_26_);}
	.st26{fill:url(#SVGID_27_);}
	.st27{fill:url(#SVGID_28_);}
	.st28{fill:url(#SVGID_29_);}
	.st29{fill:url(#SVGID_30_);}
	.st30{fill:url(#SVGID_31_);}
	.st31{fill:url(#SVGID_32_);}
	.st32{fill:url(#SVGID_33_);}
	.st33{fill:url(#SVGID_34_);}
</style>
<g>
	<g>
		<path d="M423.4,35.7V6.3h12.7c2.6,0,4.9,0.4,6.8,1.3c1.9,0.9,3.4,2.1,4.4,3.7s1.6,3.5,1.6,5.7c0,2.2-0.5,4.1-1.6,5.6
			c-1,1.6-2.5,2.8-4.4,3.6c-1.9,0.8-4.2,1.3-6.8,1.3h-8.9l3-3v11.2H423.4z M430.2,25.3l-3-3.2h8.6c2.1,0,3.7-0.5,4.7-1.4
			c1-0.9,1.6-2.2,1.6-3.8c0-1.6-0.5-2.9-1.6-3.8c-1-0.9-2.6-1.3-4.7-1.3h-8.6l3-3.2V25.3z M442.1,35.7L434.7,25h7.3l7.4,10.7H442.1z
			"/>
		<path d="M464.5,36c-2.4,0-4.5-0.5-6.4-1.5s-3.3-2.4-4.4-4.1c-1.1-1.8-1.6-3.7-1.6-6c0-2.3,0.5-4.3,1.6-6c1.1-1.7,2.5-3.1,4.4-4.1
			s4-1.5,6.4-1.5c2.4,0,4.5,0.5,6.4,1.5s3.3,2.4,4.4,4.1c1.1,1.7,1.6,3.8,1.6,6c0,2.2-0.5,4.2-1.6,6s-2.5,3.1-4.4,4.1
			S466.9,36,464.5,36z M464.5,30.7c1.1,0,2.1-0.3,2.9-0.8c0.9-0.5,1.6-1.2,2.1-2.2c0.5-0.9,0.8-2.1,0.8-3.3c0-1.3-0.3-2.4-0.8-3.4
			s-1.2-1.6-2.1-2.1c-0.9-0.5-1.8-0.8-2.9-0.8s-2.1,0.3-2.9,0.8s-1.6,1.2-2.1,2.1s-0.8,2-0.8,3.4c0,1.3,0.3,2.4,0.8,3.3
			c0.5,0.9,1.2,1.7,2.1,2.2S463.4,30.7,464.5,30.7z"/>
		<path d="M478.6,18.6v-5h15.7v5H478.6z M490.5,36c-2.7,0-4.7-0.7-6.2-2c-1.5-1.4-2.2-3.4-2.2-6.1V8.1h6.6v19.7c0,1,0.3,1.7,0.8,2.2
			s1.2,0.8,2.1,0.8c1,0,1.9-0.3,2.6-0.8l1.8,4.6c-0.7,0.5-1.5,0.8-2.4,1.1C492.5,35.9,491.5,36,490.5,36z"/>
		<path d="M506.5,36c-1.8,0-3.3-0.3-4.5-0.9c-1.3-0.6-2.2-1.4-2.9-2.5s-1-2.2-1-3.5c0-1.3,0.3-2.5,1-3.5c0.7-1,1.7-1.8,3.1-2.4
			c1.4-0.6,3.3-0.9,5.6-0.9h6v3.8h-5.3c-1.5,0-2.6,0.3-3.2,0.8c-0.6,0.5-0.9,1.1-0.9,1.9c0,0.8,0.3,1.5,1,2c0.7,0.5,1.6,0.7,2.7,0.7
			c1.1,0,2.1-0.3,2.9-0.8c0.9-0.5,1.5-1.3,1.9-2.3l1,3c-0.5,1.5-1.3,2.6-2.6,3.3C510.1,35.7,508.5,36,506.5,36z M513.4,35.7v-4.4
			l-0.4-1v-7.9c0-1.4-0.4-2.5-1.3-3.3c-0.9-0.8-2.2-1.2-3.9-1.2c-1.2,0-2.4,0.2-3.5,0.6s-2.1,0.9-3,1.5l-2.4-4.6
			c1.2-0.9,2.7-1.5,4.5-2c1.7-0.5,3.5-0.7,5.3-0.7c3.4,0,6.1,0.8,8,2.4c1.9,1.6,2.9,4.2,2.9,7.6v12.9H513.4z"/>
		<path d="M540.5,35.7V8.8l2.9,2.9h-8.8V6.3h12.7v29.4H540.5z"/>
	</g>
</g>
<g>
	<g>
		<path d="M3.5,255.2v-29.4h12.7c2.6,0,4.9,0.4,6.8,1.3c1.9,0.9,3.4,2.1,4.4,3.7c1,1.6,1.6,3.5,1.6,5.7c0,2.2-0.5,4.1-1.6,5.6
			c-1,1.6-2.5,2.8-4.4,3.6c-1.9,0.8-4.2,1.3-6.8,1.3H7.3l3-3v11.2H3.5z M10.3,244.8l-3-3.2h8.6c2.1,0,3.7-0.5,4.7-1.4
			c1-0.9,1.6-2.2,1.6-3.8c0-1.6-0.5-2.9-1.6-3.8c-1-0.9-2.6-1.3-4.7-1.3H7.3l3-3.2V244.8z M22.2,255.2l-7.3-10.7h7.3l7.4,10.7H22.2z
			"/>
		<path d="M44.6,255.6c-2.4,0-4.5-0.5-6.4-1.5c-1.9-1-3.3-2.4-4.4-4.1c-1.1-1.7-1.6-3.7-1.6-6c0-2.3,0.5-4.3,1.6-6
			c1.1-1.7,2.5-3.1,4.4-4.1c1.9-1,4-1.5,6.4-1.5c2.4,0,4.5,0.5,6.4,1.5c1.9,1,3.3,2.4,4.4,4.1c1.1,1.7,1.6,3.8,1.6,6
			c0,2.2-0.5,4.2-1.6,6c-1.1,1.8-2.5,3.1-4.4,4.1C49.2,255.1,47,255.6,44.6,255.6z M44.6,250.2c1.1,0,2.1-0.3,2.9-0.8
			c0.9-0.5,1.6-1.2,2.1-2.2c0.5-0.9,0.8-2.1,0.8-3.3c0-1.3-0.3-2.4-0.8-3.4s-1.2-1.6-2.1-2.1c-0.9-0.5-1.8-0.8-2.9-0.8
			c-1.1,0-2.1,0.3-2.9,0.8c-0.9,0.5-1.6,1.2-2.1,2.1s-0.8,2-0.8,3.4c0,1.3,0.3,2.4,0.8,3.3c0.5,0.9,1.2,1.7,2.1,2.2
			C42.6,249.9,43.6,250.2,44.6,250.2z"/>
		<path d="M58.7,238.2v-5h15.7v5H58.7z M70.6,255.6c-2.7,0-4.7-0.7-6.2-2c-1.5-1.4-2.2-3.4-2.2-6.1v-19.8h6.6v19.7
			c0,1,0.3,1.7,0.8,2.2c0.5,0.5,1.2,0.8,2.1,0.8c1,0,1.9-0.3,2.6-0.8l1.8,4.6c-0.7,0.5-1.5,0.8-2.4,1.1
			C72.6,255.4,71.7,255.6,70.6,255.6z"/>
		<path d="M86.6,255.6c-1.8,0-3.3-0.3-4.5-0.9c-1.3-0.6-2.2-1.4-2.9-2.5c-0.7-1-1-2.2-1-3.5c0-1.3,0.3-2.5,1-3.5
			c0.7-1,1.7-1.8,3.1-2.4c1.4-0.6,3.3-0.9,5.6-0.9h6v3.8h-5.3c-1.5,0-2.6,0.3-3.2,0.8c-0.6,0.5-0.9,1.1-0.9,1.9c0,0.8,0.3,1.5,1,2
			c0.7,0.5,1.6,0.7,2.7,0.7c1.1,0,2.1-0.3,2.9-0.8c0.9-0.5,1.5-1.3,1.9-2.3l1,3c-0.5,1.5-1.3,2.6-2.6,3.3
			C90.3,255.2,88.6,255.6,86.6,255.6z M93.5,255.2v-4.4l-0.4-1V242c0-1.4-0.4-2.5-1.3-3.3c-0.9-0.8-2.2-1.2-3.9-1.2
			c-1.2,0-2.4,0.2-3.5,0.6c-1.2,0.4-2.1,0.9-3,1.5L79,235c1.2-0.9,2.7-1.5,4.5-2c1.7-0.5,3.5-0.7,5.3-0.7c3.4,0,6.1,0.8,8,2.4
			c1.9,1.6,2.9,4.2,2.9,7.6v12.9H93.5z"/>
		<path d="M115.8,255.2v-4.4l11.3-10.7c0.9-0.8,1.6-1.5,2-2.2c0.4-0.6,0.7-1.2,0.9-1.8c0.2-0.5,0.2-1,0.2-1.5c0-1.2-0.4-2.1-1.2-2.7
			c-0.8-0.6-2-0.9-3.5-0.9c-1.2,0-2.4,0.2-3.4,0.7c-1.1,0.5-1.9,1.2-2.7,2.2l-5-3.2c1.1-1.7,2.7-3,4.7-4c2-1,4.3-1.5,7-1.5
			c2.2,0,4.1,0.4,5.7,1.1c1.6,0.7,2.9,1.7,3.8,3s1.4,2.8,1.4,4.6c0,1-0.1,1.9-0.4,2.8c-0.2,0.9-0.7,1.9-1.4,3
			c-0.7,1-1.8,2.2-3.1,3.5l-9.4,8.9l-1.3-2.5h16.6v5.5H115.8z"/>
	</g>
</g>
<g>
	<g>
		<path d="M831.1,254.7v-29.4h12.7c2.6,0,4.9,0.4,6.8,1.3c1.9,0.9,3.4,2.1,4.4,3.7c1,1.6,1.6,3.5,1.6,5.7c0,2.2-0.5,4.1-1.6,5.6
			s-2.5,2.8-4.4,3.6c-1.9,0.8-4.2,1.3-6.8,1.3h-8.9l3-3v11.2H831.1z M837.9,244.3l-3-3.2h8.6c2.1,0,3.7-0.5,4.7-1.4
			c1-0.9,1.6-2.2,1.6-3.8c0-1.6-0.5-2.9-1.6-3.8c-1-0.9-2.6-1.3-4.7-1.3h-8.6l3-3.2V244.3z M849.8,254.7l-7.3-10.7h7.3l7.4,10.7
			H849.8z"/>
		<path d="M872.2,255.1c-2.4,0-4.5-0.5-6.4-1.5s-3.3-2.4-4.4-4.1c-1.1-1.7-1.6-3.7-1.6-6c0-2.3,0.5-4.3,1.6-6
			c1.1-1.7,2.5-3.1,4.4-4.1c1.9-1,4-1.5,6.4-1.5c2.4,0,4.5,0.5,6.4,1.5c1.9,1,3.3,2.4,4.4,4.1c1.1,1.7,1.6,3.8,1.6,6
			c0,2.2-0.5,4.2-1.6,6c-1.1,1.8-2.5,3.1-4.4,4.1S874.6,255.1,872.2,255.1z M872.2,249.7c1.1,0,2.1-0.3,2.9-0.8
			c0.9-0.5,1.6-1.2,2.1-2.2c0.5-0.9,0.8-2.1,0.8-3.3c0-1.3-0.3-2.4-0.8-3.4s-1.2-1.6-2.1-2.1c-0.9-0.5-1.8-0.8-2.9-0.8
			s-2.1,0.3-2.9,0.8c-0.9,0.5-1.6,1.2-2.1,2.1c-0.5,0.9-0.8,2-0.8,3.4c0,1.3,0.3,2.4,0.8,3.3c0.5,0.9,1.2,1.7,2.1,2.2
			C870.2,249.4,871.1,249.7,872.2,249.7z"/>
		<path d="M886.3,237.7v-5H902v5H886.3z M898.2,255.1c-2.7,0-4.7-0.7-6.2-2c-1.5-1.4-2.2-3.4-2.2-6.1v-19.8h6.6v19.7
			c0,1,0.3,1.7,0.8,2.2c0.5,0.5,1.2,0.8,2.1,0.8c1,0,1.9-0.3,2.6-0.8l1.8,4.6c-0.7,0.5-1.5,0.8-2.4,1.1
			C900.2,254.9,899.2,255.1,898.2,255.1z"/>
		<path d="M914.2,255.1c-1.8,0-3.3-0.3-4.5-0.9c-1.3-0.6-2.2-1.4-2.9-2.5c-0.7-1-1-2.2-1-3.5c0-1.3,0.3-2.5,1-3.5s1.7-1.8,3.1-2.4
			c1.4-0.6,3.3-0.9,5.6-0.9h6v3.8h-5.3c-1.5,0-2.6,0.3-3.2,0.8s-0.9,1.1-0.9,1.9c0,0.8,0.3,1.5,1,2c0.7,0.5,1.6,0.7,2.7,0.7
			c1.1,0,2.1-0.3,2.9-0.8c0.9-0.5,1.5-1.3,1.9-2.3l1,3c-0.5,1.5-1.3,2.6-2.6,3.3C917.9,254.7,916.2,255.1,914.2,255.1z M921.1,254.7
			v-4.4l-0.4-1v-7.9c0-1.4-0.4-2.5-1.3-3.3c-0.9-0.8-2.2-1.2-3.9-1.2c-1.2,0-2.4,0.2-3.5,0.6s-2.1,0.9-3,1.5l-2.4-4.6
			c1.2-0.9,2.7-1.5,4.5-2c1.7-0.5,3.5-0.7,5.3-0.7c3.4,0,6.1,0.8,8,2.4s2.9,4.2,2.9,7.6v12.9H921.1z"/>
		<path d="M953.2,255.2c-2,0-4.1-0.3-6.1-0.8c-2-0.5-3.7-1.3-5.1-2.3l2.6-5.2c1.1,0.8,2.4,1.5,3.9,1.9c1.5,0.5,3,0.7,4.5,0.7
			c1.7,0,3.1-0.3,4-1c1-0.7,1.5-1.6,1.5-2.8c0-1.1-0.4-2-1.3-2.6c-0.9-0.6-2.3-1-4.2-1h-3.1v-4.5l8.2-9.3l0.8,2.4h-15.4v-5.5h20.6
			v4.4l-8.1,9.3l-3.4-2h2c3.6,0,6.3,0.8,8.2,2.4c1.8,1.6,2.8,3.7,2.8,6.3c0,1.7-0.4,3.2-1.3,4.6c-0.9,1.4-2.2,2.6-4,3.5
			C958.3,254.8,956,255.2,953.2,255.2z"/>
	</g>
</g>
<g>
	<g>
		<g>
			<g>
				<linearGradient id="SVGID_1_" gradientUnits="userSpaceOnUse" x1="356.1056" y1="452.1278" x2="395.9872" y2="452.1278">
					<stop  offset="0" style="stop-color:#80D494"/>
					<stop  offset="0.9637" style="stop-color:#54C076"/>
				</linearGradient>
				<path class="st0" d="M372,425c0,0,17.3,28.9-15.9,54.3C356.1,479.3,434.1,449.6,372,425z"/>
				<linearGradient id="SVGID_2_" gradientUnits="userSpaceOnUse" x1="376.0464" y1="448.2412" x2="376.0464" y2="419.3652">
					<stop  offset="0" style="stop-color:#80D494"/>
					<stop  offset="0.9637" style="stop-color:#54C076"/>
				</linearGradient>
				<path class="st1" d="M372,425c0,0,17.3,28.9-15.9,54.3C356.1,479.3,434.1,449.6,372,425z"/>
				<linearGradient id="SVGID_3_" gradientUnits="userSpaceOnUse" x1="207.4904" y1="435.9742" x2="333.9292" y2="435.9742">
					<stop  offset="0" style="stop-color:#80D494"/>
					<stop  offset="0.9637" style="stop-color:#54C076"/>
				</linearGradient>
				<path class="st2" d="M201,394.1l1,12.2c1.2-0.1,121.3-9.7,176.1,23.2c0,0,4,2.5,6.4,4.6c2.4,2.2,4.9,5.1,5.7,8.6
					c0.4,1.8,0.5,3.7,0,5.7c-0.5,2-1.3,4.1-2.6,6.1c-1.2,2-2.8,3.9-4.4,5.7c-1.7,1.7-3.4,3.4-5.3,4.9c-1.8,1.6-3.7,2.9-5.4,4.2
					c-1.8,1.2-3.6,2.4-5.1,3.5c-3.3,2-6,3.7-8,4.8c-2,1.1-3.1,1.8-3.1,1.8s1.2-0.5,3.3-1.3c2.1-0.8,5.1-2,8.7-3.6
					c1.8-0.8,3.7-1.8,5.7-2.7c2-1.1,4.1-2.1,6.2-3.5c2.1-1.3,4.3-2.8,6.4-4.4c2.1-1.7,4.1-3.5,6-5.7c1.9-2.1,3.4-4.7,4.6-7.5
					c1.1-2.8,1.6-6,1.3-9.1c-0.3-3-1.2-5.9-2.4-8.3c-1.2-2.4-2.7-4.4-4.1-6.2c-2.9-3.5-5.7-5.8-7.8-7.3c0,0-0.1,0-0.1-0.1
					c0,0-1.3-1-2-1.4c-0.1-0.1-0.2-0.2-0.3-0.2c-0.6-0.4-1-0.5-1-0.5c-52.3-28.8-148.3-25.2-173.6-23.7
					C203.7,393.9,201.6,394,201,394.1z"/>
				<linearGradient id="SVGID_4_" gradientUnits="userSpaceOnUse" x1="13.6227" y1="343.2773" x2="398.6809" y2="343.2773">
					<stop  offset="0" style="stop-color:#80D494"/>
					<stop  offset="0.9637" style="stop-color:#54C076"/>
				</linearGradient>
				<path class="st3" d="M197.2,230.5l-12.5,54.3c0,0,223.5,17.8,213.7,156.7c0,0,0-0.2-0.1-0.4c-1.2-5.1-17-51.6-195.7-46.3
					l21.5,61.4L13.6,341.8L197.2,230.5z"/>
				<linearGradient id="SVGID_5_" gradientUnits="userSpaceOnUse" x1="13.6269" y1="335.9743" x2="398.6847" y2="335.9743">
					<stop  offset="0" style="stop-color:#80D494"/>
					<stop  offset="0.9637" style="stop-color:#54C076"/>
				</linearGradient>
				<path class="st4" d="M398.4,441.5c0,0,0-0.2-0.1-0.5l0-0.1c0.6-96.7-233.5-129.5-384.6-99c0,0,0,0,0,0c0,0,0.2-0.1,0.3-0.2
					c0,0,0.1,0,0.2-0.1v0c0.1-0.1,0.2-0.1,0.3-0.2L196.4,231c0.1-0.1,0.2-0.1,0.3-0.2v0l0.2-0.1c0.1,0,0.2-0.1,0.2-0.1
					c0,0,0.1,0,0.1-0.1c0,0,0,0,0,0l-12.5,54.3C184.7,284.8,408.1,302.6,398.4,441.5z"/>
				<linearGradient id="SVGID_6_" gradientUnits="userSpaceOnUse" x1="13.9929" y1="286.3027" x2="196.3617" y2="286.3027">
					<stop  offset="0" style="stop-color:#80D494"/>
					<stop  offset="0.9637" style="stop-color:#54C076"/>
				</linearGradient>
				<path class="st5" d="M14.4,341.3L196.4,231c-1.2,0.8-3.6,2.3-7,4.4c-5,3.1-12.1,7.6-20.6,12.9c-8.6,5.3-18.5,11.5-29.2,18.1
					c-10.7,6.6-22.2,13.6-33.6,20.6c-11.5,6.9-23,13.8-33.8,20.3c-10.8,6.4-20.9,12.4-29.6,17.6c-8.7,5.1-15.9,9.3-21,12.3
					c-3.8,2.2-6.4,3.7-7.5,4.3c-0.1,0-0.1,0.1-0.2,0.1c0,0,0.1-0.1,0.2-0.1C14.2,341.4,14.3,341.4,14.4,341.3z"/>
				
					<linearGradient id="SVGID_7_" gradientUnits="userSpaceOnUse" x1="1529.8826" y1="3086.5457" x2="1566.37" y2="3086.5457" gradientTransform="matrix(-0.9987 5.130000e-02 -5.130000e-02 -0.9987 2077.7405 3457.1367)">
					<stop  offset="0" style="stop-color:#80D494"/>
					<stop  offset="0.9637" style="stop-color:#54C076"/>
				</linearGradient>
				<path class="st6" d="M358.8,477.9c-1.3,0.7-2.1,1.1-2.5,1.3c0.4-0.2,1.4-0.8,2.9-1.7c2-1.1,4.8-2.8,8.1-4.8
					c1.6-1.1,3.3-2.3,5.1-3.5c1.7-1.4,3.7-2.7,5.4-4.2c1.8-1.5,3.6-3.2,5.3-4.9c1.6-1.8,3.2-3.7,4.4-5.7c1.3-2,2.1-4.1,2.6-6.1
					c0.5-2,0.4-3.9,0-5.7c-0.8-3.5-3.3-6.4-5.7-8.6c-2-1.8-5.4-4-6.2-4.5c-0.1,0-0.1-0.1-0.1-0.1c0.1,0.1,0.3,0.2,0.6,0.4
					c0.4,0.3,1.1,0.6,1.9,1.2c0.8,0.6,1.8,1.3,2.9,2c1.2,0.7,2.3,1.8,3.5,3c1.2,1.2,2.3,2.8,3.1,4.6c0.4,0.9,0.7,2,0.9,2.9
					c0.1,0.5,0.1,1.1,0.2,1.6c0,0.6,0,1.1-0.1,1.7c-0.1,0.6-0.2,1-0.3,1.7c-0.2,0.5-0.3,1-0.5,1.5c-0.4,1.1-0.8,2.1-1.3,3.1
					c-0.6,1-1.2,2-1.8,2.9c-0.6,0.9-1.3,1.8-2,2.7l-1.1,1.3c-0.2,0.2-0.3,0.4-0.6,0.7l-0.6,0.6c-0.8,0.8-1.6,1.5-2.4,2.2
					c-0.8,0.7-1.6,1.5-2.4,2.2c-0.8,0.7-1.7,1.3-2.5,2c-0.8,0.6-1.7,1.2-2.5,1.8c-0.9,0.6-1.7,1.1-2.5,1.6c-1.6,1-3.1,2.1-4.6,2.8
					C363,475.7,360.6,477,358.8,477.9z"/>
				
					<linearGradient id="SVGID_8_" gradientUnits="userSpaceOnUse" x1="1697.2712" y1="3154.5806" x2="1901.5482" y2="3154.5806" gradientTransform="matrix(-0.9987 5.130000e-02 -5.130000e-02 -0.9987 2077.7405 3457.1367)">
					<stop  offset="0" style="stop-color:#80D494"/>
					<stop  offset="0.9637" style="stop-color:#54C076"/>
				</linearGradient>
				<path class="st7" d="M224,456.1c0,0-3.4-1.7-9.2-4.6c-5.8-3-14.2-7.1-24.2-12.3c-10-5.1-21.6-11.2-34-17.7
					c-6.2-3.3-12.6-6.7-19.1-10.2c-6.5-3.5-13.1-7-19.7-10.6c-6.6-3.6-13.1-7.2-19.6-10.7c-6.4-3.6-12.8-7.1-18.9-10.5
					c-12.3-6.8-23.7-13.3-33.4-18.8c-9.8-5.6-17.8-10.3-23.5-13.6c-5.6-3.3-8.9-5.3-8.9-5.3s3.4,1.7,9.2,4.6
					c5.8,3,14.2,7.1,24.2,12.3c10,5.1,21.6,11.2,34,17.7c6.2,3.3,12.6,6.7,19.1,10.2c6.5,3.5,13.1,7,19.7,10.6
					c6.6,3.6,13.1,7.2,19.6,10.7c6.4,3.6,12.8,7.1,18.9,10.5c12.3,6.8,23.7,13.3,33.4,18.8c9.8,5.6,17.8,10.3,23.5,13.6
					C220.8,454.2,224,456.1,224,456.1z"/>
				<linearGradient id="SVGID_9_" gradientUnits="userSpaceOnUse" x1="118.5665" y1="471.8842" x2="118.5665" y2="341.8485">
					<stop  offset="0" style="stop-color:#80D494"/>
					<stop  offset="0.9637" style="stop-color:#54C076"/>
				</linearGradient>
				<polygon class="st8" points="13.1,358.1 220.8,471.9 224,456.1 13.6,341.8 				"/>
				
					<linearGradient id="SVGID_10_" gradientUnits="userSpaceOnUse" x1="1522.4326" y1="3126.2456" x2="1715.5946" y2="3126.2456" gradientTransform="matrix(-0.9987 5.130000e-02 -5.130000e-02 -0.9987 2077.7405 3457.1367)">
					<stop  offset="0" style="stop-color:#80D494"/>
					<stop  offset="0.9637" style="stop-color:#54C076"/>
				</linearGradient>
				<path class="st9" d="M398.4,441.4c0-0.1,0-0.2-0.1-0.5c-0.1-0.4-0.3-1-0.5-1.7c-0.3-0.7-0.7-1.6-1.1-2.6c-0.6-1-1.2-2.1-2-3.3
					c-0.9-1.1-1.9-2.4-3-3.8c-1.2-1.3-2.6-2.5-4-4c-0.7-0.7-1.5-1.4-2.4-2c-0.9-0.6-1.7-1.3-2.6-2c-0.9-0.7-1.8-1.4-2.8-2
					c-1-0.6-2.1-1.2-3.1-1.8c-2.2-1.2-4.3-2.7-6.8-3.7c-2.4-1.1-5-2.2-7.6-3.4c-2.6-1.1-5.4-2-8.2-3c-2.8-1-5.7-2.1-8.7-2.8
					c-3-0.8-6-1.6-9.1-2.4c-1.5-0.4-3.1-0.8-4.7-1.2c-1.6-0.3-3.2-0.6-4.8-0.9c-3.2-0.6-6.4-1.2-9.6-1.8c-1.6-0.3-3.2-0.6-4.9-0.9
					l-4.9-0.6c-3.3-0.4-6.5-0.8-9.8-1.2c-3.3-0.4-6.5-0.9-9.7-1c-6.5-0.4-12.8-0.8-19-1.2c-3.1-0.2-6.1-0.3-9.1-0.3
					c-3,0-5.9-0.1-8.7-0.1c-5.6-0.1-11-0.1-15.9-0.1c-9.8,0.3-18,0.8-23.8,1.1c-5.7,0.3-9,0.5-9,0.5
					C387.9,389.2,398,439.5,398.4,441.4z"/>
				
					<linearGradient id="SVGID_11_" gradientUnits="userSpaceOnUse" x1="1522.3844" y1="3160.9392" x2="1901.5564" y2="3160.9392" gradientTransform="matrix(-0.9987 5.130000e-02 -5.130000e-02 -0.9987 2077.7405 3457.1367)">
					<stop  offset="0" style="stop-color:#80D494"/>
					<stop  offset="0.9637" style="stop-color:#54C076"/>
				</linearGradient>
				<path class="st10" d="M398.3,440.9c0,0,0-1.7-0.1-4.8c-0.3-3.1-0.8-7.8-2.5-13.4c-1.8-5.6-4.9-12.2-9.7-18.8
					c-4.9-6.6-11.4-13.3-19.5-19.4c-4-3.1-8.4-6-13.1-8.8c-4.7-2.9-9.6-5.5-14.8-8.1c-10.4-5.1-21.8-9.6-33.8-13.6
					c-12-3.9-24.6-7.4-37.5-10.2c-12.9-2.9-26.2-5.3-39.5-7.2c-26.7-3.8-53.5-5.7-78.7-6.3c-25.2-0.6-48.8,0.5-68.9,2.1
					c-10,0.8-19.2,1.8-27.4,2.9c-8.1,1.1-15.2,2.2-21,3.2c-5.8,1-10.3,1.9-13.4,2.5c-3.1,0.6-4.7,1-4.7,1
					C164.8,311.4,398.9,344.2,398.3,440.9z"/>
			</g>
		</g>
	</g>
	<g>
		<g>
			<g>
				<linearGradient id="SVGID_12_" gradientUnits="userSpaceOnUse" x1="547.3969" y1="452.1278" x2="587.2785" y2="452.1278">
					<stop  offset="0" style="stop-color:#80D494"/>
					<stop  offset="0.9637" style="stop-color:#54C076"/>
				</linearGradient>
				<path class="st11" d="M571.4,425c0,0-17.3,28.9,15.9,54.3C587.3,479.3,509.3,449.6,571.4,425z"/>
				
					<linearGradient id="SVGID_13_" gradientUnits="userSpaceOnUse" x1="-552.7394" y1="448.2412" x2="-552.7394" y2="419.3652" gradientTransform="matrix(-1 0 0 1 14.5983 0)">
					<stop  offset="0" style="stop-color:#80D494"/>
					<stop  offset="0.9637" style="stop-color:#54C076"/>
				</linearGradient>
				<path class="st12" d="M571.4,425c0,0-17.3,28.9,15.9,54.3C587.3,479.3,509.3,449.6,571.4,425z"/>
				
					<linearGradient id="SVGID_14_" gradientUnits="userSpaceOnUse" x1="-721.2954" y1="435.9742" x2="-594.8566" y2="435.9742" gradientTransform="matrix(-1 0 0 1 14.5983 0)">
					<stop  offset="0" style="stop-color:#80D494"/>
					<stop  offset="0.9637" style="stop-color:#54C076"/>
				</linearGradient>
				<path class="st13" d="M742.4,394.1l-1,12.2c-1.2-0.1-121.3-9.7-176.1,23.2c0,0-4,2.5-6.4,4.6c-2.4,2.2-4.9,5.1-5.7,8.6
					c-0.4,1.8-0.5,3.7,0,5.7c0.5,2,1.3,4.1,2.6,6.1c1.2,2,2.8,3.9,4.4,5.7c1.7,1.7,3.4,3.4,5.3,4.9c1.8,1.6,3.7,2.9,5.4,4.2
					c1.8,1.2,3.6,2.4,5.1,3.5c3.3,2,6,3.7,8,4.8c2,1.1,3.1,1.8,3.1,1.8s-1.2-0.5-3.3-1.3c-2.1-0.8-5.1-2-8.7-3.6
					c-1.8-0.8-3.7-1.8-5.7-2.7c-2-1.1-4.1-2.1-6.2-3.5c-2.1-1.3-4.3-2.8-6.4-4.4c-2.1-1.7-4.1-3.5-6-5.7c-1.9-2.1-3.4-4.7-4.6-7.5
					c-1.1-2.8-1.6-6-1.3-9.1c0.3-3,1.2-5.9,2.4-8.3c1.2-2.4,2.7-4.4,4.1-6.2c2.9-3.5,5.7-5.8,7.8-7.3c0,0,0.1,0,0.1-0.1
					c0,0,1.3-1,2-1.4c0.1-0.1,0.2-0.2,0.3-0.2c0.6-0.4,1-0.5,1-0.5c52.3-28.8,148.3-25.2,173.6-23.7
					C739.7,393.9,741.8,394,742.4,394.1z"/>
				<linearGradient id="SVGID_15_" gradientUnits="userSpaceOnUse" x1="544.7032" y1="343.2773" x2="929.7615" y2="343.2773">
					<stop  offset="0" style="stop-color:#80D494"/>
					<stop  offset="0.9637" style="stop-color:#54C076"/>
				</linearGradient>
				<path class="st14" d="M746.2,230.5l12.5,54.3c0,0-223.5,17.8-213.7,156.7c0,0,0-0.2,0.1-0.4c1.2-5.1,17-51.6,195.7-46.3
					l-21.5,61.4l210.4-114.2L746.2,230.5z"/>
				
					<linearGradient id="SVGID_16_" gradientUnits="userSpaceOnUse" x1="-915.1589" y1="335.9743" x2="-530.1012" y2="335.9743" gradientTransform="matrix(-1 0 0 1 14.5983 0)">
					<stop  offset="0" style="stop-color:#80D494"/>
					<stop  offset="0.9637" style="stop-color:#54C076"/>
				</linearGradient>
				<path class="st15" d="M545,441.5c0,0,0-0.2,0.1-0.5l0-0.1c-0.6-96.7,233.5-129.5,384.6-99c0,0,0,0,0,0c0,0-0.2-0.1-0.3-0.2
					c0,0-0.1,0-0.2-0.1v0c-0.1-0.1-0.2-0.1-0.3-0.2L747,231c-0.1-0.1-0.2-0.1-0.3-0.2v0l-0.2-0.1c-0.1,0-0.2-0.1-0.2-0.1
					c0,0-0.1,0-0.1-0.1c0,0,0,0,0,0l12.5,54.3C758.7,284.8,535.3,302.6,545,441.5z"/>
				
					<linearGradient id="SVGID_17_" gradientUnits="userSpaceOnUse" x1="-914.793" y1="286.3027" x2="-732.4241" y2="286.3027" gradientTransform="matrix(-1 0 0 1 14.5983 0)">
					<stop  offset="0" style="stop-color:#80D494"/>
					<stop  offset="0.9637" style="stop-color:#54C076"/>
				</linearGradient>
				<path class="st16" d="M928.9,341.3L747,231c1.2,0.8,3.6,2.3,7,4.4c5,3.1,12.1,7.6,20.6,12.9c8.6,5.3,18.5,11.5,29.2,18.1
					C814.6,273,826,280,837.4,287c11.5,6.9,23,13.8,33.8,20.3c10.8,6.4,20.9,12.4,29.6,17.6c8.7,5.1,15.9,9.3,21,12.3
					c3.8,2.2,6.4,3.7,7.5,4.3c0.1,0,0.1,0.1,0.2,0.1c0,0-0.1-0.1-0.2-0.1C929.1,341.4,929,341.4,928.9,341.3z"/>
				
					<linearGradient id="SVGID_18_" gradientUnits="userSpaceOnUse" x1="2457.4299" y1="3134.1909" x2="2493.9175" y2="3134.1909" gradientTransform="matrix(0.9987 5.130000e-02 5.130000e-02 -0.9987 -2063.1421 3457.1367)">
					<stop  offset="0" style="stop-color:#80D494"/>
					<stop  offset="0.9637" style="stop-color:#54C076"/>
				</linearGradient>
				<path class="st17" d="M584.5,477.9c1.3,0.7,2.1,1.1,2.5,1.3c-0.4-0.2-1.4-0.8-2.9-1.7c-2-1.1-4.8-2.8-8.1-4.8
					c-1.6-1.1-3.3-2.3-5.1-3.5c-1.7-1.4-3.7-2.7-5.4-4.2c-1.8-1.5-3.6-3.2-5.3-4.9c-1.6-1.8-3.2-3.7-4.4-5.7c-1.3-2-2.1-4.1-2.6-6.1
					c-0.5-2-0.4-3.9,0-5.7c0.8-3.5,3.3-6.4,5.7-8.6c2-1.8,5.4-4,6.2-4.5c0.1,0,0.1-0.1,0.1-0.1c-0.1,0.1-0.3,0.2-0.6,0.4
					c-0.4,0.3-1.1,0.6-1.9,1.2c-0.8,0.6-1.8,1.3-2.9,2c-1.2,0.7-2.3,1.8-3.5,3c-1.2,1.2-2.3,2.8-3.1,4.6c-0.4,0.9-0.7,2-0.9,2.9
					c-0.1,0.5-0.1,1.1-0.2,1.6c0,0.6,0,1.1,0.1,1.7c0.1,0.6,0.2,1,0.3,1.7c0.2,0.5,0.3,1,0.5,1.5c0.4,1.1,0.8,2.1,1.3,3.1
					c0.6,1,1.2,2,1.8,2.9c0.6,0.9,1.3,1.8,2,2.7l1.1,1.3c0.2,0.2,0.3,0.4,0.6,0.7l0.6,0.6c0.8,0.8,1.6,1.5,2.4,2.2
					c0.8,0.7,1.6,1.5,2.4,2.2c0.8,0.7,1.7,1.3,2.5,2c0.8,0.6,1.7,1.2,2.5,1.8c0.9,0.6,1.7,1.1,2.5,1.6c1.6,1,3.1,2.1,4.6,2.8
					C580.4,475.7,582.8,477,584.5,477.9z"/>
				
					<linearGradient id="SVGID_19_" gradientUnits="userSpaceOnUse" x1="2624.8186" y1="3202.2256" x2="2829.0957" y2="3202.2256" gradientTransform="matrix(0.9987 5.130000e-02 5.130000e-02 -0.9987 -2063.1421 3457.1367)">
					<stop  offset="0" style="stop-color:#80D494"/>
					<stop  offset="0.9637" style="stop-color:#54C076"/>
				</linearGradient>
				<path class="st18" d="M719.3,456.1c0,0,3.4-1.7,9.2-4.6c5.8-3,14.2-7.1,24.2-12.3c10-5.1,21.6-11.2,34-17.7
					c6.2-3.3,12.6-6.7,19.1-10.2c6.5-3.5,13.1-7,19.7-10.6c6.6-3.6,13.1-7.2,19.6-10.7c6.4-3.6,12.8-7.1,18.9-10.5
					c12.3-6.8,23.7-13.3,33.4-18.8c9.8-5.6,17.8-10.3,23.5-13.6c5.6-3.3,8.9-5.3,8.9-5.3s-3.4,1.7-9.2,4.6
					c-5.8,3-14.2,7.1-24.2,12.3c-10,5.1-21.6,11.2-34,17.7c-6.2,3.3-12.6,6.7-19.1,10.2c-6.5,3.5-13.1,7-19.7,10.6
					c-6.6,3.6-13.1,7.2-19.6,10.7c-6.4,3.6-12.8,7.1-18.9,10.5c-12.3,6.8-23.7,13.3-33.4,18.8c-9.8,5.6-17.8,10.3-23.5,13.6
					C722.6,454.2,719.3,456.1,719.3,456.1z"/>
				
					<linearGradient id="SVGID_20_" gradientUnits="userSpaceOnUse" x1="-810.2194" y1="471.8842" x2="-810.2194" y2="341.8485" gradientTransform="matrix(-1 0 0 1 14.5983 0)">
					<stop  offset="0" style="stop-color:#80D494"/>
					<stop  offset="0.9637" style="stop-color:#54C076"/>
				</linearGradient>
				<polygon class="st19" points="930.3,358.1 722.6,471.9 719.3,456.1 929.8,341.8 				"/>
				
					<linearGradient id="SVGID_21_" gradientUnits="userSpaceOnUse" x1="2449.98" y1="3173.8906" x2="2643.1421" y2="3173.8906" gradientTransform="matrix(0.9987 5.130000e-02 5.130000e-02 -0.9987 -2063.1421 3457.1367)">
					<stop  offset="0" style="stop-color:#80D494"/>
					<stop  offset="0.9637" style="stop-color:#54C076"/>
				</linearGradient>
				<path class="st20" d="M545,441.4c0-0.1,0-0.2,0.1-0.5c0.1-0.4,0.3-1,0.5-1.7c0.3-0.7,0.7-1.6,1.1-2.6c0.6-1,1.2-2.1,2-3.3
					c0.9-1.1,1.9-2.4,3-3.8c1.2-1.3,2.6-2.5,4-4c0.7-0.7,1.5-1.4,2.4-2c0.9-0.6,1.7-1.3,2.6-2c0.9-0.7,1.8-1.4,2.8-2
					c1-0.6,2.1-1.2,3.1-1.8c2.2-1.2,4.3-2.7,6.8-3.7c2.4-1.1,5-2.2,7.6-3.4c2.6-1.1,5.4-2,8.2-3c2.8-1,5.7-2.1,8.7-2.8
					c3-0.8,6-1.6,9.1-2.4c1.5-0.4,3.1-0.8,4.7-1.2c1.6-0.3,3.2-0.6,4.8-0.9c3.2-0.6,6.4-1.2,9.6-1.8c1.6-0.3,3.2-0.6,4.9-0.9
					l4.9-0.6c3.3-0.4,6.5-0.8,9.8-1.2c3.3-0.4,6.5-0.9,9.7-1c6.5-0.4,12.8-0.8,19-1.2c3.1-0.2,6.1-0.3,9.1-0.3c3,0,5.9-0.1,8.7-0.1
					c5.6-0.1,11-0.1,15.9-0.1c9.8,0.3,18,0.8,23.8,1.1c5.7,0.3,9,0.5,9,0.5C555.5,389.2,545.3,439.5,545,441.4z"/>
				
					<linearGradient id="SVGID_22_" gradientUnits="userSpaceOnUse" x1="2449.9319" y1="3208.5845" x2="2829.1038" y2="3208.5845" gradientTransform="matrix(0.9987 5.130000e-02 5.130000e-02 -0.9987 -2063.1421 3457.1367)">
					<stop  offset="0" style="stop-color:#80D494"/>
					<stop  offset="0.9637" style="stop-color:#54C076"/>
				</linearGradient>
				<path class="st21" d="M545.1,440.9c0,0,0-1.7,0.1-4.8c0.3-3.1,0.8-7.8,2.5-13.4c1.8-5.6,4.9-12.2,9.7-18.8
					c4.9-6.6,11.4-13.3,19.5-19.4c4-3.1,8.4-6,13.1-8.8c4.7-2.9,9.6-5.5,14.8-8.1c10.4-5.1,21.8-9.6,33.8-13.6
					c12-3.9,24.6-7.4,37.5-10.2c12.9-2.9,26.2-5.3,39.5-7.2c26.7-3.8,53.5-5.7,78.7-6.3c25.2-0.6,48.8,0.5,68.9,2.1
					c10,0.8,19.2,1.8,27.4,2.9c8.1,1.1,15.2,2.2,21,3.2c5.8,1,10.3,1.9,13.4,2.5c3.1,0.6,4.7,1,4.7,1
					C778.6,311.4,544.5,344.2,545.1,440.9z"/>
			</g>
		</g>
	</g>
	<g>
		<g>
			<g>
				<linearGradient id="SVGID_23_" gradientUnits="userSpaceOnUse" x1="363.8013" y1="159.1992" x2="488.8593" y2="159.1992">
					<stop  offset="0" style="stop-color:#80D494"/>
					<stop  offset="0.9637" style="stop-color:#54C076"/>
				</linearGradient>
				<polygon class="st22" points="488.9,56.7 473.7,56.7 363.8,261.7 378.7,261.7 				"/>
				
					<linearGradient id="SVGID_24_" gradientUnits="userSpaceOnUse" x1="-123.8973" y1="-154.1081" x2="-123.8973" y2="-279.1661" gradientTransform="matrix(0 1 -1 0 209.6932 283.0966)">
					<stop  offset="0" style="stop-color:#80D494"/>
					<stop  offset="0.9637" style="stop-color:#54C076"/>
				</linearGradient>
				<polygon class="st23" points="488.9,56.7 473.7,56.7 363.8,261.7 378.7,261.7 				"/>
				
					<linearGradient id="SVGID_25_" gradientUnits="userSpaceOnUse" x1="82.9918" y1="-169.0449" x2="82.9918" y2="-232.0805" gradientTransform="matrix(0 1 -1 0 209.6932 283.0966)">
					<stop  offset="0" style="stop-color:#80D494"/>
					<stop  offset="0.9637" style="stop-color:#54C076"/>
				</linearGradient>
				<path class="st24" d="M441.8,395.1c0-38.7-1.5-151.6-1.5-151.6l-11.5,3.4c0,15.9,0,58.3,0,116.3c0,66.1-0.9,111-50,125.3
					C378.7,488.5,441.8,496.7,441.8,395.1z"/>
				
					<linearGradient id="SVGID_26_" gradientUnits="userSpaceOnUse" x1="-31.2442" y1="-318.6596" x2="-31.2442" y2="-379.4142" gradientTransform="matrix(0 1 -1 0 209.6932 283.0966)">
					<stop  offset="0" style="stop-color:#80D494"/>
					<stop  offset="0.9637" style="stop-color:#54C076"/>
				</linearGradient>
				<polygon class="st25" points="589.1,263.2 558.6,263.2 528.4,252.1 528.4,240.5 				"/>
				<linearGradient id="SVGID_27_" gradientUnits="userSpaceOnUse" x1="378.7429" y1="282.9595" x2="589.1074" y2="282.9595">
					<stop  offset="0" style="stop-color:#80D494"/>
					<stop  offset="0.9637" style="stop-color:#54C076"/>
				</linearGradient>
				<path class="st26" d="M378.7,488.5c0,0,63,8.2,63-93.4c0-36-1.3-132.9-1.5-149.7c0-0.2,0-0.4,0-0.5v-1.4l-1.3,0.4l-0.5,0.2
					l-59.7,17.7L488.9,56.7l100.2,206.6l-60.8-22.8c0,0,0,46.8,0,156.2C528.3,528.6,434.4,522.5,378.7,488.5z"/>
				
					<linearGradient id="SVGID_28_" gradientUnits="userSpaceOnUse" x1="-226.4247" y1="-224.1079" x2="-21.37" y2="-224.1079" gradientTransform="matrix(0 1 -1 0 209.6932 283.0966)">
					<stop  offset="0" style="stop-color:#80D494"/>
					<stop  offset="0.9637" style="stop-color:#54C076"/>
				</linearGradient>
				<path class="st27" d="M378.7,261.7c0,0,1.9-3.1,5.1-8.6c3.2-5.5,7.8-13.3,13.2-22.8c5.4-9.5,11.7-20.6,18.3-32.5
					c3.3-6,6.7-12.2,10.1-18.4c3.4-6.3,6.9-12.7,10.3-19.1c3.4-6.4,6.8-12.8,10.2-19.2c3.3-6.3,6.6-12.6,9.8-18.6
					c6.3-12.1,12.1-23.4,17-33.2c4.9-9.7,8.9-17.9,11.7-23.6c2.8-5.7,4.3-9,4.3-9L378.7,261.7C378.8,261.7,378.7,261.7,378.7,261.7z
					"/>
				
					<linearGradient id="SVGID_29_" gradientUnits="userSpaceOnUse" x1="-226.4364" y1="-274.255" x2="226.162" y2="-274.255" gradientTransform="matrix(0 1 -1 0 209.6932 283.0966)">
					<stop  offset="0" style="stop-color:#80D494"/>
					<stop  offset="0.9637" style="stop-color:#54C076"/>
				</linearGradient>
				<path class="st28" d="M380.6,489.6c-0.2-0.1-0.4-0.3-0.6-0.4c-0.2-0.1-0.4-0.2-0.6-0.4c-0.1-0.1-0.2-0.1-0.3-0.2v0
					c0,0-0.1,0-0.1,0c0,0-0.1-0.1-0.2-0.1c70.1,20.7,110.1-22.2,110.1-105.7c0-149.6,0-326.1,0-326.1s0,0,0,0c0,0,0,0.1,0,0.1
					L589,263.1c0,0.1,0,0.1,0,0.1c0,0,0,0,0,0l-58.9-22.1l-0.6-0.2l-1.2-0.4c0,0,0,0.4,0,1.3v154.9
					C528.3,527.1,436.5,522.7,380.6,489.6z"/>
				
					<linearGradient id="SVGID_30_" gradientUnits="userSpaceOnUse" x1="-45.303" y1="-347.8943" x2="113.5232" y2="-347.8943" gradientTransform="matrix(0 1 -1 0 209.6932 283.0966)">
					<stop  offset="0" style="stop-color:#80D494"/>
					<stop  offset="0.9637" style="stop-color:#54C076"/>
				</linearGradient>
				<path class="st29" d="M528.3,396.6c-0.4-7.6-0.6-15.2-0.8-22.8c-0.3-7.6-0.5-15.2-0.6-22.8c-0.3-15.2-0.5-4.3-0.7-19.5
					l-0.1-22.8c0-7.6,0-15.2,0-22.8l0.1-22.8l0.3-22.8l0-2.7l2.4,1c10.1,3.9,20.1,8,30.1,12c10,4.1,20.1,8.2,30,12.5l-58.9-22.1
					l-0.6-0.2l-1.2-0.4c0,0,0,0.4,0,1.3V396.6z"/>
				
					<linearGradient id="SVGID_31_" gradientUnits="userSpaceOnUse" x1="-226.4247" y1="-224.6773" x2="210.8379" y2="-224.6773" gradientTransform="matrix(0 1 -1 0 209.6932 283.0966)">
					<stop  offset="0" style="stop-color:#80D494"/>
					<stop  offset="0.9637" style="stop-color:#54C076"/>
				</linearGradient>
				<path class="st30" d="M378.7,488.5c0,0,2,0.5,5.8,1.5c1.9,0.5,4.3,0.9,7.1,1.5c2.8,0.4,6,1,9.7,1.3c1.8,0.2,3.8,0.3,5.8,0.4
					c2,0.1,4.1,0.1,6.4,0c2.2,0,4.5-0.3,6.9-0.5c2.3-0.4,4.8-0.6,7.3-1.3c10-2,20.7-7,30-15.4c9.2-8.4,16.5-20.3,21.3-33.8
					c4.9-13.5,7.4-28.6,8.4-44.2c0.5-7.8,0.5-15.8,0.4-23.9c0-8.1,0-16.3,0-24.6c0-16.5-0.1-7.2-0.1-24.1c0-33.6,0.1-67.2,0.1-98.7
					c0.1-31.5,0.2-60.9,0.3-86.1c0.4-50.4,0.6-84,0.6-84s0.3,33.6,0.6,84c0.1,25.2,0.2,54.6,0.3,86.1c0,31.5,0.1,65.1,0.2,98.7
					c0,16.8-0.1,7.5-0.1,24.1c0,8.3,0,16.5,0,24.6c0,8.1,0,16.2-0.5,24.1c-1.1,15.8-3.8,31-8.8,44.7c-5,13.6-12.5,25.6-22,34.2
					c-9.5,8.6-20.5,13.4-30.6,15.3c-2.5,0.6-5,0.8-7.4,1.1c-2.4,0.1-4.7,0.4-6.9,0.4c-2.2,0-4.4,0-6.4-0.1c-2-0.1-4-0.2-5.8-0.5
					c-3.7-0.4-6.9-1-9.7-1.5c-2.8-0.6-5.2-1.1-7.1-1.6C380.8,489.1,378.7,488.5,378.7,488.5z"/>
				
					<linearGradient id="SVGID_32_" gradientUnits="userSpaceOnUse" x1="-226.2776" y1="-329.3132" x2="-19.9001" y2="-329.3132" gradientTransform="matrix(0 1 -1 0 209.6932 283.0966)">
					<stop  offset="0" style="stop-color:#80D494"/>
					<stop  offset="0.9637" style="stop-color:#54C076"/>
				</linearGradient>
				<path class="st31" d="M589.1,263.2c-0.2-0.4-1.9-3.4-4.7-8.6c-2.9-5.6-7.2-13.4-12.1-23c-5-9.6-10.7-20.8-16.7-32.8
					c-3-6-6.1-12.3-9.2-18.6c-3.1-6.4-6.2-12.8-9.4-19.2c-3.1-6.5-6.2-12.9-9.3-19.3c-3-6.4-6-12.7-8.9-18.7
					c-5.7-12.2-11-23.6-15.4-33.4c-4.5-9.8-8-18-10.6-23.8c-2.2-5-3.6-8.2-3.9-8.9L589,263.1C589.1,263.2,589.1,263.2,589.1,263.2z"
					/>
				
					<linearGradient id="SVGID_33_" gradientUnits="userSpaceOnUse" x1="113.5232" y1="-243.9521" x2="226.162" y2="-243.9521" gradientTransform="matrix(0 1 -1 0 209.6932 283.0966)">
					<stop  offset="0" style="stop-color:#80D494"/>
					<stop  offset="0.9637" style="stop-color:#54C076"/>
				</linearGradient>
				<path class="st32" d="M380.6,489.6c-0.2-0.1-0.4-0.3-0.6-0.4c-0.2-0.1-0.4-0.2-0.6-0.4c-0.1-0.1-0.2-0.1-0.3-0.2
					c0,0-0.1-0.1-0.1-0.1c0,0,0.1,0,0.1,0c0.4,0.2,1,0.6,1.9,1.1c1.5,0.8,3.6,2,6.4,3.4c1.4,0.7,3,1.5,4.7,2.3
					c1.7,0.8,3.6,1.6,5.6,2.4c2,0.8,4.2,1.7,6.5,2.5c2.3,0.9,4.7,1.7,7.3,2.4c2.5,0.9,5.3,1.5,8,2.2c2.8,0.5,5.7,1.3,8.7,1.7
					c6,1,12.5,1.6,19.1,1.5c6.6-0.1,13.5-0.7,20.3-2.5c6.7-1.7,13.3-4.5,19.3-8.2c6-3.7,11.5-8.3,15.9-13.6
					c4.4-5.3,8.3-11,11.1-17.1c1.6-2.9,2.7-6,4-9c1.2-3,2.1-6,3.1-8.9c0.8-2.9,1.5-5.8,2.3-8.6c0.6-2.8,1.1-5.6,1.6-8.2
					c0.6-2.6,0.8-5.2,1.2-7.6c0.3-2.4,0.7-4.7,0.9-6.9c0.3-4.3,0.8-8.1,0.9-11.3c0.3-6.3,0.4-9.8,0.4-9.8
					C528.3,527.1,436.5,522.7,380.6,489.6z"/>
				
					<linearGradient id="SVGID_34_" gradientUnits="userSpaceOnUse" x1="-40.1223" y1="-230.3381" x2="-21.8946" y2="-171.8099" gradientTransform="matrix(0 1 -1 0 209.6932 283.0966)">
					<stop  offset="0" style="stop-color:#80D494"/>
					<stop  offset="0.9637" style="stop-color:#54C076"/>
				</linearGradient>
				<polygon class="st33" points="378.7,261.7 439.9,242.4 440.3,243.5 438.9,243.9 438.4,244 				"/>
			</g>
		</g>
	</g>
</g>
<g>
</g>
<g>
</g>
<g>
</g>
<g>
</g>
<g>
</g>
<g>
</g>
<g>
</g>
<g>
</g>
<g>
</g>
<g>
</g>
<g>
</g>
<g>
</g>
<g>
</g>
<g>
</g>
<g>
</g>
</svg>
